{
    "header": {
      "PPQ": 384,
      "timeSignature": [
        6,
        4
      ],
      "bpm": 200,
      "name": "control track"
    },
    "startTime": 0,
    "duration": 82.80000000000022,
    "tracks": [
      {
        "startTime": 0,
        "duration": 0,
        "length": 0,
        "notes": [],
        "controlChanges": {},
        "id": 0,
        "name": "control track"
      },
      {
        "startTime": 0,
        "duration": 82.79999999999988,
        "length": 307,
        "notes": [
          {
            "name": "E4",
            "midi": 64,
            "time": 0,
            "velocity": 0.8346456692913385,
            "duration": 0.3
          },
          {
            "name": "A3",
            "midi": 57,
            "time": 0.3,
            "velocity": 0.8346456692913385,
            "duration": 0.3
          },
          {
            "name": "C4",
            "midi": 60,
            "time": 0.6,
            "velocity": 0.8346456692913385,
            "duration": 0.15000000000000002
          },
          {
            "name": "D4",
            "midi": 62,
            "time": 0.75,
            "velocity": 0.8346456692913385,
            "duration": 0.15000000000000002
          },
          {
            "name": "E4",
            "midi": 64,
            "time": 0.9,
            "velocity": 0.8346456692913385,
            "duration": 0.29999999999999993
          },
          {
            "name": "A3",
            "midi": 57,
            "time": 1.2,
            "velocity": 0.8346456692913385,
            "duration": 0.30000000000000004
          },
          {
            "name": "C4",
            "midi": 60,
            "time": 1.5,
            "velocity": 0.8346456692913385,
            "duration": 0.1499999999999999
          },
          {
            "name": "D4",
            "midi": 62,
            "time": 1.65,
            "velocity": 0.8346456692913385,
            "duration": 0.1499999999999999
          },
          {
            "name": "E4",
            "midi": 64,
            "time": 1.7999999999999998,
            "velocity": 0.8346456692913385,
            "duration": 0.2999999999999998
          },
          {
            "name": "A3",
            "midi": 57,
            "time": 2.0999999999999996,
            "velocity": 0.8346456692913385,
            "duration": 0.2999999999999998
          },
          {
            "name": "C4",
            "midi": 60,
            "time": 2.3999999999999995,
            "velocity": 0.8346456692913385,
            "duration": 0.1499999999999999
          },
          {
            "name": "D4",
            "midi": 62,
            "time": 2.5499999999999994,
            "velocity": 0.8346456692913385,
            "duration": 0.1499999999999999
          },
          {
            "name": "E4",
            "midi": 64,
            "time": 2.6999999999999993,
            "velocity": 0.8346456692913385,
            "duration": 0.2999999999999998
          },
          {
            "name": "A3",
            "midi": 57,
            "time": 2.999999999999999,
            "velocity": 0.8346456692913385,
            "duration": 0.2999999999999998
          },
          {
            "name": "C4",
            "midi": 60,
            "time": 3.299999999999999,
            "velocity": 0.8346456692913385,
            "duration": 0.1499999999999999
          },
          {
            "name": "D4",
            "midi": 62,
            "time": 3.449999999999999,
            "velocity": 0.8346456692913385,
            "duration": 0.1499999999999999
          },
          {
            "name": "E4",
            "midi": 64,
            "time": 3.5999999999999988,
            "velocity": 0.8346456692913385,
            "duration": 0.2999999999999998
          },
          {
            "name": "A3",
            "midi": 57,
            "time": 3.8999999999999986,
            "velocity": 0.8346456692913385,
            "duration": 0.2999999999999998
          },
          {
            "name": "C#4",
            "midi": 61,
            "time": 4.199999999999998,
            "velocity": 0.8346456692913385,
            "duration": 0.15000000000000036
          },
          {
            "name": "D4",
            "midi": 62,
            "time": 4.349999999999999,
            "velocity": 0.8346456692913385,
            "duration": 0.15000000000000036
          },
          {
            "name": "E4",
            "midi": 64,
            "time": 4.499999999999999,
            "velocity": 0.8346456692913385,
            "duration": 0.2999999999999998
          },
          {
            "name": "A3",
            "midi": 57,
            "time": 4.799999999999999,
            "velocity": 0.8346456692913385,
            "duration": 0.2999999999999998
          },
          {
            "name": "C#4",
            "midi": 61,
            "time": 5.099999999999999,
            "velocity": 0.8346456692913385,
            "duration": 0.15000000000000036
          },
          {
            "name": "D4",
            "midi": 62,
            "time": 5.249999999999999,
            "velocity": 0.8346456692913385,
            "duration": 0.15000000000000036
          },
          {
            "name": "E4",
            "midi": 64,
            "time": 5.3999999999999995,
            "velocity": 0.8346456692913385,
            "duration": 0.2999999999999998
          },
          {
            "name": "A3",
            "midi": 57,
            "time": 5.699999999999999,
            "velocity": 0.8346456692913385,
            "duration": 0.2999999999999998
          },
          {
            "name": "C#4",
            "midi": 61,
            "time": 5.999999999999999,
            "velocity": 0.8346456692913385,
            "duration": 0.15000000000000036
          },
          {
            "name": "D4",
            "midi": 62,
            "time": 6.1499999999999995,
            "velocity": 0.8346456692913385,
            "duration": 0.15000000000000036
          },
          {
            "name": "E4",
            "midi": 64,
            "time": 6.3,
            "velocity": 0.8346456692913385,
            "duration": 0.2999999999999998
          },
          {
            "name": "A3",
            "midi": 57,
            "time": 6.6,
            "velocity": 0.8346456692913385,
            "duration": 0.2999999999999998
          },
          {
            "name": "C#4",
            "midi": 61,
            "time": 6.8999999999999995,
            "velocity": 0.8346456692913385,
            "duration": 0.15000000000000036
          },
          {
            "name": "D4",
            "midi": 62,
            "time": 7.05,
            "velocity": 0.8346456692913385,
            "duration": 0.15000000000000036
          },
          {
            "name": "E4",
            "midi": 64,
            "time": 7.2,
            "velocity": 0.8346456692913385,
            "duration": 0.8999999999999995
          },
          {
            "name": "A3",
            "midi": 57,
            "time": 8.1,
            "velocity": 0.8346456692913385,
            "duration": 0.9000000000000004
          },
          {
            "name": "C4",
            "midi": 60,
            "time": 9,
            "velocity": 0.8346456692913385,
            "duration": 0.15000000000000036
          },
          {
            "name": "D4",
            "midi": 62,
            "time": 9.15,
            "velocity": 0.8346456692913385,
            "duration": 0.15000000000000036
          },
          {
            "name": "E4",
            "midi": 64,
            "time": 9.3,
            "velocity": 0.8346456692913385,
            "duration": 0.5999999999999996
          },
          {
            "name": "A3",
            "midi": 57,
            "time": 9.9,
            "velocity": 0.8346456692913385,
            "duration": 0.5999999999999996
          },
          {
            "name": "C4",
            "midi": 60,
            "time": 10.5,
            "velocity": 0.8346456692913385,
            "duration": 0.15000000000000036
          },
          {
            "name": "D4",
            "midi": 62,
            "time": 10.65,
            "velocity": 0.8346456692913385,
            "duration": 0.15000000000000036
          },
          {
            "name": "B3",
            "midi": 59,
            "time": 10.8,
            "velocity": 0.8346456692913385,
            "duration": 0.3000000000000007
          },
          {
            "name": "E3",
            "midi": 52,
            "time": 11.100000000000001,
            "velocity": 0.8346456692913385,
            "duration": 0.3000000000000007
          },
          {
            "name": "G3",
            "midi": 55,
            "time": 11.400000000000002,
            "velocity": 0.8346456692913385,
            "duration": 0.15000000000000036
          },
          {
            "name": "A3",
            "midi": 57,
            "time": 11.550000000000002,
            "velocity": 0.8346456692913385,
            "duration": 0.15000000000000036
          },
          {
            "name": "B3",
            "midi": 59,
            "time": 11.700000000000003,
            "velocity": 0.8346456692913385,
            "duration": 0.3000000000000007
          },
          {
            "name": "E3",
            "midi": 52,
            "time": 12.000000000000004,
            "velocity": 0.8346456692913385,
            "duration": 0.3000000000000007
          },
          {
            "name": "G3",
            "midi": 55,
            "time": 12.300000000000004,
            "velocity": 0.8346456692913385,
            "duration": 0.15000000000000036
          },
          {
            "name": "A3",
            "midi": 57,
            "time": 12.450000000000005,
            "velocity": 0.8346456692913385,
            "duration": 0.15000000000000036
          },
          {
            "name": "B3",
            "midi": 59,
            "time": 12.600000000000005,
            "velocity": 0.8346456692913385,
            "duration": 0.3000000000000007
          },
          {
            "name": "E3",
            "midi": 52,
            "time": 12.900000000000006,
            "velocity": 0.8346456692913385,
            "duration": 0.3000000000000007
          },
          {
            "name": "G3",
            "midi": 55,
            "time": 13.200000000000006,
            "velocity": 0.8346456692913385,
            "duration": 0.15000000000000036
          },
          {
            "name": "A3",
            "midi": 57,
            "time": 13.350000000000007,
            "velocity": 0.8346456692913385,
            "duration": 0.15000000000000036
          },
          {
            "name": "B3",
            "midi": 59,
            "time": 13.500000000000007,
            "velocity": 0.8346456692913385,
            "duration": 0.3000000000000007
          },
          {
            "name": "E3",
            "midi": 52,
            "time": 13.800000000000008,
            "velocity": 0.8346456692913385,
            "duration": 0.3000000000000007
          },
          {
            "name": "G3",
            "midi": 55,
            "time": 14.100000000000009,
            "velocity": 0.8346456692913385,
            "duration": 0.15000000000000036
          },
          {
            "name": "A3",
            "midi": 57,
            "time": 14.250000000000009,
            "velocity": 0.8346456692913385,
            "duration": 0.15000000000000036
          },
          {
            "name": "D4",
            "midi": 62,
            "time": 14.40000000000001,
            "velocity": 0.8346456692913385,
            "duration": 0.9000000000000004
          },
          {
            "name": "G3",
            "midi": 55,
            "time": 15.30000000000001,
            "velocity": 0.8346456692913385,
            "duration": 0.9000000000000004
          },
          {
            "name": "C4",
            "midi": 60,
            "time": 16.20000000000001,
            "velocity": 0.8346456692913385,
            "duration": 0.14999999999999858
          },
          {
            "name": "B3",
            "midi": 59,
            "time": 16.35000000000001,
            "velocity": 0.8346456692913385,
            "duration": 0.14999999999999858
          },
          {
            "name": "D4",
            "midi": 62,
            "time": 16.500000000000007,
            "velocity": 0.8346456692913385,
            "duration": 0.6000000000000014
          },
          {
            "name": "G3",
            "midi": 55,
            "time": 17.10000000000001,
            "velocity": 0.8346456692913385,
            "duration": 0.6000000000000014
          },
          {
            "name": "C4",
            "midi": 60,
            "time": 17.70000000000001,
            "velocity": 0.8346456692913385,
            "duration": 0.14999999999999858
          },
          {
            "name": "B3",
            "midi": 59,
            "time": 17.85000000000001,
            "velocity": 0.8346456692913385,
            "duration": 0.14999999999999858
          },
          {
            "name": "A3",
            "midi": 57,
            "time": 18.000000000000007,
            "velocity": 0.8346456692913385,
            "duration": 0.3000000000000007
          },
          {
            "name": "D3",
            "midi": 50,
            "time": 18.300000000000008,
            "velocity": 0.8346456692913385,
            "duration": 0.3000000000000007
          },
          {
            "name": "F3",
            "midi": 53,
            "time": 18.60000000000001,
            "velocity": 0.8346456692913385,
            "duration": 0.14999999999999858
          },
          {
            "name": "G3",
            "midi": 55,
            "time": 18.750000000000007,
            "velocity": 0.8346456692913385,
            "duration": 0.14999999999999858
          },
          {
            "name": "A3",
            "midi": 57,
            "time": 18.900000000000006,
            "velocity": 0.8346456692913385,
            "duration": 0.3000000000000007
          },
          {
            "name": "D3",
            "midi": 50,
            "time": 19.200000000000006,
            "velocity": 0.8346456692913385,
            "duration": 0.3000000000000007
          },
          {
            "name": "F3",
            "midi": 53,
            "time": 19.500000000000007,
            "velocity": 0.8346456692913385,
            "duration": 0.14999999999999858
          },
          {
            "name": "G3",
            "midi": 55,
            "time": 19.650000000000006,
            "velocity": 0.8346456692913385,
            "duration": 0.14999999999999858
          },
          {
            "name": "A3",
            "midi": 57,
            "time": 19.800000000000004,
            "velocity": 0.8346456692913385,
            "duration": 0.3000000000000007
          },
          {
            "name": "D3",
            "midi": 50,
            "time": 20.100000000000005,
            "velocity": 0.8346456692913385,
            "duration": 0.3000000000000007
          },
          {
            "name": "F3",
            "midi": 53,
            "time": 20.400000000000006,
            "velocity": 0.8346456692913385,
            "duration": 0.14999999999999858
          },
          {
            "name": "G3",
            "midi": 55,
            "time": 20.550000000000004,
            "velocity": 0.8346456692913385,
            "duration": 0.14999999999999858
          },
          {
            "name": "A3",
            "midi": 57,
            "time": 20.700000000000003,
            "velocity": 0.8346456692913385,
            "duration": 0.3000000000000007
          },
          {
            "name": "D3",
            "midi": 50,
            "time": 21.000000000000004,
            "velocity": 0.8346456692913385,
            "duration": 0.3000000000000007
          },
          {
            "name": "F3",
            "midi": 53,
            "time": 21.300000000000004,
            "velocity": 0.8346456692913385,
            "duration": 0.14999999999999858
          },
          {
            "name": "G3",
            "midi": 55,
            "time": 21.450000000000003,
            "velocity": 0.8346456692913385,
            "duration": 0.14999999999999858
          },
          {
            "name": "E4",
            "midi": 64,
            "time": 21.6,
            "velocity": 0.8346456692913385,
            "duration": 0.8999999999999986
          },
          {
            "name": "A3",
            "midi": 57,
            "time": 22.5,
            "velocity": 0.8346456692913385,
            "duration": 0.8999999999999986
          },
          {
            "name": "C4",
            "midi": 60,
            "time": 23.4,
            "velocity": 0.8346456692913385,
            "duration": 0.14999999999999858
          },
          {
            "name": "D4",
            "midi": 62,
            "time": 23.549999999999997,
            "velocity": 0.8346456692913385,
            "duration": 0.14999999999999858
          },
          {
            "name": "E4",
            "midi": 64,
            "time": 23.699999999999996,
            "velocity": 0.8346456692913385,
            "duration": 0.6000000000000014
          },
          {
            "name": "A3",
            "midi": 57,
            "time": 24.299999999999997,
            "velocity": 0.8346456692913385,
            "duration": 0.6000000000000014
          },
          {
            "name": "C4",
            "midi": 60,
            "time": 24.9,
            "velocity": 0.8346456692913385,
            "duration": 0.14999999999999858
          },
          {
            "name": "D4",
            "midi": 62,
            "time": 25.049999999999997,
            "velocity": 0.8346456692913385,
            "duration": 0.14999999999999858
          },
          {
            "name": "B3",
            "midi": 59,
            "time": 25.199999999999996,
            "velocity": 0.8346456692913385,
            "duration": 0.3000000000000007
          },
          {
            "name": "E3",
            "midi": 52,
            "time": 25.499999999999996,
            "velocity": 0.8346456692913385,
            "duration": 0.3000000000000007
          },
          {
            "name": "G3",
            "midi": 55,
            "time": 25.799999999999997,
            "velocity": 0.8346456692913385,
            "duration": 0.14999999999999858
          },
          {
            "name": "A3",
            "midi": 57,
            "time": 25.949999999999996,
            "velocity": 0.8346456692913385,
            "duration": 0.14999999999999858
          },
          {
            "name": "B3",
            "midi": 59,
            "time": 26.099999999999994,
            "velocity": 0.8346456692913385,
            "duration": 0.3000000000000007
          },
          {
            "name": "E3",
            "midi": 52,
            "time": 26.399999999999995,
            "velocity": 0.8346456692913385,
            "duration": 0.3000000000000007
          },
          {
            "name": "G3",
            "midi": 55,
            "time": 26.699999999999996,
            "velocity": 0.8346456692913385,
            "duration": 0.14999999999999858
          },
          {
            "name": "A3",
            "midi": 57,
            "time": 26.849999999999994,
            "velocity": 0.8346456692913385,
            "duration": 0.14999999999999858
          },
          {
            "name": "B3",
            "midi": 59,
            "time": 26.999999999999993,
            "velocity": 0.8346456692913385,
            "duration": 0.3000000000000007
          },
          {
            "name": "E3",
            "midi": 52,
            "time": 27.299999999999994,
            "velocity": 0.8346456692913385,
            "duration": 0.3000000000000007
          },
          {
            "name": "G3",
            "midi": 55,
            "time": 27.599999999999994,
            "velocity": 0.8346456692913385,
            "duration": 0.14999999999999858
          },
          {
            "name": "A3",
            "midi": 57,
            "time": 27.749999999999993,
            "velocity": 0.8346456692913385,
            "duration": 0.14999999999999858
          },
          {
            "name": "B3",
            "midi": 59,
            "time": 27.89999999999999,
            "velocity": 0.8346456692913385,
            "duration": 0.3000000000000007
          },
          {
            "name": "E3",
            "midi": 52,
            "time": 28.199999999999992,
            "velocity": 0.8346456692913385,
            "duration": 0.3000000000000007
          },
          {
            "name": "G3",
            "midi": 55,
            "time": 28.499999999999993,
            "velocity": 0.8346456692913385,
            "duration": 0.14999999999999858
          },
          {
            "name": "A3",
            "midi": 57,
            "time": 28.64999999999999,
            "velocity": 0.8346456692913385,
            "duration": 0.14999999999999858
          },
          {
            "name": "D4",
            "midi": 62,
            "time": 28.79999999999999,
            "velocity": 0.8346456692913385,
            "duration": 0.8999999999999986
          },
          {
            "name": "G3",
            "midi": 55,
            "time": 29.69999999999999,
            "velocity": 0.8346456692913385,
            "duration": 0.8999999999999986
          },
          {
            "name": "C4",
            "midi": 60,
            "time": 30.599999999999987,
            "velocity": 0.8346456692913385,
            "duration": 0.14999999999999858
          },
          {
            "name": "B3",
            "midi": 59,
            "time": 30.749999999999986,
            "velocity": 0.8346456692913385,
            "duration": 0.14999999999999858
          },
          {
            "name": "D4",
            "midi": 62,
            "time": 30.899999999999984,
            "velocity": 0.8346456692913385,
            "duration": 0.6000000000000014
          },
          {
            "name": "G3",
            "midi": 55,
            "time": 31.499999999999986,
            "velocity": 0.8346456692913385,
            "duration": 0.6000000000000014
          },
          {
            "name": "C4",
            "midi": 60,
            "time": 32.09999999999999,
            "velocity": 0.8346456692913385,
            "duration": 0.14999999999999858
          },
          {
            "name": "B3",
            "midi": 59,
            "time": 32.249999999999986,
            "velocity": 0.8346456692913385,
            "duration": 0.14999999999999858
          },
          {
            "name": "A3",
            "midi": 57,
            "time": 32.399999999999984,
            "velocity": 0.8346456692913385,
            "duration": 0.29999999999999716
          },
          {
            "name": "E3",
            "midi": 52,
            "time": 32.69999999999998,
            "velocity": 0.8346456692913385,
            "duration": 0.29999999999999716
          },
          {
            "name": "F3",
            "midi": 53,
            "time": 32.99999999999998,
            "velocity": 0.8346456692913385,
            "duration": 0.14999999999999858
          },
          {
            "name": "G3",
            "midi": 55,
            "time": 33.14999999999998,
            "velocity": 0.8346456692913385,
            "duration": 0.14999999999999858
          },
          {
            "name": "A3",
            "midi": 57,
            "time": 33.299999999999976,
            "velocity": 0.8346456692913385,
            "duration": 0.29999999999999716
          },
          {
            "name": "E3",
            "midi": 52,
            "time": 33.59999999999997,
            "velocity": 0.8346456692913385,
            "duration": 0.29999999999999716
          },
          {
            "name": "F3",
            "midi": 53,
            "time": 33.89999999999997,
            "velocity": 0.8346456692913385,
            "duration": 0.14999999999999858
          },
          {
            "name": "G3",
            "midi": 55,
            "time": 34.04999999999997,
            "velocity": 0.8346456692913385,
            "duration": 0.14999999999999858
          },
          {
            "name": "A3",
            "midi": 57,
            "time": 34.19999999999997,
            "velocity": 0.8346456692913385,
            "duration": 0.29999999999999716
          },
          {
            "name": "E3",
            "midi": 52,
            "time": 34.499999999999964,
            "velocity": 0.8346456692913385,
            "duration": 0.29999999999999716
          },
          {
            "name": "F3",
            "midi": 53,
            "time": 34.79999999999996,
            "velocity": 0.8346456692913385,
            "duration": 0.14999999999999858
          },
          {
            "name": "G3",
            "midi": 55,
            "time": 34.94999999999996,
            "velocity": 0.8346456692913385,
            "duration": 0.14999999999999858
          },
          {
            "name": "A3",
            "midi": 57,
            "time": 35.09999999999996,
            "velocity": 0.8346456692913385,
            "duration": 0.29999999999999716
          },
          {
            "name": "E3",
            "midi": 52,
            "time": 35.399999999999956,
            "velocity": 0.8346456692913385,
            "duration": 0.29999999999999716
          },
          {
            "name": "F3",
            "midi": 53,
            "time": 35.69999999999995,
            "velocity": 0.8346456692913385,
            "duration": 0.14999999999999858
          },
          {
            "name": "G3",
            "midi": 55,
            "time": 35.84999999999995,
            "velocity": 0.8346456692913385,
            "duration": 0.14999999999999858
          },
          {
            "name": "E4",
            "midi": 64,
            "time": 35.99999999999995,
            "velocity": 0.8346456692913385,
            "duration": 0.8999999999999986
          },
          {
            "name": "A3",
            "midi": 57,
            "time": 36.89999999999995,
            "velocity": 0.8346456692913385,
            "duration": 0.8999999999999986
          },
          {
            "name": "C4",
            "midi": 60,
            "time": 37.79999999999995,
            "velocity": 0.8346456692913385,
            "duration": 0.14999999999999858
          },
          {
            "name": "D4",
            "midi": 62,
            "time": 37.949999999999946,
            "velocity": 0.8346456692913385,
            "duration": 0.14999999999999858
          },
          {
            "name": "E4",
            "midi": 64,
            "time": 38.099999999999945,
            "velocity": 0.8346456692913385,
            "duration": 0.6000000000000014
          },
          {
            "name": "A3",
            "midi": 57,
            "time": 38.699999999999946,
            "velocity": 0.8346456692913385,
            "duration": 0.6000000000000014
          },
          {
            "name": "C4",
            "midi": 60,
            "time": 39.29999999999995,
            "velocity": 0.8346456692913385,
            "duration": 0.14999999999999858
          },
          {
            "name": "D4",
            "midi": 62,
            "time": 39.449999999999946,
            "velocity": 0.8346456692913385,
            "duration": 0.14999999999999858
          },
          {
            "name": "B3",
            "midi": 59,
            "time": 39.599999999999945,
            "velocity": 0.8346456692913385,
            "duration": 0.6000000000000014
          },
          {
            "name": "G3",
            "midi": 55,
            "time": 40.199999999999946,
            "velocity": 0.8346456692913385,
            "duration": 0.14999999999999858
          },
          {
            "name": "A3",
            "midi": 57,
            "time": 40.349999999999945,
            "velocity": 0.8346456692913385,
            "duration": 0.14999999999999858
          },
          {
            "name": "B3",
            "midi": 59,
            "time": 40.49999999999994,
            "velocity": 0.8346456692913385,
            "duration": 0.6000000000000014
          },
          {
            "name": "G3",
            "midi": 55,
            "time": 41.099999999999945,
            "velocity": 0.8346456692913385,
            "duration": 0.14999999999999858
          },
          {
            "name": "A3",
            "midi": 57,
            "time": 41.24999999999994,
            "velocity": 0.8346456692913385,
            "duration": 0.14999999999999858
          },
          {
            "name": "B3",
            "midi": 59,
            "time": 41.39999999999994,
            "velocity": 0.8346456692913385,
            "duration": 0.6000000000000014
          },
          {
            "name": "G3",
            "midi": 55,
            "time": 41.99999999999994,
            "velocity": 0.8346456692913385,
            "duration": 0.14999999999999858
          },
          {
            "name": "A3",
            "midi": 57,
            "time": 42.14999999999994,
            "velocity": 0.8346456692913385,
            "duration": 0.14999999999999858
          },
          {
            "name": "B3",
            "midi": 59,
            "time": 42.29999999999994,
            "velocity": 0.8346456692913385,
            "duration": 0.6000000000000014
          },
          {
            "name": "G3",
            "midi": 55,
            "time": 42.89999999999994,
            "velocity": 0.8346456692913385,
            "duration": 0.14999999999999858
          },
          {
            "name": "A3",
            "midi": 57,
            "time": 43.04999999999994,
            "velocity": 0.8346456692913385,
            "duration": 0.14999999999999858
          },
          {
            "name": "D4",
            "midi": 62,
            "time": 43.19999999999994,
            "velocity": 0.8346456692913385,
            "duration": 0.8999999999999986
          },
          {
            "name": "G3",
            "midi": 55,
            "time": 44.09999999999994,
            "velocity": 0.8346456692913385,
            "duration": 0.8999999999999986
          },
          {
            "name": "B3",
            "midi": 59,
            "time": 44.999999999999936,
            "velocity": 0.8346456692913385,
            "duration": 0.45000000000000284
          },
          {
            "name": "C4",
            "midi": 60,
            "time": 45.44999999999994,
            "velocity": 0.8346456692913385,
            "duration": 0.45000000000000284
          },
          {
            "name": "B3",
            "midi": 59,
            "time": 45.89999999999994,
            "velocity": 0.8346456692913385,
            "duration": 0.45000000000000284
          },
          {
            "name": "G3",
            "midi": 55,
            "time": 46.349999999999945,
            "velocity": 0.8346456692913385,
            "duration": 0.45000000000000284
          },
          {
            "name": "A3",
            "midi": 57,
            "time": 46.79999999999995,
            "velocity": 0.8346456692913385,
            "duration": 0.29999999999999716
          },
          {
            "name": "E3",
            "midi": 52,
            "time": 47.099999999999945,
            "velocity": 0.8346456692913385,
            "duration": 0.29999999999999716
          },
          {
            "name": "F3",
            "midi": 53,
            "time": 47.39999999999994,
            "velocity": 0.8346456692913385,
            "duration": 0.14999999999999858
          },
          {
            "name": "G3",
            "midi": 55,
            "time": 47.54999999999994,
            "velocity": 0.8346456692913385,
            "duration": 0.14999999999999858
          },
          {
            "name": "A3",
            "midi": 57,
            "time": 47.69999999999994,
            "velocity": 0.8346456692913385,
            "duration": 0.29999999999999716
          },
          {
            "name": "E3",
            "midi": 52,
            "time": 47.999999999999936,
            "velocity": 0.8346456692913385,
            "duration": 0.29999999999999716
          },
          {
            "name": "F3",
            "midi": 53,
            "time": 48.29999999999993,
            "velocity": 0.8346456692913385,
            "duration": 0.14999999999999858
          },
          {
            "name": "G3",
            "midi": 55,
            "time": 48.44999999999993,
            "velocity": 0.8346456692913385,
            "duration": 0.14999999999999858
          },
          {
            "name": "A3",
            "midi": 57,
            "time": 48.59999999999993,
            "velocity": 0.8346456692913385,
            "duration": 0.29999999999999716
          },
          {
            "name": "E3",
            "midi": 52,
            "time": 48.89999999999993,
            "velocity": 0.8346456692913385,
            "duration": 0.29999999999999716
          },
          {
            "name": "F3",
            "midi": 53,
            "time": 49.199999999999925,
            "velocity": 0.8346456692913385,
            "duration": 0.14999999999999858
          },
          {
            "name": "G3",
            "midi": 55,
            "time": 49.34999999999992,
            "velocity": 0.8346456692913385,
            "duration": 0.14999999999999858
          },
          {
            "name": "A3",
            "midi": 57,
            "time": 49.49999999999992,
            "velocity": 0.8346456692913385,
            "duration": 0.29999999999999716
          },
          {
            "name": "E3",
            "midi": 52,
            "time": 49.79999999999992,
            "velocity": 0.8346456692913385,
            "duration": 0.29999999999999716
          },
          {
            "name": "F3",
            "midi": 53,
            "time": 50.099999999999916,
            "velocity": 0.8346456692913385,
            "duration": 0.14999999999999858
          },
          {
            "name": "G3",
            "midi": 55,
            "time": 50.249999999999915,
            "velocity": 0.8346456692913385,
            "duration": 0.14999999999999858
          },
          {
            "name": "A3",
            "midi": 57,
            "time": 50.39999999999991,
            "velocity": 0.8346456692913385,
            "duration": 0.29999999999999716
          },
          {
            "name": "C3",
            "midi": 48,
            "time": 50.69999999999991,
            "velocity": 0.8346456692913385,
            "duration": 0.29999999999999716
          },
          {
            "name": "F3",
            "midi": 53,
            "time": 50.99999999999991,
            "velocity": 0.8346456692913385,
            "duration": 0.14999999999999858
          },
          {
            "name": "G3",
            "midi": 55,
            "time": 51.149999999999906,
            "velocity": 0.8346456692913385,
            "duration": 0.14999999999999858
          },
          {
            "name": "A3",
            "midi": 57,
            "time": 51.299999999999905,
            "velocity": 0.8346456692913385,
            "duration": 0.29999999999999716
          },
          {
            "name": "C3",
            "midi": 48,
            "time": 51.5999999999999,
            "velocity": 0.8346456692913385,
            "duration": 0.29999999999999716
          },
          {
            "name": "F3",
            "midi": 53,
            "time": 51.8999999999999,
            "velocity": 0.8346456692913385,
            "duration": 0.14999999999999858
          },
          {
            "name": "A3",
            "midi": 57,
            "time": 52.0499999999999,
            "velocity": 0.8346456692913385,
            "duration": 0.14999999999999858
          },
          {
            "name": "G3",
            "midi": 55,
            "time": 52.199999999999896,
            "velocity": 0.8346456692913385,
            "duration": 0.29999999999999716
          },
          {
            "name": "C3",
            "midi": 48,
            "time": 52.49999999999989,
            "velocity": 0.8346456692913385,
            "duration": 0.29999999999999716
          },
          {
            "name": "E3",
            "midi": 52,
            "time": 52.79999999999989,
            "velocity": 0.8346456692913385,
            "duration": 0.14999999999999858
          },
          {
            "name": "F3",
            "midi": 53,
            "time": 52.94999999999989,
            "velocity": 0.8346456692913385,
            "duration": 0.14999999999999858
          },
          {
            "name": "G3",
            "midi": 55,
            "time": 53.09999999999989,
            "velocity": 0.8346456692913385,
            "duration": 0.29999999999999716
          },
          {
            "name": "C3",
            "midi": 48,
            "time": 53.399999999999885,
            "velocity": 0.8346456692913385,
            "duration": 0.29999999999999716
          },
          {
            "name": "E3",
            "midi": 52,
            "time": 53.69999999999988,
            "velocity": 0.8346456692913385,
            "duration": 0.14999999999999858
          },
          {
            "name": "G3",
            "midi": 55,
            "time": 53.84999999999988,
            "velocity": 0.8346456692913385,
            "duration": 0.14999999999999858
          },
          {
            "name": "F3",
            "midi": 53,
            "time": 53.99999999999988,
            "velocity": 0.8346456692913385,
            "duration": 0.29999999999999716
          },
          {
            "name": "A2",
            "midi": 45,
            "time": 54.299999999999876,
            "velocity": 0.8346456692913385,
            "duration": 0.29999999999999716
          },
          {
            "name": "D3",
            "midi": 50,
            "time": 54.59999999999987,
            "velocity": 0.8346456692913385,
            "duration": 0.14999999999999858
          },
          {
            "name": "E3",
            "midi": 52,
            "time": 54.74999999999987,
            "velocity": 0.8346456692913385,
            "duration": 0.14999999999999858
          },
          {
            "name": "F3",
            "midi": 53,
            "time": 54.89999999999987,
            "velocity": 0.8346456692913385,
            "duration": 0.29999999999999716
          },
          {
            "name": "A2",
            "midi": 45,
            "time": 55.19999999999987,
            "velocity": 0.8346456692913385,
            "duration": 0.29999999999999716
          },
          {
            "name": "D3",
            "midi": 50,
            "time": 55.499999999999865,
            "velocity": 0.8346456692913385,
            "duration": 0.14999999999999858
          },
          {
            "name": "F3",
            "midi": 53,
            "time": 55.649999999999864,
            "velocity": 0.8346456692913385,
            "duration": 0.14999999999999858
          },
          {
            "name": "E3",
            "midi": 52,
            "time": 55.79999999999986,
            "velocity": 0.8346456692913385,
            "duration": 0.29999999999999716
          },
          {
            "name": "A2",
            "midi": 45,
            "time": 56.09999999999986,
            "velocity": 0.8346456692913385,
            "duration": 0.29999999999999716
          },
          {
            "name": "C3",
            "midi": 48,
            "time": 56.39999999999986,
            "velocity": 0.8346456692913385,
            "duration": 0.14999999999999858
          },
          {
            "name": "D3",
            "midi": 50,
            "time": 56.549999999999855,
            "velocity": 0.8346456692913385,
            "duration": 0.14999999999999858
          },
          {
            "name": "E3",
            "midi": 52,
            "time": 56.699999999999854,
            "velocity": 0.8346456692913385,
            "duration": 0.29999999999999716
          },
          {
            "name": "A2",
            "midi": 45,
            "time": 56.99999999999985,
            "velocity": 0.8346456692913385,
            "duration": 0.29999999999999716
          },
          {
            "name": "C3",
            "midi": 48,
            "time": 57.29999999999985,
            "velocity": 0.8346456692913385,
            "duration": 0.14999999999999858
          },
          {
            "name": "D3",
            "midi": 50,
            "time": 57.44999999999985,
            "velocity": 0.8346456692913385,
            "duration": 0.14999999999999858
          },
          {
            "name": "C3",
            "midi": 48,
            "time": 57.599999999999845,
            "velocity": 0.8346456692913385,
            "duration": 0.29999999999999716
          },
          {
            "name": "F2",
            "midi": 41,
            "time": 57.89999999999984,
            "velocity": 0.8346456692913385,
            "duration": 0.29999999999999716
          },
          {
            "name": "A2",
            "midi": 45,
            "time": 58.19999999999984,
            "velocity": 0.8346456692913385,
            "duration": 0.14999999999999858
          },
          {
            "name": "B2",
            "midi": 47,
            "time": 58.34999999999984,
            "velocity": 0.8346456692913385,
            "duration": 0.14999999999999858
          },
          {
            "name": "C3",
            "midi": 48,
            "time": 58.49999999999984,
            "velocity": 0.8346456692913385,
            "duration": 0.29999999999999716
          },
          {
            "name": "F2",
            "midi": 41,
            "time": 58.799999999999834,
            "velocity": 0.8346456692913385,
            "duration": 0.29999999999999716
          },
          {
            "name": "A2",
            "midi": 45,
            "time": 59.09999999999983,
            "velocity": 0.8346456692913385,
            "duration": 0.14999999999999858
          },
          {
            "name": "B2",
            "midi": 47,
            "time": 59.24999999999983,
            "velocity": 0.8346456692913385,
            "duration": 0.14999999999999858
          },
          {
            "name": "C3",
            "midi": 48,
            "time": 59.39999999999983,
            "velocity": 0.8346456692913385,
            "duration": 0.29999999999999716
          },
          {
            "name": "A2",
            "midi": 45,
            "time": 59.699999999999825,
            "velocity": 0.8346456692913385,
            "duration": 0.29999999999999716
          },
          {
            "name": "C3",
            "midi": 48,
            "time": 59.99999999999982,
            "velocity": 0.8346456692913385,
            "duration": 0.29999999999999716
          },
          {
            "name": "D3",
            "midi": 50,
            "time": 60.29999999999982,
            "velocity": 0.8346456692913385,
            "duration": 0.29999999999999716
          },
          {
            "name": "B2",
            "midi": 47,
            "time": 60.59999999999982,
            "velocity": 0.8346456692913385,
            "duration": 0.29999999999999716
          },
          {
            "name": "D3",
            "midi": 50,
            "time": 60.899999999999814,
            "velocity": 0.8346456692913385,
            "duration": 0.29999999999999716
          },
          {
            "name": "A2",
            "midi": 45,
            "time": 61.19999999999981,
            "velocity": 0.8346456692913385,
            "duration": 0.29999999999999716
          },
          {
            "name": "E2",
            "midi": 40,
            "time": 61.49999999999981,
            "velocity": 0.8346456692913385,
            "duration": 0.29999999999999716
          },
          {
            "name": "F2",
            "midi": 41,
            "time": 61.799999999999805,
            "velocity": 0.8346456692913385,
            "duration": 0.14999999999999858
          },
          {
            "name": "G2",
            "midi": 43,
            "time": 61.949999999999804,
            "velocity": 0.8346456692913385,
            "duration": 0.14999999999999858
          },
          {
            "name": "A2",
            "midi": 45,
            "time": 62.0999999999998,
            "velocity": 0.8346456692913385,
            "duration": 0.29999999999999716
          },
          {
            "name": "E2",
            "midi": 40,
            "time": 62.3999999999998,
            "velocity": 0.8346456692913385,
            "duration": 0.29999999999999716
          },
          {
            "name": "F2",
            "midi": 41,
            "time": 62.6999999999998,
            "velocity": 0.8346456692913385,
            "duration": 0.14999999999999858
          },
          {
            "name": "G2",
            "midi": 43,
            "time": 62.849999999999795,
            "velocity": 0.8346456692913385,
            "duration": 0.14999999999999858
          },
          {
            "name": "A2",
            "midi": 45,
            "time": 62.999999999999794,
            "velocity": 0.8346456692913385,
            "duration": 0.29999999999999716
          },
          {
            "name": "E2",
            "midi": 40,
            "time": 63.29999999999979,
            "velocity": 0.8346456692913385,
            "duration": 0.29999999999999716
          },
          {
            "name": "F2",
            "midi": 41,
            "time": 63.59999999999979,
            "velocity": 0.8346456692913385,
            "duration": 0.14999999999999858
          },
          {
            "name": "G2",
            "midi": 43,
            "time": 63.74999999999979,
            "velocity": 0.8346456692913385,
            "duration": 0.14999999999999858
          },
          {
            "name": "A2",
            "midi": 45,
            "time": 63.899999999999785,
            "velocity": 0.8346456692913385,
            "duration": 0.30000000000000426
          },
          {
            "name": "E2",
            "midi": 40,
            "time": 64.19999999999979,
            "velocity": 0.8346456692913385,
            "duration": 0.29999999999999716
          },
          {
            "name": "F2",
            "midi": 41,
            "time": 64.49999999999979,
            "velocity": 0.8346456692913385,
            "duration": 0.15000000000000568
          },
          {
            "name": "G2",
            "midi": 43,
            "time": 64.64999999999979,
            "velocity": 0.8346456692913385,
            "duration": 0.15000000000000568
          },
          {
            "name": "A3",
            "midi": 57,
            "time": 64.7999999999998,
            "velocity": 0.8346456692913385,
            "duration": 0.29999999999999716
          },
          {
            "name": "C3",
            "midi": 48,
            "time": 65.0999999999998,
            "velocity": 0.8346456692913385,
            "duration": 0.29999999999999716
          },
          {
            "name": "F3",
            "midi": 53,
            "time": 65.39999999999979,
            "velocity": 0.8346456692913385,
            "duration": 0.15000000000000568
          },
          {
            "name": "G3",
            "midi": 55,
            "time": 65.5499999999998,
            "velocity": 0.8346456692913385,
            "duration": 0.15000000000000568
          },
          {
            "name": "A3",
            "midi": 57,
            "time": 65.6999999999998,
            "velocity": 0.8346456692913385,
            "duration": 0.29999999999999716
          },
          {
            "name": "C3",
            "midi": 48,
            "time": 65.9999999999998,
            "velocity": 0.8346456692913385,
            "duration": 0.29999999999999716
          },
          {
            "name": "F3",
            "midi": 53,
            "time": 66.2999999999998,
            "velocity": 0.8346456692913385,
            "duration": 0.15000000000000568
          },
          {
            "name": "A3",
            "midi": 57,
            "time": 66.4499999999998,
            "velocity": 0.8346456692913385,
            "duration": 0.15000000000000568
          },
          {
            "name": "G3",
            "midi": 55,
            "time": 66.59999999999981,
            "velocity": 0.8346456692913385,
            "duration": 0.29999999999999716
          },
          {
            "name": "C3",
            "midi": 48,
            "time": 66.8999999999998,
            "velocity": 0.8346456692913385,
            "duration": 0.29999999999999716
          },
          {
            "name": "E3",
            "midi": 52,
            "time": 67.1999999999998,
            "velocity": 0.8346456692913385,
            "duration": 0.15000000000000568
          },
          {
            "name": "F3",
            "midi": 53,
            "time": 67.34999999999981,
            "velocity": 0.8346456692913385,
            "duration": 0.15000000000000568
          },
          {
            "name": "G3",
            "midi": 55,
            "time": 67.49999999999982,
            "velocity": 0.8346456692913385,
            "duration": 0.29999999999999716
          },
          {
            "name": "C3",
            "midi": 48,
            "time": 67.79999999999981,
            "velocity": 0.8346456692913385,
            "duration": 0.29999999999999716
          },
          {
            "name": "E3",
            "midi": 52,
            "time": 68.09999999999981,
            "velocity": 0.8346456692913385,
            "duration": 0.15000000000000568
          },
          {
            "name": "G3",
            "midi": 55,
            "time": 68.24999999999982,
            "velocity": 0.8346456692913385,
            "duration": 0.15000000000000568
          },
          {
            "name": "F3",
            "midi": 53,
            "time": 68.39999999999982,
            "velocity": 0.8346456692913385,
            "duration": 0.29999999999999716
          },
          {
            "name": "A2",
            "midi": 45,
            "time": 68.69999999999982,
            "velocity": 0.8346456692913385,
            "duration": 0.29999999999999716
          },
          {
            "name": "D3",
            "midi": 50,
            "time": 68.99999999999982,
            "velocity": 0.8346456692913385,
            "duration": 0.15000000000000568
          },
          {
            "name": "E3",
            "midi": 52,
            "time": 69.14999999999982,
            "velocity": 0.8346456692913385,
            "duration": 0.15000000000000568
          },
          {
            "name": "F3",
            "midi": 53,
            "time": 69.29999999999983,
            "velocity": 0.8346456692913385,
            "duration": 0.29999999999999716
          },
          {
            "name": "A2",
            "midi": 45,
            "time": 69.59999999999982,
            "velocity": 0.8346456692913385,
            "duration": 0.29999999999999716
          },
          {
            "name": "D3",
            "midi": 50,
            "time": 69.89999999999982,
            "velocity": 0.8346456692913385,
            "duration": 0.15000000000000568
          },
          {
            "name": "F3",
            "midi": 53,
            "time": 70.04999999999983,
            "velocity": 0.8346456692913385,
            "duration": 0.15000000000000568
          },
          {
            "name": "E3",
            "midi": 52,
            "time": 70.19999999999983,
            "velocity": 0.8346456692913385,
            "duration": 0.29999999999999716
          },
          {
            "name": "A2",
            "midi": 45,
            "time": 70.49999999999983,
            "velocity": 0.8346456692913385,
            "duration": 0.29999999999999716
          },
          {
            "name": "C3",
            "midi": 48,
            "time": 70.79999999999983,
            "velocity": 0.8346456692913385,
            "duration": 0.15000000000000568
          },
          {
            "name": "D3",
            "midi": 50,
            "time": 70.94999999999983,
            "velocity": 0.8346456692913385,
            "duration": 0.15000000000000568
          },
          {
            "name": "E3",
            "midi": 52,
            "time": 71.09999999999984,
            "velocity": 0.8346456692913385,
            "duration": 0.29999999999999716
          },
          {
            "name": "A2",
            "midi": 45,
            "time": 71.39999999999984,
            "velocity": 0.8346456692913385,
            "duration": 0.29999999999999716
          },
          {
            "name": "C3",
            "midi": 48,
            "time": 71.69999999999983,
            "velocity": 0.8346456692913385,
            "duration": 0.15000000000000568
          },
          {
            "name": "D3",
            "midi": 50,
            "time": 71.84999999999984,
            "velocity": 0.8346456692913385,
            "duration": 0.15000000000000568
          },
          {
            "name": "C3",
            "midi": 48,
            "time": 71.99999999999984,
            "velocity": 0.8346456692913385,
            "duration": 0.29999999999999716
          },
          {
            "name": "F2",
            "midi": 41,
            "time": 72.29999999999984,
            "velocity": 0.8346456692913385,
            "duration": 0.29999999999999716
          },
          {
            "name": "A2",
            "midi": 45,
            "time": 72.59999999999984,
            "velocity": 0.8346456692913385,
            "duration": 0.15000000000000568
          },
          {
            "name": "B2",
            "midi": 47,
            "time": 72.74999999999984,
            "velocity": 0.8346456692913385,
            "duration": 0.15000000000000568
          },
          {
            "name": "C3",
            "midi": 48,
            "time": 72.89999999999985,
            "velocity": 0.8346456692913385,
            "duration": 0.29999999999999716
          },
          {
            "name": "F2",
            "midi": 41,
            "time": 73.19999999999985,
            "velocity": 0.8346456692913385,
            "duration": 0.29999999999999716
          },
          {
            "name": "A2",
            "midi": 45,
            "time": 73.49999999999984,
            "velocity": 0.8346456692913385,
            "duration": 0.15000000000000568
          },
          {
            "name": "B2",
            "midi": 47,
            "time": 73.64999999999985,
            "velocity": 0.8346456692913385,
            "duration": 0.15000000000000568
          },
          {
            "name": "C3",
            "midi": 48,
            "time": 73.79999999999986,
            "velocity": 0.8346456692913385,
            "duration": 0.29999999999999716
          },
          {
            "name": "A2",
            "midi": 45,
            "time": 74.09999999999985,
            "velocity": 0.8346456692913385,
            "duration": 0.29999999999999716
          },
          {
            "name": "C3",
            "midi": 48,
            "time": 74.39999999999985,
            "velocity": 0.8346456692913385,
            "duration": 0.29999999999999716
          },
          {
            "name": "B2",
            "midi": 47,
            "time": 74.69999999999985,
            "velocity": 0.8346456692913385,
            "duration": 0.29999999999999716
          },
          {
            "name": "G2",
            "midi": 43,
            "time": 74.99999999999984,
            "velocity": 0.8346456692913385,
            "duration": 0.29999999999999716
          },
          {
            "name": "B2",
            "midi": 47,
            "time": 75.29999999999984,
            "velocity": 0.8346456692913385,
            "duration": 0.29999999999999716
          },
          {
            "name": "A2",
            "midi": 45,
            "time": 75.59999999999984,
            "velocity": 0.8346456692913385,
            "duration": 0.29999999999999716
          },
          {
            "name": "E2",
            "midi": 40,
            "time": 75.89999999999984,
            "velocity": 0.8346456692913385,
            "duration": 0.29999999999999716
          },
          {
            "name": "F2",
            "midi": 41,
            "time": 76.19999999999983,
            "velocity": 0.8346456692913385,
            "duration": 0.15000000000000568
          },
          {
            "name": "G2",
            "midi": 43,
            "time": 76.34999999999984,
            "velocity": 0.8346456692913385,
            "duration": 0.15000000000000568
          },
          {
            "name": "A2",
            "midi": 45,
            "time": 76.49999999999984,
            "velocity": 0.8346456692913385,
            "duration": 0.29999999999999716
          },
          {
            "name": "E2",
            "midi": 40,
            "time": 76.79999999999984,
            "velocity": 0.8346456692913385,
            "duration": 0.29999999999999716
          },
          {
            "name": "F2",
            "midi": 41,
            "time": 77.09999999999984,
            "velocity": 0.8346456692913385,
            "duration": 0.15000000000000568
          },
          {
            "name": "G2",
            "midi": 43,
            "time": 77.24999999999984,
            "velocity": 0.8346456692913385,
            "duration": 0.15000000000000568
          },
          {
            "name": "A3",
            "midi": 57,
            "time": 77.39999999999985,
            "velocity": 0.8346456692913385,
            "duration": 0.29999999999999716
          },
          {
            "name": "E3",
            "midi": 52,
            "time": 77.69999999999985,
            "velocity": 0.8346456692913385,
            "duration": 0.29999999999999716
          },
          {
            "name": "F3",
            "midi": 53,
            "time": 77.99999999999984,
            "velocity": 0.8346456692913385,
            "duration": 0.15000000000000568
          },
          {
            "name": "G3",
            "midi": 55,
            "time": 78.14999999999985,
            "velocity": 0.8346456692913385,
            "duration": 0.15000000000000568
          },
          {
            "name": "A3",
            "midi": 57,
            "time": 78.29999999999986,
            "velocity": 0.8346456692913385,
            "duration": 0.29999999999999716
          },
          {
            "name": "E3",
            "midi": 52,
            "time": 78.59999999999985,
            "velocity": 0.8346456692913385,
            "duration": 0.29999999999999716
          },
          {
            "name": "F3",
            "midi": 53,
            "time": 78.89999999999985,
            "velocity": 0.8346456692913385,
            "duration": 0.15000000000000568
          },
          {
            "name": "G3",
            "midi": 55,
            "time": 79.04999999999986,
            "velocity": 0.8346456692913385,
            "duration": 0.15000000000000568
          },
          {
            "name": "A3",
            "midi": 57,
            "time": 79.19999999999986,
            "velocity": 0.8346456692913385,
            "duration": 0.29999999999999716
          },
          {
            "name": "E4",
            "midi": 64,
            "time": 79.49999999999986,
            "velocity": 0.8346456692913385,
            "duration": 0.29999999999999716
          },
          {
            "name": "F4",
            "midi": 65,
            "time": 79.79999999999986,
            "velocity": 0.8346456692913385,
            "duration": 0.15000000000000568
          },
          {
            "name": "G4",
            "midi": 67,
            "time": 79.94999999999986,
            "velocity": 0.8346456692913385,
            "duration": 0.15000000000000568
          },
          {
            "name": "A4",
            "midi": 69,
            "time": 80.09999999999987,
            "velocity": 0.8346456692913385,
            "duration": 0.29999999999999716
          },
          {
            "name": "E4",
            "midi": 64,
            "time": 80.39999999999986,
            "velocity": 0.8346456692913385,
            "duration": 0.29999999999999716
          },
          {
            "name": "F4",
            "midi": 65,
            "time": 80.69999999999986,
            "velocity": 0.8346456692913385,
            "duration": 0.15000000000000568
          },
          {
            "name": "G4",
            "midi": 67,
            "time": 80.84999999999987,
            "velocity": 0.8346456692913385,
            "duration": 0.15000000000000568
          },
          {
            "name": "A4",
            "midi": 69,
            "time": 80.99999999999987,
            "velocity": 0.8346456692913385,
            "duration": 0.29999999999999716
          },
          {
            "name": "E4",
            "midi": 64,
            "time": 81.29999999999987,
            "velocity": 0.8346456692913385,
            "duration": 0.29999999999999716
          },
          {
            "name": "F4",
            "midi": 65,
            "time": 81.59999999999987,
            "velocity": 0.8346456692913385,
            "duration": 0.15000000000000568
          },
          {
            "name": "G4",
            "midi": 67,
            "time": 81.74999999999987,
            "velocity": 0.8346456692913385,
            "duration": 0.15000000000000568
          },
          {
            "name": "A4",
            "midi": 69,
            "time": 81.89999999999988,
            "velocity": 0.8346456692913385,
            "duration": 0.9000000000000057
          }
        ],
        "controlChanges": {
          "7": [
            {
              "number": 7,
              "time": 0,
              "value": 0.7874015748031497
            }
          ]
        },
        "id": 1,
        "instrumentNumber": 24,
        "instrument": "acoustic guitar (nylon)",
        "instrumentFamily": "guitar",
        "channelNumber": 0,
        "isPercussion": false
      },
      {
        "startTime": 0,
        "duration": 82.79999999999988,
        "length": 307,
        "notes": [
          {
            "name": "E4",
            "midi": 64,
            "time": 0,
            "velocity": 0.8346456692913385,
            "duration": 0.3
          },
          {
            "name": "A3",
            "midi": 57,
            "time": 0.3,
            "velocity": 0.8346456692913385,
            "duration": 0.3
          },
          {
            "name": "C4",
            "midi": 60,
            "time": 0.6,
            "velocity": 0.8346456692913385,
            "duration": 0.15000000000000002
          },
          {
            "name": "D4",
            "midi": 62,
            "time": 0.75,
            "velocity": 0.8346456692913385,
            "duration": 0.15000000000000002
          },
          {
            "name": "E4",
            "midi": 64,
            "time": 0.9,
            "velocity": 0.8346456692913385,
            "duration": 0.29999999999999993
          },
          {
            "name": "A3",
            "midi": 57,
            "time": 1.2,
            "velocity": 0.8346456692913385,
            "duration": 0.30000000000000004
          },
          {
            "name": "C4",
            "midi": 60,
            "time": 1.5,
            "velocity": 0.8346456692913385,
            "duration": 0.1499999999999999
          },
          {
            "name": "D4",
            "midi": 62,
            "time": 1.65,
            "velocity": 0.8346456692913385,
            "duration": 0.1499999999999999
          },
          {
            "name": "E4",
            "midi": 64,
            "time": 1.7999999999999998,
            "velocity": 0.8346456692913385,
            "duration": 0.2999999999999998
          },
          {
            "name": "A3",
            "midi": 57,
            "time": 2.0999999999999996,
            "velocity": 0.8346456692913385,
            "duration": 0.2999999999999998
          },
          {
            "name": "C4",
            "midi": 60,
            "time": 2.3999999999999995,
            "velocity": 0.8346456692913385,
            "duration": 0.1499999999999999
          },
          {
            "name": "D4",
            "midi": 62,
            "time": 2.5499999999999994,
            "velocity": 0.8346456692913385,
            "duration": 0.1499999999999999
          },
          {
            "name": "E4",
            "midi": 64,
            "time": 2.6999999999999993,
            "velocity": 0.8346456692913385,
            "duration": 0.2999999999999998
          },
          {
            "name": "A3",
            "midi": 57,
            "time": 2.999999999999999,
            "velocity": 0.8346456692913385,
            "duration": 0.2999999999999998
          },
          {
            "name": "C4",
            "midi": 60,
            "time": 3.299999999999999,
            "velocity": 0.8346456692913385,
            "duration": 0.1499999999999999
          },
          {
            "name": "D4",
            "midi": 62,
            "time": 3.449999999999999,
            "velocity": 0.8346456692913385,
            "duration": 0.1499999999999999
          },
          {
            "name": "E4",
            "midi": 64,
            "time": 3.5999999999999988,
            "velocity": 0.8346456692913385,
            "duration": 0.2999999999999998
          },
          {
            "name": "A3",
            "midi": 57,
            "time": 3.8999999999999986,
            "velocity": 0.8346456692913385,
            "duration": 0.2999999999999998
          },
          {
            "name": "C#4",
            "midi": 61,
            "time": 4.199999999999998,
            "velocity": 0.8346456692913385,
            "duration": 0.15000000000000036
          },
          {
            "name": "D4",
            "midi": 62,
            "time": 4.349999999999999,
            "velocity": 0.8346456692913385,
            "duration": 0.15000000000000036
          },
          {
            "name": "E4",
            "midi": 64,
            "time": 4.499999999999999,
            "velocity": 0.8346456692913385,
            "duration": 0.2999999999999998
          },
          {
            "name": "A3",
            "midi": 57,
            "time": 4.799999999999999,
            "velocity": 0.8346456692913385,
            "duration": 0.2999999999999998
          },
          {
            "name": "C#4",
            "midi": 61,
            "time": 5.099999999999999,
            "velocity": 0.8346456692913385,
            "duration": 0.15000000000000036
          },
          {
            "name": "D4",
            "midi": 62,
            "time": 5.249999999999999,
            "velocity": 0.8346456692913385,
            "duration": 0.15000000000000036
          },
          {
            "name": "E4",
            "midi": 64,
            "time": 5.3999999999999995,
            "velocity": 0.8346456692913385,
            "duration": 0.2999999999999998
          },
          {
            "name": "A3",
            "midi": 57,
            "time": 5.699999999999999,
            "velocity": 0.8346456692913385,
            "duration": 0.2999999999999998
          },
          {
            "name": "C#4",
            "midi": 61,
            "time": 5.999999999999999,
            "velocity": 0.8346456692913385,
            "duration": 0.15000000000000036
          },
          {
            "name": "D4",
            "midi": 62,
            "time": 6.1499999999999995,
            "velocity": 0.8346456692913385,
            "duration": 0.15000000000000036
          },
          {
            "name": "E4",
            "midi": 64,
            "time": 6.3,
            "velocity": 0.8346456692913385,
            "duration": 0.2999999999999998
          },
          {
            "name": "A3",
            "midi": 57,
            "time": 6.6,
            "velocity": 0.8346456692913385,
            "duration": 0.2999999999999998
          },
          {
            "name": "C#4",
            "midi": 61,
            "time": 6.8999999999999995,
            "velocity": 0.8346456692913385,
            "duration": 0.15000000000000036
          },
          {
            "name": "D4",
            "midi": 62,
            "time": 7.05,
            "velocity": 0.8346456692913385,
            "duration": 0.15000000000000036
          },
          {
            "name": "E4",
            "midi": 64,
            "time": 7.2,
            "velocity": 0.8346456692913385,
            "duration": 0.8999999999999995
          },
          {
            "name": "A3",
            "midi": 57,
            "time": 8.1,
            "velocity": 0.8346456692913385,
            "duration": 0.9000000000000004
          },
          {
            "name": "C4",
            "midi": 60,
            "time": 9,
            "velocity": 0.8346456692913385,
            "duration": 0.15000000000000036
          },
          {
            "name": "D4",
            "midi": 62,
            "time": 9.15,
            "velocity": 0.8346456692913385,
            "duration": 0.15000000000000036
          },
          {
            "name": "E4",
            "midi": 64,
            "time": 9.3,
            "velocity": 0.8346456692913385,
            "duration": 0.5999999999999996
          },
          {
            "name": "A3",
            "midi": 57,
            "time": 9.9,
            "velocity": 0.8346456692913385,
            "duration": 0.5999999999999996
          },
          {
            "name": "C4",
            "midi": 60,
            "time": 10.5,
            "velocity": 0.8346456692913385,
            "duration": 0.15000000000000036
          },
          {
            "name": "D4",
            "midi": 62,
            "time": 10.65,
            "velocity": 0.8346456692913385,
            "duration": 0.15000000000000036
          },
          {
            "name": "B3",
            "midi": 59,
            "time": 10.8,
            "velocity": 0.8346456692913385,
            "duration": 0.3000000000000007
          },
          {
            "name": "E3",
            "midi": 52,
            "time": 11.100000000000001,
            "velocity": 0.8346456692913385,
            "duration": 0.3000000000000007
          },
          {
            "name": "G3",
            "midi": 55,
            "time": 11.400000000000002,
            "velocity": 0.8346456692913385,
            "duration": 0.15000000000000036
          },
          {
            "name": "A3",
            "midi": 57,
            "time": 11.550000000000002,
            "velocity": 0.8346456692913385,
            "duration": 0.15000000000000036
          },
          {
            "name": "B3",
            "midi": 59,
            "time": 11.700000000000003,
            "velocity": 0.8346456692913385,
            "duration": 0.3000000000000007
          },
          {
            "name": "E3",
            "midi": 52,
            "time": 12.000000000000004,
            "velocity": 0.8346456692913385,
            "duration": 0.3000000000000007
          },
          {
            "name": "G3",
            "midi": 55,
            "time": 12.300000000000004,
            "velocity": 0.8346456692913385,
            "duration": 0.15000000000000036
          },
          {
            "name": "A3",
            "midi": 57,
            "time": 12.450000000000005,
            "velocity": 0.8346456692913385,
            "duration": 0.15000000000000036
          },
          {
            "name": "B3",
            "midi": 59,
            "time": 12.600000000000005,
            "velocity": 0.8346456692913385,
            "duration": 0.3000000000000007
          },
          {
            "name": "E3",
            "midi": 52,
            "time": 12.900000000000006,
            "velocity": 0.8346456692913385,
            "duration": 0.3000000000000007
          },
          {
            "name": "G3",
            "midi": 55,
            "time": 13.200000000000006,
            "velocity": 0.8346456692913385,
            "duration": 0.15000000000000036
          },
          {
            "name": "A3",
            "midi": 57,
            "time": 13.350000000000007,
            "velocity": 0.8346456692913385,
            "duration": 0.15000000000000036
          },
          {
            "name": "B3",
            "midi": 59,
            "time": 13.500000000000007,
            "velocity": 0.8346456692913385,
            "duration": 0.3000000000000007
          },
          {
            "name": "E3",
            "midi": 52,
            "time": 13.800000000000008,
            "velocity": 0.8346456692913385,
            "duration": 0.3000000000000007
          },
          {
            "name": "G3",
            "midi": 55,
            "time": 14.100000000000009,
            "velocity": 0.8346456692913385,
            "duration": 0.15000000000000036
          },
          {
            "name": "A3",
            "midi": 57,
            "time": 14.250000000000009,
            "velocity": 0.8346456692913385,
            "duration": 0.15000000000000036
          },
          {
            "name": "D4",
            "midi": 62,
            "time": 14.40000000000001,
            "velocity": 0.8346456692913385,
            "duration": 0.9000000000000004
          },
          {
            "name": "G3",
            "midi": 55,
            "time": 15.30000000000001,
            "velocity": 0.8346456692913385,
            "duration": 0.9000000000000004
          },
          {
            "name": "C4",
            "midi": 60,
            "time": 16.20000000000001,
            "velocity": 0.8346456692913385,
            "duration": 0.14999999999999858
          },
          {
            "name": "B3",
            "midi": 59,
            "time": 16.35000000000001,
            "velocity": 0.8346456692913385,
            "duration": 0.14999999999999858
          },
          {
            "name": "D4",
            "midi": 62,
            "time": 16.500000000000007,
            "velocity": 0.8346456692913385,
            "duration": 0.6000000000000014
          },
          {
            "name": "G3",
            "midi": 55,
            "time": 17.10000000000001,
            "velocity": 0.8346456692913385,
            "duration": 0.6000000000000014
          },
          {
            "name": "C4",
            "midi": 60,
            "time": 17.70000000000001,
            "velocity": 0.8346456692913385,
            "duration": 0.14999999999999858
          },
          {
            "name": "B3",
            "midi": 59,
            "time": 17.85000000000001,
            "velocity": 0.8346456692913385,
            "duration": 0.14999999999999858
          },
          {
            "name": "A3",
            "midi": 57,
            "time": 18.000000000000007,
            "velocity": 0.8346456692913385,
            "duration": 0.3000000000000007
          },
          {
            "name": "D3",
            "midi": 50,
            "time": 18.300000000000008,
            "velocity": 0.8346456692913385,
            "duration": 0.3000000000000007
          },
          {
            "name": "F3",
            "midi": 53,
            "time": 18.60000000000001,
            "velocity": 0.8346456692913385,
            "duration": 0.14999999999999858
          },
          {
            "name": "G3",
            "midi": 55,
            "time": 18.750000000000007,
            "velocity": 0.8346456692913385,
            "duration": 0.14999999999999858
          },
          {
            "name": "A3",
            "midi": 57,
            "time": 18.900000000000006,
            "velocity": 0.8346456692913385,
            "duration": 0.3000000000000007
          },
          {
            "name": "D3",
            "midi": 50,
            "time": 19.200000000000006,
            "velocity": 0.8346456692913385,
            "duration": 0.3000000000000007
          },
          {
            "name": "F3",
            "midi": 53,
            "time": 19.500000000000007,
            "velocity": 0.8346456692913385,
            "duration": 0.14999999999999858
          },
          {
            "name": "G3",
            "midi": 55,
            "time": 19.650000000000006,
            "velocity": 0.8346456692913385,
            "duration": 0.14999999999999858
          },
          {
            "name": "A3",
            "midi": 57,
            "time": 19.800000000000004,
            "velocity": 0.8346456692913385,
            "duration": 0.3000000000000007
          },
          {
            "name": "D3",
            "midi": 50,
            "time": 20.100000000000005,
            "velocity": 0.8346456692913385,
            "duration": 0.3000000000000007
          },
          {
            "name": "F3",
            "midi": 53,
            "time": 20.400000000000006,
            "velocity": 0.8346456692913385,
            "duration": 0.14999999999999858
          },
          {
            "name": "G3",
            "midi": 55,
            "time": 20.550000000000004,
            "velocity": 0.8346456692913385,
            "duration": 0.14999999999999858
          },
          {
            "name": "A3",
            "midi": 57,
            "time": 20.700000000000003,
            "velocity": 0.8346456692913385,
            "duration": 0.3000000000000007
          },
          {
            "name": "D3",
            "midi": 50,
            "time": 21.000000000000004,
            "velocity": 0.8346456692913385,
            "duration": 0.3000000000000007
          },
          {
            "name": "F3",
            "midi": 53,
            "time": 21.300000000000004,
            "velocity": 0.8346456692913385,
            "duration": 0.14999999999999858
          },
          {
            "name": "G3",
            "midi": 55,
            "time": 21.450000000000003,
            "velocity": 0.8346456692913385,
            "duration": 0.14999999999999858
          },
          {
            "name": "E4",
            "midi": 64,
            "time": 21.6,
            "velocity": 0.8346456692913385,
            "duration": 0.8999999999999986
          },
          {
            "name": "A3",
            "midi": 57,
            "time": 22.5,
            "velocity": 0.8346456692913385,
            "duration": 0.8999999999999986
          },
          {
            "name": "C4",
            "midi": 60,
            "time": 23.4,
            "velocity": 0.8346456692913385,
            "duration": 0.14999999999999858
          },
          {
            "name": "D4",
            "midi": 62,
            "time": 23.549999999999997,
            "velocity": 0.8346456692913385,
            "duration": 0.14999999999999858
          },
          {
            "name": "E4",
            "midi": 64,
            "time": 23.699999999999996,
            "velocity": 0.8346456692913385,
            "duration": 0.6000000000000014
          },
          {
            "name": "A3",
            "midi": 57,
            "time": 24.299999999999997,
            "velocity": 0.8346456692913385,
            "duration": 0.6000000000000014
          },
          {
            "name": "C4",
            "midi": 60,
            "time": 24.9,
            "velocity": 0.8346456692913385,
            "duration": 0.14999999999999858
          },
          {
            "name": "D4",
            "midi": 62,
            "time": 25.049999999999997,
            "velocity": 0.8346456692913385,
            "duration": 0.14999999999999858
          },
          {
            "name": "B3",
            "midi": 59,
            "time": 25.199999999999996,
            "velocity": 0.8346456692913385,
            "duration": 0.3000000000000007
          },
          {
            "name": "E3",
            "midi": 52,
            "time": 25.499999999999996,
            "velocity": 0.8346456692913385,
            "duration": 0.3000000000000007
          },
          {
            "name": "G3",
            "midi": 55,
            "time": 25.799999999999997,
            "velocity": 0.8346456692913385,
            "duration": 0.14999999999999858
          },
          {
            "name": "A3",
            "midi": 57,
            "time": 25.949999999999996,
            "velocity": 0.8346456692913385,
            "duration": 0.14999999999999858
          },
          {
            "name": "B3",
            "midi": 59,
            "time": 26.099999999999994,
            "velocity": 0.8346456692913385,
            "duration": 0.3000000000000007
          },
          {
            "name": "E3",
            "midi": 52,
            "time": 26.399999999999995,
            "velocity": 0.8346456692913385,
            "duration": 0.3000000000000007
          },
          {
            "name": "G3",
            "midi": 55,
            "time": 26.699999999999996,
            "velocity": 0.8346456692913385,
            "duration": 0.14999999999999858
          },
          {
            "name": "A3",
            "midi": 57,
            "time": 26.849999999999994,
            "velocity": 0.8346456692913385,
            "duration": 0.14999999999999858
          },
          {
            "name": "B3",
            "midi": 59,
            "time": 26.999999999999993,
            "velocity": 0.8346456692913385,
            "duration": 0.3000000000000007
          },
          {
            "name": "E3",
            "midi": 52,
            "time": 27.299999999999994,
            "velocity": 0.8346456692913385,
            "duration": 0.3000000000000007
          },
          {
            "name": "G3",
            "midi": 55,
            "time": 27.599999999999994,
            "velocity": 0.8346456692913385,
            "duration": 0.14999999999999858
          },
          {
            "name": "A3",
            "midi": 57,
            "time": 27.749999999999993,
            "velocity": 0.8346456692913385,
            "duration": 0.14999999999999858
          },
          {
            "name": "B3",
            "midi": 59,
            "time": 27.89999999999999,
            "velocity": 0.8346456692913385,
            "duration": 0.3000000000000007
          },
          {
            "name": "E3",
            "midi": 52,
            "time": 28.199999999999992,
            "velocity": 0.8346456692913385,
            "duration": 0.3000000000000007
          },
          {
            "name": "G3",
            "midi": 55,
            "time": 28.499999999999993,
            "velocity": 0.8346456692913385,
            "duration": 0.14999999999999858
          },
          {
            "name": "A3",
            "midi": 57,
            "time": 28.64999999999999,
            "velocity": 0.8346456692913385,
            "duration": 0.14999999999999858
          },
          {
            "name": "D4",
            "midi": 62,
            "time": 28.79999999999999,
            "velocity": 0.8346456692913385,
            "duration": 0.8999999999999986
          },
          {
            "name": "G3",
            "midi": 55,
            "time": 29.69999999999999,
            "velocity": 0.8346456692913385,
            "duration": 0.8999999999999986
          },
          {
            "name": "C4",
            "midi": 60,
            "time": 30.599999999999987,
            "velocity": 0.8346456692913385,
            "duration": 0.14999999999999858
          },
          {
            "name": "B3",
            "midi": 59,
            "time": 30.749999999999986,
            "velocity": 0.8346456692913385,
            "duration": 0.14999999999999858
          },
          {
            "name": "D4",
            "midi": 62,
            "time": 30.899999999999984,
            "velocity": 0.8346456692913385,
            "duration": 0.6000000000000014
          },
          {
            "name": "G3",
            "midi": 55,
            "time": 31.499999999999986,
            "velocity": 0.8346456692913385,
            "duration": 0.6000000000000014
          },
          {
            "name": "C4",
            "midi": 60,
            "time": 32.09999999999999,
            "velocity": 0.8346456692913385,
            "duration": 0.14999999999999858
          },
          {
            "name": "B3",
            "midi": 59,
            "time": 32.249999999999986,
            "velocity": 0.8346456692913385,
            "duration": 0.14999999999999858
          },
          {
            "name": "A3",
            "midi": 57,
            "time": 32.399999999999984,
            "velocity": 0.8346456692913385,
            "duration": 0.29999999999999716
          },
          {
            "name": "E3",
            "midi": 52,
            "time": 32.69999999999998,
            "velocity": 0.8346456692913385,
            "duration": 0.29999999999999716
          },
          {
            "name": "F3",
            "midi": 53,
            "time": 32.99999999999998,
            "velocity": 0.8346456692913385,
            "duration": 0.14999999999999858
          },
          {
            "name": "G3",
            "midi": 55,
            "time": 33.14999999999998,
            "velocity": 0.8346456692913385,
            "duration": 0.14999999999999858
          },
          {
            "name": "A3",
            "midi": 57,
            "time": 33.299999999999976,
            "velocity": 0.8346456692913385,
            "duration": 0.29999999999999716
          },
          {
            "name": "E3",
            "midi": 52,
            "time": 33.59999999999997,
            "velocity": 0.8346456692913385,
            "duration": 0.29999999999999716
          },
          {
            "name": "F3",
            "midi": 53,
            "time": 33.89999999999997,
            "velocity": 0.8346456692913385,
            "duration": 0.14999999999999858
          },
          {
            "name": "G3",
            "midi": 55,
            "time": 34.04999999999997,
            "velocity": 0.8346456692913385,
            "duration": 0.14999999999999858
          },
          {
            "name": "A3",
            "midi": 57,
            "time": 34.19999999999997,
            "velocity": 0.8346456692913385,
            "duration": 0.29999999999999716
          },
          {
            "name": "E3",
            "midi": 52,
            "time": 34.499999999999964,
            "velocity": 0.8346456692913385,
            "duration": 0.29999999999999716
          },
          {
            "name": "F3",
            "midi": 53,
            "time": 34.79999999999996,
            "velocity": 0.8346456692913385,
            "duration": 0.14999999999999858
          },
          {
            "name": "G3",
            "midi": 55,
            "time": 34.94999999999996,
            "velocity": 0.8346456692913385,
            "duration": 0.14999999999999858
          },
          {
            "name": "A3",
            "midi": 57,
            "time": 35.09999999999996,
            "velocity": 0.8346456692913385,
            "duration": 0.29999999999999716
          },
          {
            "name": "E3",
            "midi": 52,
            "time": 35.399999999999956,
            "velocity": 0.8346456692913385,
            "duration": 0.29999999999999716
          },
          {
            "name": "F3",
            "midi": 53,
            "time": 35.69999999999995,
            "velocity": 0.8346456692913385,
            "duration": 0.14999999999999858
          },
          {
            "name": "G3",
            "midi": 55,
            "time": 35.84999999999995,
            "velocity": 0.8346456692913385,
            "duration": 0.14999999999999858
          },
          {
            "name": "E4",
            "midi": 64,
            "time": 35.99999999999995,
            "velocity": 0.8346456692913385,
            "duration": 0.8999999999999986
          },
          {
            "name": "A3",
            "midi": 57,
            "time": 36.89999999999995,
            "velocity": 0.8346456692913385,
            "duration": 0.8999999999999986
          },
          {
            "name": "C4",
            "midi": 60,
            "time": 37.79999999999995,
            "velocity": 0.8346456692913385,
            "duration": 0.14999999999999858
          },
          {
            "name": "D4",
            "midi": 62,
            "time": 37.949999999999946,
            "velocity": 0.8346456692913385,
            "duration": 0.14999999999999858
          },
          {
            "name": "E4",
            "midi": 64,
            "time": 38.099999999999945,
            "velocity": 0.8346456692913385,
            "duration": 0.6000000000000014
          },
          {
            "name": "A3",
            "midi": 57,
            "time": 38.699999999999946,
            "velocity": 0.8346456692913385,
            "duration": 0.6000000000000014
          },
          {
            "name": "C4",
            "midi": 60,
            "time": 39.29999999999995,
            "velocity": 0.8346456692913385,
            "duration": 0.14999999999999858
          },
          {
            "name": "D4",
            "midi": 62,
            "time": 39.449999999999946,
            "velocity": 0.8346456692913385,
            "duration": 0.14999999999999858
          },
          {
            "name": "B3",
            "midi": 59,
            "time": 39.599999999999945,
            "velocity": 0.8346456692913385,
            "duration": 0.6000000000000014
          },
          {
            "name": "G3",
            "midi": 55,
            "time": 40.199999999999946,
            "velocity": 0.8346456692913385,
            "duration": 0.14999999999999858
          },
          {
            "name": "A3",
            "midi": 57,
            "time": 40.349999999999945,
            "velocity": 0.8346456692913385,
            "duration": 0.14999999999999858
          },
          {
            "name": "B3",
            "midi": 59,
            "time": 40.49999999999994,
            "velocity": 0.8346456692913385,
            "duration": 0.6000000000000014
          },
          {
            "name": "G3",
            "midi": 55,
            "time": 41.099999999999945,
            "velocity": 0.8346456692913385,
            "duration": 0.14999999999999858
          },
          {
            "name": "A3",
            "midi": 57,
            "time": 41.24999999999994,
            "velocity": 0.8346456692913385,
            "duration": 0.14999999999999858
          },
          {
            "name": "B3",
            "midi": 59,
            "time": 41.39999999999994,
            "velocity": 0.8346456692913385,
            "duration": 0.6000000000000014
          },
          {
            "name": "G3",
            "midi": 55,
            "time": 41.99999999999994,
            "velocity": 0.8346456692913385,
            "duration": 0.14999999999999858
          },
          {
            "name": "A3",
            "midi": 57,
            "time": 42.14999999999994,
            "velocity": 0.8346456692913385,
            "duration": 0.14999999999999858
          },
          {
            "name": "B3",
            "midi": 59,
            "time": 42.29999999999994,
            "velocity": 0.8346456692913385,
            "duration": 0.6000000000000014
          },
          {
            "name": "G3",
            "midi": 55,
            "time": 42.89999999999994,
            "velocity": 0.8346456692913385,
            "duration": 0.14999999999999858
          },
          {
            "name": "A3",
            "midi": 57,
            "time": 43.04999999999994,
            "velocity": 0.8346456692913385,
            "duration": 0.14999999999999858
          },
          {
            "name": "D4",
            "midi": 62,
            "time": 43.19999999999994,
            "velocity": 0.8346456692913385,
            "duration": 0.8999999999999986
          },
          {
            "name": "G3",
            "midi": 55,
            "time": 44.09999999999994,
            "velocity": 0.8346456692913385,
            "duration": 0.8999999999999986
          },
          {
            "name": "B3",
            "midi": 59,
            "time": 44.999999999999936,
            "velocity": 0.8346456692913385,
            "duration": 0.45000000000000284
          },
          {
            "name": "C4",
            "midi": 60,
            "time": 45.44999999999994,
            "velocity": 0.8346456692913385,
            "duration": 0.45000000000000284
          },
          {
            "name": "B3",
            "midi": 59,
            "time": 45.89999999999994,
            "velocity": 0.8346456692913385,
            "duration": 0.45000000000000284
          },
          {
            "name": "G3",
            "midi": 55,
            "time": 46.349999999999945,
            "velocity": 0.8346456692913385,
            "duration": 0.45000000000000284
          },
          {
            "name": "A3",
            "midi": 57,
            "time": 46.79999999999995,
            "velocity": 0.8346456692913385,
            "duration": 0.29999999999999716
          },
          {
            "name": "E3",
            "midi": 52,
            "time": 47.099999999999945,
            "velocity": 0.8346456692913385,
            "duration": 0.29999999999999716
          },
          {
            "name": "F3",
            "midi": 53,
            "time": 47.39999999999994,
            "velocity": 0.8346456692913385,
            "duration": 0.14999999999999858
          },
          {
            "name": "G3",
            "midi": 55,
            "time": 47.54999999999994,
            "velocity": 0.8346456692913385,
            "duration": 0.14999999999999858
          },
          {
            "name": "A3",
            "midi": 57,
            "time": 47.69999999999994,
            "velocity": 0.8346456692913385,
            "duration": 0.29999999999999716
          },
          {
            "name": "E3",
            "midi": 52,
            "time": 47.999999999999936,
            "velocity": 0.8346456692913385,
            "duration": 0.29999999999999716
          },
          {
            "name": "F3",
            "midi": 53,
            "time": 48.29999999999993,
            "velocity": 0.8346456692913385,
            "duration": 0.14999999999999858
          },
          {
            "name": "G3",
            "midi": 55,
            "time": 48.44999999999993,
            "velocity": 0.8346456692913385,
            "duration": 0.14999999999999858
          },
          {
            "name": "A3",
            "midi": 57,
            "time": 48.59999999999993,
            "velocity": 0.8346456692913385,
            "duration": 0.29999999999999716
          },
          {
            "name": "E3",
            "midi": 52,
            "time": 48.89999999999993,
            "velocity": 0.8346456692913385,
            "duration": 0.29999999999999716
          },
          {
            "name": "F3",
            "midi": 53,
            "time": 49.199999999999925,
            "velocity": 0.8346456692913385,
            "duration": 0.14999999999999858
          },
          {
            "name": "G3",
            "midi": 55,
            "time": 49.34999999999992,
            "velocity": 0.8346456692913385,
            "duration": 0.14999999999999858
          },
          {
            "name": "A3",
            "midi": 57,
            "time": 49.49999999999992,
            "velocity": 0.8346456692913385,
            "duration": 0.29999999999999716
          },
          {
            "name": "E3",
            "midi": 52,
            "time": 49.79999999999992,
            "velocity": 0.8346456692913385,
            "duration": 0.29999999999999716
          },
          {
            "name": "F3",
            "midi": 53,
            "time": 50.099999999999916,
            "velocity": 0.8346456692913385,
            "duration": 0.14999999999999858
          },
          {
            "name": "G3",
            "midi": 55,
            "time": 50.249999999999915,
            "velocity": 0.8346456692913385,
            "duration": 0.14999999999999858
          },
          {
            "name": "A3",
            "midi": 57,
            "time": 50.39999999999991,
            "velocity": 0.8346456692913385,
            "duration": 0.29999999999999716
          },
          {
            "name": "C3",
            "midi": 48,
            "time": 50.69999999999991,
            "velocity": 0.8346456692913385,
            "duration": 0.29999999999999716
          },
          {
            "name": "F3",
            "midi": 53,
            "time": 50.99999999999991,
            "velocity": 0.8346456692913385,
            "duration": 0.14999999999999858
          },
          {
            "name": "G3",
            "midi": 55,
            "time": 51.149999999999906,
            "velocity": 0.8346456692913385,
            "duration": 0.14999999999999858
          },
          {
            "name": "A3",
            "midi": 57,
            "time": 51.299999999999905,
            "velocity": 0.8346456692913385,
            "duration": 0.29999999999999716
          },
          {
            "name": "C3",
            "midi": 48,
            "time": 51.5999999999999,
            "velocity": 0.8346456692913385,
            "duration": 0.29999999999999716
          },
          {
            "name": "F3",
            "midi": 53,
            "time": 51.8999999999999,
            "velocity": 0.8346456692913385,
            "duration": 0.14999999999999858
          },
          {
            "name": "A3",
            "midi": 57,
            "time": 52.0499999999999,
            "velocity": 0.8346456692913385,
            "duration": 0.14999999999999858
          },
          {
            "name": "G3",
            "midi": 55,
            "time": 52.199999999999896,
            "velocity": 0.8346456692913385,
            "duration": 0.29999999999999716
          },
          {
            "name": "C3",
            "midi": 48,
            "time": 52.49999999999989,
            "velocity": 0.8346456692913385,
            "duration": 0.29999999999999716
          },
          {
            "name": "E3",
            "midi": 52,
            "time": 52.79999999999989,
            "velocity": 0.8346456692913385,
            "duration": 0.14999999999999858
          },
          {
            "name": "F3",
            "midi": 53,
            "time": 52.94999999999989,
            "velocity": 0.8346456692913385,
            "duration": 0.14999999999999858
          },
          {
            "name": "G3",
            "midi": 55,
            "time": 53.09999999999989,
            "velocity": 0.8346456692913385,
            "duration": 0.29999999999999716
          },
          {
            "name": "C3",
            "midi": 48,
            "time": 53.399999999999885,
            "velocity": 0.8346456692913385,
            "duration": 0.29999999999999716
          },
          {
            "name": "E3",
            "midi": 52,
            "time": 53.69999999999988,
            "velocity": 0.8346456692913385,
            "duration": 0.14999999999999858
          },
          {
            "name": "G3",
            "midi": 55,
            "time": 53.84999999999988,
            "velocity": 0.8346456692913385,
            "duration": 0.14999999999999858
          },
          {
            "name": "F3",
            "midi": 53,
            "time": 53.99999999999988,
            "velocity": 0.8346456692913385,
            "duration": 0.29999999999999716
          },
          {
            "name": "A2",
            "midi": 45,
            "time": 54.299999999999876,
            "velocity": 0.8346456692913385,
            "duration": 0.29999999999999716
          },
          {
            "name": "D3",
            "midi": 50,
            "time": 54.59999999999987,
            "velocity": 0.8346456692913385,
            "duration": 0.14999999999999858
          },
          {
            "name": "E3",
            "midi": 52,
            "time": 54.74999999999987,
            "velocity": 0.8346456692913385,
            "duration": 0.14999999999999858
          },
          {
            "name": "F3",
            "midi": 53,
            "time": 54.89999999999987,
            "velocity": 0.8346456692913385,
            "duration": 0.29999999999999716
          },
          {
            "name": "A2",
            "midi": 45,
            "time": 55.19999999999987,
            "velocity": 0.8346456692913385,
            "duration": 0.29999999999999716
          },
          {
            "name": "D3",
            "midi": 50,
            "time": 55.499999999999865,
            "velocity": 0.8346456692913385,
            "duration": 0.14999999999999858
          },
          {
            "name": "F3",
            "midi": 53,
            "time": 55.649999999999864,
            "velocity": 0.8346456692913385,
            "duration": 0.14999999999999858
          },
          {
            "name": "E3",
            "midi": 52,
            "time": 55.79999999999986,
            "velocity": 0.8346456692913385,
            "duration": 0.29999999999999716
          },
          {
            "name": "A2",
            "midi": 45,
            "time": 56.09999999999986,
            "velocity": 0.8346456692913385,
            "duration": 0.29999999999999716
          },
          {
            "name": "C3",
            "midi": 48,
            "time": 56.39999999999986,
            "velocity": 0.8346456692913385,
            "duration": 0.14999999999999858
          },
          {
            "name": "D3",
            "midi": 50,
            "time": 56.549999999999855,
            "velocity": 0.8346456692913385,
            "duration": 0.14999999999999858
          },
          {
            "name": "E3",
            "midi": 52,
            "time": 56.699999999999854,
            "velocity": 0.8346456692913385,
            "duration": 0.29999999999999716
          },
          {
            "name": "A2",
            "midi": 45,
            "time": 56.99999999999985,
            "velocity": 0.8346456692913385,
            "duration": 0.29999999999999716
          },
          {
            "name": "C3",
            "midi": 48,
            "time": 57.29999999999985,
            "velocity": 0.8346456692913385,
            "duration": 0.14999999999999858
          },
          {
            "name": "D3",
            "midi": 50,
            "time": 57.44999999999985,
            "velocity": 0.8346456692913385,
            "duration": 0.14999999999999858
          },
          {
            "name": "C3",
            "midi": 48,
            "time": 57.599999999999845,
            "velocity": 0.8346456692913385,
            "duration": 0.29999999999999716
          },
          {
            "name": "F2",
            "midi": 41,
            "time": 57.89999999999984,
            "velocity": 0.8346456692913385,
            "duration": 0.29999999999999716
          },
          {
            "name": "A2",
            "midi": 45,
            "time": 58.19999999999984,
            "velocity": 0.8346456692913385,
            "duration": 0.14999999999999858
          },
          {
            "name": "B2",
            "midi": 47,
            "time": 58.34999999999984,
            "velocity": 0.8346456692913385,
            "duration": 0.14999999999999858
          },
          {
            "name": "C3",
            "midi": 48,
            "time": 58.49999999999984,
            "velocity": 0.8346456692913385,
            "duration": 0.29999999999999716
          },
          {
            "name": "F2",
            "midi": 41,
            "time": 58.799999999999834,
            "velocity": 0.8346456692913385,
            "duration": 0.29999999999999716
          },
          {
            "name": "A2",
            "midi": 45,
            "time": 59.09999999999983,
            "velocity": 0.8346456692913385,
            "duration": 0.14999999999999858
          },
          {
            "name": "B2",
            "midi": 47,
            "time": 59.24999999999983,
            "velocity": 0.8346456692913385,
            "duration": 0.14999999999999858
          },
          {
            "name": "C3",
            "midi": 48,
            "time": 59.39999999999983,
            "velocity": 0.8346456692913385,
            "duration": 0.29999999999999716
          },
          {
            "name": "A2",
            "midi": 45,
            "time": 59.699999999999825,
            "velocity": 0.8346456692913385,
            "duration": 0.29999999999999716
          },
          {
            "name": "C3",
            "midi": 48,
            "time": 59.99999999999982,
            "velocity": 0.8346456692913385,
            "duration": 0.29999999999999716
          },
          {
            "name": "D3",
            "midi": 50,
            "time": 60.29999999999982,
            "velocity": 0.8346456692913385,
            "duration": 0.29999999999999716
          },
          {
            "name": "B2",
            "midi": 47,
            "time": 60.59999999999982,
            "velocity": 0.8346456692913385,
            "duration": 0.29999999999999716
          },
          {
            "name": "D3",
            "midi": 50,
            "time": 60.899999999999814,
            "velocity": 0.8346456692913385,
            "duration": 0.29999999999999716
          },
          {
            "name": "A2",
            "midi": 45,
            "time": 61.19999999999981,
            "velocity": 0.8346456692913385,
            "duration": 0.29999999999999716
          },
          {
            "name": "E2",
            "midi": 40,
            "time": 61.49999999999981,
            "velocity": 0.8346456692913385,
            "duration": 0.29999999999999716
          },
          {
            "name": "F2",
            "midi": 41,
            "time": 61.799999999999805,
            "velocity": 0.8346456692913385,
            "duration": 0.14999999999999858
          },
          {
            "name": "G2",
            "midi": 43,
            "time": 61.949999999999804,
            "velocity": 0.8346456692913385,
            "duration": 0.14999999999999858
          },
          {
            "name": "A2",
            "midi": 45,
            "time": 62.0999999999998,
            "velocity": 0.8346456692913385,
            "duration": 0.29999999999999716
          },
          {
            "name": "E2",
            "midi": 40,
            "time": 62.3999999999998,
            "velocity": 0.8346456692913385,
            "duration": 0.29999999999999716
          },
          {
            "name": "F2",
            "midi": 41,
            "time": 62.6999999999998,
            "velocity": 0.8346456692913385,
            "duration": 0.14999999999999858
          },
          {
            "name": "G2",
            "midi": 43,
            "time": 62.849999999999795,
            "velocity": 0.8346456692913385,
            "duration": 0.14999999999999858
          },
          {
            "name": "A2",
            "midi": 45,
            "time": 62.999999999999794,
            "velocity": 0.8346456692913385,
            "duration": 0.29999999999999716
          },
          {
            "name": "E2",
            "midi": 40,
            "time": 63.29999999999979,
            "velocity": 0.8346456692913385,
            "duration": 0.29999999999999716
          },
          {
            "name": "F2",
            "midi": 41,
            "time": 63.59999999999979,
            "velocity": 0.8346456692913385,
            "duration": 0.14999999999999858
          },
          {
            "name": "G2",
            "midi": 43,
            "time": 63.74999999999979,
            "velocity": 0.8346456692913385,
            "duration": 0.14999999999999858
          },
          {
            "name": "A2",
            "midi": 45,
            "time": 63.899999999999785,
            "velocity": 0.8346456692913385,
            "duration": 0.30000000000000426
          },
          {
            "name": "E2",
            "midi": 40,
            "time": 64.19999999999979,
            "velocity": 0.8346456692913385,
            "duration": 0.29999999999999716
          },
          {
            "name": "F2",
            "midi": 41,
            "time": 64.49999999999979,
            "velocity": 0.8346456692913385,
            "duration": 0.15000000000000568
          },
          {
            "name": "G2",
            "midi": 43,
            "time": 64.64999999999979,
            "velocity": 0.8346456692913385,
            "duration": 0.15000000000000568
          },
          {
            "name": "A3",
            "midi": 57,
            "time": 64.7999999999998,
            "velocity": 0.8346456692913385,
            "duration": 0.29999999999999716
          },
          {
            "name": "C3",
            "midi": 48,
            "time": 65.0999999999998,
            "velocity": 0.8346456692913385,
            "duration": 0.29999999999999716
          },
          {
            "name": "F3",
            "midi": 53,
            "time": 65.39999999999979,
            "velocity": 0.8346456692913385,
            "duration": 0.15000000000000568
          },
          {
            "name": "G3",
            "midi": 55,
            "time": 65.5499999999998,
            "velocity": 0.8346456692913385,
            "duration": 0.15000000000000568
          },
          {
            "name": "A3",
            "midi": 57,
            "time": 65.6999999999998,
            "velocity": 0.8346456692913385,
            "duration": 0.29999999999999716
          },
          {
            "name": "C3",
            "midi": 48,
            "time": 65.9999999999998,
            "velocity": 0.8346456692913385,
            "duration": 0.29999999999999716
          },
          {
            "name": "F3",
            "midi": 53,
            "time": 66.2999999999998,
            "velocity": 0.8346456692913385,
            "duration": 0.15000000000000568
          },
          {
            "name": "A3",
            "midi": 57,
            "time": 66.4499999999998,
            "velocity": 0.8346456692913385,
            "duration": 0.15000000000000568
          },
          {
            "name": "G3",
            "midi": 55,
            "time": 66.59999999999981,
            "velocity": 0.8346456692913385,
            "duration": 0.29999999999999716
          },
          {
            "name": "C3",
            "midi": 48,
            "time": 66.8999999999998,
            "velocity": 0.8346456692913385,
            "duration": 0.29999999999999716
          },
          {
            "name": "E3",
            "midi": 52,
            "time": 67.1999999999998,
            "velocity": 0.8346456692913385,
            "duration": 0.15000000000000568
          },
          {
            "name": "F3",
            "midi": 53,
            "time": 67.34999999999981,
            "velocity": 0.8346456692913385,
            "duration": 0.15000000000000568
          },
          {
            "name": "G3",
            "midi": 55,
            "time": 67.49999999999982,
            "velocity": 0.8346456692913385,
            "duration": 0.29999999999999716
          },
          {
            "name": "C3",
            "midi": 48,
            "time": 67.79999999999981,
            "velocity": 0.8346456692913385,
            "duration": 0.29999999999999716
          },
          {
            "name": "E3",
            "midi": 52,
            "time": 68.09999999999981,
            "velocity": 0.8346456692913385,
            "duration": 0.15000000000000568
          },
          {
            "name": "G3",
            "midi": 55,
            "time": 68.24999999999982,
            "velocity": 0.8346456692913385,
            "duration": 0.15000000000000568
          },
          {
            "name": "F3",
            "midi": 53,
            "time": 68.39999999999982,
            "velocity": 0.8346456692913385,
            "duration": 0.29999999999999716
          },
          {
            "name": "A2",
            "midi": 45,
            "time": 68.69999999999982,
            "velocity": 0.8346456692913385,
            "duration": 0.29999999999999716
          },
          {
            "name": "D3",
            "midi": 50,
            "time": 68.99999999999982,
            "velocity": 0.8346456692913385,
            "duration": 0.15000000000000568
          },
          {
            "name": "E3",
            "midi": 52,
            "time": 69.14999999999982,
            "velocity": 0.8346456692913385,
            "duration": 0.15000000000000568
          },
          {
            "name": "F3",
            "midi": 53,
            "time": 69.29999999999983,
            "velocity": 0.8346456692913385,
            "duration": 0.29999999999999716
          },
          {
            "name": "A2",
            "midi": 45,
            "time": 69.59999999999982,
            "velocity": 0.8346456692913385,
            "duration": 0.29999999999999716
          },
          {
            "name": "D3",
            "midi": 50,
            "time": 69.89999999999982,
            "velocity": 0.8346456692913385,
            "duration": 0.15000000000000568
          },
          {
            "name": "F3",
            "midi": 53,
            "time": 70.04999999999983,
            "velocity": 0.8346456692913385,
            "duration": 0.15000000000000568
          },
          {
            "name": "E3",
            "midi": 52,
            "time": 70.19999999999983,
            "velocity": 0.8346456692913385,
            "duration": 0.29999999999999716
          },
          {
            "name": "A2",
            "midi": 45,
            "time": 70.49999999999983,
            "velocity": 0.8346456692913385,
            "duration": 0.29999999999999716
          },
          {
            "name": "C3",
            "midi": 48,
            "time": 70.79999999999983,
            "velocity": 0.8346456692913385,
            "duration": 0.15000000000000568
          },
          {
            "name": "D3",
            "midi": 50,
            "time": 70.94999999999983,
            "velocity": 0.8346456692913385,
            "duration": 0.15000000000000568
          },
          {
            "name": "E3",
            "midi": 52,
            "time": 71.09999999999984,
            "velocity": 0.8346456692913385,
            "duration": 0.29999999999999716
          },
          {
            "name": "A2",
            "midi": 45,
            "time": 71.39999999999984,
            "velocity": 0.8346456692913385,
            "duration": 0.29999999999999716
          },
          {
            "name": "C3",
            "midi": 48,
            "time": 71.69999999999983,
            "velocity": 0.8346456692913385,
            "duration": 0.15000000000000568
          },
          {
            "name": "D3",
            "midi": 50,
            "time": 71.84999999999984,
            "velocity": 0.8346456692913385,
            "duration": 0.15000000000000568
          },
          {
            "name": "C3",
            "midi": 48,
            "time": 71.99999999999984,
            "velocity": 0.8346456692913385,
            "duration": 0.29999999999999716
          },
          {
            "name": "F2",
            "midi": 41,
            "time": 72.29999999999984,
            "velocity": 0.8346456692913385,
            "duration": 0.29999999999999716
          },
          {
            "name": "A2",
            "midi": 45,
            "time": 72.59999999999984,
            "velocity": 0.8346456692913385,
            "duration": 0.15000000000000568
          },
          {
            "name": "B2",
            "midi": 47,
            "time": 72.74999999999984,
            "velocity": 0.8346456692913385,
            "duration": 0.15000000000000568
          },
          {
            "name": "C3",
            "midi": 48,
            "time": 72.89999999999985,
            "velocity": 0.8346456692913385,
            "duration": 0.29999999999999716
          },
          {
            "name": "F2",
            "midi": 41,
            "time": 73.19999999999985,
            "velocity": 0.8346456692913385,
            "duration": 0.29999999999999716
          },
          {
            "name": "A2",
            "midi": 45,
            "time": 73.49999999999984,
            "velocity": 0.8346456692913385,
            "duration": 0.15000000000000568
          },
          {
            "name": "B2",
            "midi": 47,
            "time": 73.64999999999985,
            "velocity": 0.8346456692913385,
            "duration": 0.15000000000000568
          },
          {
            "name": "C3",
            "midi": 48,
            "time": 73.79999999999986,
            "velocity": 0.8346456692913385,
            "duration": 0.29999999999999716
          },
          {
            "name": "A2",
            "midi": 45,
            "time": 74.09999999999985,
            "velocity": 0.8346456692913385,
            "duration": 0.29999999999999716
          },
          {
            "name": "C3",
            "midi": 48,
            "time": 74.39999999999985,
            "velocity": 0.8346456692913385,
            "duration": 0.29999999999999716
          },
          {
            "name": "B2",
            "midi": 47,
            "time": 74.69999999999985,
            "velocity": 0.8346456692913385,
            "duration": 0.29999999999999716
          },
          {
            "name": "G2",
            "midi": 43,
            "time": 74.99999999999984,
            "velocity": 0.8346456692913385,
            "duration": 0.29999999999999716
          },
          {
            "name": "B2",
            "midi": 47,
            "time": 75.29999999999984,
            "velocity": 0.8346456692913385,
            "duration": 0.29999999999999716
          },
          {
            "name": "A2",
            "midi": 45,
            "time": 75.59999999999984,
            "velocity": 0.8346456692913385,
            "duration": 0.29999999999999716
          },
          {
            "name": "E2",
            "midi": 40,
            "time": 75.89999999999984,
            "velocity": 0.8346456692913385,
            "duration": 0.29999999999999716
          },
          {
            "name": "F2",
            "midi": 41,
            "time": 76.19999999999983,
            "velocity": 0.8346456692913385,
            "duration": 0.15000000000000568
          },
          {
            "name": "G2",
            "midi": 43,
            "time": 76.34999999999984,
            "velocity": 0.8346456692913385,
            "duration": 0.15000000000000568
          },
          {
            "name": "A2",
            "midi": 45,
            "time": 76.49999999999984,
            "velocity": 0.8346456692913385,
            "duration": 0.29999999999999716
          },
          {
            "name": "E2",
            "midi": 40,
            "time": 76.79999999999984,
            "velocity": 0.8346456692913385,
            "duration": 0.29999999999999716
          },
          {
            "name": "F2",
            "midi": 41,
            "time": 77.09999999999984,
            "velocity": 0.8346456692913385,
            "duration": 0.15000000000000568
          },
          {
            "name": "G2",
            "midi": 43,
            "time": 77.24999999999984,
            "velocity": 0.8346456692913385,
            "duration": 0.15000000000000568
          },
          {
            "name": "A3",
            "midi": 57,
            "time": 77.39999999999985,
            "velocity": 0.8346456692913385,
            "duration": 0.29999999999999716
          },
          {
            "name": "E3",
            "midi": 52,
            "time": 77.69999999999985,
            "velocity": 0.8346456692913385,
            "duration": 0.29999999999999716
          },
          {
            "name": "F3",
            "midi": 53,
            "time": 77.99999999999984,
            "velocity": 0.8346456692913385,
            "duration": 0.15000000000000568
          },
          {
            "name": "G3",
            "midi": 55,
            "time": 78.14999999999985,
            "velocity": 0.8346456692913385,
            "duration": 0.15000000000000568
          },
          {
            "name": "A3",
            "midi": 57,
            "time": 78.29999999999986,
            "velocity": 0.8346456692913385,
            "duration": 0.29999999999999716
          },
          {
            "name": "E3",
            "midi": 52,
            "time": 78.59999999999985,
            "velocity": 0.8346456692913385,
            "duration": 0.29999999999999716
          },
          {
            "name": "F3",
            "midi": 53,
            "time": 78.89999999999985,
            "velocity": 0.8346456692913385,
            "duration": 0.15000000000000568
          },
          {
            "name": "G3",
            "midi": 55,
            "time": 79.04999999999986,
            "velocity": 0.8346456692913385,
            "duration": 0.15000000000000568
          },
          {
            "name": "A3",
            "midi": 57,
            "time": 79.19999999999986,
            "velocity": 0.8346456692913385,
            "duration": 0.29999999999999716
          },
          {
            "name": "E4",
            "midi": 64,
            "time": 79.49999999999986,
            "velocity": 0.8346456692913385,
            "duration": 0.29999999999999716
          },
          {
            "name": "F4",
            "midi": 65,
            "time": 79.79999999999986,
            "velocity": 0.8346456692913385,
            "duration": 0.15000000000000568
          },
          {
            "name": "G4",
            "midi": 67,
            "time": 79.94999999999986,
            "velocity": 0.8346456692913385,
            "duration": 0.15000000000000568
          },
          {
            "name": "A4",
            "midi": 69,
            "time": 80.09999999999987,
            "velocity": 0.8346456692913385,
            "duration": 0.29999999999999716
          },
          {
            "name": "E4",
            "midi": 64,
            "time": 80.39999999999986,
            "velocity": 0.8346456692913385,
            "duration": 0.29999999999999716
          },
          {
            "name": "F4",
            "midi": 65,
            "time": 80.69999999999986,
            "velocity": 0.8346456692913385,
            "duration": 0.15000000000000568
          },
          {
            "name": "G4",
            "midi": 67,
            "time": 80.84999999999987,
            "velocity": 0.8346456692913385,
            "duration": 0.15000000000000568
          },
          {
            "name": "A4",
            "midi": 69,
            "time": 80.99999999999987,
            "velocity": 0.8346456692913385,
            "duration": 0.29999999999999716
          },
          {
            "name": "E4",
            "midi": 64,
            "time": 81.29999999999987,
            "velocity": 0.8346456692913385,
            "duration": 0.29999999999999716
          },
          {
            "name": "F4",
            "midi": 65,
            "time": 81.59999999999987,
            "velocity": 0.8346456692913385,
            "duration": 0.15000000000000568
          },
          {
            "name": "G4",
            "midi": 67,
            "time": 81.74999999999987,
            "velocity": 0.8346456692913385,
            "duration": 0.15000000000000568
          },
          {
            "name": "A4",
            "midi": 69,
            "time": 81.89999999999988,
            "velocity": 0.8346456692913385,
            "duration": 0.9000000000000057
          }
        ],
        "controlChanges": {
          "7": [
            {
              "number": 7,
              "time": 0,
              "value": 0.7874015748031497
            }
          ]
        },
        "id": 2,
        "instrumentNumber": 24,
        "instrument": "acoustic guitar (nylon)",
        "instrumentFamily": "guitar",
        "channelNumber": 1,
        "isPercussion": false
      },
      {
        "startTime": 0,
        "duration": 82.80000000000022,
        "length": 891,
        "notes": [
          {
            "name": "A2",
            "midi": 45,
            "time": 0,
            "velocity": 0.5118110236220472,
            "duration": 1.7999999999999998
          },
          {
            "name": "E3",
            "midi": 52,
            "time": 0,
            "velocity": 0.5118110236220472,
            "duration": 1.7999999999999998
          },
          {
            "name": "A3",
            "midi": 57,
            "time": 0,
            "velocity": 0.5118110236220472,
            "duration": 1.7999999999999998
          },
          {
            "name": "C4",
            "midi": 60,
            "time": 0,
            "velocity": 0.5118110236220472,
            "duration": 1.7999999999999998
          },
          {
            "name": "E4",
            "midi": 64,
            "time": 0,
            "velocity": 0.5118110236220472,
            "duration": 1.7999999999999998
          },
          {
            "name": "E4",
            "midi": 64,
            "time": 1.7999999999999998,
            "velocity": 0.5118110236220472,
            "duration": 0.4500000000000002
          },
          {
            "name": "C4",
            "midi": 60,
            "time": 1.7999999999999998,
            "velocity": 0.5118110236220472,
            "duration": 0.4500000000000002
          },
          {
            "name": "A3",
            "midi": 57,
            "time": 1.7999999999999998,
            "velocity": 0.5118110236220472,
            "duration": 0.4500000000000002
          },
          {
            "name": "E3",
            "midi": 52,
            "time": 1.7999999999999998,
            "velocity": 0.5118110236220472,
            "duration": 0.4500000000000002
          },
          {
            "name": "A2",
            "midi": 45,
            "time": 1.7999999999999998,
            "velocity": 0.5118110236220472,
            "duration": 0.4500000000000002
          },
          {
            "name": "A2",
            "midi": 45,
            "time": 2.25,
            "velocity": 0.5118110236220472,
            "duration": 0.4500000000000002
          },
          {
            "name": "E3",
            "midi": 52,
            "time": 2.25,
            "velocity": 0.5118110236220472,
            "duration": 0.4500000000000002
          },
          {
            "name": "A3",
            "midi": 57,
            "time": 2.25,
            "velocity": 0.5118110236220472,
            "duration": 0.4500000000000002
          },
          {
            "name": "C4",
            "midi": 60,
            "time": 2.25,
            "velocity": 0.5118110236220472,
            "duration": 0.4500000000000002
          },
          {
            "name": "E4",
            "midi": 64,
            "time": 2.25,
            "velocity": 0.5118110236220472,
            "duration": 0.4500000000000002
          },
          {
            "name": "A2",
            "midi": 45,
            "time": 2.7,
            "velocity": 0.5118110236220472,
            "duration": 0.4500000000000002
          },
          {
            "name": "E3",
            "midi": 52,
            "time": 2.7,
            "velocity": 0.5118110236220472,
            "duration": 0.4500000000000002
          },
          {
            "name": "A3",
            "midi": 57,
            "time": 2.7,
            "velocity": 0.5118110236220472,
            "duration": 0.4500000000000002
          },
          {
            "name": "C4",
            "midi": 60,
            "time": 2.7,
            "velocity": 0.5118110236220472,
            "duration": 0.4500000000000002
          },
          {
            "name": "E4",
            "midi": 64,
            "time": 2.7,
            "velocity": 0.5118110236220472,
            "duration": 0.4500000000000002
          },
          {
            "name": "E4",
            "midi": 64,
            "time": 3.1500000000000004,
            "velocity": 0.5118110236220472,
            "duration": 0.4500000000000002
          },
          {
            "name": "C4",
            "midi": 60,
            "time": 3.1500000000000004,
            "velocity": 0.5118110236220472,
            "duration": 0.4500000000000002
          },
          {
            "name": "A3",
            "midi": 57,
            "time": 3.1500000000000004,
            "velocity": 0.5118110236220472,
            "duration": 0.4500000000000002
          },
          {
            "name": "E3",
            "midi": 52,
            "time": 3.1500000000000004,
            "velocity": 0.5118110236220472,
            "duration": 0.4500000000000002
          },
          {
            "name": "A2",
            "midi": 45,
            "time": 3.1500000000000004,
            "velocity": 0.5118110236220472,
            "duration": 0.4500000000000002
          },
          {
            "name": "A2",
            "midi": 45,
            "time": 3.6000000000000005,
            "velocity": 0.5118110236220472,
            "duration": 1.7999999999999998
          },
          {
            "name": "E3",
            "midi": 52,
            "time": 3.6000000000000005,
            "velocity": 0.5118110236220472,
            "duration": 1.7999999999999998
          },
          {
            "name": "A3",
            "midi": 57,
            "time": 3.6000000000000005,
            "velocity": 0.5118110236220472,
            "duration": 1.7999999999999998
          },
          {
            "name": "C4",
            "midi": 60,
            "time": 3.6000000000000005,
            "velocity": 0.5118110236220472,
            "duration": 1.7999999999999998
          },
          {
            "name": "E4",
            "midi": 64,
            "time": 3.6000000000000005,
            "velocity": 0.5118110236220472,
            "duration": 1.7999999999999998
          },
          {
            "name": "A2",
            "midi": 45,
            "time": 5.4,
            "velocity": 0.5118110236220472,
            "duration": 1.7999999999999998
          },
          {
            "name": "E3",
            "midi": 52,
            "time": 5.4,
            "velocity": 0.5118110236220472,
            "duration": 1.7999999999999998
          },
          {
            "name": "A3",
            "midi": 57,
            "time": 5.4,
            "velocity": 0.5118110236220472,
            "duration": 1.7999999999999998
          },
          {
            "name": "C4",
            "midi": 60,
            "time": 5.4,
            "velocity": 0.5118110236220472,
            "duration": 1.7999999999999998
          },
          {
            "name": "E4",
            "midi": 64,
            "time": 5.4,
            "velocity": 0.5118110236220472,
            "duration": 1.7999999999999998
          },
          {
            "name": "E4",
            "midi": 64,
            "time": 7.2,
            "velocity": 0.5118110236220472,
            "duration": 0.4500000000000002
          },
          {
            "name": "C4",
            "midi": 60,
            "time": 7.2,
            "velocity": 0.5118110236220472,
            "duration": 0.4500000000000002
          },
          {
            "name": "A3",
            "midi": 57,
            "time": 7.2,
            "velocity": 0.5118110236220472,
            "duration": 0.4500000000000002
          },
          {
            "name": "E3",
            "midi": 52,
            "time": 7.2,
            "velocity": 0.5118110236220472,
            "duration": 0.4500000000000002
          },
          {
            "name": "A2",
            "midi": 45,
            "time": 7.2,
            "velocity": 0.5118110236220472,
            "duration": 0.4500000000000002
          },
          {
            "name": "A2",
            "midi": 45,
            "time": 7.65,
            "velocity": 0.5118110236220472,
            "duration": 0.4499999999999993
          },
          {
            "name": "E3",
            "midi": 52,
            "time": 7.65,
            "velocity": 0.5118110236220472,
            "duration": 0.4499999999999993
          },
          {
            "name": "A3",
            "midi": 57,
            "time": 7.65,
            "velocity": 0.5118110236220472,
            "duration": 0.4499999999999993
          },
          {
            "name": "C4",
            "midi": 60,
            "time": 7.65,
            "velocity": 0.5118110236220472,
            "duration": 0.4499999999999993
          },
          {
            "name": "E4",
            "midi": 64,
            "time": 7.65,
            "velocity": 0.5118110236220472,
            "duration": 0.4499999999999993
          },
          {
            "name": "A2",
            "midi": 45,
            "time": 8.1,
            "velocity": 0.5118110236220472,
            "duration": 0.4499999999999993
          },
          {
            "name": "E3",
            "midi": 52,
            "time": 8.1,
            "velocity": 0.5118110236220472,
            "duration": 0.4499999999999993
          },
          {
            "name": "A3",
            "midi": 57,
            "time": 8.1,
            "velocity": 0.5118110236220472,
            "duration": 0.4499999999999993
          },
          {
            "name": "C4",
            "midi": 60,
            "time": 8.1,
            "velocity": 0.5118110236220472,
            "duration": 0.4499999999999993
          },
          {
            "name": "E4",
            "midi": 64,
            "time": 8.1,
            "velocity": 0.5118110236220472,
            "duration": 0.4499999999999993
          },
          {
            "name": "E4",
            "midi": 64,
            "time": 8.549999999999999,
            "velocity": 0.5118110236220472,
            "duration": 0.4499999999999993
          },
          {
            "name": "C4",
            "midi": 60,
            "time": 8.549999999999999,
            "velocity": 0.5118110236220472,
            "duration": 0.4499999999999993
          },
          {
            "name": "A3",
            "midi": 57,
            "time": 8.549999999999999,
            "velocity": 0.5118110236220472,
            "duration": 0.4499999999999993
          },
          {
            "name": "E3",
            "midi": 52,
            "time": 8.549999999999999,
            "velocity": 0.5118110236220472,
            "duration": 0.4499999999999993
          },
          {
            "name": "A2",
            "midi": 45,
            "time": 8.549999999999999,
            "velocity": 0.5118110236220472,
            "duration": 0.4499999999999993
          },
          {
            "name": "A2",
            "midi": 45,
            "time": 8.999999999999998,
            "velocity": 0.5118110236220472,
            "duration": 0.4499999999999993
          },
          {
            "name": "E3",
            "midi": 52,
            "time": 8.999999999999998,
            "velocity": 0.5118110236220472,
            "duration": 0.4499999999999993
          },
          {
            "name": "A3",
            "midi": 57,
            "time": 8.999999999999998,
            "velocity": 0.5118110236220472,
            "duration": 0.4499999999999993
          },
          {
            "name": "C4",
            "midi": 60,
            "time": 8.999999999999998,
            "velocity": 0.5118110236220472,
            "duration": 0.4499999999999993
          },
          {
            "name": "E4",
            "midi": 64,
            "time": 8.999999999999998,
            "velocity": 0.5118110236220472,
            "duration": 0.4499999999999993
          },
          {
            "name": "A2",
            "midi": 45,
            "time": 9.449999999999998,
            "velocity": 0.5118110236220472,
            "duration": 0.4499999999999993
          },
          {
            "name": "E3",
            "midi": 52,
            "time": 9.449999999999998,
            "velocity": 0.5118110236220472,
            "duration": 0.4499999999999993
          },
          {
            "name": "A3",
            "midi": 57,
            "time": 9.449999999999998,
            "velocity": 0.5118110236220472,
            "duration": 0.4499999999999993
          },
          {
            "name": "C4",
            "midi": 60,
            "time": 9.449999999999998,
            "velocity": 0.5118110236220472,
            "duration": 0.4499999999999993
          },
          {
            "name": "E4",
            "midi": 64,
            "time": 9.449999999999998,
            "velocity": 0.5118110236220472,
            "duration": 0.4499999999999993
          },
          {
            "name": "E4",
            "midi": 64,
            "time": 9.899999999999997,
            "velocity": 0.5118110236220472,
            "duration": 0.4499999999999993
          },
          {
            "name": "C4",
            "midi": 60,
            "time": 9.899999999999997,
            "velocity": 0.5118110236220472,
            "duration": 0.4499999999999993
          },
          {
            "name": "A3",
            "midi": 57,
            "time": 9.899999999999997,
            "velocity": 0.5118110236220472,
            "duration": 0.4499999999999993
          },
          {
            "name": "E3",
            "midi": 52,
            "time": 9.899999999999997,
            "velocity": 0.5118110236220472,
            "duration": 0.4499999999999993
          },
          {
            "name": "A2",
            "midi": 45,
            "time": 9.899999999999997,
            "velocity": 0.5118110236220472,
            "duration": 0.4499999999999993
          },
          {
            "name": "A2",
            "midi": 45,
            "time": 10.349999999999996,
            "velocity": 0.5118110236220472,
            "duration": 0.4499999999999993
          },
          {
            "name": "E3",
            "midi": 52,
            "time": 10.349999999999996,
            "velocity": 0.5118110236220472,
            "duration": 0.4499999999999993
          },
          {
            "name": "A3",
            "midi": 57,
            "time": 10.349999999999996,
            "velocity": 0.5118110236220472,
            "duration": 0.4499999999999993
          },
          {
            "name": "C4",
            "midi": 60,
            "time": 10.349999999999996,
            "velocity": 0.5118110236220472,
            "duration": 0.4499999999999993
          },
          {
            "name": "E4",
            "midi": 64,
            "time": 10.349999999999996,
            "velocity": 0.5118110236220472,
            "duration": 0.4499999999999993
          },
          {
            "name": "E3",
            "midi": 52,
            "time": 10.799999999999995,
            "velocity": 0.5118110236220472,
            "duration": 0.4499999999999993
          },
          {
            "name": "B3",
            "midi": 59,
            "time": 10.799999999999995,
            "velocity": 0.5118110236220472,
            "duration": 0.4499999999999993
          },
          {
            "name": "G#3",
            "midi": 56,
            "time": 10.799999999999995,
            "velocity": 0.5118110236220472,
            "duration": 0.4499999999999993
          },
          {
            "name": "E4",
            "midi": 64,
            "time": 10.799999999999995,
            "velocity": 0.5118110236220472,
            "duration": 0.4499999999999993
          },
          {
            "name": "B2",
            "midi": 47,
            "time": 10.799999999999995,
            "velocity": 0.5118110236220472,
            "duration": 0.4499999999999993
          },
          {
            "name": "E2",
            "midi": 40,
            "time": 10.799999999999995,
            "velocity": 0.5118110236220472,
            "duration": 0.4499999999999993
          },
          {
            "name": "E2",
            "midi": 40,
            "time": 11.249999999999995,
            "velocity": 0.5118110236220472,
            "duration": 0.4499999999999993
          },
          {
            "name": "B2",
            "midi": 47,
            "time": 11.249999999999995,
            "velocity": 0.5118110236220472,
            "duration": 0.4499999999999993
          },
          {
            "name": "E4",
            "midi": 64,
            "time": 11.249999999999995,
            "velocity": 0.5118110236220472,
            "duration": 0.4499999999999993
          },
          {
            "name": "G#3",
            "midi": 56,
            "time": 11.249999999999995,
            "velocity": 0.5118110236220472,
            "duration": 0.4499999999999993
          },
          {
            "name": "B3",
            "midi": 59,
            "time": 11.249999999999995,
            "velocity": 0.5118110236220472,
            "duration": 0.4499999999999993
          },
          {
            "name": "E3",
            "midi": 52,
            "time": 11.249999999999995,
            "velocity": 0.5118110236220472,
            "duration": 0.4499999999999993
          },
          {
            "name": "E3",
            "midi": 52,
            "time": 11.699999999999994,
            "velocity": 0.5118110236220472,
            "duration": 0.4499999999999993
          },
          {
            "name": "B3",
            "midi": 59,
            "time": 11.699999999999994,
            "velocity": 0.5118110236220472,
            "duration": 0.4499999999999993
          },
          {
            "name": "G#3",
            "midi": 56,
            "time": 11.699999999999994,
            "velocity": 0.5118110236220472,
            "duration": 0.4499999999999993
          },
          {
            "name": "E4",
            "midi": 64,
            "time": 11.699999999999994,
            "velocity": 0.5118110236220472,
            "duration": 0.4499999999999993
          },
          {
            "name": "B2",
            "midi": 47,
            "time": 11.699999999999994,
            "velocity": 0.5118110236220472,
            "duration": 0.4499999999999993
          },
          {
            "name": "E2",
            "midi": 40,
            "time": 11.699999999999994,
            "velocity": 0.5118110236220472,
            "duration": 0.4499999999999993
          },
          {
            "name": "E3",
            "midi": 52,
            "time": 12.149999999999993,
            "velocity": 0.5118110236220472,
            "duration": 0.4499999999999993
          },
          {
            "name": "B3",
            "midi": 59,
            "time": 12.149999999999993,
            "velocity": 0.5118110236220472,
            "duration": 0.4499999999999993
          },
          {
            "name": "G#3",
            "midi": 56,
            "time": 12.149999999999993,
            "velocity": 0.5118110236220472,
            "duration": 0.4499999999999993
          },
          {
            "name": "E4",
            "midi": 64,
            "time": 12.149999999999993,
            "velocity": 0.5118110236220472,
            "duration": 0.4499999999999993
          },
          {
            "name": "B2",
            "midi": 47,
            "time": 12.149999999999993,
            "velocity": 0.5118110236220472,
            "duration": 0.4499999999999993
          },
          {
            "name": "E2",
            "midi": 40,
            "time": 12.149999999999993,
            "velocity": 0.5118110236220472,
            "duration": 0.4499999999999993
          },
          {
            "name": "E2",
            "midi": 40,
            "time": 12.599999999999993,
            "velocity": 0.5118110236220472,
            "duration": 0.4499999999999993
          },
          {
            "name": "B2",
            "midi": 47,
            "time": 12.599999999999993,
            "velocity": 0.5118110236220472,
            "duration": 0.4499999999999993
          },
          {
            "name": "E4",
            "midi": 64,
            "time": 12.599999999999993,
            "velocity": 0.5118110236220472,
            "duration": 0.4499999999999993
          },
          {
            "name": "G#3",
            "midi": 56,
            "time": 12.599999999999993,
            "velocity": 0.5118110236220472,
            "duration": 0.4499999999999993
          },
          {
            "name": "B3",
            "midi": 59,
            "time": 12.599999999999993,
            "velocity": 0.5118110236220472,
            "duration": 0.4499999999999993
          },
          {
            "name": "E3",
            "midi": 52,
            "time": 12.599999999999993,
            "velocity": 0.5118110236220472,
            "duration": 0.4499999999999993
          },
          {
            "name": "E3",
            "midi": 52,
            "time": 13.049999999999992,
            "velocity": 0.5118110236220472,
            "duration": 0.4499999999999993
          },
          {
            "name": "B3",
            "midi": 59,
            "time": 13.049999999999992,
            "velocity": 0.5118110236220472,
            "duration": 0.4499999999999993
          },
          {
            "name": "G#3",
            "midi": 56,
            "time": 13.049999999999992,
            "velocity": 0.5118110236220472,
            "duration": 0.4499999999999993
          },
          {
            "name": "E4",
            "midi": 64,
            "time": 13.049999999999992,
            "velocity": 0.5118110236220472,
            "duration": 0.4499999999999993
          },
          {
            "name": "B2",
            "midi": 47,
            "time": 13.049999999999992,
            "velocity": 0.5118110236220472,
            "duration": 0.4499999999999993
          },
          {
            "name": "E2",
            "midi": 40,
            "time": 13.049999999999992,
            "velocity": 0.5118110236220472,
            "duration": 0.4499999999999993
          },
          {
            "name": "E2",
            "midi": 40,
            "time": 13.499999999999991,
            "velocity": 0.5118110236220472,
            "duration": 0.4499999999999993
          },
          {
            "name": "B2",
            "midi": 47,
            "time": 13.499999999999991,
            "velocity": 0.5118110236220472,
            "duration": 0.4499999999999993
          },
          {
            "name": "E4",
            "midi": 64,
            "time": 13.499999999999991,
            "velocity": 0.5118110236220472,
            "duration": 0.4499999999999993
          },
          {
            "name": "G#3",
            "midi": 56,
            "time": 13.499999999999991,
            "velocity": 0.5118110236220472,
            "duration": 0.4499999999999993
          },
          {
            "name": "B3",
            "midi": 59,
            "time": 13.499999999999991,
            "velocity": 0.5118110236220472,
            "duration": 0.4499999999999993
          },
          {
            "name": "E3",
            "midi": 52,
            "time": 13.499999999999991,
            "velocity": 0.5118110236220472,
            "duration": 0.4499999999999993
          },
          {
            "name": "E3",
            "midi": 52,
            "time": 13.94999999999999,
            "velocity": 0.5118110236220472,
            "duration": 0.4499999999999993
          },
          {
            "name": "B3",
            "midi": 59,
            "time": 13.94999999999999,
            "velocity": 0.5118110236220472,
            "duration": 0.4499999999999993
          },
          {
            "name": "G#3",
            "midi": 56,
            "time": 13.94999999999999,
            "velocity": 0.5118110236220472,
            "duration": 0.4499999999999993
          },
          {
            "name": "E4",
            "midi": 64,
            "time": 13.94999999999999,
            "velocity": 0.5118110236220472,
            "duration": 0.4499999999999993
          },
          {
            "name": "B2",
            "midi": 47,
            "time": 13.94999999999999,
            "velocity": 0.5118110236220472,
            "duration": 0.4499999999999993
          },
          {
            "name": "E2",
            "midi": 40,
            "time": 13.94999999999999,
            "velocity": 0.5118110236220472,
            "duration": 0.4499999999999993
          },
          {
            "name": "G4",
            "midi": 67,
            "time": 14.39999999999999,
            "velocity": 0.5118110236220472,
            "duration": 0.4499999999999993
          },
          {
            "name": "B3",
            "midi": 59,
            "time": 14.39999999999999,
            "velocity": 0.5118110236220472,
            "duration": 0.4499999999999993
          },
          {
            "name": "G3",
            "midi": 55,
            "time": 14.39999999999999,
            "velocity": 0.5118110236220472,
            "duration": 0.4499999999999993
          },
          {
            "name": "D3",
            "midi": 50,
            "time": 14.39999999999999,
            "velocity": 0.5118110236220472,
            "duration": 0.4499999999999993
          },
          {
            "name": "B2",
            "midi": 47,
            "time": 14.39999999999999,
            "velocity": 0.5118110236220472,
            "duration": 0.4499999999999993
          },
          {
            "name": "G2",
            "midi": 43,
            "time": 14.39999999999999,
            "velocity": 0.5118110236220472,
            "duration": 0.4499999999999993
          },
          {
            "name": "G2",
            "midi": 43,
            "time": 14.849999999999989,
            "velocity": 0.5118110236220472,
            "duration": 0.4499999999999993
          },
          {
            "name": "B2",
            "midi": 47,
            "time": 14.849999999999989,
            "velocity": 0.5118110236220472,
            "duration": 0.4499999999999993
          },
          {
            "name": "D3",
            "midi": 50,
            "time": 14.849999999999989,
            "velocity": 0.5118110236220472,
            "duration": 0.4499999999999993
          },
          {
            "name": "G3",
            "midi": 55,
            "time": 14.849999999999989,
            "velocity": 0.5118110236220472,
            "duration": 0.4499999999999993
          },
          {
            "name": "B3",
            "midi": 59,
            "time": 14.849999999999989,
            "velocity": 0.5118110236220472,
            "duration": 0.4499999999999993
          },
          {
            "name": "G4",
            "midi": 67,
            "time": 14.849999999999989,
            "velocity": 0.5118110236220472,
            "duration": 0.4499999999999993
          },
          {
            "name": "G4",
            "midi": 67,
            "time": 15.299999999999988,
            "velocity": 0.5118110236220472,
            "duration": 0.4499999999999993
          },
          {
            "name": "B3",
            "midi": 59,
            "time": 15.299999999999988,
            "velocity": 0.5118110236220472,
            "duration": 0.4499999999999993
          },
          {
            "name": "G3",
            "midi": 55,
            "time": 15.299999999999988,
            "velocity": 0.5118110236220472,
            "duration": 0.4499999999999993
          },
          {
            "name": "D3",
            "midi": 50,
            "time": 15.299999999999988,
            "velocity": 0.5118110236220472,
            "duration": 0.4499999999999993
          },
          {
            "name": "B2",
            "midi": 47,
            "time": 15.299999999999988,
            "velocity": 0.5118110236220472,
            "duration": 0.4499999999999993
          },
          {
            "name": "G2",
            "midi": 43,
            "time": 15.299999999999988,
            "velocity": 0.5118110236220472,
            "duration": 0.4499999999999993
          },
          {
            "name": "G2",
            "midi": 43,
            "time": 15.749999999999988,
            "velocity": 0.5118110236220472,
            "duration": 0.45000000000000107
          },
          {
            "name": "B2",
            "midi": 47,
            "time": 15.749999999999988,
            "velocity": 0.5118110236220472,
            "duration": 0.45000000000000107
          },
          {
            "name": "D3",
            "midi": 50,
            "time": 15.749999999999988,
            "velocity": 0.5118110236220472,
            "duration": 0.45000000000000107
          },
          {
            "name": "G3",
            "midi": 55,
            "time": 15.749999999999988,
            "velocity": 0.5118110236220472,
            "duration": 0.45000000000000107
          },
          {
            "name": "B3",
            "midi": 59,
            "time": 15.749999999999988,
            "velocity": 0.5118110236220472,
            "duration": 0.45000000000000107
          },
          {
            "name": "G4",
            "midi": 67,
            "time": 15.749999999999988,
            "velocity": 0.5118110236220472,
            "duration": 0.45000000000000107
          },
          {
            "name": "G4",
            "midi": 67,
            "time": 16.19999999999999,
            "velocity": 0.5118110236220472,
            "duration": 0.4499999999999993
          },
          {
            "name": "B3",
            "midi": 59,
            "time": 16.19999999999999,
            "velocity": 0.5118110236220472,
            "duration": 0.4499999999999993
          },
          {
            "name": "G3",
            "midi": 55,
            "time": 16.19999999999999,
            "velocity": 0.5118110236220472,
            "duration": 0.4499999999999993
          },
          {
            "name": "D3",
            "midi": 50,
            "time": 16.19999999999999,
            "velocity": 0.5118110236220472,
            "duration": 0.4499999999999993
          },
          {
            "name": "B2",
            "midi": 47,
            "time": 16.19999999999999,
            "velocity": 0.5118110236220472,
            "duration": 0.4499999999999993
          },
          {
            "name": "G2",
            "midi": 43,
            "time": 16.19999999999999,
            "velocity": 0.5118110236220472,
            "duration": 0.4499999999999993
          },
          {
            "name": "G2",
            "midi": 43,
            "time": 16.649999999999988,
            "velocity": 0.5118110236220472,
            "duration": 0.4499999999999993
          },
          {
            "name": "B2",
            "midi": 47,
            "time": 16.649999999999988,
            "velocity": 0.5118110236220472,
            "duration": 0.4499999999999993
          },
          {
            "name": "D3",
            "midi": 50,
            "time": 16.649999999999988,
            "velocity": 0.5118110236220472,
            "duration": 0.4499999999999993
          },
          {
            "name": "G3",
            "midi": 55,
            "time": 16.649999999999988,
            "velocity": 0.5118110236220472,
            "duration": 0.4499999999999993
          },
          {
            "name": "B3",
            "midi": 59,
            "time": 16.649999999999988,
            "velocity": 0.5118110236220472,
            "duration": 0.4499999999999993
          },
          {
            "name": "G4",
            "midi": 67,
            "time": 16.649999999999988,
            "velocity": 0.5118110236220472,
            "duration": 0.4499999999999993
          },
          {
            "name": "G4",
            "midi": 67,
            "time": 17.099999999999987,
            "velocity": 0.5118110236220472,
            "duration": 0.4499999999999993
          },
          {
            "name": "B3",
            "midi": 59,
            "time": 17.099999999999987,
            "velocity": 0.5118110236220472,
            "duration": 0.4499999999999993
          },
          {
            "name": "G3",
            "midi": 55,
            "time": 17.099999999999987,
            "velocity": 0.5118110236220472,
            "duration": 0.4499999999999993
          },
          {
            "name": "D3",
            "midi": 50,
            "time": 17.099999999999987,
            "velocity": 0.5118110236220472,
            "duration": 0.4499999999999993
          },
          {
            "name": "B2",
            "midi": 47,
            "time": 17.099999999999987,
            "velocity": 0.5118110236220472,
            "duration": 0.4499999999999993
          },
          {
            "name": "G2",
            "midi": 43,
            "time": 17.099999999999987,
            "velocity": 0.5118110236220472,
            "duration": 0.4499999999999993
          },
          {
            "name": "G2",
            "midi": 43,
            "time": 17.549999999999986,
            "velocity": 0.5118110236220472,
            "duration": 0.4499999999999993
          },
          {
            "name": "B2",
            "midi": 47,
            "time": 17.549999999999986,
            "velocity": 0.5118110236220472,
            "duration": 0.4499999999999993
          },
          {
            "name": "D3",
            "midi": 50,
            "time": 17.549999999999986,
            "velocity": 0.5118110236220472,
            "duration": 0.4499999999999993
          },
          {
            "name": "G3",
            "midi": 55,
            "time": 17.549999999999986,
            "velocity": 0.5118110236220472,
            "duration": 0.4499999999999993
          },
          {
            "name": "B3",
            "midi": 59,
            "time": 17.549999999999986,
            "velocity": 0.5118110236220472,
            "duration": 0.4499999999999993
          },
          {
            "name": "G4",
            "midi": 67,
            "time": 17.549999999999986,
            "velocity": 0.5118110236220472,
            "duration": 0.4499999999999993
          },
          {
            "name": "D3",
            "midi": 50,
            "time": 17.999999999999986,
            "velocity": 0.5118110236220472,
            "duration": 0.4499999999999993
          },
          {
            "name": "A3",
            "midi": 57,
            "time": 17.999999999999986,
            "velocity": 0.5118110236220472,
            "duration": 0.4499999999999993
          },
          {
            "name": "D4",
            "midi": 62,
            "time": 17.999999999999986,
            "velocity": 0.5118110236220472,
            "duration": 0.4499999999999993
          },
          {
            "name": "F4",
            "midi": 65,
            "time": 17.999999999999986,
            "velocity": 0.5118110236220472,
            "duration": 0.4499999999999993
          },
          {
            "name": "F4",
            "midi": 65,
            "time": 18.449999999999985,
            "velocity": 0.5118110236220472,
            "duration": 0.4499999999999993
          },
          {
            "name": "D4",
            "midi": 62,
            "time": 18.449999999999985,
            "velocity": 0.5118110236220472,
            "duration": 0.4499999999999993
          },
          {
            "name": "A3",
            "midi": 57,
            "time": 18.449999999999985,
            "velocity": 0.5118110236220472,
            "duration": 0.4499999999999993
          },
          {
            "name": "D3",
            "midi": 50,
            "time": 18.449999999999985,
            "velocity": 0.5118110236220472,
            "duration": 0.4499999999999993
          },
          {
            "name": "D3",
            "midi": 50,
            "time": 18.899999999999984,
            "velocity": 0.5118110236220472,
            "duration": 0.4499999999999993
          },
          {
            "name": "A3",
            "midi": 57,
            "time": 18.899999999999984,
            "velocity": 0.5118110236220472,
            "duration": 0.4499999999999993
          },
          {
            "name": "D4",
            "midi": 62,
            "time": 18.899999999999984,
            "velocity": 0.5118110236220472,
            "duration": 0.4499999999999993
          },
          {
            "name": "F4",
            "midi": 65,
            "time": 18.899999999999984,
            "velocity": 0.5118110236220472,
            "duration": 0.4499999999999993
          },
          {
            "name": "D3",
            "midi": 50,
            "time": 19.349999999999984,
            "velocity": 0.5118110236220472,
            "duration": 0.4499999999999993
          },
          {
            "name": "A3",
            "midi": 57,
            "time": 19.349999999999984,
            "velocity": 0.5118110236220472,
            "duration": 0.4499999999999993
          },
          {
            "name": "D4",
            "midi": 62,
            "time": 19.349999999999984,
            "velocity": 0.5118110236220472,
            "duration": 0.4499999999999993
          },
          {
            "name": "F4",
            "midi": 65,
            "time": 19.349999999999984,
            "velocity": 0.5118110236220472,
            "duration": 0.4499999999999993
          },
          {
            "name": "D3",
            "midi": 50,
            "time": 19.799999999999983,
            "velocity": 0.5118110236220472,
            "duration": 0.4499999999999993
          },
          {
            "name": "A3",
            "midi": 57,
            "time": 19.799999999999983,
            "velocity": 0.5118110236220472,
            "duration": 0.4499999999999993
          },
          {
            "name": "D4",
            "midi": 62,
            "time": 19.799999999999983,
            "velocity": 0.5118110236220472,
            "duration": 0.4499999999999993
          },
          {
            "name": "F4",
            "midi": 65,
            "time": 19.799999999999983,
            "velocity": 0.5118110236220472,
            "duration": 0.4499999999999993
          },
          {
            "name": "F4",
            "midi": 65,
            "time": 20.249999999999982,
            "velocity": 0.5118110236220472,
            "duration": 0.4499999999999993
          },
          {
            "name": "D4",
            "midi": 62,
            "time": 20.249999999999982,
            "velocity": 0.5118110236220472,
            "duration": 0.4499999999999993
          },
          {
            "name": "A3",
            "midi": 57,
            "time": 20.249999999999982,
            "velocity": 0.5118110236220472,
            "duration": 0.4499999999999993
          },
          {
            "name": "D3",
            "midi": 50,
            "time": 20.249999999999982,
            "velocity": 0.5118110236220472,
            "duration": 0.4499999999999993
          },
          {
            "name": "D3",
            "midi": 50,
            "time": 20.69999999999998,
            "velocity": 0.5118110236220472,
            "duration": 0.4499999999999993
          },
          {
            "name": "A3",
            "midi": 57,
            "time": 20.69999999999998,
            "velocity": 0.5118110236220472,
            "duration": 0.4499999999999993
          },
          {
            "name": "D4",
            "midi": 62,
            "time": 20.69999999999998,
            "velocity": 0.5118110236220472,
            "duration": 0.4499999999999993
          },
          {
            "name": "F4",
            "midi": 65,
            "time": 20.69999999999998,
            "velocity": 0.5118110236220472,
            "duration": 0.4499999999999993
          },
          {
            "name": "D3",
            "midi": 50,
            "time": 21.14999999999998,
            "velocity": 0.5118110236220472,
            "duration": 0.4499999999999993
          },
          {
            "name": "A3",
            "midi": 57,
            "time": 21.14999999999998,
            "velocity": 0.5118110236220472,
            "duration": 0.4499999999999993
          },
          {
            "name": "D4",
            "midi": 62,
            "time": 21.14999999999998,
            "velocity": 0.5118110236220472,
            "duration": 0.4499999999999993
          },
          {
            "name": "F4",
            "midi": 65,
            "time": 21.14999999999998,
            "velocity": 0.5118110236220472,
            "duration": 0.4499999999999993
          },
          {
            "name": "E4",
            "midi": 64,
            "time": 21.59999999999998,
            "velocity": 0.5118110236220472,
            "duration": 0.4499999999999993
          },
          {
            "name": "C4",
            "midi": 60,
            "time": 21.59999999999998,
            "velocity": 0.5118110236220472,
            "duration": 0.4499999999999993
          },
          {
            "name": "A3",
            "midi": 57,
            "time": 21.59999999999998,
            "velocity": 0.5118110236220472,
            "duration": 0.4499999999999993
          },
          {
            "name": "E3",
            "midi": 52,
            "time": 21.59999999999998,
            "velocity": 0.5118110236220472,
            "duration": 0.4499999999999993
          },
          {
            "name": "A2",
            "midi": 45,
            "time": 21.59999999999998,
            "velocity": 0.5118110236220472,
            "duration": 0.4499999999999993
          },
          {
            "name": "A2",
            "midi": 45,
            "time": 22.04999999999998,
            "velocity": 0.5118110236220472,
            "duration": 0.4499999999999993
          },
          {
            "name": "E3",
            "midi": 52,
            "time": 22.04999999999998,
            "velocity": 0.5118110236220472,
            "duration": 0.4499999999999993
          },
          {
            "name": "A3",
            "midi": 57,
            "time": 22.04999999999998,
            "velocity": 0.5118110236220472,
            "duration": 0.4499999999999993
          },
          {
            "name": "C4",
            "midi": 60,
            "time": 22.04999999999998,
            "velocity": 0.5118110236220472,
            "duration": 0.4499999999999993
          },
          {
            "name": "E4",
            "midi": 64,
            "time": 22.04999999999998,
            "velocity": 0.5118110236220472,
            "duration": 0.4499999999999993
          },
          {
            "name": "A2",
            "midi": 45,
            "time": 22.49999999999998,
            "velocity": 0.5118110236220472,
            "duration": 0.4499999999999993
          },
          {
            "name": "E3",
            "midi": 52,
            "time": 22.49999999999998,
            "velocity": 0.5118110236220472,
            "duration": 0.4499999999999993
          },
          {
            "name": "A3",
            "midi": 57,
            "time": 22.49999999999998,
            "velocity": 0.5118110236220472,
            "duration": 0.4499999999999993
          },
          {
            "name": "C4",
            "midi": 60,
            "time": 22.49999999999998,
            "velocity": 0.5118110236220472,
            "duration": 0.4499999999999993
          },
          {
            "name": "E4",
            "midi": 64,
            "time": 22.49999999999998,
            "velocity": 0.5118110236220472,
            "duration": 0.4499999999999993
          },
          {
            "name": "E4",
            "midi": 64,
            "time": 22.949999999999978,
            "velocity": 0.5118110236220472,
            "duration": 0.4499999999999993
          },
          {
            "name": "C4",
            "midi": 60,
            "time": 22.949999999999978,
            "velocity": 0.5118110236220472,
            "duration": 0.4499999999999993
          },
          {
            "name": "A3",
            "midi": 57,
            "time": 22.949999999999978,
            "velocity": 0.5118110236220472,
            "duration": 0.4499999999999993
          },
          {
            "name": "E3",
            "midi": 52,
            "time": 22.949999999999978,
            "velocity": 0.5118110236220472,
            "duration": 0.4499999999999993
          },
          {
            "name": "A2",
            "midi": 45,
            "time": 22.949999999999978,
            "velocity": 0.5118110236220472,
            "duration": 0.4499999999999993
          },
          {
            "name": "A2",
            "midi": 45,
            "time": 23.399999999999977,
            "velocity": 0.5118110236220472,
            "duration": 0.4499999999999993
          },
          {
            "name": "E3",
            "midi": 52,
            "time": 23.399999999999977,
            "velocity": 0.5118110236220472,
            "duration": 0.4499999999999993
          },
          {
            "name": "A3",
            "midi": 57,
            "time": 23.399999999999977,
            "velocity": 0.5118110236220472,
            "duration": 0.4499999999999993
          },
          {
            "name": "C4",
            "midi": 60,
            "time": 23.399999999999977,
            "velocity": 0.5118110236220472,
            "duration": 0.4499999999999993
          },
          {
            "name": "E4",
            "midi": 64,
            "time": 23.399999999999977,
            "velocity": 0.5118110236220472,
            "duration": 0.4499999999999993
          },
          {
            "name": "A2",
            "midi": 45,
            "time": 23.849999999999977,
            "velocity": 0.5118110236220472,
            "duration": 0.4499999999999993
          },
          {
            "name": "E3",
            "midi": 52,
            "time": 23.849999999999977,
            "velocity": 0.5118110236220472,
            "duration": 0.4499999999999993
          },
          {
            "name": "A3",
            "midi": 57,
            "time": 23.849999999999977,
            "velocity": 0.5118110236220472,
            "duration": 0.4499999999999993
          },
          {
            "name": "C4",
            "midi": 60,
            "time": 23.849999999999977,
            "velocity": 0.5118110236220472,
            "duration": 0.4499999999999993
          },
          {
            "name": "E4",
            "midi": 64,
            "time": 23.849999999999977,
            "velocity": 0.5118110236220472,
            "duration": 0.4499999999999993
          },
          {
            "name": "E4",
            "midi": 64,
            "time": 24.299999999999976,
            "velocity": 0.5118110236220472,
            "duration": 0.4499999999999993
          },
          {
            "name": "C4",
            "midi": 60,
            "time": 24.299999999999976,
            "velocity": 0.5118110236220472,
            "duration": 0.4499999999999993
          },
          {
            "name": "A3",
            "midi": 57,
            "time": 24.299999999999976,
            "velocity": 0.5118110236220472,
            "duration": 0.4499999999999993
          },
          {
            "name": "E3",
            "midi": 52,
            "time": 24.299999999999976,
            "velocity": 0.5118110236220472,
            "duration": 0.4499999999999993
          },
          {
            "name": "A2",
            "midi": 45,
            "time": 24.299999999999976,
            "velocity": 0.5118110236220472,
            "duration": 0.4499999999999993
          },
          {
            "name": "A2",
            "midi": 45,
            "time": 24.749999999999975,
            "velocity": 0.5118110236220472,
            "duration": 0.4499999999999993
          },
          {
            "name": "E3",
            "midi": 52,
            "time": 24.749999999999975,
            "velocity": 0.5118110236220472,
            "duration": 0.4499999999999993
          },
          {
            "name": "A3",
            "midi": 57,
            "time": 24.749999999999975,
            "velocity": 0.5118110236220472,
            "duration": 0.4499999999999993
          },
          {
            "name": "C4",
            "midi": 60,
            "time": 24.749999999999975,
            "velocity": 0.5118110236220472,
            "duration": 0.4499999999999993
          },
          {
            "name": "E4",
            "midi": 64,
            "time": 24.749999999999975,
            "velocity": 0.5118110236220472,
            "duration": 0.4499999999999993
          },
          {
            "name": "E3",
            "midi": 52,
            "time": 25.199999999999974,
            "velocity": 0.5118110236220472,
            "duration": 0.4499999999999993
          },
          {
            "name": "B3",
            "midi": 59,
            "time": 25.199999999999974,
            "velocity": 0.5118110236220472,
            "duration": 0.4499999999999993
          },
          {
            "name": "G#3",
            "midi": 56,
            "time": 25.199999999999974,
            "velocity": 0.5118110236220472,
            "duration": 0.4499999999999993
          },
          {
            "name": "E4",
            "midi": 64,
            "time": 25.199999999999974,
            "velocity": 0.5118110236220472,
            "duration": 0.4499999999999993
          },
          {
            "name": "B2",
            "midi": 47,
            "time": 25.199999999999974,
            "velocity": 0.5118110236220472,
            "duration": 0.4499999999999993
          },
          {
            "name": "E2",
            "midi": 40,
            "time": 25.199999999999974,
            "velocity": 0.5118110236220472,
            "duration": 0.4499999999999993
          },
          {
            "name": "E2",
            "midi": 40,
            "time": 25.649999999999974,
            "velocity": 0.5118110236220472,
            "duration": 0.4499999999999993
          },
          {
            "name": "B2",
            "midi": 47,
            "time": 25.649999999999974,
            "velocity": 0.5118110236220472,
            "duration": 0.4499999999999993
          },
          {
            "name": "E4",
            "midi": 64,
            "time": 25.649999999999974,
            "velocity": 0.5118110236220472,
            "duration": 0.4499999999999993
          },
          {
            "name": "G#3",
            "midi": 56,
            "time": 25.649999999999974,
            "velocity": 0.5118110236220472,
            "duration": 0.4499999999999993
          },
          {
            "name": "B3",
            "midi": 59,
            "time": 25.649999999999974,
            "velocity": 0.5118110236220472,
            "duration": 0.4499999999999993
          },
          {
            "name": "E3",
            "midi": 52,
            "time": 25.649999999999974,
            "velocity": 0.5118110236220472,
            "duration": 0.4499999999999993
          },
          {
            "name": "E3",
            "midi": 52,
            "time": 26.099999999999973,
            "velocity": 0.5118110236220472,
            "duration": 0.4499999999999993
          },
          {
            "name": "B3",
            "midi": 59,
            "time": 26.099999999999973,
            "velocity": 0.5118110236220472,
            "duration": 0.4499999999999993
          },
          {
            "name": "G#3",
            "midi": 56,
            "time": 26.099999999999973,
            "velocity": 0.5118110236220472,
            "duration": 0.4499999999999993
          },
          {
            "name": "E4",
            "midi": 64,
            "time": 26.099999999999973,
            "velocity": 0.5118110236220472,
            "duration": 0.4499999999999993
          },
          {
            "name": "B2",
            "midi": 47,
            "time": 26.099999999999973,
            "velocity": 0.5118110236220472,
            "duration": 0.4499999999999993
          },
          {
            "name": "E2",
            "midi": 40,
            "time": 26.099999999999973,
            "velocity": 0.5118110236220472,
            "duration": 0.4499999999999993
          },
          {
            "name": "E3",
            "midi": 52,
            "time": 26.549999999999972,
            "velocity": 0.5118110236220472,
            "duration": 0.4499999999999993
          },
          {
            "name": "B3",
            "midi": 59,
            "time": 26.549999999999972,
            "velocity": 0.5118110236220472,
            "duration": 0.4499999999999993
          },
          {
            "name": "G#3",
            "midi": 56,
            "time": 26.549999999999972,
            "velocity": 0.5118110236220472,
            "duration": 0.4499999999999993
          },
          {
            "name": "E4",
            "midi": 64,
            "time": 26.549999999999972,
            "velocity": 0.5118110236220472,
            "duration": 0.4499999999999993
          },
          {
            "name": "B2",
            "midi": 47,
            "time": 26.549999999999972,
            "velocity": 0.5118110236220472,
            "duration": 0.4499999999999993
          },
          {
            "name": "E2",
            "midi": 40,
            "time": 26.549999999999972,
            "velocity": 0.5118110236220472,
            "duration": 0.4499999999999993
          },
          {
            "name": "E2",
            "midi": 40,
            "time": 26.99999999999997,
            "velocity": 0.5118110236220472,
            "duration": 0.4499999999999993
          },
          {
            "name": "B2",
            "midi": 47,
            "time": 26.99999999999997,
            "velocity": 0.5118110236220472,
            "duration": 0.4499999999999993
          },
          {
            "name": "E4",
            "midi": 64,
            "time": 26.99999999999997,
            "velocity": 0.5118110236220472,
            "duration": 0.4499999999999993
          },
          {
            "name": "G#3",
            "midi": 56,
            "time": 26.99999999999997,
            "velocity": 0.5118110236220472,
            "duration": 0.4499999999999993
          },
          {
            "name": "B3",
            "midi": 59,
            "time": 26.99999999999997,
            "velocity": 0.5118110236220472,
            "duration": 0.4499999999999993
          },
          {
            "name": "E3",
            "midi": 52,
            "time": 26.99999999999997,
            "velocity": 0.5118110236220472,
            "duration": 0.4499999999999993
          },
          {
            "name": "E3",
            "midi": 52,
            "time": 27.44999999999997,
            "velocity": 0.5118110236220472,
            "duration": 0.4499999999999993
          },
          {
            "name": "B3",
            "midi": 59,
            "time": 27.44999999999997,
            "velocity": 0.5118110236220472,
            "duration": 0.4499999999999993
          },
          {
            "name": "G#3",
            "midi": 56,
            "time": 27.44999999999997,
            "velocity": 0.5118110236220472,
            "duration": 0.4499999999999993
          },
          {
            "name": "E4",
            "midi": 64,
            "time": 27.44999999999997,
            "velocity": 0.5118110236220472,
            "duration": 0.4499999999999993
          },
          {
            "name": "B2",
            "midi": 47,
            "time": 27.44999999999997,
            "velocity": 0.5118110236220472,
            "duration": 0.4499999999999993
          },
          {
            "name": "E2",
            "midi": 40,
            "time": 27.44999999999997,
            "velocity": 0.5118110236220472,
            "duration": 0.4499999999999993
          },
          {
            "name": "E2",
            "midi": 40,
            "time": 27.89999999999997,
            "velocity": 0.5118110236220472,
            "duration": 0.4499999999999993
          },
          {
            "name": "B2",
            "midi": 47,
            "time": 27.89999999999997,
            "velocity": 0.5118110236220472,
            "duration": 0.4499999999999993
          },
          {
            "name": "E4",
            "midi": 64,
            "time": 27.89999999999997,
            "velocity": 0.5118110236220472,
            "duration": 0.4499999999999993
          },
          {
            "name": "G#3",
            "midi": 56,
            "time": 27.89999999999997,
            "velocity": 0.5118110236220472,
            "duration": 0.4499999999999993
          },
          {
            "name": "B3",
            "midi": 59,
            "time": 27.89999999999997,
            "velocity": 0.5118110236220472,
            "duration": 0.4499999999999993
          },
          {
            "name": "E3",
            "midi": 52,
            "time": 27.89999999999997,
            "velocity": 0.5118110236220472,
            "duration": 0.4499999999999993
          },
          {
            "name": "E3",
            "midi": 52,
            "time": 28.34999999999997,
            "velocity": 0.5118110236220472,
            "duration": 0.4499999999999993
          },
          {
            "name": "B3",
            "midi": 59,
            "time": 28.34999999999997,
            "velocity": 0.5118110236220472,
            "duration": 0.4499999999999993
          },
          {
            "name": "G#3",
            "midi": 56,
            "time": 28.34999999999997,
            "velocity": 0.5118110236220472,
            "duration": 0.4499999999999993
          },
          {
            "name": "E4",
            "midi": 64,
            "time": 28.34999999999997,
            "velocity": 0.5118110236220472,
            "duration": 0.4499999999999993
          },
          {
            "name": "B2",
            "midi": 47,
            "time": 28.34999999999997,
            "velocity": 0.5118110236220472,
            "duration": 0.4499999999999993
          },
          {
            "name": "E2",
            "midi": 40,
            "time": 28.34999999999997,
            "velocity": 0.5118110236220472,
            "duration": 0.4499999999999993
          },
          {
            "name": "G4",
            "midi": 67,
            "time": 28.79999999999997,
            "velocity": 0.5118110236220472,
            "duration": 0.4499999999999993
          },
          {
            "name": "B3",
            "midi": 59,
            "time": 28.79999999999997,
            "velocity": 0.5118110236220472,
            "duration": 0.4499999999999993
          },
          {
            "name": "G3",
            "midi": 55,
            "time": 28.79999999999997,
            "velocity": 0.5118110236220472,
            "duration": 0.4499999999999993
          },
          {
            "name": "D3",
            "midi": 50,
            "time": 28.79999999999997,
            "velocity": 0.5118110236220472,
            "duration": 0.4499999999999993
          },
          {
            "name": "B2",
            "midi": 47,
            "time": 28.79999999999997,
            "velocity": 0.5118110236220472,
            "duration": 0.4499999999999993
          },
          {
            "name": "G2",
            "midi": 43,
            "time": 28.79999999999997,
            "velocity": 0.5118110236220472,
            "duration": 0.4499999999999993
          },
          {
            "name": "G2",
            "midi": 43,
            "time": 29.249999999999968,
            "velocity": 0.5118110236220472,
            "duration": 0.4499999999999993
          },
          {
            "name": "B2",
            "midi": 47,
            "time": 29.249999999999968,
            "velocity": 0.5118110236220472,
            "duration": 0.4499999999999993
          },
          {
            "name": "D3",
            "midi": 50,
            "time": 29.249999999999968,
            "velocity": 0.5118110236220472,
            "duration": 0.4499999999999993
          },
          {
            "name": "G3",
            "midi": 55,
            "time": 29.249999999999968,
            "velocity": 0.5118110236220472,
            "duration": 0.4499999999999993
          },
          {
            "name": "B3",
            "midi": 59,
            "time": 29.249999999999968,
            "velocity": 0.5118110236220472,
            "duration": 0.4499999999999993
          },
          {
            "name": "G4",
            "midi": 67,
            "time": 29.249999999999968,
            "velocity": 0.5118110236220472,
            "duration": 0.4499999999999993
          },
          {
            "name": "G4",
            "midi": 67,
            "time": 29.699999999999967,
            "velocity": 0.5118110236220472,
            "duration": 0.4499999999999993
          },
          {
            "name": "B3",
            "midi": 59,
            "time": 29.699999999999967,
            "velocity": 0.5118110236220472,
            "duration": 0.4499999999999993
          },
          {
            "name": "G3",
            "midi": 55,
            "time": 29.699999999999967,
            "velocity": 0.5118110236220472,
            "duration": 0.4499999999999993
          },
          {
            "name": "D3",
            "midi": 50,
            "time": 29.699999999999967,
            "velocity": 0.5118110236220472,
            "duration": 0.4499999999999993
          },
          {
            "name": "B2",
            "midi": 47,
            "time": 29.699999999999967,
            "velocity": 0.5118110236220472,
            "duration": 0.4499999999999993
          },
          {
            "name": "G2",
            "midi": 43,
            "time": 29.699999999999967,
            "velocity": 0.5118110236220472,
            "duration": 0.4499999999999993
          },
          {
            "name": "G2",
            "midi": 43,
            "time": 30.149999999999967,
            "velocity": 0.5118110236220472,
            "duration": 0.4499999999999993
          },
          {
            "name": "B2",
            "midi": 47,
            "time": 30.149999999999967,
            "velocity": 0.5118110236220472,
            "duration": 0.4499999999999993
          },
          {
            "name": "D3",
            "midi": 50,
            "time": 30.149999999999967,
            "velocity": 0.5118110236220472,
            "duration": 0.4499999999999993
          },
          {
            "name": "G3",
            "midi": 55,
            "time": 30.149999999999967,
            "velocity": 0.5118110236220472,
            "duration": 0.4499999999999993
          },
          {
            "name": "B3",
            "midi": 59,
            "time": 30.149999999999967,
            "velocity": 0.5118110236220472,
            "duration": 0.4499999999999993
          },
          {
            "name": "G4",
            "midi": 67,
            "time": 30.149999999999967,
            "velocity": 0.5118110236220472,
            "duration": 0.4499999999999993
          },
          {
            "name": "G4",
            "midi": 67,
            "time": 30.599999999999966,
            "velocity": 0.5118110236220472,
            "duration": 0.4499999999999993
          },
          {
            "name": "B3",
            "midi": 59,
            "time": 30.599999999999966,
            "velocity": 0.5118110236220472,
            "duration": 0.4499999999999993
          },
          {
            "name": "G3",
            "midi": 55,
            "time": 30.599999999999966,
            "velocity": 0.5118110236220472,
            "duration": 0.4499999999999993
          },
          {
            "name": "D3",
            "midi": 50,
            "time": 30.599999999999966,
            "velocity": 0.5118110236220472,
            "duration": 0.4499999999999993
          },
          {
            "name": "B2",
            "midi": 47,
            "time": 30.599999999999966,
            "velocity": 0.5118110236220472,
            "duration": 0.4499999999999993
          },
          {
            "name": "G2",
            "midi": 43,
            "time": 30.599999999999966,
            "velocity": 0.5118110236220472,
            "duration": 0.4499999999999993
          },
          {
            "name": "G4",
            "midi": 67,
            "time": 31.049999999999965,
            "velocity": 0.5118110236220472,
            "duration": 0.4499999999999993
          },
          {
            "name": "B3",
            "midi": 59,
            "time": 31.049999999999965,
            "velocity": 0.5118110236220472,
            "duration": 0.4499999999999993
          },
          {
            "name": "G3",
            "midi": 55,
            "time": 31.049999999999965,
            "velocity": 0.5118110236220472,
            "duration": 0.4499999999999993
          },
          {
            "name": "D3",
            "midi": 50,
            "time": 31.049999999999965,
            "velocity": 0.5118110236220472,
            "duration": 0.4499999999999993
          },
          {
            "name": "B2",
            "midi": 47,
            "time": 31.049999999999965,
            "velocity": 0.5118110236220472,
            "duration": 0.4499999999999993
          },
          {
            "name": "G2",
            "midi": 43,
            "time": 31.049999999999965,
            "velocity": 0.5118110236220472,
            "duration": 0.4499999999999993
          },
          {
            "name": "G2",
            "midi": 43,
            "time": 31.499999999999964,
            "velocity": 0.5118110236220472,
            "duration": 0.4499999999999993
          },
          {
            "name": "B2",
            "midi": 47,
            "time": 31.499999999999964,
            "velocity": 0.5118110236220472,
            "duration": 0.4499999999999993
          },
          {
            "name": "D3",
            "midi": 50,
            "time": 31.499999999999964,
            "velocity": 0.5118110236220472,
            "duration": 0.4499999999999993
          },
          {
            "name": "G3",
            "midi": 55,
            "time": 31.499999999999964,
            "velocity": 0.5118110236220472,
            "duration": 0.4499999999999993
          },
          {
            "name": "B3",
            "midi": 59,
            "time": 31.499999999999964,
            "velocity": 0.5118110236220472,
            "duration": 0.4499999999999993
          },
          {
            "name": "G4",
            "midi": 67,
            "time": 31.499999999999964,
            "velocity": 0.5118110236220472,
            "duration": 0.4499999999999993
          },
          {
            "name": "G4",
            "midi": 67,
            "time": 31.949999999999964,
            "velocity": 0.5118110236220472,
            "duration": 0.4499999999999993
          },
          {
            "name": "B3",
            "midi": 59,
            "time": 31.949999999999964,
            "velocity": 0.5118110236220472,
            "duration": 0.4499999999999993
          },
          {
            "name": "G3",
            "midi": 55,
            "time": 31.949999999999964,
            "velocity": 0.5118110236220472,
            "duration": 0.4499999999999993
          },
          {
            "name": "D3",
            "midi": 50,
            "time": 31.949999999999964,
            "velocity": 0.5118110236220472,
            "duration": 0.4499999999999993
          },
          {
            "name": "B2",
            "midi": 47,
            "time": 31.949999999999964,
            "velocity": 0.5118110236220472,
            "duration": 0.4499999999999993
          },
          {
            "name": "G2",
            "midi": 43,
            "time": 31.949999999999964,
            "velocity": 0.5118110236220472,
            "duration": 0.4499999999999993
          },
          {
            "name": "A2",
            "midi": 45,
            "time": 32.39999999999996,
            "velocity": 0.5118110236220472,
            "duration": 0.45000000000000284
          },
          {
            "name": "E3",
            "midi": 52,
            "time": 32.39999999999996,
            "velocity": 0.5118110236220472,
            "duration": 0.45000000000000284
          },
          {
            "name": "A3",
            "midi": 57,
            "time": 32.39999999999996,
            "velocity": 0.5118110236220472,
            "duration": 0.45000000000000284
          },
          {
            "name": "C4",
            "midi": 60,
            "time": 32.39999999999996,
            "velocity": 0.5118110236220472,
            "duration": 0.45000000000000284
          },
          {
            "name": "E4",
            "midi": 64,
            "time": 32.39999999999996,
            "velocity": 0.5118110236220472,
            "duration": 0.45000000000000284
          },
          {
            "name": "E4",
            "midi": 64,
            "time": 32.849999999999966,
            "velocity": 0.5118110236220472,
            "duration": 0.45000000000000284
          },
          {
            "name": "C4",
            "midi": 60,
            "time": 32.849999999999966,
            "velocity": 0.5118110236220472,
            "duration": 0.45000000000000284
          },
          {
            "name": "A3",
            "midi": 57,
            "time": 32.849999999999966,
            "velocity": 0.5118110236220472,
            "duration": 0.45000000000000284
          },
          {
            "name": "E3",
            "midi": 52,
            "time": 32.849999999999966,
            "velocity": 0.5118110236220472,
            "duration": 0.45000000000000284
          },
          {
            "name": "A2",
            "midi": 45,
            "time": 32.849999999999966,
            "velocity": 0.5118110236220472,
            "duration": 0.45000000000000284
          },
          {
            "name": "A2",
            "midi": 45,
            "time": 33.29999999999997,
            "velocity": 0.5118110236220472,
            "duration": 0.45000000000000284
          },
          {
            "name": "E3",
            "midi": 52,
            "time": 33.29999999999997,
            "velocity": 0.5118110236220472,
            "duration": 0.45000000000000284
          },
          {
            "name": "A3",
            "midi": 57,
            "time": 33.29999999999997,
            "velocity": 0.5118110236220472,
            "duration": 0.45000000000000284
          },
          {
            "name": "C4",
            "midi": 60,
            "time": 33.29999999999997,
            "velocity": 0.5118110236220472,
            "duration": 0.45000000000000284
          },
          {
            "name": "E4",
            "midi": 64,
            "time": 33.29999999999997,
            "velocity": 0.5118110236220472,
            "duration": 0.45000000000000284
          },
          {
            "name": "A2",
            "midi": 45,
            "time": 33.74999999999997,
            "velocity": 0.5118110236220472,
            "duration": 0.45000000000000284
          },
          {
            "name": "E3",
            "midi": 52,
            "time": 33.74999999999997,
            "velocity": 0.5118110236220472,
            "duration": 0.45000000000000284
          },
          {
            "name": "A3",
            "midi": 57,
            "time": 33.74999999999997,
            "velocity": 0.5118110236220472,
            "duration": 0.45000000000000284
          },
          {
            "name": "C4",
            "midi": 60,
            "time": 33.74999999999997,
            "velocity": 0.5118110236220472,
            "duration": 0.45000000000000284
          },
          {
            "name": "E4",
            "midi": 64,
            "time": 33.74999999999997,
            "velocity": 0.5118110236220472,
            "duration": 0.45000000000000284
          },
          {
            "name": "E4",
            "midi": 64,
            "time": 34.199999999999974,
            "velocity": 0.5118110236220472,
            "duration": 0.45000000000000284
          },
          {
            "name": "C4",
            "midi": 60,
            "time": 34.199999999999974,
            "velocity": 0.5118110236220472,
            "duration": 0.45000000000000284
          },
          {
            "name": "A3",
            "midi": 57,
            "time": 34.199999999999974,
            "velocity": 0.5118110236220472,
            "duration": 0.45000000000000284
          },
          {
            "name": "E3",
            "midi": 52,
            "time": 34.199999999999974,
            "velocity": 0.5118110236220472,
            "duration": 0.45000000000000284
          },
          {
            "name": "A2",
            "midi": 45,
            "time": 34.199999999999974,
            "velocity": 0.5118110236220472,
            "duration": 0.45000000000000284
          },
          {
            "name": "A2",
            "midi": 45,
            "time": 34.64999999999998,
            "velocity": 0.5118110236220472,
            "duration": 0.45000000000000284
          },
          {
            "name": "E3",
            "midi": 52,
            "time": 34.64999999999998,
            "velocity": 0.5118110236220472,
            "duration": 0.45000000000000284
          },
          {
            "name": "A3",
            "midi": 57,
            "time": 34.64999999999998,
            "velocity": 0.5118110236220472,
            "duration": 0.45000000000000284
          },
          {
            "name": "C4",
            "midi": 60,
            "time": 34.64999999999998,
            "velocity": 0.5118110236220472,
            "duration": 0.45000000000000284
          },
          {
            "name": "E4",
            "midi": 64,
            "time": 34.64999999999998,
            "velocity": 0.5118110236220472,
            "duration": 0.45000000000000284
          },
          {
            "name": "A2",
            "midi": 45,
            "time": 35.09999999999998,
            "velocity": 0.5118110236220472,
            "duration": 0.45000000000000284
          },
          {
            "name": "E3",
            "midi": 52,
            "time": 35.09999999999998,
            "velocity": 0.5118110236220472,
            "duration": 0.45000000000000284
          },
          {
            "name": "A3",
            "midi": 57,
            "time": 35.09999999999998,
            "velocity": 0.5118110236220472,
            "duration": 0.45000000000000284
          },
          {
            "name": "C4",
            "midi": 60,
            "time": 35.09999999999998,
            "velocity": 0.5118110236220472,
            "duration": 0.45000000000000284
          },
          {
            "name": "E4",
            "midi": 64,
            "time": 35.09999999999998,
            "velocity": 0.5118110236220472,
            "duration": 0.45000000000000284
          },
          {
            "name": "E4",
            "midi": 64,
            "time": 35.54999999999998,
            "velocity": 0.5118110236220472,
            "duration": 0.45000000000000284
          },
          {
            "name": "C4",
            "midi": 60,
            "time": 35.54999999999998,
            "velocity": 0.5118110236220472,
            "duration": 0.45000000000000284
          },
          {
            "name": "A3",
            "midi": 57,
            "time": 35.54999999999998,
            "velocity": 0.5118110236220472,
            "duration": 0.45000000000000284
          },
          {
            "name": "E3",
            "midi": 52,
            "time": 35.54999999999998,
            "velocity": 0.5118110236220472,
            "duration": 0.45000000000000284
          },
          {
            "name": "A2",
            "midi": 45,
            "time": 35.54999999999998,
            "velocity": 0.5118110236220472,
            "duration": 0.45000000000000284
          },
          {
            "name": "A3",
            "midi": 57,
            "time": 35.999999999999986,
            "velocity": 0.5118110236220472,
            "duration": 0.45000000000000284
          },
          {
            "name": "E3",
            "midi": 52,
            "time": 35.999999999999986,
            "velocity": 0.5118110236220472,
            "duration": 0.45000000000000284
          },
          {
            "name": "A2",
            "midi": 45,
            "time": 35.999999999999986,
            "velocity": 0.5118110236220472,
            "duration": 0.45000000000000284
          },
          {
            "name": "C4",
            "midi": 60,
            "time": 35.999999999999986,
            "velocity": 0.5118110236220472,
            "duration": 0.45000000000000284
          },
          {
            "name": "E4",
            "midi": 64,
            "time": 35.999999999999986,
            "velocity": 0.5118110236220472,
            "duration": 0.45000000000000284
          },
          {
            "name": "A3",
            "midi": 57,
            "time": 36.44999999999999,
            "velocity": 0.5118110236220472,
            "duration": 0.45000000000000284
          },
          {
            "name": "E3",
            "midi": 52,
            "time": 36.44999999999999,
            "velocity": 0.5118110236220472,
            "duration": 0.45000000000000284
          },
          {
            "name": "A2",
            "midi": 45,
            "time": 36.44999999999999,
            "velocity": 0.5118110236220472,
            "duration": 0.45000000000000284
          },
          {
            "name": "C4",
            "midi": 60,
            "time": 36.44999999999999,
            "velocity": 0.5118110236220472,
            "duration": 0.45000000000000284
          },
          {
            "name": "E4",
            "midi": 64,
            "time": 36.44999999999999,
            "velocity": 0.5118110236220472,
            "duration": 0.45000000000000284
          },
          {
            "name": "E4",
            "midi": 64,
            "time": 36.89999999999999,
            "velocity": 0.5118110236220472,
            "duration": 0.45000000000000284
          },
          {
            "name": "C4",
            "midi": 60,
            "time": 36.89999999999999,
            "velocity": 0.5118110236220472,
            "duration": 0.45000000000000284
          },
          {
            "name": "A2",
            "midi": 45,
            "time": 36.89999999999999,
            "velocity": 0.5118110236220472,
            "duration": 0.45000000000000284
          },
          {
            "name": "E3",
            "midi": 52,
            "time": 36.89999999999999,
            "velocity": 0.5118110236220472,
            "duration": 0.45000000000000284
          },
          {
            "name": "A3",
            "midi": 57,
            "time": 36.89999999999999,
            "velocity": 0.5118110236220472,
            "duration": 0.45000000000000284
          },
          {
            "name": "A3",
            "midi": 57,
            "time": 37.349999999999994,
            "velocity": 0.5118110236220472,
            "duration": 0.45000000000000284
          },
          {
            "name": "E3",
            "midi": 52,
            "time": 37.349999999999994,
            "velocity": 0.5118110236220472,
            "duration": 0.45000000000000284
          },
          {
            "name": "A2",
            "midi": 45,
            "time": 37.349999999999994,
            "velocity": 0.5118110236220472,
            "duration": 0.45000000000000284
          },
          {
            "name": "C4",
            "midi": 60,
            "time": 37.349999999999994,
            "velocity": 0.5118110236220472,
            "duration": 0.45000000000000284
          },
          {
            "name": "E4",
            "midi": 64,
            "time": 37.349999999999994,
            "velocity": 0.5118110236220472,
            "duration": 0.45000000000000284
          },
          {
            "name": "E4",
            "midi": 64,
            "time": 37.8,
            "velocity": 0.5118110236220472,
            "duration": 0.45000000000000284
          },
          {
            "name": "C4",
            "midi": 60,
            "time": 37.8,
            "velocity": 0.5118110236220472,
            "duration": 0.45000000000000284
          },
          {
            "name": "A2",
            "midi": 45,
            "time": 37.8,
            "velocity": 0.5118110236220472,
            "duration": 0.45000000000000284
          },
          {
            "name": "E3",
            "midi": 52,
            "time": 37.8,
            "velocity": 0.5118110236220472,
            "duration": 0.45000000000000284
          },
          {
            "name": "A3",
            "midi": 57,
            "time": 37.8,
            "velocity": 0.5118110236220472,
            "duration": 0.45000000000000284
          },
          {
            "name": "A3",
            "midi": 57,
            "time": 38.25,
            "velocity": 0.5118110236220472,
            "duration": 0.45000000000000284
          },
          {
            "name": "E3",
            "midi": 52,
            "time": 38.25,
            "velocity": 0.5118110236220472,
            "duration": 0.45000000000000284
          },
          {
            "name": "A2",
            "midi": 45,
            "time": 38.25,
            "velocity": 0.5118110236220472,
            "duration": 0.45000000000000284
          },
          {
            "name": "C4",
            "midi": 60,
            "time": 38.25,
            "velocity": 0.5118110236220472,
            "duration": 0.45000000000000284
          },
          {
            "name": "E4",
            "midi": 64,
            "time": 38.25,
            "velocity": 0.5118110236220472,
            "duration": 0.45000000000000284
          },
          {
            "name": "A3",
            "midi": 57,
            "time": 38.7,
            "velocity": 0.5118110236220472,
            "duration": 0.45000000000000284
          },
          {
            "name": "E3",
            "midi": 52,
            "time": 38.7,
            "velocity": 0.5118110236220472,
            "duration": 0.45000000000000284
          },
          {
            "name": "A2",
            "midi": 45,
            "time": 38.7,
            "velocity": 0.5118110236220472,
            "duration": 0.45000000000000284
          },
          {
            "name": "C4",
            "midi": 60,
            "time": 38.7,
            "velocity": 0.5118110236220472,
            "duration": 0.45000000000000284
          },
          {
            "name": "E4",
            "midi": 64,
            "time": 38.7,
            "velocity": 0.5118110236220472,
            "duration": 0.45000000000000284
          },
          {
            "name": "E4",
            "midi": 64,
            "time": 39.150000000000006,
            "velocity": 0.5118110236220472,
            "duration": 0.45000000000000284
          },
          {
            "name": "C4",
            "midi": 60,
            "time": 39.150000000000006,
            "velocity": 0.5118110236220472,
            "duration": 0.45000000000000284
          },
          {
            "name": "A2",
            "midi": 45,
            "time": 39.150000000000006,
            "velocity": 0.5118110236220472,
            "duration": 0.45000000000000284
          },
          {
            "name": "E3",
            "midi": 52,
            "time": 39.150000000000006,
            "velocity": 0.5118110236220472,
            "duration": 0.45000000000000284
          },
          {
            "name": "A3",
            "midi": 57,
            "time": 39.150000000000006,
            "velocity": 0.5118110236220472,
            "duration": 0.45000000000000284
          },
          {
            "name": "G2",
            "midi": 43,
            "time": 39.60000000000001,
            "velocity": 0.5118110236220472,
            "duration": 0.29999999999999716
          },
          {
            "name": "B2",
            "midi": 47,
            "time": 39.60000000000001,
            "velocity": 0.5118110236220472,
            "duration": 0.29999999999999716
          },
          {
            "name": "D3",
            "midi": 50,
            "time": 39.60000000000001,
            "velocity": 0.5118110236220472,
            "duration": 0.29999999999999716
          },
          {
            "name": "G3",
            "midi": 55,
            "time": 39.60000000000001,
            "velocity": 0.5118110236220472,
            "duration": 0.29999999999999716
          },
          {
            "name": "B3",
            "midi": 59,
            "time": 39.60000000000001,
            "velocity": 0.5118110236220472,
            "duration": 0.29999999999999716
          },
          {
            "name": "G4",
            "midi": 67,
            "time": 39.60000000000001,
            "velocity": 0.5118110236220472,
            "duration": 0.29999999999999716
          },
          {
            "name": "G4",
            "midi": 67,
            "time": 39.900000000000006,
            "velocity": 0.5118110236220472,
            "duration": 0.29999999999999716
          },
          {
            "name": "B3",
            "midi": 59,
            "time": 39.900000000000006,
            "velocity": 0.5118110236220472,
            "duration": 0.29999999999999716
          },
          {
            "name": "G3",
            "midi": 55,
            "time": 39.900000000000006,
            "velocity": 0.5118110236220472,
            "duration": 0.29999999999999716
          },
          {
            "name": "D3",
            "midi": 50,
            "time": 39.900000000000006,
            "velocity": 0.5118110236220472,
            "duration": 0.29999999999999716
          },
          {
            "name": "B2",
            "midi": 47,
            "time": 39.900000000000006,
            "velocity": 0.5118110236220472,
            "duration": 0.29999999999999716
          },
          {
            "name": "G2",
            "midi": 43,
            "time": 39.900000000000006,
            "velocity": 0.5118110236220472,
            "duration": 0.29999999999999716
          },
          {
            "name": "G4",
            "midi": 67,
            "time": 40.2,
            "velocity": 0.5118110236220472,
            "duration": 0.29999999999999716
          },
          {
            "name": "B3",
            "midi": 59,
            "time": 40.2,
            "velocity": 0.5118110236220472,
            "duration": 0.29999999999999716
          },
          {
            "name": "G3",
            "midi": 55,
            "time": 40.2,
            "velocity": 0.5118110236220472,
            "duration": 0.29999999999999716
          },
          {
            "name": "D3",
            "midi": 50,
            "time": 40.2,
            "velocity": 0.5118110236220472,
            "duration": 0.29999999999999716
          },
          {
            "name": "B2",
            "midi": 47,
            "time": 40.2,
            "velocity": 0.5118110236220472,
            "duration": 0.29999999999999716
          },
          {
            "name": "G2",
            "midi": 43,
            "time": 40.2,
            "velocity": 0.5118110236220472,
            "duration": 0.29999999999999716
          },
          {
            "name": "G2",
            "midi": 43,
            "time": 40.5,
            "velocity": 0.5118110236220472,
            "duration": 0.29999999999999716
          },
          {
            "name": "B2",
            "midi": 47,
            "time": 40.5,
            "velocity": 0.5118110236220472,
            "duration": 0.29999999999999716
          },
          {
            "name": "D3",
            "midi": 50,
            "time": 40.5,
            "velocity": 0.5118110236220472,
            "duration": 0.29999999999999716
          },
          {
            "name": "G3",
            "midi": 55,
            "time": 40.5,
            "velocity": 0.5118110236220472,
            "duration": 0.29999999999999716
          },
          {
            "name": "B3",
            "midi": 59,
            "time": 40.5,
            "velocity": 0.5118110236220472,
            "duration": 0.29999999999999716
          },
          {
            "name": "G4",
            "midi": 67,
            "time": 40.5,
            "velocity": 0.5118110236220472,
            "duration": 0.29999999999999716
          },
          {
            "name": "G4",
            "midi": 67,
            "time": 40.8,
            "velocity": 0.5118110236220472,
            "duration": 0.29999999999999716
          },
          {
            "name": "B3",
            "midi": 59,
            "time": 40.8,
            "velocity": 0.5118110236220472,
            "duration": 0.29999999999999716
          },
          {
            "name": "G3",
            "midi": 55,
            "time": 40.8,
            "velocity": 0.5118110236220472,
            "duration": 0.29999999999999716
          },
          {
            "name": "D3",
            "midi": 50,
            "time": 40.8,
            "velocity": 0.5118110236220472,
            "duration": 0.29999999999999716
          },
          {
            "name": "B2",
            "midi": 47,
            "time": 40.8,
            "velocity": 0.5118110236220472,
            "duration": 0.29999999999999716
          },
          {
            "name": "G2",
            "midi": 43,
            "time": 40.8,
            "velocity": 0.5118110236220472,
            "duration": 0.29999999999999716
          },
          {
            "name": "G2",
            "midi": 43,
            "time": 41.099999999999994,
            "velocity": 0.5118110236220472,
            "duration": 0.29999999999999716
          },
          {
            "name": "B2",
            "midi": 47,
            "time": 41.099999999999994,
            "velocity": 0.5118110236220472,
            "duration": 0.29999999999999716
          },
          {
            "name": "D3",
            "midi": 50,
            "time": 41.099999999999994,
            "velocity": 0.5118110236220472,
            "duration": 0.29999999999999716
          },
          {
            "name": "G3",
            "midi": 55,
            "time": 41.099999999999994,
            "velocity": 0.5118110236220472,
            "duration": 0.29999999999999716
          },
          {
            "name": "B3",
            "midi": 59,
            "time": 41.099999999999994,
            "velocity": 0.5118110236220472,
            "duration": 0.29999999999999716
          },
          {
            "name": "G4",
            "midi": 67,
            "time": 41.099999999999994,
            "velocity": 0.5118110236220472,
            "duration": 0.29999999999999716
          },
          {
            "name": "G4",
            "midi": 67,
            "time": 41.39999999999999,
            "velocity": 0.5118110236220472,
            "duration": 0.8999999999999986
          },
          {
            "name": "B3",
            "midi": 59,
            "time": 41.39999999999999,
            "velocity": 0.5118110236220472,
            "duration": 0.8999999999999986
          },
          {
            "name": "G3",
            "midi": 55,
            "time": 41.39999999999999,
            "velocity": 0.5118110236220472,
            "duration": 0.8999999999999986
          },
          {
            "name": "D3",
            "midi": 50,
            "time": 41.39999999999999,
            "velocity": 0.5118110236220472,
            "duration": 0.8999999999999986
          },
          {
            "name": "B2",
            "midi": 47,
            "time": 41.39999999999999,
            "velocity": 0.5118110236220472,
            "duration": 0.8999999999999986
          },
          {
            "name": "G2",
            "midi": 43,
            "time": 41.39999999999999,
            "velocity": 0.5118110236220472,
            "duration": 0.8999999999999986
          },
          {
            "name": "A2",
            "midi": 45,
            "time": 42.29999999999999,
            "velocity": 0.5118110236220472,
            "duration": 0.8999999999999986
          },
          {
            "name": "E3",
            "midi": 52,
            "time": 42.29999999999999,
            "velocity": 0.5118110236220472,
            "duration": 0.8999999999999986
          },
          {
            "name": "A3",
            "midi": 57,
            "time": 42.29999999999999,
            "velocity": 0.5118110236220472,
            "duration": 0.8999999999999986
          },
          {
            "name": "C4",
            "midi": 60,
            "time": 42.29999999999999,
            "velocity": 0.5118110236220472,
            "duration": 0.8999999999999986
          },
          {
            "name": "E4",
            "midi": 64,
            "time": 42.29999999999999,
            "velocity": 0.5118110236220472,
            "duration": 0.8999999999999986
          },
          {
            "name": "D3",
            "midi": 50,
            "time": 43.19999999999999,
            "velocity": 0.5118110236220472,
            "duration": 0.45000000000000284
          },
          {
            "name": "A3",
            "midi": 57,
            "time": 43.19999999999999,
            "velocity": 0.5118110236220472,
            "duration": 0.45000000000000284
          },
          {
            "name": "D4",
            "midi": 62,
            "time": 43.19999999999999,
            "velocity": 0.5118110236220472,
            "duration": 0.45000000000000284
          },
          {
            "name": "F4",
            "midi": 65,
            "time": 43.19999999999999,
            "velocity": 0.5118110236220472,
            "duration": 0.45000000000000284
          },
          {
            "name": "F4",
            "midi": 65,
            "time": 43.64999999999999,
            "velocity": 0.5118110236220472,
            "duration": 0.45000000000000284
          },
          {
            "name": "D4",
            "midi": 62,
            "time": 43.64999999999999,
            "velocity": 0.5118110236220472,
            "duration": 0.45000000000000284
          },
          {
            "name": "A3",
            "midi": 57,
            "time": 43.64999999999999,
            "velocity": 0.5118110236220472,
            "duration": 0.45000000000000284
          },
          {
            "name": "D3",
            "midi": 50,
            "time": 43.64999999999999,
            "velocity": 0.5118110236220472,
            "duration": 0.45000000000000284
          },
          {
            "name": "D3",
            "midi": 50,
            "time": 44.099999999999994,
            "velocity": 0.5118110236220472,
            "duration": 0.45000000000000284
          },
          {
            "name": "A3",
            "midi": 57,
            "time": 44.099999999999994,
            "velocity": 0.5118110236220472,
            "duration": 0.45000000000000284
          },
          {
            "name": "D4",
            "midi": 62,
            "time": 44.099999999999994,
            "velocity": 0.5118110236220472,
            "duration": 0.45000000000000284
          },
          {
            "name": "F4",
            "midi": 65,
            "time": 44.099999999999994,
            "velocity": 0.5118110236220472,
            "duration": 0.45000000000000284
          },
          {
            "name": "D3",
            "midi": 50,
            "time": 44.55,
            "velocity": 0.5118110236220472,
            "duration": 0.45000000000000284
          },
          {
            "name": "A3",
            "midi": 57,
            "time": 44.55,
            "velocity": 0.5118110236220472,
            "duration": 0.45000000000000284
          },
          {
            "name": "D4",
            "midi": 62,
            "time": 44.55,
            "velocity": 0.5118110236220472,
            "duration": 0.45000000000000284
          },
          {
            "name": "F4",
            "midi": 65,
            "time": 44.55,
            "velocity": 0.5118110236220472,
            "duration": 0.45000000000000284
          },
          {
            "name": "G4",
            "midi": 67,
            "time": 45,
            "velocity": 0.5118110236220472,
            "duration": 0.8999999999999986
          },
          {
            "name": "B3",
            "midi": 59,
            "time": 45,
            "velocity": 0.5118110236220472,
            "duration": 0.8999999999999986
          },
          {
            "name": "G3",
            "midi": 55,
            "time": 45,
            "velocity": 0.5118110236220472,
            "duration": 0.8999999999999986
          },
          {
            "name": "D3",
            "midi": 50,
            "time": 45,
            "velocity": 0.5118110236220472,
            "duration": 0.8999999999999986
          },
          {
            "name": "B2",
            "midi": 47,
            "time": 45,
            "velocity": 0.5118110236220472,
            "duration": 0.8999999999999986
          },
          {
            "name": "G2",
            "midi": 43,
            "time": 45,
            "velocity": 0.5118110236220472,
            "duration": 0.8999999999999986
          },
          {
            "name": "G2",
            "midi": 43,
            "time": 45.9,
            "velocity": 0.5118110236220472,
            "duration": 0.8999999999999986
          },
          {
            "name": "B2",
            "midi": 47,
            "time": 45.9,
            "velocity": 0.5118110236220472,
            "duration": 0.8999999999999986
          },
          {
            "name": "D3",
            "midi": 50,
            "time": 45.9,
            "velocity": 0.5118110236220472,
            "duration": 0.8999999999999986
          },
          {
            "name": "G3",
            "midi": 55,
            "time": 45.9,
            "velocity": 0.5118110236220472,
            "duration": 0.8999999999999986
          },
          {
            "name": "B3",
            "midi": 59,
            "time": 45.9,
            "velocity": 0.5118110236220472,
            "duration": 0.8999999999999986
          },
          {
            "name": "G4",
            "midi": 67,
            "time": 45.9,
            "velocity": 0.5118110236220472,
            "duration": 0.8999999999999986
          },
          {
            "name": "A2",
            "midi": 45,
            "time": 46.8,
            "velocity": 0.5118110236220472,
            "duration": 0.45000000000000284
          },
          {
            "name": "E3",
            "midi": 52,
            "time": 46.8,
            "velocity": 0.5118110236220472,
            "duration": 0.45000000000000284
          },
          {
            "name": "A3",
            "midi": 57,
            "time": 46.8,
            "velocity": 0.5118110236220472,
            "duration": 0.45000000000000284
          },
          {
            "name": "C4",
            "midi": 60,
            "time": 46.8,
            "velocity": 0.5118110236220472,
            "duration": 0.45000000000000284
          },
          {
            "name": "E4",
            "midi": 64,
            "time": 46.8,
            "velocity": 0.5118110236220472,
            "duration": 0.45000000000000284
          },
          {
            "name": "E4",
            "midi": 64,
            "time": 47.25,
            "velocity": 0.5118110236220472,
            "duration": 0.45000000000000284
          },
          {
            "name": "C4",
            "midi": 60,
            "time": 47.25,
            "velocity": 0.5118110236220472,
            "duration": 0.45000000000000284
          },
          {
            "name": "A3",
            "midi": 57,
            "time": 47.25,
            "velocity": 0.5118110236220472,
            "duration": 0.45000000000000284
          },
          {
            "name": "E3",
            "midi": 52,
            "time": 47.25,
            "velocity": 0.5118110236220472,
            "duration": 0.45000000000000284
          },
          {
            "name": "A2",
            "midi": 45,
            "time": 47.25,
            "velocity": 0.5118110236220472,
            "duration": 0.45000000000000284
          },
          {
            "name": "A2",
            "midi": 45,
            "time": 47.7,
            "velocity": 0.5118110236220472,
            "duration": 0.45000000000000284
          },
          {
            "name": "E3",
            "midi": 52,
            "time": 47.7,
            "velocity": 0.5118110236220472,
            "duration": 0.45000000000000284
          },
          {
            "name": "A3",
            "midi": 57,
            "time": 47.7,
            "velocity": 0.5118110236220472,
            "duration": 0.45000000000000284
          },
          {
            "name": "C4",
            "midi": 60,
            "time": 47.7,
            "velocity": 0.5118110236220472,
            "duration": 0.45000000000000284
          },
          {
            "name": "E4",
            "midi": 64,
            "time": 47.7,
            "velocity": 0.5118110236220472,
            "duration": 0.45000000000000284
          },
          {
            "name": "E4",
            "midi": 64,
            "time": 48.150000000000006,
            "velocity": 0.5118110236220472,
            "duration": 0.45000000000000284
          },
          {
            "name": "C4",
            "midi": 60,
            "time": 48.150000000000006,
            "velocity": 0.5118110236220472,
            "duration": 0.45000000000000284
          },
          {
            "name": "A3",
            "midi": 57,
            "time": 48.150000000000006,
            "velocity": 0.5118110236220472,
            "duration": 0.45000000000000284
          },
          {
            "name": "E3",
            "midi": 52,
            "time": 48.150000000000006,
            "velocity": 0.5118110236220472,
            "duration": 0.45000000000000284
          },
          {
            "name": "A2",
            "midi": 45,
            "time": 48.150000000000006,
            "velocity": 0.5118110236220472,
            "duration": 0.45000000000000284
          },
          {
            "name": "A2",
            "midi": 45,
            "time": 48.60000000000001,
            "velocity": 0.5118110236220472,
            "duration": 0.45000000000000284
          },
          {
            "name": "E3",
            "midi": 52,
            "time": 48.60000000000001,
            "velocity": 0.5118110236220472,
            "duration": 0.45000000000000284
          },
          {
            "name": "A3",
            "midi": 57,
            "time": 48.60000000000001,
            "velocity": 0.5118110236220472,
            "duration": 0.45000000000000284
          },
          {
            "name": "C4",
            "midi": 60,
            "time": 48.60000000000001,
            "velocity": 0.5118110236220472,
            "duration": 0.45000000000000284
          },
          {
            "name": "E4",
            "midi": 64,
            "time": 48.60000000000001,
            "velocity": 0.5118110236220472,
            "duration": 0.45000000000000284
          },
          {
            "name": "A2",
            "midi": 45,
            "time": 49.05000000000001,
            "velocity": 0.5118110236220472,
            "duration": 0.45000000000000284
          },
          {
            "name": "E3",
            "midi": 52,
            "time": 49.05000000000001,
            "velocity": 0.5118110236220472,
            "duration": 0.45000000000000284
          },
          {
            "name": "A3",
            "midi": 57,
            "time": 49.05000000000001,
            "velocity": 0.5118110236220472,
            "duration": 0.45000000000000284
          },
          {
            "name": "C4",
            "midi": 60,
            "time": 49.05000000000001,
            "velocity": 0.5118110236220472,
            "duration": 0.45000000000000284
          },
          {
            "name": "E4",
            "midi": 64,
            "time": 49.05000000000001,
            "velocity": 0.5118110236220472,
            "duration": 0.45000000000000284
          },
          {
            "name": "E4",
            "midi": 64,
            "time": 49.500000000000014,
            "velocity": 0.5118110236220472,
            "duration": 0.45000000000000284
          },
          {
            "name": "C4",
            "midi": 60,
            "time": 49.500000000000014,
            "velocity": 0.5118110236220472,
            "duration": 0.45000000000000284
          },
          {
            "name": "A3",
            "midi": 57,
            "time": 49.500000000000014,
            "velocity": 0.5118110236220472,
            "duration": 0.45000000000000284
          },
          {
            "name": "E3",
            "midi": 52,
            "time": 49.500000000000014,
            "velocity": 0.5118110236220472,
            "duration": 0.45000000000000284
          },
          {
            "name": "A2",
            "midi": 45,
            "time": 49.500000000000014,
            "velocity": 0.5118110236220472,
            "duration": 0.45000000000000284
          },
          {
            "name": "A2",
            "midi": 45,
            "time": 49.95000000000002,
            "velocity": 0.5118110236220472,
            "duration": 0.45000000000000284
          },
          {
            "name": "E3",
            "midi": 52,
            "time": 49.95000000000002,
            "velocity": 0.5118110236220472,
            "duration": 0.45000000000000284
          },
          {
            "name": "A3",
            "midi": 57,
            "time": 49.95000000000002,
            "velocity": 0.5118110236220472,
            "duration": 0.45000000000000284
          },
          {
            "name": "C4",
            "midi": 60,
            "time": 49.95000000000002,
            "velocity": 0.5118110236220472,
            "duration": 0.45000000000000284
          },
          {
            "name": "E4",
            "midi": 64,
            "time": 49.95000000000002,
            "velocity": 0.5118110236220472,
            "duration": 0.45000000000000284
          },
          {
            "name": "F4",
            "midi": 65,
            "time": 50.40000000000002,
            "velocity": 0.5118110236220472,
            "duration": 0.45000000000000284
          },
          {
            "name": "C4",
            "midi": 60,
            "time": 50.40000000000002,
            "velocity": 0.5118110236220472,
            "duration": 0.45000000000000284
          },
          {
            "name": "A3",
            "midi": 57,
            "time": 50.40000000000002,
            "velocity": 0.5118110236220472,
            "duration": 0.45000000000000284
          },
          {
            "name": "F3",
            "midi": 53,
            "time": 50.40000000000002,
            "velocity": 0.5118110236220472,
            "duration": 0.45000000000000284
          },
          {
            "name": "C3",
            "midi": 48,
            "time": 50.40000000000002,
            "velocity": 0.5118110236220472,
            "duration": 0.45000000000000284
          },
          {
            "name": "F2",
            "midi": 41,
            "time": 50.40000000000002,
            "velocity": 0.5118110236220472,
            "duration": 0.45000000000000284
          },
          {
            "name": "F4",
            "midi": 65,
            "time": 50.85000000000002,
            "velocity": 0.5118110236220472,
            "duration": 0.45000000000000284
          },
          {
            "name": "C4",
            "midi": 60,
            "time": 50.85000000000002,
            "velocity": 0.5118110236220472,
            "duration": 0.45000000000000284
          },
          {
            "name": "A3",
            "midi": 57,
            "time": 50.85000000000002,
            "velocity": 0.5118110236220472,
            "duration": 0.45000000000000284
          },
          {
            "name": "F3",
            "midi": 53,
            "time": 50.85000000000002,
            "velocity": 0.5118110236220472,
            "duration": 0.45000000000000284
          },
          {
            "name": "C3",
            "midi": 48,
            "time": 50.85000000000002,
            "velocity": 0.5118110236220472,
            "duration": 0.45000000000000284
          },
          {
            "name": "F2",
            "midi": 41,
            "time": 50.85000000000002,
            "velocity": 0.5118110236220472,
            "duration": 0.45000000000000284
          },
          {
            "name": "F2",
            "midi": 41,
            "time": 51.300000000000026,
            "velocity": 0.5118110236220472,
            "duration": 0.45000000000000284
          },
          {
            "name": "C3",
            "midi": 48,
            "time": 51.300000000000026,
            "velocity": 0.5118110236220472,
            "duration": 0.45000000000000284
          },
          {
            "name": "F3",
            "midi": 53,
            "time": 51.300000000000026,
            "velocity": 0.5118110236220472,
            "duration": 0.45000000000000284
          },
          {
            "name": "A3",
            "midi": 57,
            "time": 51.300000000000026,
            "velocity": 0.5118110236220472,
            "duration": 0.45000000000000284
          },
          {
            "name": "C4",
            "midi": 60,
            "time": 51.300000000000026,
            "velocity": 0.5118110236220472,
            "duration": 0.45000000000000284
          },
          {
            "name": "F4",
            "midi": 65,
            "time": 51.300000000000026,
            "velocity": 0.5118110236220472,
            "duration": 0.45000000000000284
          },
          {
            "name": "F4",
            "midi": 65,
            "time": 51.75000000000003,
            "velocity": 0.5118110236220472,
            "duration": 0.45000000000000284
          },
          {
            "name": "C4",
            "midi": 60,
            "time": 51.75000000000003,
            "velocity": 0.5118110236220472,
            "duration": 0.45000000000000284
          },
          {
            "name": "A3",
            "midi": 57,
            "time": 51.75000000000003,
            "velocity": 0.5118110236220472,
            "duration": 0.45000000000000284
          },
          {
            "name": "F3",
            "midi": 53,
            "time": 51.75000000000003,
            "velocity": 0.5118110236220472,
            "duration": 0.45000000000000284
          },
          {
            "name": "C3",
            "midi": 48,
            "time": 51.75000000000003,
            "velocity": 0.5118110236220472,
            "duration": 0.45000000000000284
          },
          {
            "name": "F2",
            "midi": 41,
            "time": 51.75000000000003,
            "velocity": 0.5118110236220472,
            "duration": 0.45000000000000284
          },
          {
            "name": "G2",
            "midi": 43,
            "time": 52.20000000000003,
            "velocity": 0.5118110236220472,
            "duration": 0.45000000000000284
          },
          {
            "name": "B2",
            "midi": 47,
            "time": 52.20000000000003,
            "velocity": 0.5118110236220472,
            "duration": 0.45000000000000284
          },
          {
            "name": "D3",
            "midi": 50,
            "time": 52.20000000000003,
            "velocity": 0.5118110236220472,
            "duration": 0.45000000000000284
          },
          {
            "name": "G3",
            "midi": 55,
            "time": 52.20000000000003,
            "velocity": 0.5118110236220472,
            "duration": 0.45000000000000284
          },
          {
            "name": "B3",
            "midi": 59,
            "time": 52.20000000000003,
            "velocity": 0.5118110236220472,
            "duration": 0.45000000000000284
          },
          {
            "name": "G4",
            "midi": 67,
            "time": 52.20000000000003,
            "velocity": 0.5118110236220472,
            "duration": 0.45000000000000284
          },
          {
            "name": "G4",
            "midi": 67,
            "time": 52.650000000000034,
            "velocity": 0.5118110236220472,
            "duration": 0.45000000000000284
          },
          {
            "name": "B3",
            "midi": 59,
            "time": 52.650000000000034,
            "velocity": 0.5118110236220472,
            "duration": 0.45000000000000284
          },
          {
            "name": "G3",
            "midi": 55,
            "time": 52.650000000000034,
            "velocity": 0.5118110236220472,
            "duration": 0.45000000000000284
          },
          {
            "name": "D3",
            "midi": 50,
            "time": 52.650000000000034,
            "velocity": 0.5118110236220472,
            "duration": 0.45000000000000284
          },
          {
            "name": "B2",
            "midi": 47,
            "time": 52.650000000000034,
            "velocity": 0.5118110236220472,
            "duration": 0.45000000000000284
          },
          {
            "name": "G2",
            "midi": 43,
            "time": 52.650000000000034,
            "velocity": 0.5118110236220472,
            "duration": 0.45000000000000284
          },
          {
            "name": "G4",
            "midi": 67,
            "time": 53.10000000000004,
            "velocity": 0.5118110236220472,
            "duration": 0.45000000000000284
          },
          {
            "name": "B3",
            "midi": 59,
            "time": 53.10000000000004,
            "velocity": 0.5118110236220472,
            "duration": 0.45000000000000284
          },
          {
            "name": "G3",
            "midi": 55,
            "time": 53.10000000000004,
            "velocity": 0.5118110236220472,
            "duration": 0.45000000000000284
          },
          {
            "name": "D3",
            "midi": 50,
            "time": 53.10000000000004,
            "velocity": 0.5118110236220472,
            "duration": 0.45000000000000284
          },
          {
            "name": "B2",
            "midi": 47,
            "time": 53.10000000000004,
            "velocity": 0.5118110236220472,
            "duration": 0.45000000000000284
          },
          {
            "name": "G2",
            "midi": 43,
            "time": 53.10000000000004,
            "velocity": 0.5118110236220472,
            "duration": 0.45000000000000284
          },
          {
            "name": "G2",
            "midi": 43,
            "time": 53.55000000000004,
            "velocity": 0.5118110236220472,
            "duration": 0.45000000000000284
          },
          {
            "name": "B2",
            "midi": 47,
            "time": 53.55000000000004,
            "velocity": 0.5118110236220472,
            "duration": 0.45000000000000284
          },
          {
            "name": "D3",
            "midi": 50,
            "time": 53.55000000000004,
            "velocity": 0.5118110236220472,
            "duration": 0.45000000000000284
          },
          {
            "name": "G3",
            "midi": 55,
            "time": 53.55000000000004,
            "velocity": 0.5118110236220472,
            "duration": 0.45000000000000284
          },
          {
            "name": "B3",
            "midi": 59,
            "time": 53.55000000000004,
            "velocity": 0.5118110236220472,
            "duration": 0.45000000000000284
          },
          {
            "name": "G4",
            "midi": 67,
            "time": 53.55000000000004,
            "velocity": 0.5118110236220472,
            "duration": 0.45000000000000284
          },
          {
            "name": "F4",
            "midi": 65,
            "time": 54.00000000000004,
            "velocity": 0.5118110236220472,
            "duration": 0.45000000000000284
          },
          {
            "name": "D4",
            "midi": 62,
            "time": 54.00000000000004,
            "velocity": 0.5118110236220472,
            "duration": 0.45000000000000284
          },
          {
            "name": "A3",
            "midi": 57,
            "time": 54.00000000000004,
            "velocity": 0.5118110236220472,
            "duration": 0.45000000000000284
          },
          {
            "name": "D3",
            "midi": 50,
            "time": 54.00000000000004,
            "velocity": 0.5118110236220472,
            "duration": 0.45000000000000284
          },
          {
            "name": "D3",
            "midi": 50,
            "time": 54.450000000000045,
            "velocity": 0.5118110236220472,
            "duration": 0.45000000000000284
          },
          {
            "name": "A3",
            "midi": 57,
            "time": 54.450000000000045,
            "velocity": 0.5118110236220472,
            "duration": 0.45000000000000284
          },
          {
            "name": "D4",
            "midi": 62,
            "time": 54.450000000000045,
            "velocity": 0.5118110236220472,
            "duration": 0.45000000000000284
          },
          {
            "name": "F4",
            "midi": 65,
            "time": 54.450000000000045,
            "velocity": 0.5118110236220472,
            "duration": 0.45000000000000284
          },
          {
            "name": "D3",
            "midi": 50,
            "time": 54.90000000000005,
            "velocity": 0.5118110236220472,
            "duration": 0.45000000000000284
          },
          {
            "name": "A3",
            "midi": 57,
            "time": 54.90000000000005,
            "velocity": 0.5118110236220472,
            "duration": 0.45000000000000284
          },
          {
            "name": "D4",
            "midi": 62,
            "time": 54.90000000000005,
            "velocity": 0.5118110236220472,
            "duration": 0.45000000000000284
          },
          {
            "name": "F4",
            "midi": 65,
            "time": 54.90000000000005,
            "velocity": 0.5118110236220472,
            "duration": 0.45000000000000284
          },
          {
            "name": "F4",
            "midi": 65,
            "time": 55.35000000000005,
            "velocity": 0.5118110236220472,
            "duration": 0.45000000000000284
          },
          {
            "name": "D4",
            "midi": 62,
            "time": 55.35000000000005,
            "velocity": 0.5118110236220472,
            "duration": 0.45000000000000284
          },
          {
            "name": "A3",
            "midi": 57,
            "time": 55.35000000000005,
            "velocity": 0.5118110236220472,
            "duration": 0.45000000000000284
          },
          {
            "name": "D3",
            "midi": 50,
            "time": 55.35000000000005,
            "velocity": 0.5118110236220472,
            "duration": 0.45000000000000284
          },
          {
            "name": "A2",
            "midi": 45,
            "time": 55.800000000000054,
            "velocity": 0.5118110236220472,
            "duration": 0.45000000000000284
          },
          {
            "name": "E3",
            "midi": 52,
            "time": 55.800000000000054,
            "velocity": 0.5118110236220472,
            "duration": 0.45000000000000284
          },
          {
            "name": "A3",
            "midi": 57,
            "time": 55.800000000000054,
            "velocity": 0.5118110236220472,
            "duration": 0.45000000000000284
          },
          {
            "name": "C4",
            "midi": 60,
            "time": 55.800000000000054,
            "velocity": 0.5118110236220472,
            "duration": 0.45000000000000284
          },
          {
            "name": "E4",
            "midi": 64,
            "time": 55.800000000000054,
            "velocity": 0.5118110236220472,
            "duration": 0.45000000000000284
          },
          {
            "name": "A2",
            "midi": 45,
            "time": 56.25000000000006,
            "velocity": 0.5118110236220472,
            "duration": 0.45000000000000284
          },
          {
            "name": "E3",
            "midi": 52,
            "time": 56.25000000000006,
            "velocity": 0.5118110236220472,
            "duration": 0.45000000000000284
          },
          {
            "name": "A3",
            "midi": 57,
            "time": 56.25000000000006,
            "velocity": 0.5118110236220472,
            "duration": 0.45000000000000284
          },
          {
            "name": "C4",
            "midi": 60,
            "time": 56.25000000000006,
            "velocity": 0.5118110236220472,
            "duration": 0.45000000000000284
          },
          {
            "name": "E4",
            "midi": 64,
            "time": 56.25000000000006,
            "velocity": 0.5118110236220472,
            "duration": 0.45000000000000284
          },
          {
            "name": "E4",
            "midi": 64,
            "time": 56.70000000000006,
            "velocity": 0.5118110236220472,
            "duration": 0.45000000000000284
          },
          {
            "name": "C4",
            "midi": 60,
            "time": 56.70000000000006,
            "velocity": 0.5118110236220472,
            "duration": 0.45000000000000284
          },
          {
            "name": "A3",
            "midi": 57,
            "time": 56.70000000000006,
            "velocity": 0.5118110236220472,
            "duration": 0.45000000000000284
          },
          {
            "name": "E3",
            "midi": 52,
            "time": 56.70000000000006,
            "velocity": 0.5118110236220472,
            "duration": 0.45000000000000284
          },
          {
            "name": "A2",
            "midi": 45,
            "time": 56.70000000000006,
            "velocity": 0.5118110236220472,
            "duration": 0.45000000000000284
          },
          {
            "name": "A2",
            "midi": 45,
            "time": 57.15000000000006,
            "velocity": 0.5118110236220472,
            "duration": 0.45000000000000284
          },
          {
            "name": "E3",
            "midi": 52,
            "time": 57.15000000000006,
            "velocity": 0.5118110236220472,
            "duration": 0.45000000000000284
          },
          {
            "name": "A3",
            "midi": 57,
            "time": 57.15000000000006,
            "velocity": 0.5118110236220472,
            "duration": 0.45000000000000284
          },
          {
            "name": "C4",
            "midi": 60,
            "time": 57.15000000000006,
            "velocity": 0.5118110236220472,
            "duration": 0.45000000000000284
          },
          {
            "name": "E4",
            "midi": 64,
            "time": 57.15000000000006,
            "velocity": 0.5118110236220472,
            "duration": 0.45000000000000284
          },
          {
            "name": "F4",
            "midi": 65,
            "time": 57.600000000000065,
            "velocity": 0.5118110236220472,
            "duration": 0.45000000000000284
          },
          {
            "name": "C4",
            "midi": 60,
            "time": 57.600000000000065,
            "velocity": 0.5118110236220472,
            "duration": 0.45000000000000284
          },
          {
            "name": "A3",
            "midi": 57,
            "time": 57.600000000000065,
            "velocity": 0.5118110236220472,
            "duration": 0.45000000000000284
          },
          {
            "name": "F3",
            "midi": 53,
            "time": 57.600000000000065,
            "velocity": 0.5118110236220472,
            "duration": 0.45000000000000284
          },
          {
            "name": "C3",
            "midi": 48,
            "time": 57.600000000000065,
            "velocity": 0.5118110236220472,
            "duration": 0.45000000000000284
          },
          {
            "name": "F2",
            "midi": 41,
            "time": 57.600000000000065,
            "velocity": 0.5118110236220472,
            "duration": 0.45000000000000284
          },
          {
            "name": "F4",
            "midi": 65,
            "time": 58.05000000000007,
            "velocity": 0.5118110236220472,
            "duration": 0.45000000000000284
          },
          {
            "name": "C4",
            "midi": 60,
            "time": 58.05000000000007,
            "velocity": 0.5118110236220472,
            "duration": 0.45000000000000284
          },
          {
            "name": "A3",
            "midi": 57,
            "time": 58.05000000000007,
            "velocity": 0.5118110236220472,
            "duration": 0.45000000000000284
          },
          {
            "name": "F3",
            "midi": 53,
            "time": 58.05000000000007,
            "velocity": 0.5118110236220472,
            "duration": 0.45000000000000284
          },
          {
            "name": "C3",
            "midi": 48,
            "time": 58.05000000000007,
            "velocity": 0.5118110236220472,
            "duration": 0.45000000000000284
          },
          {
            "name": "F2",
            "midi": 41,
            "time": 58.05000000000007,
            "velocity": 0.5118110236220472,
            "duration": 0.45000000000000284
          },
          {
            "name": "F2",
            "midi": 41,
            "time": 58.50000000000007,
            "velocity": 0.5118110236220472,
            "duration": 0.45000000000000284
          },
          {
            "name": "C3",
            "midi": 48,
            "time": 58.50000000000007,
            "velocity": 0.5118110236220472,
            "duration": 0.45000000000000284
          },
          {
            "name": "F3",
            "midi": 53,
            "time": 58.50000000000007,
            "velocity": 0.5118110236220472,
            "duration": 0.45000000000000284
          },
          {
            "name": "A3",
            "midi": 57,
            "time": 58.50000000000007,
            "velocity": 0.5118110236220472,
            "duration": 0.45000000000000284
          },
          {
            "name": "C4",
            "midi": 60,
            "time": 58.50000000000007,
            "velocity": 0.5118110236220472,
            "duration": 0.45000000000000284
          },
          {
            "name": "F4",
            "midi": 65,
            "time": 58.50000000000007,
            "velocity": 0.5118110236220472,
            "duration": 0.45000000000000284
          },
          {
            "name": "F4",
            "midi": 65,
            "time": 58.950000000000074,
            "velocity": 0.5118110236220472,
            "duration": 0.45000000000000284
          },
          {
            "name": "C4",
            "midi": 60,
            "time": 58.950000000000074,
            "velocity": 0.5118110236220472,
            "duration": 0.45000000000000284
          },
          {
            "name": "A3",
            "midi": 57,
            "time": 58.950000000000074,
            "velocity": 0.5118110236220472,
            "duration": 0.45000000000000284
          },
          {
            "name": "F3",
            "midi": 53,
            "time": 58.950000000000074,
            "velocity": 0.5118110236220472,
            "duration": 0.45000000000000284
          },
          {
            "name": "C3",
            "midi": 48,
            "time": 58.950000000000074,
            "velocity": 0.5118110236220472,
            "duration": 0.45000000000000284
          },
          {
            "name": "F2",
            "midi": 41,
            "time": 58.950000000000074,
            "velocity": 0.5118110236220472,
            "duration": 0.45000000000000284
          },
          {
            "name": "D3",
            "midi": 50,
            "time": 59.40000000000008,
            "velocity": 0.5118110236220472,
            "duration": 0.45000000000000284
          },
          {
            "name": "A3",
            "midi": 57,
            "time": 59.40000000000008,
            "velocity": 0.5118110236220472,
            "duration": 0.45000000000000284
          },
          {
            "name": "D4",
            "midi": 62,
            "time": 59.40000000000008,
            "velocity": 0.5118110236220472,
            "duration": 0.45000000000000284
          },
          {
            "name": "F4",
            "midi": 65,
            "time": 59.40000000000008,
            "velocity": 0.5118110236220472,
            "duration": 0.45000000000000284
          },
          {
            "name": "D3",
            "midi": 50,
            "time": 59.85000000000008,
            "velocity": 0.5118110236220472,
            "duration": 0.45000000000000284
          },
          {
            "name": "A3",
            "midi": 57,
            "time": 59.85000000000008,
            "velocity": 0.5118110236220472,
            "duration": 0.45000000000000284
          },
          {
            "name": "D4",
            "midi": 62,
            "time": 59.85000000000008,
            "velocity": 0.5118110236220472,
            "duration": 0.45000000000000284
          },
          {
            "name": "F4",
            "midi": 65,
            "time": 59.85000000000008,
            "velocity": 0.5118110236220472,
            "duration": 0.45000000000000284
          },
          {
            "name": "E3",
            "midi": 52,
            "time": 60.30000000000008,
            "velocity": 0.5118110236220472,
            "duration": 0.45000000000000284
          },
          {
            "name": "B3",
            "midi": 59,
            "time": 60.30000000000008,
            "velocity": 0.5118110236220472,
            "duration": 0.45000000000000284
          },
          {
            "name": "G#3",
            "midi": 56,
            "time": 60.30000000000008,
            "velocity": 0.5118110236220472,
            "duration": 0.45000000000000284
          },
          {
            "name": "E4",
            "midi": 64,
            "time": 60.30000000000008,
            "velocity": 0.5118110236220472,
            "duration": 0.45000000000000284
          },
          {
            "name": "B2",
            "midi": 47,
            "time": 60.30000000000008,
            "velocity": 0.5118110236220472,
            "duration": 0.45000000000000284
          },
          {
            "name": "E2",
            "midi": 40,
            "time": 60.30000000000008,
            "velocity": 0.5118110236220472,
            "duration": 0.45000000000000284
          },
          {
            "name": "E2",
            "midi": 40,
            "time": 60.750000000000085,
            "velocity": 0.5118110236220472,
            "duration": 0.45000000000000284
          },
          {
            "name": "B2",
            "midi": 47,
            "time": 60.750000000000085,
            "velocity": 0.5118110236220472,
            "duration": 0.45000000000000284
          },
          {
            "name": "E4",
            "midi": 64,
            "time": 60.750000000000085,
            "velocity": 0.5118110236220472,
            "duration": 0.45000000000000284
          },
          {
            "name": "G#3",
            "midi": 56,
            "time": 60.750000000000085,
            "velocity": 0.5118110236220472,
            "duration": 0.45000000000000284
          },
          {
            "name": "B3",
            "midi": 59,
            "time": 60.750000000000085,
            "velocity": 0.5118110236220472,
            "duration": 0.45000000000000284
          },
          {
            "name": "E3",
            "midi": 52,
            "time": 60.750000000000085,
            "velocity": 0.5118110236220472,
            "duration": 0.45000000000000284
          },
          {
            "name": "A2",
            "midi": 45,
            "time": 61.20000000000009,
            "velocity": 0.5118110236220472,
            "duration": 0.45000000000000284
          },
          {
            "name": "E3",
            "midi": 52,
            "time": 61.20000000000009,
            "velocity": 0.5118110236220472,
            "duration": 0.45000000000000284
          },
          {
            "name": "A3",
            "midi": 57,
            "time": 61.20000000000009,
            "velocity": 0.5118110236220472,
            "duration": 0.45000000000000284
          },
          {
            "name": "C4",
            "midi": 60,
            "time": 61.20000000000009,
            "velocity": 0.5118110236220472,
            "duration": 0.45000000000000284
          },
          {
            "name": "E4",
            "midi": 64,
            "time": 61.20000000000009,
            "velocity": 0.5118110236220472,
            "duration": 0.45000000000000284
          },
          {
            "name": "E4",
            "midi": 64,
            "time": 61.65000000000009,
            "velocity": 0.5118110236220472,
            "duration": 0.45000000000000284
          },
          {
            "name": "C4",
            "midi": 60,
            "time": 61.65000000000009,
            "velocity": 0.5118110236220472,
            "duration": 0.45000000000000284
          },
          {
            "name": "A3",
            "midi": 57,
            "time": 61.65000000000009,
            "velocity": 0.5118110236220472,
            "duration": 0.45000000000000284
          },
          {
            "name": "E3",
            "midi": 52,
            "time": 61.65000000000009,
            "velocity": 0.5118110236220472,
            "duration": 0.45000000000000284
          },
          {
            "name": "A2",
            "midi": 45,
            "time": 61.65000000000009,
            "velocity": 0.5118110236220472,
            "duration": 0.45000000000000284
          },
          {
            "name": "A2",
            "midi": 45,
            "time": 62.100000000000094,
            "velocity": 0.5118110236220472,
            "duration": 0.45000000000000284
          },
          {
            "name": "E3",
            "midi": 52,
            "time": 62.100000000000094,
            "velocity": 0.5118110236220472,
            "duration": 0.45000000000000284
          },
          {
            "name": "A3",
            "midi": 57,
            "time": 62.100000000000094,
            "velocity": 0.5118110236220472,
            "duration": 0.45000000000000284
          },
          {
            "name": "C4",
            "midi": 60,
            "time": 62.100000000000094,
            "velocity": 0.5118110236220472,
            "duration": 0.45000000000000284
          },
          {
            "name": "E4",
            "midi": 64,
            "time": 62.100000000000094,
            "velocity": 0.5118110236220472,
            "duration": 0.45000000000000284
          },
          {
            "name": "E4",
            "midi": 64,
            "time": 62.5500000000001,
            "velocity": 0.5118110236220472,
            "duration": 0.45000000000000284
          },
          {
            "name": "C4",
            "midi": 60,
            "time": 62.5500000000001,
            "velocity": 0.5118110236220472,
            "duration": 0.45000000000000284
          },
          {
            "name": "A3",
            "midi": 57,
            "time": 62.5500000000001,
            "velocity": 0.5118110236220472,
            "duration": 0.45000000000000284
          },
          {
            "name": "E3",
            "midi": 52,
            "time": 62.5500000000001,
            "velocity": 0.5118110236220472,
            "duration": 0.45000000000000284
          },
          {
            "name": "A2",
            "midi": 45,
            "time": 62.5500000000001,
            "velocity": 0.5118110236220472,
            "duration": 0.45000000000000284
          },
          {
            "name": "A2",
            "midi": 45,
            "time": 63.0000000000001,
            "velocity": 0.5118110236220472,
            "duration": 0.45000000000000284
          },
          {
            "name": "E3",
            "midi": 52,
            "time": 63.0000000000001,
            "velocity": 0.5118110236220472,
            "duration": 0.45000000000000284
          },
          {
            "name": "A3",
            "midi": 57,
            "time": 63.0000000000001,
            "velocity": 0.5118110236220472,
            "duration": 0.45000000000000284
          },
          {
            "name": "C4",
            "midi": 60,
            "time": 63.0000000000001,
            "velocity": 0.5118110236220472,
            "duration": 0.45000000000000284
          },
          {
            "name": "E4",
            "midi": 64,
            "time": 63.0000000000001,
            "velocity": 0.5118110236220472,
            "duration": 0.45000000000000284
          },
          {
            "name": "A2",
            "midi": 45,
            "time": 63.4500000000001,
            "velocity": 0.5118110236220472,
            "duration": 0.45000000000000284
          },
          {
            "name": "E3",
            "midi": 52,
            "time": 63.4500000000001,
            "velocity": 0.5118110236220472,
            "duration": 0.45000000000000284
          },
          {
            "name": "A3",
            "midi": 57,
            "time": 63.4500000000001,
            "velocity": 0.5118110236220472,
            "duration": 0.45000000000000284
          },
          {
            "name": "C4",
            "midi": 60,
            "time": 63.4500000000001,
            "velocity": 0.5118110236220472,
            "duration": 0.45000000000000284
          },
          {
            "name": "E4",
            "midi": 64,
            "time": 63.4500000000001,
            "velocity": 0.5118110236220472,
            "duration": 0.45000000000000284
          },
          {
            "name": "E4",
            "midi": 64,
            "time": 63.900000000000105,
            "velocity": 0.5118110236220472,
            "duration": 0.45000000000000284
          },
          {
            "name": "C4",
            "midi": 60,
            "time": 63.900000000000105,
            "velocity": 0.5118110236220472,
            "duration": 0.45000000000000284
          },
          {
            "name": "A3",
            "midi": 57,
            "time": 63.900000000000105,
            "velocity": 0.5118110236220472,
            "duration": 0.45000000000000284
          },
          {
            "name": "E3",
            "midi": 52,
            "time": 63.900000000000105,
            "velocity": 0.5118110236220472,
            "duration": 0.45000000000000284
          },
          {
            "name": "A2",
            "midi": 45,
            "time": 63.900000000000105,
            "velocity": 0.5118110236220472,
            "duration": 0.45000000000000284
          },
          {
            "name": "A2",
            "midi": 45,
            "time": 64.35000000000011,
            "velocity": 0.5118110236220472,
            "duration": 0.45000000000000284
          },
          {
            "name": "E3",
            "midi": 52,
            "time": 64.35000000000011,
            "velocity": 0.5118110236220472,
            "duration": 0.45000000000000284
          },
          {
            "name": "A3",
            "midi": 57,
            "time": 64.35000000000011,
            "velocity": 0.5118110236220472,
            "duration": 0.45000000000000284
          },
          {
            "name": "C4",
            "midi": 60,
            "time": 64.35000000000011,
            "velocity": 0.5118110236220472,
            "duration": 0.45000000000000284
          },
          {
            "name": "E4",
            "midi": 64,
            "time": 64.35000000000011,
            "velocity": 0.5118110236220472,
            "duration": 0.45000000000000284
          },
          {
            "name": "F4",
            "midi": 65,
            "time": 64.80000000000011,
            "velocity": 0.5118110236220472,
            "duration": 0.45000000000000284
          },
          {
            "name": "C4",
            "midi": 60,
            "time": 64.80000000000011,
            "velocity": 0.5118110236220472,
            "duration": 0.45000000000000284
          },
          {
            "name": "A3",
            "midi": 57,
            "time": 64.80000000000011,
            "velocity": 0.5118110236220472,
            "duration": 0.45000000000000284
          },
          {
            "name": "F3",
            "midi": 53,
            "time": 64.80000000000011,
            "velocity": 0.5118110236220472,
            "duration": 0.45000000000000284
          },
          {
            "name": "C3",
            "midi": 48,
            "time": 64.80000000000011,
            "velocity": 0.5118110236220472,
            "duration": 0.45000000000000284
          },
          {
            "name": "F2",
            "midi": 41,
            "time": 64.80000000000011,
            "velocity": 0.5118110236220472,
            "duration": 0.45000000000000284
          },
          {
            "name": "F4",
            "midi": 65,
            "time": 65.25000000000011,
            "velocity": 0.5118110236220472,
            "duration": 0.45000000000000284
          },
          {
            "name": "C4",
            "midi": 60,
            "time": 65.25000000000011,
            "velocity": 0.5118110236220472,
            "duration": 0.45000000000000284
          },
          {
            "name": "A3",
            "midi": 57,
            "time": 65.25000000000011,
            "velocity": 0.5118110236220472,
            "duration": 0.45000000000000284
          },
          {
            "name": "F3",
            "midi": 53,
            "time": 65.25000000000011,
            "velocity": 0.5118110236220472,
            "duration": 0.45000000000000284
          },
          {
            "name": "C3",
            "midi": 48,
            "time": 65.25000000000011,
            "velocity": 0.5118110236220472,
            "duration": 0.45000000000000284
          },
          {
            "name": "F2",
            "midi": 41,
            "time": 65.25000000000011,
            "velocity": 0.5118110236220472,
            "duration": 0.45000000000000284
          },
          {
            "name": "F2",
            "midi": 41,
            "time": 65.70000000000012,
            "velocity": 0.5118110236220472,
            "duration": 0.45000000000000284
          },
          {
            "name": "C3",
            "midi": 48,
            "time": 65.70000000000012,
            "velocity": 0.5118110236220472,
            "duration": 0.45000000000000284
          },
          {
            "name": "F3",
            "midi": 53,
            "time": 65.70000000000012,
            "velocity": 0.5118110236220472,
            "duration": 0.45000000000000284
          },
          {
            "name": "A3",
            "midi": 57,
            "time": 65.70000000000012,
            "velocity": 0.5118110236220472,
            "duration": 0.45000000000000284
          },
          {
            "name": "C4",
            "midi": 60,
            "time": 65.70000000000012,
            "velocity": 0.5118110236220472,
            "duration": 0.45000000000000284
          },
          {
            "name": "F4",
            "midi": 65,
            "time": 65.70000000000012,
            "velocity": 0.5118110236220472,
            "duration": 0.45000000000000284
          },
          {
            "name": "F4",
            "midi": 65,
            "time": 66.15000000000012,
            "velocity": 0.5118110236220472,
            "duration": 0.45000000000000284
          },
          {
            "name": "C4",
            "midi": 60,
            "time": 66.15000000000012,
            "velocity": 0.5118110236220472,
            "duration": 0.45000000000000284
          },
          {
            "name": "A3",
            "midi": 57,
            "time": 66.15000000000012,
            "velocity": 0.5118110236220472,
            "duration": 0.45000000000000284
          },
          {
            "name": "F3",
            "midi": 53,
            "time": 66.15000000000012,
            "velocity": 0.5118110236220472,
            "duration": 0.45000000000000284
          },
          {
            "name": "C3",
            "midi": 48,
            "time": 66.15000000000012,
            "velocity": 0.5118110236220472,
            "duration": 0.45000000000000284
          },
          {
            "name": "F2",
            "midi": 41,
            "time": 66.15000000000012,
            "velocity": 0.5118110236220472,
            "duration": 0.45000000000000284
          },
          {
            "name": "C3",
            "midi": 48,
            "time": 66.60000000000012,
            "velocity": 0.5118110236220472,
            "duration": 0.45000000000000284
          },
          {
            "name": "E3",
            "midi": 52,
            "time": 66.60000000000012,
            "velocity": 0.5118110236220472,
            "duration": 0.45000000000000284
          },
          {
            "name": "G3",
            "midi": 55,
            "time": 66.60000000000012,
            "velocity": 0.5118110236220472,
            "duration": 0.45000000000000284
          },
          {
            "name": "C4",
            "midi": 60,
            "time": 66.60000000000012,
            "velocity": 0.5118110236220472,
            "duration": 0.45000000000000284
          },
          {
            "name": "E4",
            "midi": 64,
            "time": 66.60000000000012,
            "velocity": 0.5118110236220472,
            "duration": 0.45000000000000284
          },
          {
            "name": "C3",
            "midi": 48,
            "time": 67.05000000000013,
            "velocity": 0.5118110236220472,
            "duration": 0.45000000000000284
          },
          {
            "name": "E3",
            "midi": 52,
            "time": 67.05000000000013,
            "velocity": 0.5118110236220472,
            "duration": 0.45000000000000284
          },
          {
            "name": "G3",
            "midi": 55,
            "time": 67.05000000000013,
            "velocity": 0.5118110236220472,
            "duration": 0.45000000000000284
          },
          {
            "name": "C4",
            "midi": 60,
            "time": 67.05000000000013,
            "velocity": 0.5118110236220472,
            "duration": 0.45000000000000284
          },
          {
            "name": "E4",
            "midi": 64,
            "time": 67.05000000000013,
            "velocity": 0.5118110236220472,
            "duration": 0.45000000000000284
          },
          {
            "name": "E4",
            "midi": 64,
            "time": 67.50000000000013,
            "velocity": 0.5118110236220472,
            "duration": 0.45000000000000284
          },
          {
            "name": "C4",
            "midi": 60,
            "time": 67.50000000000013,
            "velocity": 0.5118110236220472,
            "duration": 0.45000000000000284
          },
          {
            "name": "G3",
            "midi": 55,
            "time": 67.50000000000013,
            "velocity": 0.5118110236220472,
            "duration": 0.45000000000000284
          },
          {
            "name": "E3",
            "midi": 52,
            "time": 67.50000000000013,
            "velocity": 0.5118110236220472,
            "duration": 0.45000000000000284
          },
          {
            "name": "C3",
            "midi": 48,
            "time": 67.50000000000013,
            "velocity": 0.5118110236220472,
            "duration": 0.45000000000000284
          },
          {
            "name": "C3",
            "midi": 48,
            "time": 67.95000000000013,
            "velocity": 0.5118110236220472,
            "duration": 0.45000000000000284
          },
          {
            "name": "E3",
            "midi": 52,
            "time": 67.95000000000013,
            "velocity": 0.5118110236220472,
            "duration": 0.45000000000000284
          },
          {
            "name": "G3",
            "midi": 55,
            "time": 67.95000000000013,
            "velocity": 0.5118110236220472,
            "duration": 0.45000000000000284
          },
          {
            "name": "C4",
            "midi": 60,
            "time": 67.95000000000013,
            "velocity": 0.5118110236220472,
            "duration": 0.45000000000000284
          },
          {
            "name": "E4",
            "midi": 64,
            "time": 67.95000000000013,
            "velocity": 0.5118110236220472,
            "duration": 0.45000000000000284
          },
          {
            "name": "D3",
            "midi": 50,
            "time": 68.40000000000013,
            "velocity": 0.5118110236220472,
            "duration": 0.45000000000000284
          },
          {
            "name": "A3",
            "midi": 57,
            "time": 68.40000000000013,
            "velocity": 0.5118110236220472,
            "duration": 0.45000000000000284
          },
          {
            "name": "D4",
            "midi": 62,
            "time": 68.40000000000013,
            "velocity": 0.5118110236220472,
            "duration": 0.45000000000000284
          },
          {
            "name": "F4",
            "midi": 65,
            "time": 68.40000000000013,
            "velocity": 0.5118110236220472,
            "duration": 0.45000000000000284
          },
          {
            "name": "F4",
            "midi": 65,
            "time": 68.85000000000014,
            "velocity": 0.5118110236220472,
            "duration": 0.45000000000000284
          },
          {
            "name": "D4",
            "midi": 62,
            "time": 68.85000000000014,
            "velocity": 0.5118110236220472,
            "duration": 0.45000000000000284
          },
          {
            "name": "A3",
            "midi": 57,
            "time": 68.85000000000014,
            "velocity": 0.5118110236220472,
            "duration": 0.45000000000000284
          },
          {
            "name": "D3",
            "midi": 50,
            "time": 68.85000000000014,
            "velocity": 0.5118110236220472,
            "duration": 0.45000000000000284
          },
          {
            "name": "D3",
            "midi": 50,
            "time": 69.30000000000014,
            "velocity": 0.5118110236220472,
            "duration": 0.45000000000000284
          },
          {
            "name": "A3",
            "midi": 57,
            "time": 69.30000000000014,
            "velocity": 0.5118110236220472,
            "duration": 0.45000000000000284
          },
          {
            "name": "D4",
            "midi": 62,
            "time": 69.30000000000014,
            "velocity": 0.5118110236220472,
            "duration": 0.45000000000000284
          },
          {
            "name": "F4",
            "midi": 65,
            "time": 69.30000000000014,
            "velocity": 0.5118110236220472,
            "duration": 0.45000000000000284
          },
          {
            "name": "D3",
            "midi": 50,
            "time": 69.75000000000014,
            "velocity": 0.5118110236220472,
            "duration": 0.45000000000000284
          },
          {
            "name": "A3",
            "midi": 57,
            "time": 69.75000000000014,
            "velocity": 0.5118110236220472,
            "duration": 0.45000000000000284
          },
          {
            "name": "D4",
            "midi": 62,
            "time": 69.75000000000014,
            "velocity": 0.5118110236220472,
            "duration": 0.45000000000000284
          },
          {
            "name": "F4",
            "midi": 65,
            "time": 69.75000000000014,
            "velocity": 0.5118110236220472,
            "duration": 0.45000000000000284
          },
          {
            "name": "E4",
            "midi": 64,
            "time": 70.20000000000014,
            "velocity": 0.5118110236220472,
            "duration": 0.45000000000000284
          },
          {
            "name": "C4",
            "midi": 60,
            "time": 70.20000000000014,
            "velocity": 0.5118110236220472,
            "duration": 0.45000000000000284
          },
          {
            "name": "A3",
            "midi": 57,
            "time": 70.20000000000014,
            "velocity": 0.5118110236220472,
            "duration": 0.45000000000000284
          },
          {
            "name": "E3",
            "midi": 52,
            "time": 70.20000000000014,
            "velocity": 0.5118110236220472,
            "duration": 0.45000000000000284
          },
          {
            "name": "A2",
            "midi": 45,
            "time": 70.20000000000014,
            "velocity": 0.5118110236220472,
            "duration": 0.45000000000000284
          },
          {
            "name": "A2",
            "midi": 45,
            "time": 70.65000000000015,
            "velocity": 0.5118110236220472,
            "duration": 0.45000000000000284
          },
          {
            "name": "E3",
            "midi": 52,
            "time": 70.65000000000015,
            "velocity": 0.5118110236220472,
            "duration": 0.45000000000000284
          },
          {
            "name": "A3",
            "midi": 57,
            "time": 70.65000000000015,
            "velocity": 0.5118110236220472,
            "duration": 0.45000000000000284
          },
          {
            "name": "C4",
            "midi": 60,
            "time": 70.65000000000015,
            "velocity": 0.5118110236220472,
            "duration": 0.45000000000000284
          },
          {
            "name": "E4",
            "midi": 64,
            "time": 70.65000000000015,
            "velocity": 0.5118110236220472,
            "duration": 0.45000000000000284
          },
          {
            "name": "A2",
            "midi": 45,
            "time": 71.10000000000015,
            "velocity": 0.5118110236220472,
            "duration": 0.45000000000000284
          },
          {
            "name": "E3",
            "midi": 52,
            "time": 71.10000000000015,
            "velocity": 0.5118110236220472,
            "duration": 0.45000000000000284
          },
          {
            "name": "A3",
            "midi": 57,
            "time": 71.10000000000015,
            "velocity": 0.5118110236220472,
            "duration": 0.45000000000000284
          },
          {
            "name": "C4",
            "midi": 60,
            "time": 71.10000000000015,
            "velocity": 0.5118110236220472,
            "duration": 0.45000000000000284
          },
          {
            "name": "E4",
            "midi": 64,
            "time": 71.10000000000015,
            "velocity": 0.5118110236220472,
            "duration": 0.45000000000000284
          },
          {
            "name": "E4",
            "midi": 64,
            "time": 71.55000000000015,
            "velocity": 0.5118110236220472,
            "duration": 0.45000000000000284
          },
          {
            "name": "C4",
            "midi": 60,
            "time": 71.55000000000015,
            "velocity": 0.5118110236220472,
            "duration": 0.45000000000000284
          },
          {
            "name": "A3",
            "midi": 57,
            "time": 71.55000000000015,
            "velocity": 0.5118110236220472,
            "duration": 0.45000000000000284
          },
          {
            "name": "E3",
            "midi": 52,
            "time": 71.55000000000015,
            "velocity": 0.5118110236220472,
            "duration": 0.45000000000000284
          },
          {
            "name": "A2",
            "midi": 45,
            "time": 71.55000000000015,
            "velocity": 0.5118110236220472,
            "duration": 0.45000000000000284
          },
          {
            "name": "F2",
            "midi": 41,
            "time": 72.00000000000016,
            "velocity": 0.5118110236220472,
            "duration": 0.45000000000000284
          },
          {
            "name": "C3",
            "midi": 48,
            "time": 72.00000000000016,
            "velocity": 0.5118110236220472,
            "duration": 0.45000000000000284
          },
          {
            "name": "F3",
            "midi": 53,
            "time": 72.00000000000016,
            "velocity": 0.5118110236220472,
            "duration": 0.45000000000000284
          },
          {
            "name": "A3",
            "midi": 57,
            "time": 72.00000000000016,
            "velocity": 0.5118110236220472,
            "duration": 0.45000000000000284
          },
          {
            "name": "C4",
            "midi": 60,
            "time": 72.00000000000016,
            "velocity": 0.5118110236220472,
            "duration": 0.45000000000000284
          },
          {
            "name": "F4",
            "midi": 65,
            "time": 72.00000000000016,
            "velocity": 0.5118110236220472,
            "duration": 0.45000000000000284
          },
          {
            "name": "F4",
            "midi": 65,
            "time": 72.45000000000016,
            "velocity": 0.5118110236220472,
            "duration": 0.45000000000000284
          },
          {
            "name": "C4",
            "midi": 60,
            "time": 72.45000000000016,
            "velocity": 0.5118110236220472,
            "duration": 0.45000000000000284
          },
          {
            "name": "A3",
            "midi": 57,
            "time": 72.45000000000016,
            "velocity": 0.5118110236220472,
            "duration": 0.45000000000000284
          },
          {
            "name": "F3",
            "midi": 53,
            "time": 72.45000000000016,
            "velocity": 0.5118110236220472,
            "duration": 0.45000000000000284
          },
          {
            "name": "C3",
            "midi": 48,
            "time": 72.45000000000016,
            "velocity": 0.5118110236220472,
            "duration": 0.45000000000000284
          },
          {
            "name": "F2",
            "midi": 41,
            "time": 72.45000000000016,
            "velocity": 0.5118110236220472,
            "duration": 0.45000000000000284
          },
          {
            "name": "F4",
            "midi": 65,
            "time": 72.90000000000016,
            "velocity": 0.5118110236220472,
            "duration": 0.45000000000000284
          },
          {
            "name": "C4",
            "midi": 60,
            "time": 72.90000000000016,
            "velocity": 0.5118110236220472,
            "duration": 0.45000000000000284
          },
          {
            "name": "A3",
            "midi": 57,
            "time": 72.90000000000016,
            "velocity": 0.5118110236220472,
            "duration": 0.45000000000000284
          },
          {
            "name": "F3",
            "midi": 53,
            "time": 72.90000000000016,
            "velocity": 0.5118110236220472,
            "duration": 0.45000000000000284
          },
          {
            "name": "C3",
            "midi": 48,
            "time": 72.90000000000016,
            "velocity": 0.5118110236220472,
            "duration": 0.45000000000000284
          },
          {
            "name": "F2",
            "midi": 41,
            "time": 72.90000000000016,
            "velocity": 0.5118110236220472,
            "duration": 0.45000000000000284
          },
          {
            "name": "F2",
            "midi": 41,
            "time": 73.35000000000016,
            "velocity": 0.5118110236220472,
            "duration": 0.45000000000000284
          },
          {
            "name": "C3",
            "midi": 48,
            "time": 73.35000000000016,
            "velocity": 0.5118110236220472,
            "duration": 0.45000000000000284
          },
          {
            "name": "F3",
            "midi": 53,
            "time": 73.35000000000016,
            "velocity": 0.5118110236220472,
            "duration": 0.45000000000000284
          },
          {
            "name": "A3",
            "midi": 57,
            "time": 73.35000000000016,
            "velocity": 0.5118110236220472,
            "duration": 0.45000000000000284
          },
          {
            "name": "C4",
            "midi": 60,
            "time": 73.35000000000016,
            "velocity": 0.5118110236220472,
            "duration": 0.45000000000000284
          },
          {
            "name": "F4",
            "midi": 65,
            "time": 73.35000000000016,
            "velocity": 0.5118110236220472,
            "duration": 0.45000000000000284
          },
          {
            "name": "F4",
            "midi": 65,
            "time": 73.80000000000017,
            "velocity": 0.5118110236220472,
            "duration": 0.45000000000000284
          },
          {
            "name": "D4",
            "midi": 62,
            "time": 73.80000000000017,
            "velocity": 0.5118110236220472,
            "duration": 0.45000000000000284
          },
          {
            "name": "A3",
            "midi": 57,
            "time": 73.80000000000017,
            "velocity": 0.5118110236220472,
            "duration": 0.45000000000000284
          },
          {
            "name": "D3",
            "midi": 50,
            "time": 73.80000000000017,
            "velocity": 0.5118110236220472,
            "duration": 0.45000000000000284
          },
          {
            "name": "D3",
            "midi": 50,
            "time": 74.25000000000017,
            "velocity": 0.5118110236220472,
            "duration": 0.45000000000000284
          },
          {
            "name": "A3",
            "midi": 57,
            "time": 74.25000000000017,
            "velocity": 0.5118110236220472,
            "duration": 0.45000000000000284
          },
          {
            "name": "D4",
            "midi": 62,
            "time": 74.25000000000017,
            "velocity": 0.5118110236220472,
            "duration": 0.45000000000000284
          },
          {
            "name": "F4",
            "midi": 65,
            "time": 74.25000000000017,
            "velocity": 0.5118110236220472,
            "duration": 0.45000000000000284
          },
          {
            "name": "D3",
            "midi": 50,
            "time": 74.70000000000017,
            "velocity": 0.5118110236220472,
            "duration": 0.45000000000000284
          },
          {
            "name": "A3",
            "midi": 57,
            "time": 74.70000000000017,
            "velocity": 0.5118110236220472,
            "duration": 0.45000000000000284
          },
          {
            "name": "D4",
            "midi": 62,
            "time": 74.70000000000017,
            "velocity": 0.5118110236220472,
            "duration": 0.45000000000000284
          },
          {
            "name": "F4",
            "midi": 65,
            "time": 74.70000000000017,
            "velocity": 0.5118110236220472,
            "duration": 0.45000000000000284
          },
          {
            "name": "F4",
            "midi": 65,
            "time": 75.15000000000018,
            "velocity": 0.5118110236220472,
            "duration": 0.45000000000000284
          },
          {
            "name": "D4",
            "midi": 62,
            "time": 75.15000000000018,
            "velocity": 0.5118110236220472,
            "duration": 0.45000000000000284
          },
          {
            "name": "A3",
            "midi": 57,
            "time": 75.15000000000018,
            "velocity": 0.5118110236220472,
            "duration": 0.45000000000000284
          },
          {
            "name": "D3",
            "midi": 50,
            "time": 75.15000000000018,
            "velocity": 0.5118110236220472,
            "duration": 0.45000000000000284
          },
          {
            "name": "A2",
            "midi": 45,
            "time": 75.60000000000018,
            "velocity": 0.5118110236220472,
            "duration": 0.45000000000000284
          },
          {
            "name": "E3",
            "midi": 52,
            "time": 75.60000000000018,
            "velocity": 0.5118110236220472,
            "duration": 0.45000000000000284
          },
          {
            "name": "A3",
            "midi": 57,
            "time": 75.60000000000018,
            "velocity": 0.5118110236220472,
            "duration": 0.45000000000000284
          },
          {
            "name": "C4",
            "midi": 60,
            "time": 75.60000000000018,
            "velocity": 0.5118110236220472,
            "duration": 0.45000000000000284
          },
          {
            "name": "E4",
            "midi": 64,
            "time": 75.60000000000018,
            "velocity": 0.5118110236220472,
            "duration": 0.45000000000000284
          },
          {
            "name": "A2",
            "midi": 45,
            "time": 76.05000000000018,
            "velocity": 0.5118110236220472,
            "duration": 0.45000000000000284
          },
          {
            "name": "E3",
            "midi": 52,
            "time": 76.05000000000018,
            "velocity": 0.5118110236220472,
            "duration": 0.45000000000000284
          },
          {
            "name": "A3",
            "midi": 57,
            "time": 76.05000000000018,
            "velocity": 0.5118110236220472,
            "duration": 0.45000000000000284
          },
          {
            "name": "C4",
            "midi": 60,
            "time": 76.05000000000018,
            "velocity": 0.5118110236220472,
            "duration": 0.45000000000000284
          },
          {
            "name": "E4",
            "midi": 64,
            "time": 76.05000000000018,
            "velocity": 0.5118110236220472,
            "duration": 0.45000000000000284
          },
          {
            "name": "E4",
            "midi": 64,
            "time": 76.50000000000018,
            "velocity": 0.5118110236220472,
            "duration": 0.45000000000000284
          },
          {
            "name": "C4",
            "midi": 60,
            "time": 76.50000000000018,
            "velocity": 0.5118110236220472,
            "duration": 0.45000000000000284
          },
          {
            "name": "A3",
            "midi": 57,
            "time": 76.50000000000018,
            "velocity": 0.5118110236220472,
            "duration": 0.45000000000000284
          },
          {
            "name": "E3",
            "midi": 52,
            "time": 76.50000000000018,
            "velocity": 0.5118110236220472,
            "duration": 0.45000000000000284
          },
          {
            "name": "A2",
            "midi": 45,
            "time": 76.50000000000018,
            "velocity": 0.5118110236220472,
            "duration": 0.45000000000000284
          },
          {
            "name": "A2",
            "midi": 45,
            "time": 76.95000000000019,
            "velocity": 0.5118110236220472,
            "duration": 0.45000000000000284
          },
          {
            "name": "E3",
            "midi": 52,
            "time": 76.95000000000019,
            "velocity": 0.5118110236220472,
            "duration": 0.45000000000000284
          },
          {
            "name": "A3",
            "midi": 57,
            "time": 76.95000000000019,
            "velocity": 0.5118110236220472,
            "duration": 0.45000000000000284
          },
          {
            "name": "C4",
            "midi": 60,
            "time": 76.95000000000019,
            "velocity": 0.5118110236220472,
            "duration": 0.45000000000000284
          },
          {
            "name": "E4",
            "midi": 64,
            "time": 76.95000000000019,
            "velocity": 0.5118110236220472,
            "duration": 0.45000000000000284
          },
          {
            "name": "A2",
            "midi": 45,
            "time": 77.40000000000019,
            "velocity": 0.5118110236220472,
            "duration": 0.45000000000000284
          },
          {
            "name": "E3",
            "midi": 52,
            "time": 77.40000000000019,
            "velocity": 0.5118110236220472,
            "duration": 0.45000000000000284
          },
          {
            "name": "A3",
            "midi": 57,
            "time": 77.40000000000019,
            "velocity": 0.5118110236220472,
            "duration": 0.45000000000000284
          },
          {
            "name": "C4",
            "midi": 60,
            "time": 77.40000000000019,
            "velocity": 0.5118110236220472,
            "duration": 0.45000000000000284
          },
          {
            "name": "E4",
            "midi": 64,
            "time": 77.40000000000019,
            "velocity": 0.5118110236220472,
            "duration": 0.45000000000000284
          },
          {
            "name": "E4",
            "midi": 64,
            "time": 77.8500000000002,
            "velocity": 0.5118110236220472,
            "duration": 0.45000000000000284
          },
          {
            "name": "C4",
            "midi": 60,
            "time": 77.8500000000002,
            "velocity": 0.5118110236220472,
            "duration": 0.45000000000000284
          },
          {
            "name": "A3",
            "midi": 57,
            "time": 77.8500000000002,
            "velocity": 0.5118110236220472,
            "duration": 0.45000000000000284
          },
          {
            "name": "E3",
            "midi": 52,
            "time": 77.8500000000002,
            "velocity": 0.5118110236220472,
            "duration": 0.45000000000000284
          },
          {
            "name": "A2",
            "midi": 45,
            "time": 77.8500000000002,
            "velocity": 0.5118110236220472,
            "duration": 0.45000000000000284
          },
          {
            "name": "A2",
            "midi": 45,
            "time": 78.3000000000002,
            "velocity": 0.5118110236220472,
            "duration": 0.45000000000000284
          },
          {
            "name": "E3",
            "midi": 52,
            "time": 78.3000000000002,
            "velocity": 0.5118110236220472,
            "duration": 0.45000000000000284
          },
          {
            "name": "A3",
            "midi": 57,
            "time": 78.3000000000002,
            "velocity": 0.5118110236220472,
            "duration": 0.45000000000000284
          },
          {
            "name": "C4",
            "midi": 60,
            "time": 78.3000000000002,
            "velocity": 0.5118110236220472,
            "duration": 0.45000000000000284
          },
          {
            "name": "E4",
            "midi": 64,
            "time": 78.3000000000002,
            "velocity": 0.5118110236220472,
            "duration": 0.45000000000000284
          },
          {
            "name": "A2",
            "midi": 45,
            "time": 78.7500000000002,
            "velocity": 0.5118110236220472,
            "duration": 0.45000000000000284
          },
          {
            "name": "E3",
            "midi": 52,
            "time": 78.7500000000002,
            "velocity": 0.5118110236220472,
            "duration": 0.45000000000000284
          },
          {
            "name": "A3",
            "midi": 57,
            "time": 78.7500000000002,
            "velocity": 0.5118110236220472,
            "duration": 0.45000000000000284
          },
          {
            "name": "C4",
            "midi": 60,
            "time": 78.7500000000002,
            "velocity": 0.5118110236220472,
            "duration": 0.45000000000000284
          },
          {
            "name": "E4",
            "midi": 64,
            "time": 78.7500000000002,
            "velocity": 0.5118110236220472,
            "duration": 0.45000000000000284
          },
          {
            "name": "E4",
            "midi": 64,
            "time": 79.2000000000002,
            "velocity": 0.5118110236220472,
            "duration": 0.45000000000000284
          },
          {
            "name": "C4",
            "midi": 60,
            "time": 79.2000000000002,
            "velocity": 0.5118110236220472,
            "duration": 0.45000000000000284
          },
          {
            "name": "A3",
            "midi": 57,
            "time": 79.2000000000002,
            "velocity": 0.5118110236220472,
            "duration": 0.45000000000000284
          },
          {
            "name": "E3",
            "midi": 52,
            "time": 79.2000000000002,
            "velocity": 0.5118110236220472,
            "duration": 0.45000000000000284
          },
          {
            "name": "A2",
            "midi": 45,
            "time": 79.2000000000002,
            "velocity": 0.5118110236220472,
            "duration": 0.45000000000000284
          },
          {
            "name": "A2",
            "midi": 45,
            "time": 79.6500000000002,
            "velocity": 0.5118110236220472,
            "duration": 0.45000000000000284
          },
          {
            "name": "E3",
            "midi": 52,
            "time": 79.6500000000002,
            "velocity": 0.5118110236220472,
            "duration": 0.45000000000000284
          },
          {
            "name": "A3",
            "midi": 57,
            "time": 79.6500000000002,
            "velocity": 0.5118110236220472,
            "duration": 0.45000000000000284
          },
          {
            "name": "C4",
            "midi": 60,
            "time": 79.6500000000002,
            "velocity": 0.5118110236220472,
            "duration": 0.45000000000000284
          },
          {
            "name": "E4",
            "midi": 64,
            "time": 79.6500000000002,
            "velocity": 0.5118110236220472,
            "duration": 0.45000000000000284
          },
          {
            "name": "A2",
            "midi": 45,
            "time": 80.10000000000021,
            "velocity": 0.5118110236220472,
            "duration": 0.45000000000000284
          },
          {
            "name": "E3",
            "midi": 52,
            "time": 80.10000000000021,
            "velocity": 0.5118110236220472,
            "duration": 0.45000000000000284
          },
          {
            "name": "A3",
            "midi": 57,
            "time": 80.10000000000021,
            "velocity": 0.5118110236220472,
            "duration": 0.45000000000000284
          },
          {
            "name": "C4",
            "midi": 60,
            "time": 80.10000000000021,
            "velocity": 0.5118110236220472,
            "duration": 0.45000000000000284
          },
          {
            "name": "E4",
            "midi": 64,
            "time": 80.10000000000021,
            "velocity": 0.5118110236220472,
            "duration": 0.45000000000000284
          },
          {
            "name": "E4",
            "midi": 64,
            "time": 80.55000000000021,
            "velocity": 0.5118110236220472,
            "duration": 0.45000000000000284
          },
          {
            "name": "C4",
            "midi": 60,
            "time": 80.55000000000021,
            "velocity": 0.5118110236220472,
            "duration": 0.45000000000000284
          },
          {
            "name": "A3",
            "midi": 57,
            "time": 80.55000000000021,
            "velocity": 0.5118110236220472,
            "duration": 0.45000000000000284
          },
          {
            "name": "E3",
            "midi": 52,
            "time": 80.55000000000021,
            "velocity": 0.5118110236220472,
            "duration": 0.45000000000000284
          },
          {
            "name": "A2",
            "midi": 45,
            "time": 80.55000000000021,
            "velocity": 0.5118110236220472,
            "duration": 0.45000000000000284
          },
          {
            "name": "A2",
            "midi": 45,
            "time": 81.00000000000021,
            "velocity": 0.5118110236220472,
            "duration": 0.9000000000000057
          },
          {
            "name": "E3",
            "midi": 52,
            "time": 81.00000000000021,
            "velocity": 0.5118110236220472,
            "duration": 0.9000000000000057
          },
          {
            "name": "A3",
            "midi": 57,
            "time": 81.00000000000021,
            "velocity": 0.5118110236220472,
            "duration": 0.9000000000000057
          },
          {
            "name": "C4",
            "midi": 60,
            "time": 81.00000000000021,
            "velocity": 0.5118110236220472,
            "duration": 0.9000000000000057
          },
          {
            "name": "E4",
            "midi": 64,
            "time": 81.00000000000021,
            "velocity": 0.5118110236220472,
            "duration": 0.9000000000000057
          },
          {
            "name": "A3",
            "midi": 57,
            "time": 81.90000000000022,
            "velocity": 0.5118110236220472,
            "duration": 0.9000000000000057
          },
          {
            "name": "C4",
            "midi": 60,
            "time": 81.90000000000022,
            "velocity": 0.5118110236220472,
            "duration": 0.9000000000000057
          },
          {
            "name": "E4",
            "midi": 64,
            "time": 81.90000000000022,
            "velocity": 0.5118110236220472,
            "duration": 0.9000000000000057
          },
          {
            "name": "A4",
            "midi": 69,
            "time": 81.90000000000022,
            "velocity": 0.5118110236220472,
            "duration": 0.9000000000000057
          }
        ],
        "controlChanges": {
          "7": [
            {
              "number": 7,
              "time": 0,
              "value": 0.7874015748031497
            }
          ]
        },
        "id": 3,
        "instrumentNumber": 24,
        "instrument": "acoustic guitar (nylon)",
        "instrumentFamily": "guitar",
        "channelNumber": 2,
        "isPercussion": false
      },
      {
        "startTime": 0,
        "duration": 82.80000000000022,
        "length": 891,
        "notes": [
          {
            "name": "A2",
            "midi": 45,
            "time": 0,
            "velocity": 0.5118110236220472,
            "duration": 1.7999999999999998
          },
          {
            "name": "E3",
            "midi": 52,
            "time": 0,
            "velocity": 0.5118110236220472,
            "duration": 1.7999999999999998
          },
          {
            "name": "A3",
            "midi": 57,
            "time": 0,
            "velocity": 0.5118110236220472,
            "duration": 1.7999999999999998
          },
          {
            "name": "C4",
            "midi": 60,
            "time": 0,
            "velocity": 0.5118110236220472,
            "duration": 1.7999999999999998
          },
          {
            "name": "E4",
            "midi": 64,
            "time": 0,
            "velocity": 0.5118110236220472,
            "duration": 1.7999999999999998
          },
          {
            "name": "E4",
            "midi": 64,
            "time": 1.7999999999999998,
            "velocity": 0.5118110236220472,
            "duration": 0.4500000000000002
          },
          {
            "name": "C4",
            "midi": 60,
            "time": 1.7999999999999998,
            "velocity": 0.5118110236220472,
            "duration": 0.4500000000000002
          },
          {
            "name": "A3",
            "midi": 57,
            "time": 1.7999999999999998,
            "velocity": 0.5118110236220472,
            "duration": 0.4500000000000002
          },
          {
            "name": "E3",
            "midi": 52,
            "time": 1.7999999999999998,
            "velocity": 0.5118110236220472,
            "duration": 0.4500000000000002
          },
          {
            "name": "A2",
            "midi": 45,
            "time": 1.7999999999999998,
            "velocity": 0.5118110236220472,
            "duration": 0.4500000000000002
          },
          {
            "name": "A2",
            "midi": 45,
            "time": 2.25,
            "velocity": 0.5118110236220472,
            "duration": 0.4500000000000002
          },
          {
            "name": "E3",
            "midi": 52,
            "time": 2.25,
            "velocity": 0.5118110236220472,
            "duration": 0.4500000000000002
          },
          {
            "name": "A3",
            "midi": 57,
            "time": 2.25,
            "velocity": 0.5118110236220472,
            "duration": 0.4500000000000002
          },
          {
            "name": "C4",
            "midi": 60,
            "time": 2.25,
            "velocity": 0.5118110236220472,
            "duration": 0.4500000000000002
          },
          {
            "name": "E4",
            "midi": 64,
            "time": 2.25,
            "velocity": 0.5118110236220472,
            "duration": 0.4500000000000002
          },
          {
            "name": "A2",
            "midi": 45,
            "time": 2.7,
            "velocity": 0.5118110236220472,
            "duration": 0.4500000000000002
          },
          {
            "name": "E3",
            "midi": 52,
            "time": 2.7,
            "velocity": 0.5118110236220472,
            "duration": 0.4500000000000002
          },
          {
            "name": "A3",
            "midi": 57,
            "time": 2.7,
            "velocity": 0.5118110236220472,
            "duration": 0.4500000000000002
          },
          {
            "name": "C4",
            "midi": 60,
            "time": 2.7,
            "velocity": 0.5118110236220472,
            "duration": 0.4500000000000002
          },
          {
            "name": "E4",
            "midi": 64,
            "time": 2.7,
            "velocity": 0.5118110236220472,
            "duration": 0.4500000000000002
          },
          {
            "name": "E4",
            "midi": 64,
            "time": 3.1500000000000004,
            "velocity": 0.5118110236220472,
            "duration": 0.4500000000000002
          },
          {
            "name": "C4",
            "midi": 60,
            "time": 3.1500000000000004,
            "velocity": 0.5118110236220472,
            "duration": 0.4500000000000002
          },
          {
            "name": "A3",
            "midi": 57,
            "time": 3.1500000000000004,
            "velocity": 0.5118110236220472,
            "duration": 0.4500000000000002
          },
          {
            "name": "E3",
            "midi": 52,
            "time": 3.1500000000000004,
            "velocity": 0.5118110236220472,
            "duration": 0.4500000000000002
          },
          {
            "name": "A2",
            "midi": 45,
            "time": 3.1500000000000004,
            "velocity": 0.5118110236220472,
            "duration": 0.4500000000000002
          },
          {
            "name": "A2",
            "midi": 45,
            "time": 3.6000000000000005,
            "velocity": 0.5118110236220472,
            "duration": 1.7999999999999998
          },
          {
            "name": "E3",
            "midi": 52,
            "time": 3.6000000000000005,
            "velocity": 0.5118110236220472,
            "duration": 1.7999999999999998
          },
          {
            "name": "A3",
            "midi": 57,
            "time": 3.6000000000000005,
            "velocity": 0.5118110236220472,
            "duration": 1.7999999999999998
          },
          {
            "name": "C4",
            "midi": 60,
            "time": 3.6000000000000005,
            "velocity": 0.5118110236220472,
            "duration": 1.7999999999999998
          },
          {
            "name": "E4",
            "midi": 64,
            "time": 3.6000000000000005,
            "velocity": 0.5118110236220472,
            "duration": 1.7999999999999998
          },
          {
            "name": "A2",
            "midi": 45,
            "time": 5.4,
            "velocity": 0.5118110236220472,
            "duration": 1.7999999999999998
          },
          {
            "name": "E3",
            "midi": 52,
            "time": 5.4,
            "velocity": 0.5118110236220472,
            "duration": 1.7999999999999998
          },
          {
            "name": "A3",
            "midi": 57,
            "time": 5.4,
            "velocity": 0.5118110236220472,
            "duration": 1.7999999999999998
          },
          {
            "name": "C4",
            "midi": 60,
            "time": 5.4,
            "velocity": 0.5118110236220472,
            "duration": 1.7999999999999998
          },
          {
            "name": "E4",
            "midi": 64,
            "time": 5.4,
            "velocity": 0.5118110236220472,
            "duration": 1.7999999999999998
          },
          {
            "name": "E4",
            "midi": 64,
            "time": 7.2,
            "velocity": 0.5118110236220472,
            "duration": 0.4500000000000002
          },
          {
            "name": "C4",
            "midi": 60,
            "time": 7.2,
            "velocity": 0.5118110236220472,
            "duration": 0.4500000000000002
          },
          {
            "name": "A3",
            "midi": 57,
            "time": 7.2,
            "velocity": 0.5118110236220472,
            "duration": 0.4500000000000002
          },
          {
            "name": "E3",
            "midi": 52,
            "time": 7.2,
            "velocity": 0.5118110236220472,
            "duration": 0.4500000000000002
          },
          {
            "name": "A2",
            "midi": 45,
            "time": 7.2,
            "velocity": 0.5118110236220472,
            "duration": 0.4500000000000002
          },
          {
            "name": "A2",
            "midi": 45,
            "time": 7.65,
            "velocity": 0.5118110236220472,
            "duration": 0.4499999999999993
          },
          {
            "name": "E3",
            "midi": 52,
            "time": 7.65,
            "velocity": 0.5118110236220472,
            "duration": 0.4499999999999993
          },
          {
            "name": "A3",
            "midi": 57,
            "time": 7.65,
            "velocity": 0.5118110236220472,
            "duration": 0.4499999999999993
          },
          {
            "name": "C4",
            "midi": 60,
            "time": 7.65,
            "velocity": 0.5118110236220472,
            "duration": 0.4499999999999993
          },
          {
            "name": "E4",
            "midi": 64,
            "time": 7.65,
            "velocity": 0.5118110236220472,
            "duration": 0.4499999999999993
          },
          {
            "name": "A2",
            "midi": 45,
            "time": 8.1,
            "velocity": 0.5118110236220472,
            "duration": 0.4499999999999993
          },
          {
            "name": "E3",
            "midi": 52,
            "time": 8.1,
            "velocity": 0.5118110236220472,
            "duration": 0.4499999999999993
          },
          {
            "name": "A3",
            "midi": 57,
            "time": 8.1,
            "velocity": 0.5118110236220472,
            "duration": 0.4499999999999993
          },
          {
            "name": "C4",
            "midi": 60,
            "time": 8.1,
            "velocity": 0.5118110236220472,
            "duration": 0.4499999999999993
          },
          {
            "name": "E4",
            "midi": 64,
            "time": 8.1,
            "velocity": 0.5118110236220472,
            "duration": 0.4499999999999993
          },
          {
            "name": "E4",
            "midi": 64,
            "time": 8.549999999999999,
            "velocity": 0.5118110236220472,
            "duration": 0.4499999999999993
          },
          {
            "name": "C4",
            "midi": 60,
            "time": 8.549999999999999,
            "velocity": 0.5118110236220472,
            "duration": 0.4499999999999993
          },
          {
            "name": "A3",
            "midi": 57,
            "time": 8.549999999999999,
            "velocity": 0.5118110236220472,
            "duration": 0.4499999999999993
          },
          {
            "name": "E3",
            "midi": 52,
            "time": 8.549999999999999,
            "velocity": 0.5118110236220472,
            "duration": 0.4499999999999993
          },
          {
            "name": "A2",
            "midi": 45,
            "time": 8.549999999999999,
            "velocity": 0.5118110236220472,
            "duration": 0.4499999999999993
          },
          {
            "name": "A2",
            "midi": 45,
            "time": 8.999999999999998,
            "velocity": 0.5118110236220472,
            "duration": 0.4499999999999993
          },
          {
            "name": "E3",
            "midi": 52,
            "time": 8.999999999999998,
            "velocity": 0.5118110236220472,
            "duration": 0.4499999999999993
          },
          {
            "name": "A3",
            "midi": 57,
            "time": 8.999999999999998,
            "velocity": 0.5118110236220472,
            "duration": 0.4499999999999993
          },
          {
            "name": "C4",
            "midi": 60,
            "time": 8.999999999999998,
            "velocity": 0.5118110236220472,
            "duration": 0.4499999999999993
          },
          {
            "name": "E4",
            "midi": 64,
            "time": 8.999999999999998,
            "velocity": 0.5118110236220472,
            "duration": 0.4499999999999993
          },
          {
            "name": "A2",
            "midi": 45,
            "time": 9.449999999999998,
            "velocity": 0.5118110236220472,
            "duration": 0.4499999999999993
          },
          {
            "name": "E3",
            "midi": 52,
            "time": 9.449999999999998,
            "velocity": 0.5118110236220472,
            "duration": 0.4499999999999993
          },
          {
            "name": "A3",
            "midi": 57,
            "time": 9.449999999999998,
            "velocity": 0.5118110236220472,
            "duration": 0.4499999999999993
          },
          {
            "name": "C4",
            "midi": 60,
            "time": 9.449999999999998,
            "velocity": 0.5118110236220472,
            "duration": 0.4499999999999993
          },
          {
            "name": "E4",
            "midi": 64,
            "time": 9.449999999999998,
            "velocity": 0.5118110236220472,
            "duration": 0.4499999999999993
          },
          {
            "name": "E4",
            "midi": 64,
            "time": 9.899999999999997,
            "velocity": 0.5118110236220472,
            "duration": 0.4499999999999993
          },
          {
            "name": "C4",
            "midi": 60,
            "time": 9.899999999999997,
            "velocity": 0.5118110236220472,
            "duration": 0.4499999999999993
          },
          {
            "name": "A3",
            "midi": 57,
            "time": 9.899999999999997,
            "velocity": 0.5118110236220472,
            "duration": 0.4499999999999993
          },
          {
            "name": "E3",
            "midi": 52,
            "time": 9.899999999999997,
            "velocity": 0.5118110236220472,
            "duration": 0.4499999999999993
          },
          {
            "name": "A2",
            "midi": 45,
            "time": 9.899999999999997,
            "velocity": 0.5118110236220472,
            "duration": 0.4499999999999993
          },
          {
            "name": "A2",
            "midi": 45,
            "time": 10.349999999999996,
            "velocity": 0.5118110236220472,
            "duration": 0.4499999999999993
          },
          {
            "name": "E3",
            "midi": 52,
            "time": 10.349999999999996,
            "velocity": 0.5118110236220472,
            "duration": 0.4499999999999993
          },
          {
            "name": "A3",
            "midi": 57,
            "time": 10.349999999999996,
            "velocity": 0.5118110236220472,
            "duration": 0.4499999999999993
          },
          {
            "name": "C4",
            "midi": 60,
            "time": 10.349999999999996,
            "velocity": 0.5118110236220472,
            "duration": 0.4499999999999993
          },
          {
            "name": "E4",
            "midi": 64,
            "time": 10.349999999999996,
            "velocity": 0.5118110236220472,
            "duration": 0.4499999999999993
          },
          {
            "name": "E3",
            "midi": 52,
            "time": 10.799999999999995,
            "velocity": 0.5118110236220472,
            "duration": 0.4499999999999993
          },
          {
            "name": "B3",
            "midi": 59,
            "time": 10.799999999999995,
            "velocity": 0.5118110236220472,
            "duration": 0.4499999999999993
          },
          {
            "name": "G#3",
            "midi": 56,
            "time": 10.799999999999995,
            "velocity": 0.5118110236220472,
            "duration": 0.4499999999999993
          },
          {
            "name": "E4",
            "midi": 64,
            "time": 10.799999999999995,
            "velocity": 0.5118110236220472,
            "duration": 0.4499999999999993
          },
          {
            "name": "B2",
            "midi": 47,
            "time": 10.799999999999995,
            "velocity": 0.5118110236220472,
            "duration": 0.4499999999999993
          },
          {
            "name": "E2",
            "midi": 40,
            "time": 10.799999999999995,
            "velocity": 0.5118110236220472,
            "duration": 0.4499999999999993
          },
          {
            "name": "E2",
            "midi": 40,
            "time": 11.249999999999995,
            "velocity": 0.5118110236220472,
            "duration": 0.4499999999999993
          },
          {
            "name": "B2",
            "midi": 47,
            "time": 11.249999999999995,
            "velocity": 0.5118110236220472,
            "duration": 0.4499999999999993
          },
          {
            "name": "E4",
            "midi": 64,
            "time": 11.249999999999995,
            "velocity": 0.5118110236220472,
            "duration": 0.4499999999999993
          },
          {
            "name": "G#3",
            "midi": 56,
            "time": 11.249999999999995,
            "velocity": 0.5118110236220472,
            "duration": 0.4499999999999993
          },
          {
            "name": "B3",
            "midi": 59,
            "time": 11.249999999999995,
            "velocity": 0.5118110236220472,
            "duration": 0.4499999999999993
          },
          {
            "name": "E3",
            "midi": 52,
            "time": 11.249999999999995,
            "velocity": 0.5118110236220472,
            "duration": 0.4499999999999993
          },
          {
            "name": "E3",
            "midi": 52,
            "time": 11.699999999999994,
            "velocity": 0.5118110236220472,
            "duration": 0.4499999999999993
          },
          {
            "name": "B3",
            "midi": 59,
            "time": 11.699999999999994,
            "velocity": 0.5118110236220472,
            "duration": 0.4499999999999993
          },
          {
            "name": "G#3",
            "midi": 56,
            "time": 11.699999999999994,
            "velocity": 0.5118110236220472,
            "duration": 0.4499999999999993
          },
          {
            "name": "E4",
            "midi": 64,
            "time": 11.699999999999994,
            "velocity": 0.5118110236220472,
            "duration": 0.4499999999999993
          },
          {
            "name": "B2",
            "midi": 47,
            "time": 11.699999999999994,
            "velocity": 0.5118110236220472,
            "duration": 0.4499999999999993
          },
          {
            "name": "E2",
            "midi": 40,
            "time": 11.699999999999994,
            "velocity": 0.5118110236220472,
            "duration": 0.4499999999999993
          },
          {
            "name": "E3",
            "midi": 52,
            "time": 12.149999999999993,
            "velocity": 0.5118110236220472,
            "duration": 0.4499999999999993
          },
          {
            "name": "B3",
            "midi": 59,
            "time": 12.149999999999993,
            "velocity": 0.5118110236220472,
            "duration": 0.4499999999999993
          },
          {
            "name": "G#3",
            "midi": 56,
            "time": 12.149999999999993,
            "velocity": 0.5118110236220472,
            "duration": 0.4499999999999993
          },
          {
            "name": "E4",
            "midi": 64,
            "time": 12.149999999999993,
            "velocity": 0.5118110236220472,
            "duration": 0.4499999999999993
          },
          {
            "name": "B2",
            "midi": 47,
            "time": 12.149999999999993,
            "velocity": 0.5118110236220472,
            "duration": 0.4499999999999993
          },
          {
            "name": "E2",
            "midi": 40,
            "time": 12.149999999999993,
            "velocity": 0.5118110236220472,
            "duration": 0.4499999999999993
          },
          {
            "name": "E2",
            "midi": 40,
            "time": 12.599999999999993,
            "velocity": 0.5118110236220472,
            "duration": 0.4499999999999993
          },
          {
            "name": "B2",
            "midi": 47,
            "time": 12.599999999999993,
            "velocity": 0.5118110236220472,
            "duration": 0.4499999999999993
          },
          {
            "name": "E4",
            "midi": 64,
            "time": 12.599999999999993,
            "velocity": 0.5118110236220472,
            "duration": 0.4499999999999993
          },
          {
            "name": "G#3",
            "midi": 56,
            "time": 12.599999999999993,
            "velocity": 0.5118110236220472,
            "duration": 0.4499999999999993
          },
          {
            "name": "B3",
            "midi": 59,
            "time": 12.599999999999993,
            "velocity": 0.5118110236220472,
            "duration": 0.4499999999999993
          },
          {
            "name": "E3",
            "midi": 52,
            "time": 12.599999999999993,
            "velocity": 0.5118110236220472,
            "duration": 0.4499999999999993
          },
          {
            "name": "E3",
            "midi": 52,
            "time": 13.049999999999992,
            "velocity": 0.5118110236220472,
            "duration": 0.4499999999999993
          },
          {
            "name": "B3",
            "midi": 59,
            "time": 13.049999999999992,
            "velocity": 0.5118110236220472,
            "duration": 0.4499999999999993
          },
          {
            "name": "G#3",
            "midi": 56,
            "time": 13.049999999999992,
            "velocity": 0.5118110236220472,
            "duration": 0.4499999999999993
          },
          {
            "name": "E4",
            "midi": 64,
            "time": 13.049999999999992,
            "velocity": 0.5118110236220472,
            "duration": 0.4499999999999993
          },
          {
            "name": "B2",
            "midi": 47,
            "time": 13.049999999999992,
            "velocity": 0.5118110236220472,
            "duration": 0.4499999999999993
          },
          {
            "name": "E2",
            "midi": 40,
            "time": 13.049999999999992,
            "velocity": 0.5118110236220472,
            "duration": 0.4499999999999993
          },
          {
            "name": "E2",
            "midi": 40,
            "time": 13.499999999999991,
            "velocity": 0.5118110236220472,
            "duration": 0.4499999999999993
          },
          {
            "name": "B2",
            "midi": 47,
            "time": 13.499999999999991,
            "velocity": 0.5118110236220472,
            "duration": 0.4499999999999993
          },
          {
            "name": "E4",
            "midi": 64,
            "time": 13.499999999999991,
            "velocity": 0.5118110236220472,
            "duration": 0.4499999999999993
          },
          {
            "name": "G#3",
            "midi": 56,
            "time": 13.499999999999991,
            "velocity": 0.5118110236220472,
            "duration": 0.4499999999999993
          },
          {
            "name": "B3",
            "midi": 59,
            "time": 13.499999999999991,
            "velocity": 0.5118110236220472,
            "duration": 0.4499999999999993
          },
          {
            "name": "E3",
            "midi": 52,
            "time": 13.499999999999991,
            "velocity": 0.5118110236220472,
            "duration": 0.4499999999999993
          },
          {
            "name": "E3",
            "midi": 52,
            "time": 13.94999999999999,
            "velocity": 0.5118110236220472,
            "duration": 0.4499999999999993
          },
          {
            "name": "B3",
            "midi": 59,
            "time": 13.94999999999999,
            "velocity": 0.5118110236220472,
            "duration": 0.4499999999999993
          },
          {
            "name": "G#3",
            "midi": 56,
            "time": 13.94999999999999,
            "velocity": 0.5118110236220472,
            "duration": 0.4499999999999993
          },
          {
            "name": "E4",
            "midi": 64,
            "time": 13.94999999999999,
            "velocity": 0.5118110236220472,
            "duration": 0.4499999999999993
          },
          {
            "name": "B2",
            "midi": 47,
            "time": 13.94999999999999,
            "velocity": 0.5118110236220472,
            "duration": 0.4499999999999993
          },
          {
            "name": "E2",
            "midi": 40,
            "time": 13.94999999999999,
            "velocity": 0.5118110236220472,
            "duration": 0.4499999999999993
          },
          {
            "name": "G4",
            "midi": 67,
            "time": 14.39999999999999,
            "velocity": 0.5118110236220472,
            "duration": 0.4499999999999993
          },
          {
            "name": "B3",
            "midi": 59,
            "time": 14.39999999999999,
            "velocity": 0.5118110236220472,
            "duration": 0.4499999999999993
          },
          {
            "name": "G3",
            "midi": 55,
            "time": 14.39999999999999,
            "velocity": 0.5118110236220472,
            "duration": 0.4499999999999993
          },
          {
            "name": "D3",
            "midi": 50,
            "time": 14.39999999999999,
            "velocity": 0.5118110236220472,
            "duration": 0.4499999999999993
          },
          {
            "name": "B2",
            "midi": 47,
            "time": 14.39999999999999,
            "velocity": 0.5118110236220472,
            "duration": 0.4499999999999993
          },
          {
            "name": "G2",
            "midi": 43,
            "time": 14.39999999999999,
            "velocity": 0.5118110236220472,
            "duration": 0.4499999999999993
          },
          {
            "name": "G2",
            "midi": 43,
            "time": 14.849999999999989,
            "velocity": 0.5118110236220472,
            "duration": 0.4499999999999993
          },
          {
            "name": "B2",
            "midi": 47,
            "time": 14.849999999999989,
            "velocity": 0.5118110236220472,
            "duration": 0.4499999999999993
          },
          {
            "name": "D3",
            "midi": 50,
            "time": 14.849999999999989,
            "velocity": 0.5118110236220472,
            "duration": 0.4499999999999993
          },
          {
            "name": "G3",
            "midi": 55,
            "time": 14.849999999999989,
            "velocity": 0.5118110236220472,
            "duration": 0.4499999999999993
          },
          {
            "name": "B3",
            "midi": 59,
            "time": 14.849999999999989,
            "velocity": 0.5118110236220472,
            "duration": 0.4499999999999993
          },
          {
            "name": "G4",
            "midi": 67,
            "time": 14.849999999999989,
            "velocity": 0.5118110236220472,
            "duration": 0.4499999999999993
          },
          {
            "name": "G4",
            "midi": 67,
            "time": 15.299999999999988,
            "velocity": 0.5118110236220472,
            "duration": 0.4499999999999993
          },
          {
            "name": "B3",
            "midi": 59,
            "time": 15.299999999999988,
            "velocity": 0.5118110236220472,
            "duration": 0.4499999999999993
          },
          {
            "name": "G3",
            "midi": 55,
            "time": 15.299999999999988,
            "velocity": 0.5118110236220472,
            "duration": 0.4499999999999993
          },
          {
            "name": "D3",
            "midi": 50,
            "time": 15.299999999999988,
            "velocity": 0.5118110236220472,
            "duration": 0.4499999999999993
          },
          {
            "name": "B2",
            "midi": 47,
            "time": 15.299999999999988,
            "velocity": 0.5118110236220472,
            "duration": 0.4499999999999993
          },
          {
            "name": "G2",
            "midi": 43,
            "time": 15.299999999999988,
            "velocity": 0.5118110236220472,
            "duration": 0.4499999999999993
          },
          {
            "name": "G2",
            "midi": 43,
            "time": 15.749999999999988,
            "velocity": 0.5118110236220472,
            "duration": 0.45000000000000107
          },
          {
            "name": "B2",
            "midi": 47,
            "time": 15.749999999999988,
            "velocity": 0.5118110236220472,
            "duration": 0.45000000000000107
          },
          {
            "name": "D3",
            "midi": 50,
            "time": 15.749999999999988,
            "velocity": 0.5118110236220472,
            "duration": 0.45000000000000107
          },
          {
            "name": "G3",
            "midi": 55,
            "time": 15.749999999999988,
            "velocity": 0.5118110236220472,
            "duration": 0.45000000000000107
          },
          {
            "name": "B3",
            "midi": 59,
            "time": 15.749999999999988,
            "velocity": 0.5118110236220472,
            "duration": 0.45000000000000107
          },
          {
            "name": "G4",
            "midi": 67,
            "time": 15.749999999999988,
            "velocity": 0.5118110236220472,
            "duration": 0.45000000000000107
          },
          {
            "name": "G4",
            "midi": 67,
            "time": 16.19999999999999,
            "velocity": 0.5118110236220472,
            "duration": 0.4499999999999993
          },
          {
            "name": "B3",
            "midi": 59,
            "time": 16.19999999999999,
            "velocity": 0.5118110236220472,
            "duration": 0.4499999999999993
          },
          {
            "name": "G3",
            "midi": 55,
            "time": 16.19999999999999,
            "velocity": 0.5118110236220472,
            "duration": 0.4499999999999993
          },
          {
            "name": "D3",
            "midi": 50,
            "time": 16.19999999999999,
            "velocity": 0.5118110236220472,
            "duration": 0.4499999999999993
          },
          {
            "name": "B2",
            "midi": 47,
            "time": 16.19999999999999,
            "velocity": 0.5118110236220472,
            "duration": 0.4499999999999993
          },
          {
            "name": "G2",
            "midi": 43,
            "time": 16.19999999999999,
            "velocity": 0.5118110236220472,
            "duration": 0.4499999999999993
          },
          {
            "name": "G2",
            "midi": 43,
            "time": 16.649999999999988,
            "velocity": 0.5118110236220472,
            "duration": 0.4499999999999993
          },
          {
            "name": "B2",
            "midi": 47,
            "time": 16.649999999999988,
            "velocity": 0.5118110236220472,
            "duration": 0.4499999999999993
          },
          {
            "name": "D3",
            "midi": 50,
            "time": 16.649999999999988,
            "velocity": 0.5118110236220472,
            "duration": 0.4499999999999993
          },
          {
            "name": "G3",
            "midi": 55,
            "time": 16.649999999999988,
            "velocity": 0.5118110236220472,
            "duration": 0.4499999999999993
          },
          {
            "name": "B3",
            "midi": 59,
            "time": 16.649999999999988,
            "velocity": 0.5118110236220472,
            "duration": 0.4499999999999993
          },
          {
            "name": "G4",
            "midi": 67,
            "time": 16.649999999999988,
            "velocity": 0.5118110236220472,
            "duration": 0.4499999999999993
          },
          {
            "name": "G4",
            "midi": 67,
            "time": 17.099999999999987,
            "velocity": 0.5118110236220472,
            "duration": 0.4499999999999993
          },
          {
            "name": "B3",
            "midi": 59,
            "time": 17.099999999999987,
            "velocity": 0.5118110236220472,
            "duration": 0.4499999999999993
          },
          {
            "name": "G3",
            "midi": 55,
            "time": 17.099999999999987,
            "velocity": 0.5118110236220472,
            "duration": 0.4499999999999993
          },
          {
            "name": "D3",
            "midi": 50,
            "time": 17.099999999999987,
            "velocity": 0.5118110236220472,
            "duration": 0.4499999999999993
          },
          {
            "name": "B2",
            "midi": 47,
            "time": 17.099999999999987,
            "velocity": 0.5118110236220472,
            "duration": 0.4499999999999993
          },
          {
            "name": "G2",
            "midi": 43,
            "time": 17.099999999999987,
            "velocity": 0.5118110236220472,
            "duration": 0.4499999999999993
          },
          {
            "name": "G2",
            "midi": 43,
            "time": 17.549999999999986,
            "velocity": 0.5118110236220472,
            "duration": 0.4499999999999993
          },
          {
            "name": "B2",
            "midi": 47,
            "time": 17.549999999999986,
            "velocity": 0.5118110236220472,
            "duration": 0.4499999999999993
          },
          {
            "name": "D3",
            "midi": 50,
            "time": 17.549999999999986,
            "velocity": 0.5118110236220472,
            "duration": 0.4499999999999993
          },
          {
            "name": "G3",
            "midi": 55,
            "time": 17.549999999999986,
            "velocity": 0.5118110236220472,
            "duration": 0.4499999999999993
          },
          {
            "name": "B3",
            "midi": 59,
            "time": 17.549999999999986,
            "velocity": 0.5118110236220472,
            "duration": 0.4499999999999993
          },
          {
            "name": "G4",
            "midi": 67,
            "time": 17.549999999999986,
            "velocity": 0.5118110236220472,
            "duration": 0.4499999999999993
          },
          {
            "name": "D3",
            "midi": 50,
            "time": 17.999999999999986,
            "velocity": 0.5118110236220472,
            "duration": 0.4499999999999993
          },
          {
            "name": "A3",
            "midi": 57,
            "time": 17.999999999999986,
            "velocity": 0.5118110236220472,
            "duration": 0.4499999999999993
          },
          {
            "name": "D4",
            "midi": 62,
            "time": 17.999999999999986,
            "velocity": 0.5118110236220472,
            "duration": 0.4499999999999993
          },
          {
            "name": "F4",
            "midi": 65,
            "time": 17.999999999999986,
            "velocity": 0.5118110236220472,
            "duration": 0.4499999999999993
          },
          {
            "name": "F4",
            "midi": 65,
            "time": 18.449999999999985,
            "velocity": 0.5118110236220472,
            "duration": 0.4499999999999993
          },
          {
            "name": "D4",
            "midi": 62,
            "time": 18.449999999999985,
            "velocity": 0.5118110236220472,
            "duration": 0.4499999999999993
          },
          {
            "name": "A3",
            "midi": 57,
            "time": 18.449999999999985,
            "velocity": 0.5118110236220472,
            "duration": 0.4499999999999993
          },
          {
            "name": "D3",
            "midi": 50,
            "time": 18.449999999999985,
            "velocity": 0.5118110236220472,
            "duration": 0.4499999999999993
          },
          {
            "name": "D3",
            "midi": 50,
            "time": 18.899999999999984,
            "velocity": 0.5118110236220472,
            "duration": 0.4499999999999993
          },
          {
            "name": "A3",
            "midi": 57,
            "time": 18.899999999999984,
            "velocity": 0.5118110236220472,
            "duration": 0.4499999999999993
          },
          {
            "name": "D4",
            "midi": 62,
            "time": 18.899999999999984,
            "velocity": 0.5118110236220472,
            "duration": 0.4499999999999993
          },
          {
            "name": "F4",
            "midi": 65,
            "time": 18.899999999999984,
            "velocity": 0.5118110236220472,
            "duration": 0.4499999999999993
          },
          {
            "name": "D3",
            "midi": 50,
            "time": 19.349999999999984,
            "velocity": 0.5118110236220472,
            "duration": 0.4499999999999993
          },
          {
            "name": "A3",
            "midi": 57,
            "time": 19.349999999999984,
            "velocity": 0.5118110236220472,
            "duration": 0.4499999999999993
          },
          {
            "name": "D4",
            "midi": 62,
            "time": 19.349999999999984,
            "velocity": 0.5118110236220472,
            "duration": 0.4499999999999993
          },
          {
            "name": "F4",
            "midi": 65,
            "time": 19.349999999999984,
            "velocity": 0.5118110236220472,
            "duration": 0.4499999999999993
          },
          {
            "name": "D3",
            "midi": 50,
            "time": 19.799999999999983,
            "velocity": 0.5118110236220472,
            "duration": 0.4499999999999993
          },
          {
            "name": "A3",
            "midi": 57,
            "time": 19.799999999999983,
            "velocity": 0.5118110236220472,
            "duration": 0.4499999999999993
          },
          {
            "name": "D4",
            "midi": 62,
            "time": 19.799999999999983,
            "velocity": 0.5118110236220472,
            "duration": 0.4499999999999993
          },
          {
            "name": "F4",
            "midi": 65,
            "time": 19.799999999999983,
            "velocity": 0.5118110236220472,
            "duration": 0.4499999999999993
          },
          {
            "name": "F4",
            "midi": 65,
            "time": 20.249999999999982,
            "velocity": 0.5118110236220472,
            "duration": 0.4499999999999993
          },
          {
            "name": "D4",
            "midi": 62,
            "time": 20.249999999999982,
            "velocity": 0.5118110236220472,
            "duration": 0.4499999999999993
          },
          {
            "name": "A3",
            "midi": 57,
            "time": 20.249999999999982,
            "velocity": 0.5118110236220472,
            "duration": 0.4499999999999993
          },
          {
            "name": "D3",
            "midi": 50,
            "time": 20.249999999999982,
            "velocity": 0.5118110236220472,
            "duration": 0.4499999999999993
          },
          {
            "name": "D3",
            "midi": 50,
            "time": 20.69999999999998,
            "velocity": 0.5118110236220472,
            "duration": 0.4499999999999993
          },
          {
            "name": "A3",
            "midi": 57,
            "time": 20.69999999999998,
            "velocity": 0.5118110236220472,
            "duration": 0.4499999999999993
          },
          {
            "name": "D4",
            "midi": 62,
            "time": 20.69999999999998,
            "velocity": 0.5118110236220472,
            "duration": 0.4499999999999993
          },
          {
            "name": "F4",
            "midi": 65,
            "time": 20.69999999999998,
            "velocity": 0.5118110236220472,
            "duration": 0.4499999999999993
          },
          {
            "name": "D3",
            "midi": 50,
            "time": 21.14999999999998,
            "velocity": 0.5118110236220472,
            "duration": 0.4499999999999993
          },
          {
            "name": "A3",
            "midi": 57,
            "time": 21.14999999999998,
            "velocity": 0.5118110236220472,
            "duration": 0.4499999999999993
          },
          {
            "name": "D4",
            "midi": 62,
            "time": 21.14999999999998,
            "velocity": 0.5118110236220472,
            "duration": 0.4499999999999993
          },
          {
            "name": "F4",
            "midi": 65,
            "time": 21.14999999999998,
            "velocity": 0.5118110236220472,
            "duration": 0.4499999999999993
          },
          {
            "name": "E4",
            "midi": 64,
            "time": 21.59999999999998,
            "velocity": 0.5118110236220472,
            "duration": 0.4499999999999993
          },
          {
            "name": "C4",
            "midi": 60,
            "time": 21.59999999999998,
            "velocity": 0.5118110236220472,
            "duration": 0.4499999999999993
          },
          {
            "name": "A3",
            "midi": 57,
            "time": 21.59999999999998,
            "velocity": 0.5118110236220472,
            "duration": 0.4499999999999993
          },
          {
            "name": "E3",
            "midi": 52,
            "time": 21.59999999999998,
            "velocity": 0.5118110236220472,
            "duration": 0.4499999999999993
          },
          {
            "name": "A2",
            "midi": 45,
            "time": 21.59999999999998,
            "velocity": 0.5118110236220472,
            "duration": 0.4499999999999993
          },
          {
            "name": "A2",
            "midi": 45,
            "time": 22.04999999999998,
            "velocity": 0.5118110236220472,
            "duration": 0.4499999999999993
          },
          {
            "name": "E3",
            "midi": 52,
            "time": 22.04999999999998,
            "velocity": 0.5118110236220472,
            "duration": 0.4499999999999993
          },
          {
            "name": "A3",
            "midi": 57,
            "time": 22.04999999999998,
            "velocity": 0.5118110236220472,
            "duration": 0.4499999999999993
          },
          {
            "name": "C4",
            "midi": 60,
            "time": 22.04999999999998,
            "velocity": 0.5118110236220472,
            "duration": 0.4499999999999993
          },
          {
            "name": "E4",
            "midi": 64,
            "time": 22.04999999999998,
            "velocity": 0.5118110236220472,
            "duration": 0.4499999999999993
          },
          {
            "name": "A2",
            "midi": 45,
            "time": 22.49999999999998,
            "velocity": 0.5118110236220472,
            "duration": 0.4499999999999993
          },
          {
            "name": "E3",
            "midi": 52,
            "time": 22.49999999999998,
            "velocity": 0.5118110236220472,
            "duration": 0.4499999999999993
          },
          {
            "name": "A3",
            "midi": 57,
            "time": 22.49999999999998,
            "velocity": 0.5118110236220472,
            "duration": 0.4499999999999993
          },
          {
            "name": "C4",
            "midi": 60,
            "time": 22.49999999999998,
            "velocity": 0.5118110236220472,
            "duration": 0.4499999999999993
          },
          {
            "name": "E4",
            "midi": 64,
            "time": 22.49999999999998,
            "velocity": 0.5118110236220472,
            "duration": 0.4499999999999993
          },
          {
            "name": "E4",
            "midi": 64,
            "time": 22.949999999999978,
            "velocity": 0.5118110236220472,
            "duration": 0.4499999999999993
          },
          {
            "name": "C4",
            "midi": 60,
            "time": 22.949999999999978,
            "velocity": 0.5118110236220472,
            "duration": 0.4499999999999993
          },
          {
            "name": "A3",
            "midi": 57,
            "time": 22.949999999999978,
            "velocity": 0.5118110236220472,
            "duration": 0.4499999999999993
          },
          {
            "name": "E3",
            "midi": 52,
            "time": 22.949999999999978,
            "velocity": 0.5118110236220472,
            "duration": 0.4499999999999993
          },
          {
            "name": "A2",
            "midi": 45,
            "time": 22.949999999999978,
            "velocity": 0.5118110236220472,
            "duration": 0.4499999999999993
          },
          {
            "name": "A2",
            "midi": 45,
            "time": 23.399999999999977,
            "velocity": 0.5118110236220472,
            "duration": 0.4499999999999993
          },
          {
            "name": "E3",
            "midi": 52,
            "time": 23.399999999999977,
            "velocity": 0.5118110236220472,
            "duration": 0.4499999999999993
          },
          {
            "name": "A3",
            "midi": 57,
            "time": 23.399999999999977,
            "velocity": 0.5118110236220472,
            "duration": 0.4499999999999993
          },
          {
            "name": "C4",
            "midi": 60,
            "time": 23.399999999999977,
            "velocity": 0.5118110236220472,
            "duration": 0.4499999999999993
          },
          {
            "name": "E4",
            "midi": 64,
            "time": 23.399999999999977,
            "velocity": 0.5118110236220472,
            "duration": 0.4499999999999993
          },
          {
            "name": "A2",
            "midi": 45,
            "time": 23.849999999999977,
            "velocity": 0.5118110236220472,
            "duration": 0.4499999999999993
          },
          {
            "name": "E3",
            "midi": 52,
            "time": 23.849999999999977,
            "velocity": 0.5118110236220472,
            "duration": 0.4499999999999993
          },
          {
            "name": "A3",
            "midi": 57,
            "time": 23.849999999999977,
            "velocity": 0.5118110236220472,
            "duration": 0.4499999999999993
          },
          {
            "name": "C4",
            "midi": 60,
            "time": 23.849999999999977,
            "velocity": 0.5118110236220472,
            "duration": 0.4499999999999993
          },
          {
            "name": "E4",
            "midi": 64,
            "time": 23.849999999999977,
            "velocity": 0.5118110236220472,
            "duration": 0.4499999999999993
          },
          {
            "name": "E4",
            "midi": 64,
            "time": 24.299999999999976,
            "velocity": 0.5118110236220472,
            "duration": 0.4499999999999993
          },
          {
            "name": "C4",
            "midi": 60,
            "time": 24.299999999999976,
            "velocity": 0.5118110236220472,
            "duration": 0.4499999999999993
          },
          {
            "name": "A3",
            "midi": 57,
            "time": 24.299999999999976,
            "velocity": 0.5118110236220472,
            "duration": 0.4499999999999993
          },
          {
            "name": "E3",
            "midi": 52,
            "time": 24.299999999999976,
            "velocity": 0.5118110236220472,
            "duration": 0.4499999999999993
          },
          {
            "name": "A2",
            "midi": 45,
            "time": 24.299999999999976,
            "velocity": 0.5118110236220472,
            "duration": 0.4499999999999993
          },
          {
            "name": "A2",
            "midi": 45,
            "time": 24.749999999999975,
            "velocity": 0.5118110236220472,
            "duration": 0.4499999999999993
          },
          {
            "name": "E3",
            "midi": 52,
            "time": 24.749999999999975,
            "velocity": 0.5118110236220472,
            "duration": 0.4499999999999993
          },
          {
            "name": "A3",
            "midi": 57,
            "time": 24.749999999999975,
            "velocity": 0.5118110236220472,
            "duration": 0.4499999999999993
          },
          {
            "name": "C4",
            "midi": 60,
            "time": 24.749999999999975,
            "velocity": 0.5118110236220472,
            "duration": 0.4499999999999993
          },
          {
            "name": "E4",
            "midi": 64,
            "time": 24.749999999999975,
            "velocity": 0.5118110236220472,
            "duration": 0.4499999999999993
          },
          {
            "name": "E3",
            "midi": 52,
            "time": 25.199999999999974,
            "velocity": 0.5118110236220472,
            "duration": 0.4499999999999993
          },
          {
            "name": "B3",
            "midi": 59,
            "time": 25.199999999999974,
            "velocity": 0.5118110236220472,
            "duration": 0.4499999999999993
          },
          {
            "name": "G#3",
            "midi": 56,
            "time": 25.199999999999974,
            "velocity": 0.5118110236220472,
            "duration": 0.4499999999999993
          },
          {
            "name": "E4",
            "midi": 64,
            "time": 25.199999999999974,
            "velocity": 0.5118110236220472,
            "duration": 0.4499999999999993
          },
          {
            "name": "B2",
            "midi": 47,
            "time": 25.199999999999974,
            "velocity": 0.5118110236220472,
            "duration": 0.4499999999999993
          },
          {
            "name": "E2",
            "midi": 40,
            "time": 25.199999999999974,
            "velocity": 0.5118110236220472,
            "duration": 0.4499999999999993
          },
          {
            "name": "E2",
            "midi": 40,
            "time": 25.649999999999974,
            "velocity": 0.5118110236220472,
            "duration": 0.4499999999999993
          },
          {
            "name": "B2",
            "midi": 47,
            "time": 25.649999999999974,
            "velocity": 0.5118110236220472,
            "duration": 0.4499999999999993
          },
          {
            "name": "E4",
            "midi": 64,
            "time": 25.649999999999974,
            "velocity": 0.5118110236220472,
            "duration": 0.4499999999999993
          },
          {
            "name": "G#3",
            "midi": 56,
            "time": 25.649999999999974,
            "velocity": 0.5118110236220472,
            "duration": 0.4499999999999993
          },
          {
            "name": "B3",
            "midi": 59,
            "time": 25.649999999999974,
            "velocity": 0.5118110236220472,
            "duration": 0.4499999999999993
          },
          {
            "name": "E3",
            "midi": 52,
            "time": 25.649999999999974,
            "velocity": 0.5118110236220472,
            "duration": 0.4499999999999993
          },
          {
            "name": "E3",
            "midi": 52,
            "time": 26.099999999999973,
            "velocity": 0.5118110236220472,
            "duration": 0.4499999999999993
          },
          {
            "name": "B3",
            "midi": 59,
            "time": 26.099999999999973,
            "velocity": 0.5118110236220472,
            "duration": 0.4499999999999993
          },
          {
            "name": "G#3",
            "midi": 56,
            "time": 26.099999999999973,
            "velocity": 0.5118110236220472,
            "duration": 0.4499999999999993
          },
          {
            "name": "E4",
            "midi": 64,
            "time": 26.099999999999973,
            "velocity": 0.5118110236220472,
            "duration": 0.4499999999999993
          },
          {
            "name": "B2",
            "midi": 47,
            "time": 26.099999999999973,
            "velocity": 0.5118110236220472,
            "duration": 0.4499999999999993
          },
          {
            "name": "E2",
            "midi": 40,
            "time": 26.099999999999973,
            "velocity": 0.5118110236220472,
            "duration": 0.4499999999999993
          },
          {
            "name": "E3",
            "midi": 52,
            "time": 26.549999999999972,
            "velocity": 0.5118110236220472,
            "duration": 0.4499999999999993
          },
          {
            "name": "B3",
            "midi": 59,
            "time": 26.549999999999972,
            "velocity": 0.5118110236220472,
            "duration": 0.4499999999999993
          },
          {
            "name": "G#3",
            "midi": 56,
            "time": 26.549999999999972,
            "velocity": 0.5118110236220472,
            "duration": 0.4499999999999993
          },
          {
            "name": "E4",
            "midi": 64,
            "time": 26.549999999999972,
            "velocity": 0.5118110236220472,
            "duration": 0.4499999999999993
          },
          {
            "name": "B2",
            "midi": 47,
            "time": 26.549999999999972,
            "velocity": 0.5118110236220472,
            "duration": 0.4499999999999993
          },
          {
            "name": "E2",
            "midi": 40,
            "time": 26.549999999999972,
            "velocity": 0.5118110236220472,
            "duration": 0.4499999999999993
          },
          {
            "name": "E2",
            "midi": 40,
            "time": 26.99999999999997,
            "velocity": 0.5118110236220472,
            "duration": 0.4499999999999993
          },
          {
            "name": "B2",
            "midi": 47,
            "time": 26.99999999999997,
            "velocity": 0.5118110236220472,
            "duration": 0.4499999999999993
          },
          {
            "name": "E4",
            "midi": 64,
            "time": 26.99999999999997,
            "velocity": 0.5118110236220472,
            "duration": 0.4499999999999993
          },
          {
            "name": "G#3",
            "midi": 56,
            "time": 26.99999999999997,
            "velocity": 0.5118110236220472,
            "duration": 0.4499999999999993
          },
          {
            "name": "B3",
            "midi": 59,
            "time": 26.99999999999997,
            "velocity": 0.5118110236220472,
            "duration": 0.4499999999999993
          },
          {
            "name": "E3",
            "midi": 52,
            "time": 26.99999999999997,
            "velocity": 0.5118110236220472,
            "duration": 0.4499999999999993
          },
          {
            "name": "E3",
            "midi": 52,
            "time": 27.44999999999997,
            "velocity": 0.5118110236220472,
            "duration": 0.4499999999999993
          },
          {
            "name": "B3",
            "midi": 59,
            "time": 27.44999999999997,
            "velocity": 0.5118110236220472,
            "duration": 0.4499999999999993
          },
          {
            "name": "G#3",
            "midi": 56,
            "time": 27.44999999999997,
            "velocity": 0.5118110236220472,
            "duration": 0.4499999999999993
          },
          {
            "name": "E4",
            "midi": 64,
            "time": 27.44999999999997,
            "velocity": 0.5118110236220472,
            "duration": 0.4499999999999993
          },
          {
            "name": "B2",
            "midi": 47,
            "time": 27.44999999999997,
            "velocity": 0.5118110236220472,
            "duration": 0.4499999999999993
          },
          {
            "name": "E2",
            "midi": 40,
            "time": 27.44999999999997,
            "velocity": 0.5118110236220472,
            "duration": 0.4499999999999993
          },
          {
            "name": "E2",
            "midi": 40,
            "time": 27.89999999999997,
            "velocity": 0.5118110236220472,
            "duration": 0.4499999999999993
          },
          {
            "name": "B2",
            "midi": 47,
            "time": 27.89999999999997,
            "velocity": 0.5118110236220472,
            "duration": 0.4499999999999993
          },
          {
            "name": "E4",
            "midi": 64,
            "time": 27.89999999999997,
            "velocity": 0.5118110236220472,
            "duration": 0.4499999999999993
          },
          {
            "name": "G#3",
            "midi": 56,
            "time": 27.89999999999997,
            "velocity": 0.5118110236220472,
            "duration": 0.4499999999999993
          },
          {
            "name": "B3",
            "midi": 59,
            "time": 27.89999999999997,
            "velocity": 0.5118110236220472,
            "duration": 0.4499999999999993
          },
          {
            "name": "E3",
            "midi": 52,
            "time": 27.89999999999997,
            "velocity": 0.5118110236220472,
            "duration": 0.4499999999999993
          },
          {
            "name": "E3",
            "midi": 52,
            "time": 28.34999999999997,
            "velocity": 0.5118110236220472,
            "duration": 0.4499999999999993
          },
          {
            "name": "B3",
            "midi": 59,
            "time": 28.34999999999997,
            "velocity": 0.5118110236220472,
            "duration": 0.4499999999999993
          },
          {
            "name": "G#3",
            "midi": 56,
            "time": 28.34999999999997,
            "velocity": 0.5118110236220472,
            "duration": 0.4499999999999993
          },
          {
            "name": "E4",
            "midi": 64,
            "time": 28.34999999999997,
            "velocity": 0.5118110236220472,
            "duration": 0.4499999999999993
          },
          {
            "name": "B2",
            "midi": 47,
            "time": 28.34999999999997,
            "velocity": 0.5118110236220472,
            "duration": 0.4499999999999993
          },
          {
            "name": "E2",
            "midi": 40,
            "time": 28.34999999999997,
            "velocity": 0.5118110236220472,
            "duration": 0.4499999999999993
          },
          {
            "name": "G4",
            "midi": 67,
            "time": 28.79999999999997,
            "velocity": 0.5118110236220472,
            "duration": 0.4499999999999993
          },
          {
            "name": "B3",
            "midi": 59,
            "time": 28.79999999999997,
            "velocity": 0.5118110236220472,
            "duration": 0.4499999999999993
          },
          {
            "name": "G3",
            "midi": 55,
            "time": 28.79999999999997,
            "velocity": 0.5118110236220472,
            "duration": 0.4499999999999993
          },
          {
            "name": "D3",
            "midi": 50,
            "time": 28.79999999999997,
            "velocity": 0.5118110236220472,
            "duration": 0.4499999999999993
          },
          {
            "name": "B2",
            "midi": 47,
            "time": 28.79999999999997,
            "velocity": 0.5118110236220472,
            "duration": 0.4499999999999993
          },
          {
            "name": "G2",
            "midi": 43,
            "time": 28.79999999999997,
            "velocity": 0.5118110236220472,
            "duration": 0.4499999999999993
          },
          {
            "name": "G2",
            "midi": 43,
            "time": 29.249999999999968,
            "velocity": 0.5118110236220472,
            "duration": 0.4499999999999993
          },
          {
            "name": "B2",
            "midi": 47,
            "time": 29.249999999999968,
            "velocity": 0.5118110236220472,
            "duration": 0.4499999999999993
          },
          {
            "name": "D3",
            "midi": 50,
            "time": 29.249999999999968,
            "velocity": 0.5118110236220472,
            "duration": 0.4499999999999993
          },
          {
            "name": "G3",
            "midi": 55,
            "time": 29.249999999999968,
            "velocity": 0.5118110236220472,
            "duration": 0.4499999999999993
          },
          {
            "name": "B3",
            "midi": 59,
            "time": 29.249999999999968,
            "velocity": 0.5118110236220472,
            "duration": 0.4499999999999993
          },
          {
            "name": "G4",
            "midi": 67,
            "time": 29.249999999999968,
            "velocity": 0.5118110236220472,
            "duration": 0.4499999999999993
          },
          {
            "name": "G4",
            "midi": 67,
            "time": 29.699999999999967,
            "velocity": 0.5118110236220472,
            "duration": 0.4499999999999993
          },
          {
            "name": "B3",
            "midi": 59,
            "time": 29.699999999999967,
            "velocity": 0.5118110236220472,
            "duration": 0.4499999999999993
          },
          {
            "name": "G3",
            "midi": 55,
            "time": 29.699999999999967,
            "velocity": 0.5118110236220472,
            "duration": 0.4499999999999993
          },
          {
            "name": "D3",
            "midi": 50,
            "time": 29.699999999999967,
            "velocity": 0.5118110236220472,
            "duration": 0.4499999999999993
          },
          {
            "name": "B2",
            "midi": 47,
            "time": 29.699999999999967,
            "velocity": 0.5118110236220472,
            "duration": 0.4499999999999993
          },
          {
            "name": "G2",
            "midi": 43,
            "time": 29.699999999999967,
            "velocity": 0.5118110236220472,
            "duration": 0.4499999999999993
          },
          {
            "name": "G2",
            "midi": 43,
            "time": 30.149999999999967,
            "velocity": 0.5118110236220472,
            "duration": 0.4499999999999993
          },
          {
            "name": "B2",
            "midi": 47,
            "time": 30.149999999999967,
            "velocity": 0.5118110236220472,
            "duration": 0.4499999999999993
          },
          {
            "name": "D3",
            "midi": 50,
            "time": 30.149999999999967,
            "velocity": 0.5118110236220472,
            "duration": 0.4499999999999993
          },
          {
            "name": "G3",
            "midi": 55,
            "time": 30.149999999999967,
            "velocity": 0.5118110236220472,
            "duration": 0.4499999999999993
          },
          {
            "name": "B3",
            "midi": 59,
            "time": 30.149999999999967,
            "velocity": 0.5118110236220472,
            "duration": 0.4499999999999993
          },
          {
            "name": "G4",
            "midi": 67,
            "time": 30.149999999999967,
            "velocity": 0.5118110236220472,
            "duration": 0.4499999999999993
          },
          {
            "name": "G4",
            "midi": 67,
            "time": 30.599999999999966,
            "velocity": 0.5118110236220472,
            "duration": 0.4499999999999993
          },
          {
            "name": "B3",
            "midi": 59,
            "time": 30.599999999999966,
            "velocity": 0.5118110236220472,
            "duration": 0.4499999999999993
          },
          {
            "name": "G3",
            "midi": 55,
            "time": 30.599999999999966,
            "velocity": 0.5118110236220472,
            "duration": 0.4499999999999993
          },
          {
            "name": "D3",
            "midi": 50,
            "time": 30.599999999999966,
            "velocity": 0.5118110236220472,
            "duration": 0.4499999999999993
          },
          {
            "name": "B2",
            "midi": 47,
            "time": 30.599999999999966,
            "velocity": 0.5118110236220472,
            "duration": 0.4499999999999993
          },
          {
            "name": "G2",
            "midi": 43,
            "time": 30.599999999999966,
            "velocity": 0.5118110236220472,
            "duration": 0.4499999999999993
          },
          {
            "name": "G4",
            "midi": 67,
            "time": 31.049999999999965,
            "velocity": 0.5118110236220472,
            "duration": 0.4499999999999993
          },
          {
            "name": "B3",
            "midi": 59,
            "time": 31.049999999999965,
            "velocity": 0.5118110236220472,
            "duration": 0.4499999999999993
          },
          {
            "name": "G3",
            "midi": 55,
            "time": 31.049999999999965,
            "velocity": 0.5118110236220472,
            "duration": 0.4499999999999993
          },
          {
            "name": "D3",
            "midi": 50,
            "time": 31.049999999999965,
            "velocity": 0.5118110236220472,
            "duration": 0.4499999999999993
          },
          {
            "name": "B2",
            "midi": 47,
            "time": 31.049999999999965,
            "velocity": 0.5118110236220472,
            "duration": 0.4499999999999993
          },
          {
            "name": "G2",
            "midi": 43,
            "time": 31.049999999999965,
            "velocity": 0.5118110236220472,
            "duration": 0.4499999999999993
          },
          {
            "name": "G2",
            "midi": 43,
            "time": 31.499999999999964,
            "velocity": 0.5118110236220472,
            "duration": 0.4499999999999993
          },
          {
            "name": "B2",
            "midi": 47,
            "time": 31.499999999999964,
            "velocity": 0.5118110236220472,
            "duration": 0.4499999999999993
          },
          {
            "name": "D3",
            "midi": 50,
            "time": 31.499999999999964,
            "velocity": 0.5118110236220472,
            "duration": 0.4499999999999993
          },
          {
            "name": "G3",
            "midi": 55,
            "time": 31.499999999999964,
            "velocity": 0.5118110236220472,
            "duration": 0.4499999999999993
          },
          {
            "name": "B3",
            "midi": 59,
            "time": 31.499999999999964,
            "velocity": 0.5118110236220472,
            "duration": 0.4499999999999993
          },
          {
            "name": "G4",
            "midi": 67,
            "time": 31.499999999999964,
            "velocity": 0.5118110236220472,
            "duration": 0.4499999999999993
          },
          {
            "name": "G4",
            "midi": 67,
            "time": 31.949999999999964,
            "velocity": 0.5118110236220472,
            "duration": 0.4499999999999993
          },
          {
            "name": "B3",
            "midi": 59,
            "time": 31.949999999999964,
            "velocity": 0.5118110236220472,
            "duration": 0.4499999999999993
          },
          {
            "name": "G3",
            "midi": 55,
            "time": 31.949999999999964,
            "velocity": 0.5118110236220472,
            "duration": 0.4499999999999993
          },
          {
            "name": "D3",
            "midi": 50,
            "time": 31.949999999999964,
            "velocity": 0.5118110236220472,
            "duration": 0.4499999999999993
          },
          {
            "name": "B2",
            "midi": 47,
            "time": 31.949999999999964,
            "velocity": 0.5118110236220472,
            "duration": 0.4499999999999993
          },
          {
            "name": "G2",
            "midi": 43,
            "time": 31.949999999999964,
            "velocity": 0.5118110236220472,
            "duration": 0.4499999999999993
          },
          {
            "name": "A2",
            "midi": 45,
            "time": 32.39999999999996,
            "velocity": 0.5118110236220472,
            "duration": 0.45000000000000284
          },
          {
            "name": "E3",
            "midi": 52,
            "time": 32.39999999999996,
            "velocity": 0.5118110236220472,
            "duration": 0.45000000000000284
          },
          {
            "name": "A3",
            "midi": 57,
            "time": 32.39999999999996,
            "velocity": 0.5118110236220472,
            "duration": 0.45000000000000284
          },
          {
            "name": "C4",
            "midi": 60,
            "time": 32.39999999999996,
            "velocity": 0.5118110236220472,
            "duration": 0.45000000000000284
          },
          {
            "name": "E4",
            "midi": 64,
            "time": 32.39999999999996,
            "velocity": 0.5118110236220472,
            "duration": 0.45000000000000284
          },
          {
            "name": "E4",
            "midi": 64,
            "time": 32.849999999999966,
            "velocity": 0.5118110236220472,
            "duration": 0.45000000000000284
          },
          {
            "name": "C4",
            "midi": 60,
            "time": 32.849999999999966,
            "velocity": 0.5118110236220472,
            "duration": 0.45000000000000284
          },
          {
            "name": "A3",
            "midi": 57,
            "time": 32.849999999999966,
            "velocity": 0.5118110236220472,
            "duration": 0.45000000000000284
          },
          {
            "name": "E3",
            "midi": 52,
            "time": 32.849999999999966,
            "velocity": 0.5118110236220472,
            "duration": 0.45000000000000284
          },
          {
            "name": "A2",
            "midi": 45,
            "time": 32.849999999999966,
            "velocity": 0.5118110236220472,
            "duration": 0.45000000000000284
          },
          {
            "name": "A2",
            "midi": 45,
            "time": 33.29999999999997,
            "velocity": 0.5118110236220472,
            "duration": 0.45000000000000284
          },
          {
            "name": "E3",
            "midi": 52,
            "time": 33.29999999999997,
            "velocity": 0.5118110236220472,
            "duration": 0.45000000000000284
          },
          {
            "name": "A3",
            "midi": 57,
            "time": 33.29999999999997,
            "velocity": 0.5118110236220472,
            "duration": 0.45000000000000284
          },
          {
            "name": "C4",
            "midi": 60,
            "time": 33.29999999999997,
            "velocity": 0.5118110236220472,
            "duration": 0.45000000000000284
          },
          {
            "name": "E4",
            "midi": 64,
            "time": 33.29999999999997,
            "velocity": 0.5118110236220472,
            "duration": 0.45000000000000284
          },
          {
            "name": "A2",
            "midi": 45,
            "time": 33.74999999999997,
            "velocity": 0.5118110236220472,
            "duration": 0.45000000000000284
          },
          {
            "name": "E3",
            "midi": 52,
            "time": 33.74999999999997,
            "velocity": 0.5118110236220472,
            "duration": 0.45000000000000284
          },
          {
            "name": "A3",
            "midi": 57,
            "time": 33.74999999999997,
            "velocity": 0.5118110236220472,
            "duration": 0.45000000000000284
          },
          {
            "name": "C4",
            "midi": 60,
            "time": 33.74999999999997,
            "velocity": 0.5118110236220472,
            "duration": 0.45000000000000284
          },
          {
            "name": "E4",
            "midi": 64,
            "time": 33.74999999999997,
            "velocity": 0.5118110236220472,
            "duration": 0.45000000000000284
          },
          {
            "name": "E4",
            "midi": 64,
            "time": 34.199999999999974,
            "velocity": 0.5118110236220472,
            "duration": 0.45000000000000284
          },
          {
            "name": "C4",
            "midi": 60,
            "time": 34.199999999999974,
            "velocity": 0.5118110236220472,
            "duration": 0.45000000000000284
          },
          {
            "name": "A3",
            "midi": 57,
            "time": 34.199999999999974,
            "velocity": 0.5118110236220472,
            "duration": 0.45000000000000284
          },
          {
            "name": "E3",
            "midi": 52,
            "time": 34.199999999999974,
            "velocity": 0.5118110236220472,
            "duration": 0.45000000000000284
          },
          {
            "name": "A2",
            "midi": 45,
            "time": 34.199999999999974,
            "velocity": 0.5118110236220472,
            "duration": 0.45000000000000284
          },
          {
            "name": "A2",
            "midi": 45,
            "time": 34.64999999999998,
            "velocity": 0.5118110236220472,
            "duration": 0.45000000000000284
          },
          {
            "name": "E3",
            "midi": 52,
            "time": 34.64999999999998,
            "velocity": 0.5118110236220472,
            "duration": 0.45000000000000284
          },
          {
            "name": "A3",
            "midi": 57,
            "time": 34.64999999999998,
            "velocity": 0.5118110236220472,
            "duration": 0.45000000000000284
          },
          {
            "name": "C4",
            "midi": 60,
            "time": 34.64999999999998,
            "velocity": 0.5118110236220472,
            "duration": 0.45000000000000284
          },
          {
            "name": "E4",
            "midi": 64,
            "time": 34.64999999999998,
            "velocity": 0.5118110236220472,
            "duration": 0.45000000000000284
          },
          {
            "name": "A2",
            "midi": 45,
            "time": 35.09999999999998,
            "velocity": 0.5118110236220472,
            "duration": 0.45000000000000284
          },
          {
            "name": "E3",
            "midi": 52,
            "time": 35.09999999999998,
            "velocity": 0.5118110236220472,
            "duration": 0.45000000000000284
          },
          {
            "name": "A3",
            "midi": 57,
            "time": 35.09999999999998,
            "velocity": 0.5118110236220472,
            "duration": 0.45000000000000284
          },
          {
            "name": "C4",
            "midi": 60,
            "time": 35.09999999999998,
            "velocity": 0.5118110236220472,
            "duration": 0.45000000000000284
          },
          {
            "name": "E4",
            "midi": 64,
            "time": 35.09999999999998,
            "velocity": 0.5118110236220472,
            "duration": 0.45000000000000284
          },
          {
            "name": "E4",
            "midi": 64,
            "time": 35.54999999999998,
            "velocity": 0.5118110236220472,
            "duration": 0.45000000000000284
          },
          {
            "name": "C4",
            "midi": 60,
            "time": 35.54999999999998,
            "velocity": 0.5118110236220472,
            "duration": 0.45000000000000284
          },
          {
            "name": "A3",
            "midi": 57,
            "time": 35.54999999999998,
            "velocity": 0.5118110236220472,
            "duration": 0.45000000000000284
          },
          {
            "name": "E3",
            "midi": 52,
            "time": 35.54999999999998,
            "velocity": 0.5118110236220472,
            "duration": 0.45000000000000284
          },
          {
            "name": "A2",
            "midi": 45,
            "time": 35.54999999999998,
            "velocity": 0.5118110236220472,
            "duration": 0.45000000000000284
          },
          {
            "name": "A3",
            "midi": 57,
            "time": 35.999999999999986,
            "velocity": 0.5118110236220472,
            "duration": 0.45000000000000284
          },
          {
            "name": "E3",
            "midi": 52,
            "time": 35.999999999999986,
            "velocity": 0.5118110236220472,
            "duration": 0.45000000000000284
          },
          {
            "name": "A2",
            "midi": 45,
            "time": 35.999999999999986,
            "velocity": 0.5118110236220472,
            "duration": 0.45000000000000284
          },
          {
            "name": "C4",
            "midi": 60,
            "time": 35.999999999999986,
            "velocity": 0.5118110236220472,
            "duration": 0.45000000000000284
          },
          {
            "name": "E4",
            "midi": 64,
            "time": 35.999999999999986,
            "velocity": 0.5118110236220472,
            "duration": 0.45000000000000284
          },
          {
            "name": "A3",
            "midi": 57,
            "time": 36.44999999999999,
            "velocity": 0.5118110236220472,
            "duration": 0.45000000000000284
          },
          {
            "name": "E3",
            "midi": 52,
            "time": 36.44999999999999,
            "velocity": 0.5118110236220472,
            "duration": 0.45000000000000284
          },
          {
            "name": "A2",
            "midi": 45,
            "time": 36.44999999999999,
            "velocity": 0.5118110236220472,
            "duration": 0.45000000000000284
          },
          {
            "name": "C4",
            "midi": 60,
            "time": 36.44999999999999,
            "velocity": 0.5118110236220472,
            "duration": 0.45000000000000284
          },
          {
            "name": "E4",
            "midi": 64,
            "time": 36.44999999999999,
            "velocity": 0.5118110236220472,
            "duration": 0.45000000000000284
          },
          {
            "name": "E4",
            "midi": 64,
            "time": 36.89999999999999,
            "velocity": 0.5118110236220472,
            "duration": 0.45000000000000284
          },
          {
            "name": "C4",
            "midi": 60,
            "time": 36.89999999999999,
            "velocity": 0.5118110236220472,
            "duration": 0.45000000000000284
          },
          {
            "name": "A2",
            "midi": 45,
            "time": 36.89999999999999,
            "velocity": 0.5118110236220472,
            "duration": 0.45000000000000284
          },
          {
            "name": "E3",
            "midi": 52,
            "time": 36.89999999999999,
            "velocity": 0.5118110236220472,
            "duration": 0.45000000000000284
          },
          {
            "name": "A3",
            "midi": 57,
            "time": 36.89999999999999,
            "velocity": 0.5118110236220472,
            "duration": 0.45000000000000284
          },
          {
            "name": "A3",
            "midi": 57,
            "time": 37.349999999999994,
            "velocity": 0.5118110236220472,
            "duration": 0.45000000000000284
          },
          {
            "name": "E3",
            "midi": 52,
            "time": 37.349999999999994,
            "velocity": 0.5118110236220472,
            "duration": 0.45000000000000284
          },
          {
            "name": "A2",
            "midi": 45,
            "time": 37.349999999999994,
            "velocity": 0.5118110236220472,
            "duration": 0.45000000000000284
          },
          {
            "name": "C4",
            "midi": 60,
            "time": 37.349999999999994,
            "velocity": 0.5118110236220472,
            "duration": 0.45000000000000284
          },
          {
            "name": "E4",
            "midi": 64,
            "time": 37.349999999999994,
            "velocity": 0.5118110236220472,
            "duration": 0.45000000000000284
          },
          {
            "name": "E4",
            "midi": 64,
            "time": 37.8,
            "velocity": 0.5118110236220472,
            "duration": 0.45000000000000284
          },
          {
            "name": "C4",
            "midi": 60,
            "time": 37.8,
            "velocity": 0.5118110236220472,
            "duration": 0.45000000000000284
          },
          {
            "name": "A2",
            "midi": 45,
            "time": 37.8,
            "velocity": 0.5118110236220472,
            "duration": 0.45000000000000284
          },
          {
            "name": "E3",
            "midi": 52,
            "time": 37.8,
            "velocity": 0.5118110236220472,
            "duration": 0.45000000000000284
          },
          {
            "name": "A3",
            "midi": 57,
            "time": 37.8,
            "velocity": 0.5118110236220472,
            "duration": 0.45000000000000284
          },
          {
            "name": "A3",
            "midi": 57,
            "time": 38.25,
            "velocity": 0.5118110236220472,
            "duration": 0.45000000000000284
          },
          {
            "name": "E3",
            "midi": 52,
            "time": 38.25,
            "velocity": 0.5118110236220472,
            "duration": 0.45000000000000284
          },
          {
            "name": "A2",
            "midi": 45,
            "time": 38.25,
            "velocity": 0.5118110236220472,
            "duration": 0.45000000000000284
          },
          {
            "name": "C4",
            "midi": 60,
            "time": 38.25,
            "velocity": 0.5118110236220472,
            "duration": 0.45000000000000284
          },
          {
            "name": "E4",
            "midi": 64,
            "time": 38.25,
            "velocity": 0.5118110236220472,
            "duration": 0.45000000000000284
          },
          {
            "name": "A3",
            "midi": 57,
            "time": 38.7,
            "velocity": 0.5118110236220472,
            "duration": 0.45000000000000284
          },
          {
            "name": "E3",
            "midi": 52,
            "time": 38.7,
            "velocity": 0.5118110236220472,
            "duration": 0.45000000000000284
          },
          {
            "name": "A2",
            "midi": 45,
            "time": 38.7,
            "velocity": 0.5118110236220472,
            "duration": 0.45000000000000284
          },
          {
            "name": "C4",
            "midi": 60,
            "time": 38.7,
            "velocity": 0.5118110236220472,
            "duration": 0.45000000000000284
          },
          {
            "name": "E4",
            "midi": 64,
            "time": 38.7,
            "velocity": 0.5118110236220472,
            "duration": 0.45000000000000284
          },
          {
            "name": "E4",
            "midi": 64,
            "time": 39.150000000000006,
            "velocity": 0.5118110236220472,
            "duration": 0.45000000000000284
          },
          {
            "name": "C4",
            "midi": 60,
            "time": 39.150000000000006,
            "velocity": 0.5118110236220472,
            "duration": 0.45000000000000284
          },
          {
            "name": "A2",
            "midi": 45,
            "time": 39.150000000000006,
            "velocity": 0.5118110236220472,
            "duration": 0.45000000000000284
          },
          {
            "name": "E3",
            "midi": 52,
            "time": 39.150000000000006,
            "velocity": 0.5118110236220472,
            "duration": 0.45000000000000284
          },
          {
            "name": "A3",
            "midi": 57,
            "time": 39.150000000000006,
            "velocity": 0.5118110236220472,
            "duration": 0.45000000000000284
          },
          {
            "name": "G2",
            "midi": 43,
            "time": 39.60000000000001,
            "velocity": 0.5118110236220472,
            "duration": 0.29999999999999716
          },
          {
            "name": "B2",
            "midi": 47,
            "time": 39.60000000000001,
            "velocity": 0.5118110236220472,
            "duration": 0.29999999999999716
          },
          {
            "name": "D3",
            "midi": 50,
            "time": 39.60000000000001,
            "velocity": 0.5118110236220472,
            "duration": 0.29999999999999716
          },
          {
            "name": "G3",
            "midi": 55,
            "time": 39.60000000000001,
            "velocity": 0.5118110236220472,
            "duration": 0.29999999999999716
          },
          {
            "name": "B3",
            "midi": 59,
            "time": 39.60000000000001,
            "velocity": 0.5118110236220472,
            "duration": 0.29999999999999716
          },
          {
            "name": "G4",
            "midi": 67,
            "time": 39.60000000000001,
            "velocity": 0.5118110236220472,
            "duration": 0.29999999999999716
          },
          {
            "name": "G4",
            "midi": 67,
            "time": 39.900000000000006,
            "velocity": 0.5118110236220472,
            "duration": 0.29999999999999716
          },
          {
            "name": "B3",
            "midi": 59,
            "time": 39.900000000000006,
            "velocity": 0.5118110236220472,
            "duration": 0.29999999999999716
          },
          {
            "name": "G3",
            "midi": 55,
            "time": 39.900000000000006,
            "velocity": 0.5118110236220472,
            "duration": 0.29999999999999716
          },
          {
            "name": "D3",
            "midi": 50,
            "time": 39.900000000000006,
            "velocity": 0.5118110236220472,
            "duration": 0.29999999999999716
          },
          {
            "name": "B2",
            "midi": 47,
            "time": 39.900000000000006,
            "velocity": 0.5118110236220472,
            "duration": 0.29999999999999716
          },
          {
            "name": "G2",
            "midi": 43,
            "time": 39.900000000000006,
            "velocity": 0.5118110236220472,
            "duration": 0.29999999999999716
          },
          {
            "name": "G4",
            "midi": 67,
            "time": 40.2,
            "velocity": 0.5118110236220472,
            "duration": 0.29999999999999716
          },
          {
            "name": "B3",
            "midi": 59,
            "time": 40.2,
            "velocity": 0.5118110236220472,
            "duration": 0.29999999999999716
          },
          {
            "name": "G3",
            "midi": 55,
            "time": 40.2,
            "velocity": 0.5118110236220472,
            "duration": 0.29999999999999716
          },
          {
            "name": "D3",
            "midi": 50,
            "time": 40.2,
            "velocity": 0.5118110236220472,
            "duration": 0.29999999999999716
          },
          {
            "name": "B2",
            "midi": 47,
            "time": 40.2,
            "velocity": 0.5118110236220472,
            "duration": 0.29999999999999716
          },
          {
            "name": "G2",
            "midi": 43,
            "time": 40.2,
            "velocity": 0.5118110236220472,
            "duration": 0.29999999999999716
          },
          {
            "name": "G2",
            "midi": 43,
            "time": 40.5,
            "velocity": 0.5118110236220472,
            "duration": 0.29999999999999716
          },
          {
            "name": "B2",
            "midi": 47,
            "time": 40.5,
            "velocity": 0.5118110236220472,
            "duration": 0.29999999999999716
          },
          {
            "name": "D3",
            "midi": 50,
            "time": 40.5,
            "velocity": 0.5118110236220472,
            "duration": 0.29999999999999716
          },
          {
            "name": "G3",
            "midi": 55,
            "time": 40.5,
            "velocity": 0.5118110236220472,
            "duration": 0.29999999999999716
          },
          {
            "name": "B3",
            "midi": 59,
            "time": 40.5,
            "velocity": 0.5118110236220472,
            "duration": 0.29999999999999716
          },
          {
            "name": "G4",
            "midi": 67,
            "time": 40.5,
            "velocity": 0.5118110236220472,
            "duration": 0.29999999999999716
          },
          {
            "name": "G4",
            "midi": 67,
            "time": 40.8,
            "velocity": 0.5118110236220472,
            "duration": 0.29999999999999716
          },
          {
            "name": "B3",
            "midi": 59,
            "time": 40.8,
            "velocity": 0.5118110236220472,
            "duration": 0.29999999999999716
          },
          {
            "name": "G3",
            "midi": 55,
            "time": 40.8,
            "velocity": 0.5118110236220472,
            "duration": 0.29999999999999716
          },
          {
            "name": "D3",
            "midi": 50,
            "time": 40.8,
            "velocity": 0.5118110236220472,
            "duration": 0.29999999999999716
          },
          {
            "name": "B2",
            "midi": 47,
            "time": 40.8,
            "velocity": 0.5118110236220472,
            "duration": 0.29999999999999716
          },
          {
            "name": "G2",
            "midi": 43,
            "time": 40.8,
            "velocity": 0.5118110236220472,
            "duration": 0.29999999999999716
          },
          {
            "name": "G2",
            "midi": 43,
            "time": 41.099999999999994,
            "velocity": 0.5118110236220472,
            "duration": 0.29999999999999716
          },
          {
            "name": "B2",
            "midi": 47,
            "time": 41.099999999999994,
            "velocity": 0.5118110236220472,
            "duration": 0.29999999999999716
          },
          {
            "name": "D3",
            "midi": 50,
            "time": 41.099999999999994,
            "velocity": 0.5118110236220472,
            "duration": 0.29999999999999716
          },
          {
            "name": "G3",
            "midi": 55,
            "time": 41.099999999999994,
            "velocity": 0.5118110236220472,
            "duration": 0.29999999999999716
          },
          {
            "name": "B3",
            "midi": 59,
            "time": 41.099999999999994,
            "velocity": 0.5118110236220472,
            "duration": 0.29999999999999716
          },
          {
            "name": "G4",
            "midi": 67,
            "time": 41.099999999999994,
            "velocity": 0.5118110236220472,
            "duration": 0.29999999999999716
          },
          {
            "name": "G4",
            "midi": 67,
            "time": 41.39999999999999,
            "velocity": 0.5118110236220472,
            "duration": 0.8999999999999986
          },
          {
            "name": "B3",
            "midi": 59,
            "time": 41.39999999999999,
            "velocity": 0.5118110236220472,
            "duration": 0.8999999999999986
          },
          {
            "name": "G3",
            "midi": 55,
            "time": 41.39999999999999,
            "velocity": 0.5118110236220472,
            "duration": 0.8999999999999986
          },
          {
            "name": "D3",
            "midi": 50,
            "time": 41.39999999999999,
            "velocity": 0.5118110236220472,
            "duration": 0.8999999999999986
          },
          {
            "name": "B2",
            "midi": 47,
            "time": 41.39999999999999,
            "velocity": 0.5118110236220472,
            "duration": 0.8999999999999986
          },
          {
            "name": "G2",
            "midi": 43,
            "time": 41.39999999999999,
            "velocity": 0.5118110236220472,
            "duration": 0.8999999999999986
          },
          {
            "name": "A2",
            "midi": 45,
            "time": 42.29999999999999,
            "velocity": 0.5118110236220472,
            "duration": 0.8999999999999986
          },
          {
            "name": "E3",
            "midi": 52,
            "time": 42.29999999999999,
            "velocity": 0.5118110236220472,
            "duration": 0.8999999999999986
          },
          {
            "name": "A3",
            "midi": 57,
            "time": 42.29999999999999,
            "velocity": 0.5118110236220472,
            "duration": 0.8999999999999986
          },
          {
            "name": "C4",
            "midi": 60,
            "time": 42.29999999999999,
            "velocity": 0.5118110236220472,
            "duration": 0.8999999999999986
          },
          {
            "name": "E4",
            "midi": 64,
            "time": 42.29999999999999,
            "velocity": 0.5118110236220472,
            "duration": 0.8999999999999986
          },
          {
            "name": "D3",
            "midi": 50,
            "time": 43.19999999999999,
            "velocity": 0.5118110236220472,
            "duration": 0.45000000000000284
          },
          {
            "name": "A3",
            "midi": 57,
            "time": 43.19999999999999,
            "velocity": 0.5118110236220472,
            "duration": 0.45000000000000284
          },
          {
            "name": "D4",
            "midi": 62,
            "time": 43.19999999999999,
            "velocity": 0.5118110236220472,
            "duration": 0.45000000000000284
          },
          {
            "name": "F4",
            "midi": 65,
            "time": 43.19999999999999,
            "velocity": 0.5118110236220472,
            "duration": 0.45000000000000284
          },
          {
            "name": "F4",
            "midi": 65,
            "time": 43.64999999999999,
            "velocity": 0.5118110236220472,
            "duration": 0.45000000000000284
          },
          {
            "name": "D4",
            "midi": 62,
            "time": 43.64999999999999,
            "velocity": 0.5118110236220472,
            "duration": 0.45000000000000284
          },
          {
            "name": "A3",
            "midi": 57,
            "time": 43.64999999999999,
            "velocity": 0.5118110236220472,
            "duration": 0.45000000000000284
          },
          {
            "name": "D3",
            "midi": 50,
            "time": 43.64999999999999,
            "velocity": 0.5118110236220472,
            "duration": 0.45000000000000284
          },
          {
            "name": "D3",
            "midi": 50,
            "time": 44.099999999999994,
            "velocity": 0.5118110236220472,
            "duration": 0.45000000000000284
          },
          {
            "name": "A3",
            "midi": 57,
            "time": 44.099999999999994,
            "velocity": 0.5118110236220472,
            "duration": 0.45000000000000284
          },
          {
            "name": "D4",
            "midi": 62,
            "time": 44.099999999999994,
            "velocity": 0.5118110236220472,
            "duration": 0.45000000000000284
          },
          {
            "name": "F4",
            "midi": 65,
            "time": 44.099999999999994,
            "velocity": 0.5118110236220472,
            "duration": 0.45000000000000284
          },
          {
            "name": "D3",
            "midi": 50,
            "time": 44.55,
            "velocity": 0.5118110236220472,
            "duration": 0.45000000000000284
          },
          {
            "name": "A3",
            "midi": 57,
            "time": 44.55,
            "velocity": 0.5118110236220472,
            "duration": 0.45000000000000284
          },
          {
            "name": "D4",
            "midi": 62,
            "time": 44.55,
            "velocity": 0.5118110236220472,
            "duration": 0.45000000000000284
          },
          {
            "name": "F4",
            "midi": 65,
            "time": 44.55,
            "velocity": 0.5118110236220472,
            "duration": 0.45000000000000284
          },
          {
            "name": "G4",
            "midi": 67,
            "time": 45,
            "velocity": 0.5118110236220472,
            "duration": 0.8999999999999986
          },
          {
            "name": "B3",
            "midi": 59,
            "time": 45,
            "velocity": 0.5118110236220472,
            "duration": 0.8999999999999986
          },
          {
            "name": "G3",
            "midi": 55,
            "time": 45,
            "velocity": 0.5118110236220472,
            "duration": 0.8999999999999986
          },
          {
            "name": "D3",
            "midi": 50,
            "time": 45,
            "velocity": 0.5118110236220472,
            "duration": 0.8999999999999986
          },
          {
            "name": "B2",
            "midi": 47,
            "time": 45,
            "velocity": 0.5118110236220472,
            "duration": 0.8999999999999986
          },
          {
            "name": "G2",
            "midi": 43,
            "time": 45,
            "velocity": 0.5118110236220472,
            "duration": 0.8999999999999986
          },
          {
            "name": "G2",
            "midi": 43,
            "time": 45.9,
            "velocity": 0.5118110236220472,
            "duration": 0.8999999999999986
          },
          {
            "name": "B2",
            "midi": 47,
            "time": 45.9,
            "velocity": 0.5118110236220472,
            "duration": 0.8999999999999986
          },
          {
            "name": "D3",
            "midi": 50,
            "time": 45.9,
            "velocity": 0.5118110236220472,
            "duration": 0.8999999999999986
          },
          {
            "name": "G3",
            "midi": 55,
            "time": 45.9,
            "velocity": 0.5118110236220472,
            "duration": 0.8999999999999986
          },
          {
            "name": "B3",
            "midi": 59,
            "time": 45.9,
            "velocity": 0.5118110236220472,
            "duration": 0.8999999999999986
          },
          {
            "name": "G4",
            "midi": 67,
            "time": 45.9,
            "velocity": 0.5118110236220472,
            "duration": 0.8999999999999986
          },
          {
            "name": "A2",
            "midi": 45,
            "time": 46.8,
            "velocity": 0.5118110236220472,
            "duration": 0.45000000000000284
          },
          {
            "name": "E3",
            "midi": 52,
            "time": 46.8,
            "velocity": 0.5118110236220472,
            "duration": 0.45000000000000284
          },
          {
            "name": "A3",
            "midi": 57,
            "time": 46.8,
            "velocity": 0.5118110236220472,
            "duration": 0.45000000000000284
          },
          {
            "name": "C4",
            "midi": 60,
            "time": 46.8,
            "velocity": 0.5118110236220472,
            "duration": 0.45000000000000284
          },
          {
            "name": "E4",
            "midi": 64,
            "time": 46.8,
            "velocity": 0.5118110236220472,
            "duration": 0.45000000000000284
          },
          {
            "name": "E4",
            "midi": 64,
            "time": 47.25,
            "velocity": 0.5118110236220472,
            "duration": 0.45000000000000284
          },
          {
            "name": "C4",
            "midi": 60,
            "time": 47.25,
            "velocity": 0.5118110236220472,
            "duration": 0.45000000000000284
          },
          {
            "name": "A3",
            "midi": 57,
            "time": 47.25,
            "velocity": 0.5118110236220472,
            "duration": 0.45000000000000284
          },
          {
            "name": "E3",
            "midi": 52,
            "time": 47.25,
            "velocity": 0.5118110236220472,
            "duration": 0.45000000000000284
          },
          {
            "name": "A2",
            "midi": 45,
            "time": 47.25,
            "velocity": 0.5118110236220472,
            "duration": 0.45000000000000284
          },
          {
            "name": "A2",
            "midi": 45,
            "time": 47.7,
            "velocity": 0.5118110236220472,
            "duration": 0.45000000000000284
          },
          {
            "name": "E3",
            "midi": 52,
            "time": 47.7,
            "velocity": 0.5118110236220472,
            "duration": 0.45000000000000284
          },
          {
            "name": "A3",
            "midi": 57,
            "time": 47.7,
            "velocity": 0.5118110236220472,
            "duration": 0.45000000000000284
          },
          {
            "name": "C4",
            "midi": 60,
            "time": 47.7,
            "velocity": 0.5118110236220472,
            "duration": 0.45000000000000284
          },
          {
            "name": "E4",
            "midi": 64,
            "time": 47.7,
            "velocity": 0.5118110236220472,
            "duration": 0.45000000000000284
          },
          {
            "name": "E4",
            "midi": 64,
            "time": 48.150000000000006,
            "velocity": 0.5118110236220472,
            "duration": 0.45000000000000284
          },
          {
            "name": "C4",
            "midi": 60,
            "time": 48.150000000000006,
            "velocity": 0.5118110236220472,
            "duration": 0.45000000000000284
          },
          {
            "name": "A3",
            "midi": 57,
            "time": 48.150000000000006,
            "velocity": 0.5118110236220472,
            "duration": 0.45000000000000284
          },
          {
            "name": "E3",
            "midi": 52,
            "time": 48.150000000000006,
            "velocity": 0.5118110236220472,
            "duration": 0.45000000000000284
          },
          {
            "name": "A2",
            "midi": 45,
            "time": 48.150000000000006,
            "velocity": 0.5118110236220472,
            "duration": 0.45000000000000284
          },
          {
            "name": "A2",
            "midi": 45,
            "time": 48.60000000000001,
            "velocity": 0.5118110236220472,
            "duration": 0.45000000000000284
          },
          {
            "name": "E3",
            "midi": 52,
            "time": 48.60000000000001,
            "velocity": 0.5118110236220472,
            "duration": 0.45000000000000284
          },
          {
            "name": "A3",
            "midi": 57,
            "time": 48.60000000000001,
            "velocity": 0.5118110236220472,
            "duration": 0.45000000000000284
          },
          {
            "name": "C4",
            "midi": 60,
            "time": 48.60000000000001,
            "velocity": 0.5118110236220472,
            "duration": 0.45000000000000284
          },
          {
            "name": "E4",
            "midi": 64,
            "time": 48.60000000000001,
            "velocity": 0.5118110236220472,
            "duration": 0.45000000000000284
          },
          {
            "name": "A2",
            "midi": 45,
            "time": 49.05000000000001,
            "velocity": 0.5118110236220472,
            "duration": 0.45000000000000284
          },
          {
            "name": "E3",
            "midi": 52,
            "time": 49.05000000000001,
            "velocity": 0.5118110236220472,
            "duration": 0.45000000000000284
          },
          {
            "name": "A3",
            "midi": 57,
            "time": 49.05000000000001,
            "velocity": 0.5118110236220472,
            "duration": 0.45000000000000284
          },
          {
            "name": "C4",
            "midi": 60,
            "time": 49.05000000000001,
            "velocity": 0.5118110236220472,
            "duration": 0.45000000000000284
          },
          {
            "name": "E4",
            "midi": 64,
            "time": 49.05000000000001,
            "velocity": 0.5118110236220472,
            "duration": 0.45000000000000284
          },
          {
            "name": "E4",
            "midi": 64,
            "time": 49.500000000000014,
            "velocity": 0.5118110236220472,
            "duration": 0.45000000000000284
          },
          {
            "name": "C4",
            "midi": 60,
            "time": 49.500000000000014,
            "velocity": 0.5118110236220472,
            "duration": 0.45000000000000284
          },
          {
            "name": "A3",
            "midi": 57,
            "time": 49.500000000000014,
            "velocity": 0.5118110236220472,
            "duration": 0.45000000000000284
          },
          {
            "name": "E3",
            "midi": 52,
            "time": 49.500000000000014,
            "velocity": 0.5118110236220472,
            "duration": 0.45000000000000284
          },
          {
            "name": "A2",
            "midi": 45,
            "time": 49.500000000000014,
            "velocity": 0.5118110236220472,
            "duration": 0.45000000000000284
          },
          {
            "name": "A2",
            "midi": 45,
            "time": 49.95000000000002,
            "velocity": 0.5118110236220472,
            "duration": 0.45000000000000284
          },
          {
            "name": "E3",
            "midi": 52,
            "time": 49.95000000000002,
            "velocity": 0.5118110236220472,
            "duration": 0.45000000000000284
          },
          {
            "name": "A3",
            "midi": 57,
            "time": 49.95000000000002,
            "velocity": 0.5118110236220472,
            "duration": 0.45000000000000284
          },
          {
            "name": "C4",
            "midi": 60,
            "time": 49.95000000000002,
            "velocity": 0.5118110236220472,
            "duration": 0.45000000000000284
          },
          {
            "name": "E4",
            "midi": 64,
            "time": 49.95000000000002,
            "velocity": 0.5118110236220472,
            "duration": 0.45000000000000284
          },
          {
            "name": "F4",
            "midi": 65,
            "time": 50.40000000000002,
            "velocity": 0.5118110236220472,
            "duration": 0.45000000000000284
          },
          {
            "name": "C4",
            "midi": 60,
            "time": 50.40000000000002,
            "velocity": 0.5118110236220472,
            "duration": 0.45000000000000284
          },
          {
            "name": "A3",
            "midi": 57,
            "time": 50.40000000000002,
            "velocity": 0.5118110236220472,
            "duration": 0.45000000000000284
          },
          {
            "name": "F3",
            "midi": 53,
            "time": 50.40000000000002,
            "velocity": 0.5118110236220472,
            "duration": 0.45000000000000284
          },
          {
            "name": "C3",
            "midi": 48,
            "time": 50.40000000000002,
            "velocity": 0.5118110236220472,
            "duration": 0.45000000000000284
          },
          {
            "name": "F2",
            "midi": 41,
            "time": 50.40000000000002,
            "velocity": 0.5118110236220472,
            "duration": 0.45000000000000284
          },
          {
            "name": "F4",
            "midi": 65,
            "time": 50.85000000000002,
            "velocity": 0.5118110236220472,
            "duration": 0.45000000000000284
          },
          {
            "name": "C4",
            "midi": 60,
            "time": 50.85000000000002,
            "velocity": 0.5118110236220472,
            "duration": 0.45000000000000284
          },
          {
            "name": "A3",
            "midi": 57,
            "time": 50.85000000000002,
            "velocity": 0.5118110236220472,
            "duration": 0.45000000000000284
          },
          {
            "name": "F3",
            "midi": 53,
            "time": 50.85000000000002,
            "velocity": 0.5118110236220472,
            "duration": 0.45000000000000284
          },
          {
            "name": "C3",
            "midi": 48,
            "time": 50.85000000000002,
            "velocity": 0.5118110236220472,
            "duration": 0.45000000000000284
          },
          {
            "name": "F2",
            "midi": 41,
            "time": 50.85000000000002,
            "velocity": 0.5118110236220472,
            "duration": 0.45000000000000284
          },
          {
            "name": "F2",
            "midi": 41,
            "time": 51.300000000000026,
            "velocity": 0.5118110236220472,
            "duration": 0.45000000000000284
          },
          {
            "name": "C3",
            "midi": 48,
            "time": 51.300000000000026,
            "velocity": 0.5118110236220472,
            "duration": 0.45000000000000284
          },
          {
            "name": "F3",
            "midi": 53,
            "time": 51.300000000000026,
            "velocity": 0.5118110236220472,
            "duration": 0.45000000000000284
          },
          {
            "name": "A3",
            "midi": 57,
            "time": 51.300000000000026,
            "velocity": 0.5118110236220472,
            "duration": 0.45000000000000284
          },
          {
            "name": "C4",
            "midi": 60,
            "time": 51.300000000000026,
            "velocity": 0.5118110236220472,
            "duration": 0.45000000000000284
          },
          {
            "name": "F4",
            "midi": 65,
            "time": 51.300000000000026,
            "velocity": 0.5118110236220472,
            "duration": 0.45000000000000284
          },
          {
            "name": "F4",
            "midi": 65,
            "time": 51.75000000000003,
            "velocity": 0.5118110236220472,
            "duration": 0.45000000000000284
          },
          {
            "name": "C4",
            "midi": 60,
            "time": 51.75000000000003,
            "velocity": 0.5118110236220472,
            "duration": 0.45000000000000284
          },
          {
            "name": "A3",
            "midi": 57,
            "time": 51.75000000000003,
            "velocity": 0.5118110236220472,
            "duration": 0.45000000000000284
          },
          {
            "name": "F3",
            "midi": 53,
            "time": 51.75000000000003,
            "velocity": 0.5118110236220472,
            "duration": 0.45000000000000284
          },
          {
            "name": "C3",
            "midi": 48,
            "time": 51.75000000000003,
            "velocity": 0.5118110236220472,
            "duration": 0.45000000000000284
          },
          {
            "name": "F2",
            "midi": 41,
            "time": 51.75000000000003,
            "velocity": 0.5118110236220472,
            "duration": 0.45000000000000284
          },
          {
            "name": "G2",
            "midi": 43,
            "time": 52.20000000000003,
            "velocity": 0.5118110236220472,
            "duration": 0.45000000000000284
          },
          {
            "name": "B2",
            "midi": 47,
            "time": 52.20000000000003,
            "velocity": 0.5118110236220472,
            "duration": 0.45000000000000284
          },
          {
            "name": "D3",
            "midi": 50,
            "time": 52.20000000000003,
            "velocity": 0.5118110236220472,
            "duration": 0.45000000000000284
          },
          {
            "name": "G3",
            "midi": 55,
            "time": 52.20000000000003,
            "velocity": 0.5118110236220472,
            "duration": 0.45000000000000284
          },
          {
            "name": "B3",
            "midi": 59,
            "time": 52.20000000000003,
            "velocity": 0.5118110236220472,
            "duration": 0.45000000000000284
          },
          {
            "name": "G4",
            "midi": 67,
            "time": 52.20000000000003,
            "velocity": 0.5118110236220472,
            "duration": 0.45000000000000284
          },
          {
            "name": "G4",
            "midi": 67,
            "time": 52.650000000000034,
            "velocity": 0.5118110236220472,
            "duration": 0.45000000000000284
          },
          {
            "name": "B3",
            "midi": 59,
            "time": 52.650000000000034,
            "velocity": 0.5118110236220472,
            "duration": 0.45000000000000284
          },
          {
            "name": "G3",
            "midi": 55,
            "time": 52.650000000000034,
            "velocity": 0.5118110236220472,
            "duration": 0.45000000000000284
          },
          {
            "name": "D3",
            "midi": 50,
            "time": 52.650000000000034,
            "velocity": 0.5118110236220472,
            "duration": 0.45000000000000284
          },
          {
            "name": "B2",
            "midi": 47,
            "time": 52.650000000000034,
            "velocity": 0.5118110236220472,
            "duration": 0.45000000000000284
          },
          {
            "name": "G2",
            "midi": 43,
            "time": 52.650000000000034,
            "velocity": 0.5118110236220472,
            "duration": 0.45000000000000284
          },
          {
            "name": "G4",
            "midi": 67,
            "time": 53.10000000000004,
            "velocity": 0.5118110236220472,
            "duration": 0.45000000000000284
          },
          {
            "name": "B3",
            "midi": 59,
            "time": 53.10000000000004,
            "velocity": 0.5118110236220472,
            "duration": 0.45000000000000284
          },
          {
            "name": "G3",
            "midi": 55,
            "time": 53.10000000000004,
            "velocity": 0.5118110236220472,
            "duration": 0.45000000000000284
          },
          {
            "name": "D3",
            "midi": 50,
            "time": 53.10000000000004,
            "velocity": 0.5118110236220472,
            "duration": 0.45000000000000284
          },
          {
            "name": "B2",
            "midi": 47,
            "time": 53.10000000000004,
            "velocity": 0.5118110236220472,
            "duration": 0.45000000000000284
          },
          {
            "name": "G2",
            "midi": 43,
            "time": 53.10000000000004,
            "velocity": 0.5118110236220472,
            "duration": 0.45000000000000284
          },
          {
            "name": "G2",
            "midi": 43,
            "time": 53.55000000000004,
            "velocity": 0.5118110236220472,
            "duration": 0.45000000000000284
          },
          {
            "name": "B2",
            "midi": 47,
            "time": 53.55000000000004,
            "velocity": 0.5118110236220472,
            "duration": 0.45000000000000284
          },
          {
            "name": "D3",
            "midi": 50,
            "time": 53.55000000000004,
            "velocity": 0.5118110236220472,
            "duration": 0.45000000000000284
          },
          {
            "name": "G3",
            "midi": 55,
            "time": 53.55000000000004,
            "velocity": 0.5118110236220472,
            "duration": 0.45000000000000284
          },
          {
            "name": "B3",
            "midi": 59,
            "time": 53.55000000000004,
            "velocity": 0.5118110236220472,
            "duration": 0.45000000000000284
          },
          {
            "name": "G4",
            "midi": 67,
            "time": 53.55000000000004,
            "velocity": 0.5118110236220472,
            "duration": 0.45000000000000284
          },
          {
            "name": "F4",
            "midi": 65,
            "time": 54.00000000000004,
            "velocity": 0.5118110236220472,
            "duration": 0.45000000000000284
          },
          {
            "name": "D4",
            "midi": 62,
            "time": 54.00000000000004,
            "velocity": 0.5118110236220472,
            "duration": 0.45000000000000284
          },
          {
            "name": "A3",
            "midi": 57,
            "time": 54.00000000000004,
            "velocity": 0.5118110236220472,
            "duration": 0.45000000000000284
          },
          {
            "name": "D3",
            "midi": 50,
            "time": 54.00000000000004,
            "velocity": 0.5118110236220472,
            "duration": 0.45000000000000284
          },
          {
            "name": "D3",
            "midi": 50,
            "time": 54.450000000000045,
            "velocity": 0.5118110236220472,
            "duration": 0.45000000000000284
          },
          {
            "name": "A3",
            "midi": 57,
            "time": 54.450000000000045,
            "velocity": 0.5118110236220472,
            "duration": 0.45000000000000284
          },
          {
            "name": "D4",
            "midi": 62,
            "time": 54.450000000000045,
            "velocity": 0.5118110236220472,
            "duration": 0.45000000000000284
          },
          {
            "name": "F4",
            "midi": 65,
            "time": 54.450000000000045,
            "velocity": 0.5118110236220472,
            "duration": 0.45000000000000284
          },
          {
            "name": "D3",
            "midi": 50,
            "time": 54.90000000000005,
            "velocity": 0.5118110236220472,
            "duration": 0.45000000000000284
          },
          {
            "name": "A3",
            "midi": 57,
            "time": 54.90000000000005,
            "velocity": 0.5118110236220472,
            "duration": 0.45000000000000284
          },
          {
            "name": "D4",
            "midi": 62,
            "time": 54.90000000000005,
            "velocity": 0.5118110236220472,
            "duration": 0.45000000000000284
          },
          {
            "name": "F4",
            "midi": 65,
            "time": 54.90000000000005,
            "velocity": 0.5118110236220472,
            "duration": 0.45000000000000284
          },
          {
            "name": "F4",
            "midi": 65,
            "time": 55.35000000000005,
            "velocity": 0.5118110236220472,
            "duration": 0.45000000000000284
          },
          {
            "name": "D4",
            "midi": 62,
            "time": 55.35000000000005,
            "velocity": 0.5118110236220472,
            "duration": 0.45000000000000284
          },
          {
            "name": "A3",
            "midi": 57,
            "time": 55.35000000000005,
            "velocity": 0.5118110236220472,
            "duration": 0.45000000000000284
          },
          {
            "name": "D3",
            "midi": 50,
            "time": 55.35000000000005,
            "velocity": 0.5118110236220472,
            "duration": 0.45000000000000284
          },
          {
            "name": "A2",
            "midi": 45,
            "time": 55.800000000000054,
            "velocity": 0.5118110236220472,
            "duration": 0.45000000000000284
          },
          {
            "name": "E3",
            "midi": 52,
            "time": 55.800000000000054,
            "velocity": 0.5118110236220472,
            "duration": 0.45000000000000284
          },
          {
            "name": "A3",
            "midi": 57,
            "time": 55.800000000000054,
            "velocity": 0.5118110236220472,
            "duration": 0.45000000000000284
          },
          {
            "name": "C4",
            "midi": 60,
            "time": 55.800000000000054,
            "velocity": 0.5118110236220472,
            "duration": 0.45000000000000284
          },
          {
            "name": "E4",
            "midi": 64,
            "time": 55.800000000000054,
            "velocity": 0.5118110236220472,
            "duration": 0.45000000000000284
          },
          {
            "name": "A2",
            "midi": 45,
            "time": 56.25000000000006,
            "velocity": 0.5118110236220472,
            "duration": 0.45000000000000284
          },
          {
            "name": "E3",
            "midi": 52,
            "time": 56.25000000000006,
            "velocity": 0.5118110236220472,
            "duration": 0.45000000000000284
          },
          {
            "name": "A3",
            "midi": 57,
            "time": 56.25000000000006,
            "velocity": 0.5118110236220472,
            "duration": 0.45000000000000284
          },
          {
            "name": "C4",
            "midi": 60,
            "time": 56.25000000000006,
            "velocity": 0.5118110236220472,
            "duration": 0.45000000000000284
          },
          {
            "name": "E4",
            "midi": 64,
            "time": 56.25000000000006,
            "velocity": 0.5118110236220472,
            "duration": 0.45000000000000284
          },
          {
            "name": "E4",
            "midi": 64,
            "time": 56.70000000000006,
            "velocity": 0.5118110236220472,
            "duration": 0.45000000000000284
          },
          {
            "name": "C4",
            "midi": 60,
            "time": 56.70000000000006,
            "velocity": 0.5118110236220472,
            "duration": 0.45000000000000284
          },
          {
            "name": "A3",
            "midi": 57,
            "time": 56.70000000000006,
            "velocity": 0.5118110236220472,
            "duration": 0.45000000000000284
          },
          {
            "name": "E3",
            "midi": 52,
            "time": 56.70000000000006,
            "velocity": 0.5118110236220472,
            "duration": 0.45000000000000284
          },
          {
            "name": "A2",
            "midi": 45,
            "time": 56.70000000000006,
            "velocity": 0.5118110236220472,
            "duration": 0.45000000000000284
          },
          {
            "name": "A2",
            "midi": 45,
            "time": 57.15000000000006,
            "velocity": 0.5118110236220472,
            "duration": 0.45000000000000284
          },
          {
            "name": "E3",
            "midi": 52,
            "time": 57.15000000000006,
            "velocity": 0.5118110236220472,
            "duration": 0.45000000000000284
          },
          {
            "name": "A3",
            "midi": 57,
            "time": 57.15000000000006,
            "velocity": 0.5118110236220472,
            "duration": 0.45000000000000284
          },
          {
            "name": "C4",
            "midi": 60,
            "time": 57.15000000000006,
            "velocity": 0.5118110236220472,
            "duration": 0.45000000000000284
          },
          {
            "name": "E4",
            "midi": 64,
            "time": 57.15000000000006,
            "velocity": 0.5118110236220472,
            "duration": 0.45000000000000284
          },
          {
            "name": "F4",
            "midi": 65,
            "time": 57.600000000000065,
            "velocity": 0.5118110236220472,
            "duration": 0.45000000000000284
          },
          {
            "name": "C4",
            "midi": 60,
            "time": 57.600000000000065,
            "velocity": 0.5118110236220472,
            "duration": 0.45000000000000284
          },
          {
            "name": "A3",
            "midi": 57,
            "time": 57.600000000000065,
            "velocity": 0.5118110236220472,
            "duration": 0.45000000000000284
          },
          {
            "name": "F3",
            "midi": 53,
            "time": 57.600000000000065,
            "velocity": 0.5118110236220472,
            "duration": 0.45000000000000284
          },
          {
            "name": "C3",
            "midi": 48,
            "time": 57.600000000000065,
            "velocity": 0.5118110236220472,
            "duration": 0.45000000000000284
          },
          {
            "name": "F2",
            "midi": 41,
            "time": 57.600000000000065,
            "velocity": 0.5118110236220472,
            "duration": 0.45000000000000284
          },
          {
            "name": "F4",
            "midi": 65,
            "time": 58.05000000000007,
            "velocity": 0.5118110236220472,
            "duration": 0.45000000000000284
          },
          {
            "name": "C4",
            "midi": 60,
            "time": 58.05000000000007,
            "velocity": 0.5118110236220472,
            "duration": 0.45000000000000284
          },
          {
            "name": "A3",
            "midi": 57,
            "time": 58.05000000000007,
            "velocity": 0.5118110236220472,
            "duration": 0.45000000000000284
          },
          {
            "name": "F3",
            "midi": 53,
            "time": 58.05000000000007,
            "velocity": 0.5118110236220472,
            "duration": 0.45000000000000284
          },
          {
            "name": "C3",
            "midi": 48,
            "time": 58.05000000000007,
            "velocity": 0.5118110236220472,
            "duration": 0.45000000000000284
          },
          {
            "name": "F2",
            "midi": 41,
            "time": 58.05000000000007,
            "velocity": 0.5118110236220472,
            "duration": 0.45000000000000284
          },
          {
            "name": "F2",
            "midi": 41,
            "time": 58.50000000000007,
            "velocity": 0.5118110236220472,
            "duration": 0.45000000000000284
          },
          {
            "name": "C3",
            "midi": 48,
            "time": 58.50000000000007,
            "velocity": 0.5118110236220472,
            "duration": 0.45000000000000284
          },
          {
            "name": "F3",
            "midi": 53,
            "time": 58.50000000000007,
            "velocity": 0.5118110236220472,
            "duration": 0.45000000000000284
          },
          {
            "name": "A3",
            "midi": 57,
            "time": 58.50000000000007,
            "velocity": 0.5118110236220472,
            "duration": 0.45000000000000284
          },
          {
            "name": "C4",
            "midi": 60,
            "time": 58.50000000000007,
            "velocity": 0.5118110236220472,
            "duration": 0.45000000000000284
          },
          {
            "name": "F4",
            "midi": 65,
            "time": 58.50000000000007,
            "velocity": 0.5118110236220472,
            "duration": 0.45000000000000284
          },
          {
            "name": "F4",
            "midi": 65,
            "time": 58.950000000000074,
            "velocity": 0.5118110236220472,
            "duration": 0.45000000000000284
          },
          {
            "name": "C4",
            "midi": 60,
            "time": 58.950000000000074,
            "velocity": 0.5118110236220472,
            "duration": 0.45000000000000284
          },
          {
            "name": "A3",
            "midi": 57,
            "time": 58.950000000000074,
            "velocity": 0.5118110236220472,
            "duration": 0.45000000000000284
          },
          {
            "name": "F3",
            "midi": 53,
            "time": 58.950000000000074,
            "velocity": 0.5118110236220472,
            "duration": 0.45000000000000284
          },
          {
            "name": "C3",
            "midi": 48,
            "time": 58.950000000000074,
            "velocity": 0.5118110236220472,
            "duration": 0.45000000000000284
          },
          {
            "name": "F2",
            "midi": 41,
            "time": 58.950000000000074,
            "velocity": 0.5118110236220472,
            "duration": 0.45000000000000284
          },
          {
            "name": "D3",
            "midi": 50,
            "time": 59.40000000000008,
            "velocity": 0.5118110236220472,
            "duration": 0.45000000000000284
          },
          {
            "name": "A3",
            "midi": 57,
            "time": 59.40000000000008,
            "velocity": 0.5118110236220472,
            "duration": 0.45000000000000284
          },
          {
            "name": "D4",
            "midi": 62,
            "time": 59.40000000000008,
            "velocity": 0.5118110236220472,
            "duration": 0.45000000000000284
          },
          {
            "name": "F4",
            "midi": 65,
            "time": 59.40000000000008,
            "velocity": 0.5118110236220472,
            "duration": 0.45000000000000284
          },
          {
            "name": "D3",
            "midi": 50,
            "time": 59.85000000000008,
            "velocity": 0.5118110236220472,
            "duration": 0.45000000000000284
          },
          {
            "name": "A3",
            "midi": 57,
            "time": 59.85000000000008,
            "velocity": 0.5118110236220472,
            "duration": 0.45000000000000284
          },
          {
            "name": "D4",
            "midi": 62,
            "time": 59.85000000000008,
            "velocity": 0.5118110236220472,
            "duration": 0.45000000000000284
          },
          {
            "name": "F4",
            "midi": 65,
            "time": 59.85000000000008,
            "velocity": 0.5118110236220472,
            "duration": 0.45000000000000284
          },
          {
            "name": "E3",
            "midi": 52,
            "time": 60.30000000000008,
            "velocity": 0.5118110236220472,
            "duration": 0.45000000000000284
          },
          {
            "name": "B3",
            "midi": 59,
            "time": 60.30000000000008,
            "velocity": 0.5118110236220472,
            "duration": 0.45000000000000284
          },
          {
            "name": "G#3",
            "midi": 56,
            "time": 60.30000000000008,
            "velocity": 0.5118110236220472,
            "duration": 0.45000000000000284
          },
          {
            "name": "E4",
            "midi": 64,
            "time": 60.30000000000008,
            "velocity": 0.5118110236220472,
            "duration": 0.45000000000000284
          },
          {
            "name": "B2",
            "midi": 47,
            "time": 60.30000000000008,
            "velocity": 0.5118110236220472,
            "duration": 0.45000000000000284
          },
          {
            "name": "E2",
            "midi": 40,
            "time": 60.30000000000008,
            "velocity": 0.5118110236220472,
            "duration": 0.45000000000000284
          },
          {
            "name": "E2",
            "midi": 40,
            "time": 60.750000000000085,
            "velocity": 0.5118110236220472,
            "duration": 0.45000000000000284
          },
          {
            "name": "B2",
            "midi": 47,
            "time": 60.750000000000085,
            "velocity": 0.5118110236220472,
            "duration": 0.45000000000000284
          },
          {
            "name": "E4",
            "midi": 64,
            "time": 60.750000000000085,
            "velocity": 0.5118110236220472,
            "duration": 0.45000000000000284
          },
          {
            "name": "G#3",
            "midi": 56,
            "time": 60.750000000000085,
            "velocity": 0.5118110236220472,
            "duration": 0.45000000000000284
          },
          {
            "name": "B3",
            "midi": 59,
            "time": 60.750000000000085,
            "velocity": 0.5118110236220472,
            "duration": 0.45000000000000284
          },
          {
            "name": "E3",
            "midi": 52,
            "time": 60.750000000000085,
            "velocity": 0.5118110236220472,
            "duration": 0.45000000000000284
          },
          {
            "name": "A2",
            "midi": 45,
            "time": 61.20000000000009,
            "velocity": 0.5118110236220472,
            "duration": 0.45000000000000284
          },
          {
            "name": "E3",
            "midi": 52,
            "time": 61.20000000000009,
            "velocity": 0.5118110236220472,
            "duration": 0.45000000000000284
          },
          {
            "name": "A3",
            "midi": 57,
            "time": 61.20000000000009,
            "velocity": 0.5118110236220472,
            "duration": 0.45000000000000284
          },
          {
            "name": "C4",
            "midi": 60,
            "time": 61.20000000000009,
            "velocity": 0.5118110236220472,
            "duration": 0.45000000000000284
          },
          {
            "name": "E4",
            "midi": 64,
            "time": 61.20000000000009,
            "velocity": 0.5118110236220472,
            "duration": 0.45000000000000284
          },
          {
            "name": "E4",
            "midi": 64,
            "time": 61.65000000000009,
            "velocity": 0.5118110236220472,
            "duration": 0.45000000000000284
          },
          {
            "name": "C4",
            "midi": 60,
            "time": 61.65000000000009,
            "velocity": 0.5118110236220472,
            "duration": 0.45000000000000284
          },
          {
            "name": "A3",
            "midi": 57,
            "time": 61.65000000000009,
            "velocity": 0.5118110236220472,
            "duration": 0.45000000000000284
          },
          {
            "name": "E3",
            "midi": 52,
            "time": 61.65000000000009,
            "velocity": 0.5118110236220472,
            "duration": 0.45000000000000284
          },
          {
            "name": "A2",
            "midi": 45,
            "time": 61.65000000000009,
            "velocity": 0.5118110236220472,
            "duration": 0.45000000000000284
          },
          {
            "name": "A2",
            "midi": 45,
            "time": 62.100000000000094,
            "velocity": 0.5118110236220472,
            "duration": 0.45000000000000284
          },
          {
            "name": "E3",
            "midi": 52,
            "time": 62.100000000000094,
            "velocity": 0.5118110236220472,
            "duration": 0.45000000000000284
          },
          {
            "name": "A3",
            "midi": 57,
            "time": 62.100000000000094,
            "velocity": 0.5118110236220472,
            "duration": 0.45000000000000284
          },
          {
            "name": "C4",
            "midi": 60,
            "time": 62.100000000000094,
            "velocity": 0.5118110236220472,
            "duration": 0.45000000000000284
          },
          {
            "name": "E4",
            "midi": 64,
            "time": 62.100000000000094,
            "velocity": 0.5118110236220472,
            "duration": 0.45000000000000284
          },
          {
            "name": "E4",
            "midi": 64,
            "time": 62.5500000000001,
            "velocity": 0.5118110236220472,
            "duration": 0.45000000000000284
          },
          {
            "name": "C4",
            "midi": 60,
            "time": 62.5500000000001,
            "velocity": 0.5118110236220472,
            "duration": 0.45000000000000284
          },
          {
            "name": "A3",
            "midi": 57,
            "time": 62.5500000000001,
            "velocity": 0.5118110236220472,
            "duration": 0.45000000000000284
          },
          {
            "name": "E3",
            "midi": 52,
            "time": 62.5500000000001,
            "velocity": 0.5118110236220472,
            "duration": 0.45000000000000284
          },
          {
            "name": "A2",
            "midi": 45,
            "time": 62.5500000000001,
            "velocity": 0.5118110236220472,
            "duration": 0.45000000000000284
          },
          {
            "name": "A2",
            "midi": 45,
            "time": 63.0000000000001,
            "velocity": 0.5118110236220472,
            "duration": 0.45000000000000284
          },
          {
            "name": "E3",
            "midi": 52,
            "time": 63.0000000000001,
            "velocity": 0.5118110236220472,
            "duration": 0.45000000000000284
          },
          {
            "name": "A3",
            "midi": 57,
            "time": 63.0000000000001,
            "velocity": 0.5118110236220472,
            "duration": 0.45000000000000284
          },
          {
            "name": "C4",
            "midi": 60,
            "time": 63.0000000000001,
            "velocity": 0.5118110236220472,
            "duration": 0.45000000000000284
          },
          {
            "name": "E4",
            "midi": 64,
            "time": 63.0000000000001,
            "velocity": 0.5118110236220472,
            "duration": 0.45000000000000284
          },
          {
            "name": "A2",
            "midi": 45,
            "time": 63.4500000000001,
            "velocity": 0.5118110236220472,
            "duration": 0.45000000000000284
          },
          {
            "name": "E3",
            "midi": 52,
            "time": 63.4500000000001,
            "velocity": 0.5118110236220472,
            "duration": 0.45000000000000284
          },
          {
            "name": "A3",
            "midi": 57,
            "time": 63.4500000000001,
            "velocity": 0.5118110236220472,
            "duration": 0.45000000000000284
          },
          {
            "name": "C4",
            "midi": 60,
            "time": 63.4500000000001,
            "velocity": 0.5118110236220472,
            "duration": 0.45000000000000284
          },
          {
            "name": "E4",
            "midi": 64,
            "time": 63.4500000000001,
            "velocity": 0.5118110236220472,
            "duration": 0.45000000000000284
          },
          {
            "name": "E4",
            "midi": 64,
            "time": 63.900000000000105,
            "velocity": 0.5118110236220472,
            "duration": 0.45000000000000284
          },
          {
            "name": "C4",
            "midi": 60,
            "time": 63.900000000000105,
            "velocity": 0.5118110236220472,
            "duration": 0.45000000000000284
          },
          {
            "name": "A3",
            "midi": 57,
            "time": 63.900000000000105,
            "velocity": 0.5118110236220472,
            "duration": 0.45000000000000284
          },
          {
            "name": "E3",
            "midi": 52,
            "time": 63.900000000000105,
            "velocity": 0.5118110236220472,
            "duration": 0.45000000000000284
          },
          {
            "name": "A2",
            "midi": 45,
            "time": 63.900000000000105,
            "velocity": 0.5118110236220472,
            "duration": 0.45000000000000284
          },
          {
            "name": "A2",
            "midi": 45,
            "time": 64.35000000000011,
            "velocity": 0.5118110236220472,
            "duration": 0.45000000000000284
          },
          {
            "name": "E3",
            "midi": 52,
            "time": 64.35000000000011,
            "velocity": 0.5118110236220472,
            "duration": 0.45000000000000284
          },
          {
            "name": "A3",
            "midi": 57,
            "time": 64.35000000000011,
            "velocity": 0.5118110236220472,
            "duration": 0.45000000000000284
          },
          {
            "name": "C4",
            "midi": 60,
            "time": 64.35000000000011,
            "velocity": 0.5118110236220472,
            "duration": 0.45000000000000284
          },
          {
            "name": "E4",
            "midi": 64,
            "time": 64.35000000000011,
            "velocity": 0.5118110236220472,
            "duration": 0.45000000000000284
          },
          {
            "name": "F4",
            "midi": 65,
            "time": 64.80000000000011,
            "velocity": 0.5118110236220472,
            "duration": 0.45000000000000284
          },
          {
            "name": "C4",
            "midi": 60,
            "time": 64.80000000000011,
            "velocity": 0.5118110236220472,
            "duration": 0.45000000000000284
          },
          {
            "name": "A3",
            "midi": 57,
            "time": 64.80000000000011,
            "velocity": 0.5118110236220472,
            "duration": 0.45000000000000284
          },
          {
            "name": "F3",
            "midi": 53,
            "time": 64.80000000000011,
            "velocity": 0.5118110236220472,
            "duration": 0.45000000000000284
          },
          {
            "name": "C3",
            "midi": 48,
            "time": 64.80000000000011,
            "velocity": 0.5118110236220472,
            "duration": 0.45000000000000284
          },
          {
            "name": "F2",
            "midi": 41,
            "time": 64.80000000000011,
            "velocity": 0.5118110236220472,
            "duration": 0.45000000000000284
          },
          {
            "name": "F4",
            "midi": 65,
            "time": 65.25000000000011,
            "velocity": 0.5118110236220472,
            "duration": 0.45000000000000284
          },
          {
            "name": "C4",
            "midi": 60,
            "time": 65.25000000000011,
            "velocity": 0.5118110236220472,
            "duration": 0.45000000000000284
          },
          {
            "name": "A3",
            "midi": 57,
            "time": 65.25000000000011,
            "velocity": 0.5118110236220472,
            "duration": 0.45000000000000284
          },
          {
            "name": "F3",
            "midi": 53,
            "time": 65.25000000000011,
            "velocity": 0.5118110236220472,
            "duration": 0.45000000000000284
          },
          {
            "name": "C3",
            "midi": 48,
            "time": 65.25000000000011,
            "velocity": 0.5118110236220472,
            "duration": 0.45000000000000284
          },
          {
            "name": "F2",
            "midi": 41,
            "time": 65.25000000000011,
            "velocity": 0.5118110236220472,
            "duration": 0.45000000000000284
          },
          {
            "name": "F2",
            "midi": 41,
            "time": 65.70000000000012,
            "velocity": 0.5118110236220472,
            "duration": 0.45000000000000284
          },
          {
            "name": "C3",
            "midi": 48,
            "time": 65.70000000000012,
            "velocity": 0.5118110236220472,
            "duration": 0.45000000000000284
          },
          {
            "name": "F3",
            "midi": 53,
            "time": 65.70000000000012,
            "velocity": 0.5118110236220472,
            "duration": 0.45000000000000284
          },
          {
            "name": "A3",
            "midi": 57,
            "time": 65.70000000000012,
            "velocity": 0.5118110236220472,
            "duration": 0.45000000000000284
          },
          {
            "name": "C4",
            "midi": 60,
            "time": 65.70000000000012,
            "velocity": 0.5118110236220472,
            "duration": 0.45000000000000284
          },
          {
            "name": "F4",
            "midi": 65,
            "time": 65.70000000000012,
            "velocity": 0.5118110236220472,
            "duration": 0.45000000000000284
          },
          {
            "name": "F4",
            "midi": 65,
            "time": 66.15000000000012,
            "velocity": 0.5118110236220472,
            "duration": 0.45000000000000284
          },
          {
            "name": "C4",
            "midi": 60,
            "time": 66.15000000000012,
            "velocity": 0.5118110236220472,
            "duration": 0.45000000000000284
          },
          {
            "name": "A3",
            "midi": 57,
            "time": 66.15000000000012,
            "velocity": 0.5118110236220472,
            "duration": 0.45000000000000284
          },
          {
            "name": "F3",
            "midi": 53,
            "time": 66.15000000000012,
            "velocity": 0.5118110236220472,
            "duration": 0.45000000000000284
          },
          {
            "name": "C3",
            "midi": 48,
            "time": 66.15000000000012,
            "velocity": 0.5118110236220472,
            "duration": 0.45000000000000284
          },
          {
            "name": "F2",
            "midi": 41,
            "time": 66.15000000000012,
            "velocity": 0.5118110236220472,
            "duration": 0.45000000000000284
          },
          {
            "name": "C3",
            "midi": 48,
            "time": 66.60000000000012,
            "velocity": 0.5118110236220472,
            "duration": 0.45000000000000284
          },
          {
            "name": "E3",
            "midi": 52,
            "time": 66.60000000000012,
            "velocity": 0.5118110236220472,
            "duration": 0.45000000000000284
          },
          {
            "name": "G3",
            "midi": 55,
            "time": 66.60000000000012,
            "velocity": 0.5118110236220472,
            "duration": 0.45000000000000284
          },
          {
            "name": "C4",
            "midi": 60,
            "time": 66.60000000000012,
            "velocity": 0.5118110236220472,
            "duration": 0.45000000000000284
          },
          {
            "name": "E4",
            "midi": 64,
            "time": 66.60000000000012,
            "velocity": 0.5118110236220472,
            "duration": 0.45000000000000284
          },
          {
            "name": "C3",
            "midi": 48,
            "time": 67.05000000000013,
            "velocity": 0.5118110236220472,
            "duration": 0.45000000000000284
          },
          {
            "name": "E3",
            "midi": 52,
            "time": 67.05000000000013,
            "velocity": 0.5118110236220472,
            "duration": 0.45000000000000284
          },
          {
            "name": "G3",
            "midi": 55,
            "time": 67.05000000000013,
            "velocity": 0.5118110236220472,
            "duration": 0.45000000000000284
          },
          {
            "name": "C4",
            "midi": 60,
            "time": 67.05000000000013,
            "velocity": 0.5118110236220472,
            "duration": 0.45000000000000284
          },
          {
            "name": "E4",
            "midi": 64,
            "time": 67.05000000000013,
            "velocity": 0.5118110236220472,
            "duration": 0.45000000000000284
          },
          {
            "name": "E4",
            "midi": 64,
            "time": 67.50000000000013,
            "velocity": 0.5118110236220472,
            "duration": 0.45000000000000284
          },
          {
            "name": "C4",
            "midi": 60,
            "time": 67.50000000000013,
            "velocity": 0.5118110236220472,
            "duration": 0.45000000000000284
          },
          {
            "name": "G3",
            "midi": 55,
            "time": 67.50000000000013,
            "velocity": 0.5118110236220472,
            "duration": 0.45000000000000284
          },
          {
            "name": "E3",
            "midi": 52,
            "time": 67.50000000000013,
            "velocity": 0.5118110236220472,
            "duration": 0.45000000000000284
          },
          {
            "name": "C3",
            "midi": 48,
            "time": 67.50000000000013,
            "velocity": 0.5118110236220472,
            "duration": 0.45000000000000284
          },
          {
            "name": "C3",
            "midi": 48,
            "time": 67.95000000000013,
            "velocity": 0.5118110236220472,
            "duration": 0.45000000000000284
          },
          {
            "name": "E3",
            "midi": 52,
            "time": 67.95000000000013,
            "velocity": 0.5118110236220472,
            "duration": 0.45000000000000284
          },
          {
            "name": "G3",
            "midi": 55,
            "time": 67.95000000000013,
            "velocity": 0.5118110236220472,
            "duration": 0.45000000000000284
          },
          {
            "name": "C4",
            "midi": 60,
            "time": 67.95000000000013,
            "velocity": 0.5118110236220472,
            "duration": 0.45000000000000284
          },
          {
            "name": "E4",
            "midi": 64,
            "time": 67.95000000000013,
            "velocity": 0.5118110236220472,
            "duration": 0.45000000000000284
          },
          {
            "name": "D3",
            "midi": 50,
            "time": 68.40000000000013,
            "velocity": 0.5118110236220472,
            "duration": 0.45000000000000284
          },
          {
            "name": "A3",
            "midi": 57,
            "time": 68.40000000000013,
            "velocity": 0.5118110236220472,
            "duration": 0.45000000000000284
          },
          {
            "name": "D4",
            "midi": 62,
            "time": 68.40000000000013,
            "velocity": 0.5118110236220472,
            "duration": 0.45000000000000284
          },
          {
            "name": "F4",
            "midi": 65,
            "time": 68.40000000000013,
            "velocity": 0.5118110236220472,
            "duration": 0.45000000000000284
          },
          {
            "name": "F4",
            "midi": 65,
            "time": 68.85000000000014,
            "velocity": 0.5118110236220472,
            "duration": 0.45000000000000284
          },
          {
            "name": "D4",
            "midi": 62,
            "time": 68.85000000000014,
            "velocity": 0.5118110236220472,
            "duration": 0.45000000000000284
          },
          {
            "name": "A3",
            "midi": 57,
            "time": 68.85000000000014,
            "velocity": 0.5118110236220472,
            "duration": 0.45000000000000284
          },
          {
            "name": "D3",
            "midi": 50,
            "time": 68.85000000000014,
            "velocity": 0.5118110236220472,
            "duration": 0.45000000000000284
          },
          {
            "name": "D3",
            "midi": 50,
            "time": 69.30000000000014,
            "velocity": 0.5118110236220472,
            "duration": 0.45000000000000284
          },
          {
            "name": "A3",
            "midi": 57,
            "time": 69.30000000000014,
            "velocity": 0.5118110236220472,
            "duration": 0.45000000000000284
          },
          {
            "name": "D4",
            "midi": 62,
            "time": 69.30000000000014,
            "velocity": 0.5118110236220472,
            "duration": 0.45000000000000284
          },
          {
            "name": "F4",
            "midi": 65,
            "time": 69.30000000000014,
            "velocity": 0.5118110236220472,
            "duration": 0.45000000000000284
          },
          {
            "name": "D3",
            "midi": 50,
            "time": 69.75000000000014,
            "velocity": 0.5118110236220472,
            "duration": 0.45000000000000284
          },
          {
            "name": "A3",
            "midi": 57,
            "time": 69.75000000000014,
            "velocity": 0.5118110236220472,
            "duration": 0.45000000000000284
          },
          {
            "name": "D4",
            "midi": 62,
            "time": 69.75000000000014,
            "velocity": 0.5118110236220472,
            "duration": 0.45000000000000284
          },
          {
            "name": "F4",
            "midi": 65,
            "time": 69.75000000000014,
            "velocity": 0.5118110236220472,
            "duration": 0.45000000000000284
          },
          {
            "name": "E4",
            "midi": 64,
            "time": 70.20000000000014,
            "velocity": 0.5118110236220472,
            "duration": 0.45000000000000284
          },
          {
            "name": "C4",
            "midi": 60,
            "time": 70.20000000000014,
            "velocity": 0.5118110236220472,
            "duration": 0.45000000000000284
          },
          {
            "name": "A3",
            "midi": 57,
            "time": 70.20000000000014,
            "velocity": 0.5118110236220472,
            "duration": 0.45000000000000284
          },
          {
            "name": "E3",
            "midi": 52,
            "time": 70.20000000000014,
            "velocity": 0.5118110236220472,
            "duration": 0.45000000000000284
          },
          {
            "name": "A2",
            "midi": 45,
            "time": 70.20000000000014,
            "velocity": 0.5118110236220472,
            "duration": 0.45000000000000284
          },
          {
            "name": "A2",
            "midi": 45,
            "time": 70.65000000000015,
            "velocity": 0.5118110236220472,
            "duration": 0.45000000000000284
          },
          {
            "name": "E3",
            "midi": 52,
            "time": 70.65000000000015,
            "velocity": 0.5118110236220472,
            "duration": 0.45000000000000284
          },
          {
            "name": "A3",
            "midi": 57,
            "time": 70.65000000000015,
            "velocity": 0.5118110236220472,
            "duration": 0.45000000000000284
          },
          {
            "name": "C4",
            "midi": 60,
            "time": 70.65000000000015,
            "velocity": 0.5118110236220472,
            "duration": 0.45000000000000284
          },
          {
            "name": "E4",
            "midi": 64,
            "time": 70.65000000000015,
            "velocity": 0.5118110236220472,
            "duration": 0.45000000000000284
          },
          {
            "name": "A2",
            "midi": 45,
            "time": 71.10000000000015,
            "velocity": 0.5118110236220472,
            "duration": 0.45000000000000284
          },
          {
            "name": "E3",
            "midi": 52,
            "time": 71.10000000000015,
            "velocity": 0.5118110236220472,
            "duration": 0.45000000000000284
          },
          {
            "name": "A3",
            "midi": 57,
            "time": 71.10000000000015,
            "velocity": 0.5118110236220472,
            "duration": 0.45000000000000284
          },
          {
            "name": "C4",
            "midi": 60,
            "time": 71.10000000000015,
            "velocity": 0.5118110236220472,
            "duration": 0.45000000000000284
          },
          {
            "name": "E4",
            "midi": 64,
            "time": 71.10000000000015,
            "velocity": 0.5118110236220472,
            "duration": 0.45000000000000284
          },
          {
            "name": "E4",
            "midi": 64,
            "time": 71.55000000000015,
            "velocity": 0.5118110236220472,
            "duration": 0.45000000000000284
          },
          {
            "name": "C4",
            "midi": 60,
            "time": 71.55000000000015,
            "velocity": 0.5118110236220472,
            "duration": 0.45000000000000284
          },
          {
            "name": "A3",
            "midi": 57,
            "time": 71.55000000000015,
            "velocity": 0.5118110236220472,
            "duration": 0.45000000000000284
          },
          {
            "name": "E3",
            "midi": 52,
            "time": 71.55000000000015,
            "velocity": 0.5118110236220472,
            "duration": 0.45000000000000284
          },
          {
            "name": "A2",
            "midi": 45,
            "time": 71.55000000000015,
            "velocity": 0.5118110236220472,
            "duration": 0.45000000000000284
          },
          {
            "name": "F2",
            "midi": 41,
            "time": 72.00000000000016,
            "velocity": 0.5118110236220472,
            "duration": 0.45000000000000284
          },
          {
            "name": "C3",
            "midi": 48,
            "time": 72.00000000000016,
            "velocity": 0.5118110236220472,
            "duration": 0.45000000000000284
          },
          {
            "name": "F3",
            "midi": 53,
            "time": 72.00000000000016,
            "velocity": 0.5118110236220472,
            "duration": 0.45000000000000284
          },
          {
            "name": "A3",
            "midi": 57,
            "time": 72.00000000000016,
            "velocity": 0.5118110236220472,
            "duration": 0.45000000000000284
          },
          {
            "name": "C4",
            "midi": 60,
            "time": 72.00000000000016,
            "velocity": 0.5118110236220472,
            "duration": 0.45000000000000284
          },
          {
            "name": "F4",
            "midi": 65,
            "time": 72.00000000000016,
            "velocity": 0.5118110236220472,
            "duration": 0.45000000000000284
          },
          {
            "name": "F4",
            "midi": 65,
            "time": 72.45000000000016,
            "velocity": 0.5118110236220472,
            "duration": 0.45000000000000284
          },
          {
            "name": "C4",
            "midi": 60,
            "time": 72.45000000000016,
            "velocity": 0.5118110236220472,
            "duration": 0.45000000000000284
          },
          {
            "name": "A3",
            "midi": 57,
            "time": 72.45000000000016,
            "velocity": 0.5118110236220472,
            "duration": 0.45000000000000284
          },
          {
            "name": "F3",
            "midi": 53,
            "time": 72.45000000000016,
            "velocity": 0.5118110236220472,
            "duration": 0.45000000000000284
          },
          {
            "name": "C3",
            "midi": 48,
            "time": 72.45000000000016,
            "velocity": 0.5118110236220472,
            "duration": 0.45000000000000284
          },
          {
            "name": "F2",
            "midi": 41,
            "time": 72.45000000000016,
            "velocity": 0.5118110236220472,
            "duration": 0.45000000000000284
          },
          {
            "name": "F4",
            "midi": 65,
            "time": 72.90000000000016,
            "velocity": 0.5118110236220472,
            "duration": 0.45000000000000284
          },
          {
            "name": "C4",
            "midi": 60,
            "time": 72.90000000000016,
            "velocity": 0.5118110236220472,
            "duration": 0.45000000000000284
          },
          {
            "name": "A3",
            "midi": 57,
            "time": 72.90000000000016,
            "velocity": 0.5118110236220472,
            "duration": 0.45000000000000284
          },
          {
            "name": "F3",
            "midi": 53,
            "time": 72.90000000000016,
            "velocity": 0.5118110236220472,
            "duration": 0.45000000000000284
          },
          {
            "name": "C3",
            "midi": 48,
            "time": 72.90000000000016,
            "velocity": 0.5118110236220472,
            "duration": 0.45000000000000284
          },
          {
            "name": "F2",
            "midi": 41,
            "time": 72.90000000000016,
            "velocity": 0.5118110236220472,
            "duration": 0.45000000000000284
          },
          {
            "name": "F2",
            "midi": 41,
            "time": 73.35000000000016,
            "velocity": 0.5118110236220472,
            "duration": 0.45000000000000284
          },
          {
            "name": "C3",
            "midi": 48,
            "time": 73.35000000000016,
            "velocity": 0.5118110236220472,
            "duration": 0.45000000000000284
          },
          {
            "name": "F3",
            "midi": 53,
            "time": 73.35000000000016,
            "velocity": 0.5118110236220472,
            "duration": 0.45000000000000284
          },
          {
            "name": "A3",
            "midi": 57,
            "time": 73.35000000000016,
            "velocity": 0.5118110236220472,
            "duration": 0.45000000000000284
          },
          {
            "name": "C4",
            "midi": 60,
            "time": 73.35000000000016,
            "velocity": 0.5118110236220472,
            "duration": 0.45000000000000284
          },
          {
            "name": "F4",
            "midi": 65,
            "time": 73.35000000000016,
            "velocity": 0.5118110236220472,
            "duration": 0.45000000000000284
          },
          {
            "name": "F4",
            "midi": 65,
            "time": 73.80000000000017,
            "velocity": 0.5118110236220472,
            "duration": 0.45000000000000284
          },
          {
            "name": "D4",
            "midi": 62,
            "time": 73.80000000000017,
            "velocity": 0.5118110236220472,
            "duration": 0.45000000000000284
          },
          {
            "name": "A3",
            "midi": 57,
            "time": 73.80000000000017,
            "velocity": 0.5118110236220472,
            "duration": 0.45000000000000284
          },
          {
            "name": "D3",
            "midi": 50,
            "time": 73.80000000000017,
            "velocity": 0.5118110236220472,
            "duration": 0.45000000000000284
          },
          {
            "name": "D3",
            "midi": 50,
            "time": 74.25000000000017,
            "velocity": 0.5118110236220472,
            "duration": 0.45000000000000284
          },
          {
            "name": "A3",
            "midi": 57,
            "time": 74.25000000000017,
            "velocity": 0.5118110236220472,
            "duration": 0.45000000000000284
          },
          {
            "name": "D4",
            "midi": 62,
            "time": 74.25000000000017,
            "velocity": 0.5118110236220472,
            "duration": 0.45000000000000284
          },
          {
            "name": "F4",
            "midi": 65,
            "time": 74.25000000000017,
            "velocity": 0.5118110236220472,
            "duration": 0.45000000000000284
          },
          {
            "name": "D3",
            "midi": 50,
            "time": 74.70000000000017,
            "velocity": 0.5118110236220472,
            "duration": 0.45000000000000284
          },
          {
            "name": "A3",
            "midi": 57,
            "time": 74.70000000000017,
            "velocity": 0.5118110236220472,
            "duration": 0.45000000000000284
          },
          {
            "name": "D4",
            "midi": 62,
            "time": 74.70000000000017,
            "velocity": 0.5118110236220472,
            "duration": 0.45000000000000284
          },
          {
            "name": "F4",
            "midi": 65,
            "time": 74.70000000000017,
            "velocity": 0.5118110236220472,
            "duration": 0.45000000000000284
          },
          {
            "name": "F4",
            "midi": 65,
            "time": 75.15000000000018,
            "velocity": 0.5118110236220472,
            "duration": 0.45000000000000284
          },
          {
            "name": "D4",
            "midi": 62,
            "time": 75.15000000000018,
            "velocity": 0.5118110236220472,
            "duration": 0.45000000000000284
          },
          {
            "name": "A3",
            "midi": 57,
            "time": 75.15000000000018,
            "velocity": 0.5118110236220472,
            "duration": 0.45000000000000284
          },
          {
            "name": "D3",
            "midi": 50,
            "time": 75.15000000000018,
            "velocity": 0.5118110236220472,
            "duration": 0.45000000000000284
          },
          {
            "name": "A2",
            "midi": 45,
            "time": 75.60000000000018,
            "velocity": 0.5118110236220472,
            "duration": 0.45000000000000284
          },
          {
            "name": "E3",
            "midi": 52,
            "time": 75.60000000000018,
            "velocity": 0.5118110236220472,
            "duration": 0.45000000000000284
          },
          {
            "name": "A3",
            "midi": 57,
            "time": 75.60000000000018,
            "velocity": 0.5118110236220472,
            "duration": 0.45000000000000284
          },
          {
            "name": "C4",
            "midi": 60,
            "time": 75.60000000000018,
            "velocity": 0.5118110236220472,
            "duration": 0.45000000000000284
          },
          {
            "name": "E4",
            "midi": 64,
            "time": 75.60000000000018,
            "velocity": 0.5118110236220472,
            "duration": 0.45000000000000284
          },
          {
            "name": "A2",
            "midi": 45,
            "time": 76.05000000000018,
            "velocity": 0.5118110236220472,
            "duration": 0.45000000000000284
          },
          {
            "name": "E3",
            "midi": 52,
            "time": 76.05000000000018,
            "velocity": 0.5118110236220472,
            "duration": 0.45000000000000284
          },
          {
            "name": "A3",
            "midi": 57,
            "time": 76.05000000000018,
            "velocity": 0.5118110236220472,
            "duration": 0.45000000000000284
          },
          {
            "name": "C4",
            "midi": 60,
            "time": 76.05000000000018,
            "velocity": 0.5118110236220472,
            "duration": 0.45000000000000284
          },
          {
            "name": "E4",
            "midi": 64,
            "time": 76.05000000000018,
            "velocity": 0.5118110236220472,
            "duration": 0.45000000000000284
          },
          {
            "name": "E4",
            "midi": 64,
            "time": 76.50000000000018,
            "velocity": 0.5118110236220472,
            "duration": 0.45000000000000284
          },
          {
            "name": "C4",
            "midi": 60,
            "time": 76.50000000000018,
            "velocity": 0.5118110236220472,
            "duration": 0.45000000000000284
          },
          {
            "name": "A3",
            "midi": 57,
            "time": 76.50000000000018,
            "velocity": 0.5118110236220472,
            "duration": 0.45000000000000284
          },
          {
            "name": "E3",
            "midi": 52,
            "time": 76.50000000000018,
            "velocity": 0.5118110236220472,
            "duration": 0.45000000000000284
          },
          {
            "name": "A2",
            "midi": 45,
            "time": 76.50000000000018,
            "velocity": 0.5118110236220472,
            "duration": 0.45000000000000284
          },
          {
            "name": "A2",
            "midi": 45,
            "time": 76.95000000000019,
            "velocity": 0.5118110236220472,
            "duration": 0.45000000000000284
          },
          {
            "name": "E3",
            "midi": 52,
            "time": 76.95000000000019,
            "velocity": 0.5118110236220472,
            "duration": 0.45000000000000284
          },
          {
            "name": "A3",
            "midi": 57,
            "time": 76.95000000000019,
            "velocity": 0.5118110236220472,
            "duration": 0.45000000000000284
          },
          {
            "name": "C4",
            "midi": 60,
            "time": 76.95000000000019,
            "velocity": 0.5118110236220472,
            "duration": 0.45000000000000284
          },
          {
            "name": "E4",
            "midi": 64,
            "time": 76.95000000000019,
            "velocity": 0.5118110236220472,
            "duration": 0.45000000000000284
          },
          {
            "name": "A2",
            "midi": 45,
            "time": 77.40000000000019,
            "velocity": 0.5118110236220472,
            "duration": 0.45000000000000284
          },
          {
            "name": "E3",
            "midi": 52,
            "time": 77.40000000000019,
            "velocity": 0.5118110236220472,
            "duration": 0.45000000000000284
          },
          {
            "name": "A3",
            "midi": 57,
            "time": 77.40000000000019,
            "velocity": 0.5118110236220472,
            "duration": 0.45000000000000284
          },
          {
            "name": "C4",
            "midi": 60,
            "time": 77.40000000000019,
            "velocity": 0.5118110236220472,
            "duration": 0.45000000000000284
          },
          {
            "name": "E4",
            "midi": 64,
            "time": 77.40000000000019,
            "velocity": 0.5118110236220472,
            "duration": 0.45000000000000284
          },
          {
            "name": "E4",
            "midi": 64,
            "time": 77.8500000000002,
            "velocity": 0.5118110236220472,
            "duration": 0.45000000000000284
          },
          {
            "name": "C4",
            "midi": 60,
            "time": 77.8500000000002,
            "velocity": 0.5118110236220472,
            "duration": 0.45000000000000284
          },
          {
            "name": "A3",
            "midi": 57,
            "time": 77.8500000000002,
            "velocity": 0.5118110236220472,
            "duration": 0.45000000000000284
          },
          {
            "name": "E3",
            "midi": 52,
            "time": 77.8500000000002,
            "velocity": 0.5118110236220472,
            "duration": 0.45000000000000284
          },
          {
            "name": "A2",
            "midi": 45,
            "time": 77.8500000000002,
            "velocity": 0.5118110236220472,
            "duration": 0.45000000000000284
          },
          {
            "name": "A2",
            "midi": 45,
            "time": 78.3000000000002,
            "velocity": 0.5118110236220472,
            "duration": 0.45000000000000284
          },
          {
            "name": "E3",
            "midi": 52,
            "time": 78.3000000000002,
            "velocity": 0.5118110236220472,
            "duration": 0.45000000000000284
          },
          {
            "name": "A3",
            "midi": 57,
            "time": 78.3000000000002,
            "velocity": 0.5118110236220472,
            "duration": 0.45000000000000284
          },
          {
            "name": "C4",
            "midi": 60,
            "time": 78.3000000000002,
            "velocity": 0.5118110236220472,
            "duration": 0.45000000000000284
          },
          {
            "name": "E4",
            "midi": 64,
            "time": 78.3000000000002,
            "velocity": 0.5118110236220472,
            "duration": 0.45000000000000284
          },
          {
            "name": "A2",
            "midi": 45,
            "time": 78.7500000000002,
            "velocity": 0.5118110236220472,
            "duration": 0.45000000000000284
          },
          {
            "name": "E3",
            "midi": 52,
            "time": 78.7500000000002,
            "velocity": 0.5118110236220472,
            "duration": 0.45000000000000284
          },
          {
            "name": "A3",
            "midi": 57,
            "time": 78.7500000000002,
            "velocity": 0.5118110236220472,
            "duration": 0.45000000000000284
          },
          {
            "name": "C4",
            "midi": 60,
            "time": 78.7500000000002,
            "velocity": 0.5118110236220472,
            "duration": 0.45000000000000284
          },
          {
            "name": "E4",
            "midi": 64,
            "time": 78.7500000000002,
            "velocity": 0.5118110236220472,
            "duration": 0.45000000000000284
          },
          {
            "name": "E4",
            "midi": 64,
            "time": 79.2000000000002,
            "velocity": 0.5118110236220472,
            "duration": 0.45000000000000284
          },
          {
            "name": "C4",
            "midi": 60,
            "time": 79.2000000000002,
            "velocity": 0.5118110236220472,
            "duration": 0.45000000000000284
          },
          {
            "name": "A3",
            "midi": 57,
            "time": 79.2000000000002,
            "velocity": 0.5118110236220472,
            "duration": 0.45000000000000284
          },
          {
            "name": "E3",
            "midi": 52,
            "time": 79.2000000000002,
            "velocity": 0.5118110236220472,
            "duration": 0.45000000000000284
          },
          {
            "name": "A2",
            "midi": 45,
            "time": 79.2000000000002,
            "velocity": 0.5118110236220472,
            "duration": 0.45000000000000284
          },
          {
            "name": "A2",
            "midi": 45,
            "time": 79.6500000000002,
            "velocity": 0.5118110236220472,
            "duration": 0.45000000000000284
          },
          {
            "name": "E3",
            "midi": 52,
            "time": 79.6500000000002,
            "velocity": 0.5118110236220472,
            "duration": 0.45000000000000284
          },
          {
            "name": "A3",
            "midi": 57,
            "time": 79.6500000000002,
            "velocity": 0.5118110236220472,
            "duration": 0.45000000000000284
          },
          {
            "name": "C4",
            "midi": 60,
            "time": 79.6500000000002,
            "velocity": 0.5118110236220472,
            "duration": 0.45000000000000284
          },
          {
            "name": "E4",
            "midi": 64,
            "time": 79.6500000000002,
            "velocity": 0.5118110236220472,
            "duration": 0.45000000000000284
          },
          {
            "name": "A2",
            "midi": 45,
            "time": 80.10000000000021,
            "velocity": 0.5118110236220472,
            "duration": 0.45000000000000284
          },
          {
            "name": "E3",
            "midi": 52,
            "time": 80.10000000000021,
            "velocity": 0.5118110236220472,
            "duration": 0.45000000000000284
          },
          {
            "name": "A3",
            "midi": 57,
            "time": 80.10000000000021,
            "velocity": 0.5118110236220472,
            "duration": 0.45000000000000284
          },
          {
            "name": "C4",
            "midi": 60,
            "time": 80.10000000000021,
            "velocity": 0.5118110236220472,
            "duration": 0.45000000000000284
          },
          {
            "name": "E4",
            "midi": 64,
            "time": 80.10000000000021,
            "velocity": 0.5118110236220472,
            "duration": 0.45000000000000284
          },
          {
            "name": "E4",
            "midi": 64,
            "time": 80.55000000000021,
            "velocity": 0.5118110236220472,
            "duration": 0.45000000000000284
          },
          {
            "name": "C4",
            "midi": 60,
            "time": 80.55000000000021,
            "velocity": 0.5118110236220472,
            "duration": 0.45000000000000284
          },
          {
            "name": "A3",
            "midi": 57,
            "time": 80.55000000000021,
            "velocity": 0.5118110236220472,
            "duration": 0.45000000000000284
          },
          {
            "name": "E3",
            "midi": 52,
            "time": 80.55000000000021,
            "velocity": 0.5118110236220472,
            "duration": 0.45000000000000284
          },
          {
            "name": "A2",
            "midi": 45,
            "time": 80.55000000000021,
            "velocity": 0.5118110236220472,
            "duration": 0.45000000000000284
          },
          {
            "name": "A2",
            "midi": 45,
            "time": 81.00000000000021,
            "velocity": 0.5118110236220472,
            "duration": 0.9000000000000057
          },
          {
            "name": "E3",
            "midi": 52,
            "time": 81.00000000000021,
            "velocity": 0.5118110236220472,
            "duration": 0.9000000000000057
          },
          {
            "name": "A3",
            "midi": 57,
            "time": 81.00000000000021,
            "velocity": 0.5118110236220472,
            "duration": 0.9000000000000057
          },
          {
            "name": "C4",
            "midi": 60,
            "time": 81.00000000000021,
            "velocity": 0.5118110236220472,
            "duration": 0.9000000000000057
          },
          {
            "name": "E4",
            "midi": 64,
            "time": 81.00000000000021,
            "velocity": 0.5118110236220472,
            "duration": 0.9000000000000057
          },
          {
            "name": "A3",
            "midi": 57,
            "time": 81.90000000000022,
            "velocity": 0.5118110236220472,
            "duration": 0.9000000000000057
          },
          {
            "name": "C4",
            "midi": 60,
            "time": 81.90000000000022,
            "velocity": 0.5118110236220472,
            "duration": 0.9000000000000057
          },
          {
            "name": "E4",
            "midi": 64,
            "time": 81.90000000000022,
            "velocity": 0.5118110236220472,
            "duration": 0.9000000000000057
          },
          {
            "name": "A4",
            "midi": 69,
            "time": 81.90000000000022,
            "velocity": 0.5118110236220472,
            "duration": 0.9000000000000057
          }
        ],
        "controlChanges": {
          "7": [
            {
              "number": 7,
              "time": 0,
              "value": 0.7874015748031497
            }
          ]
        },
        "id": 4,
        "instrumentNumber": 24,
        "instrument": "acoustic guitar (nylon)",
        "instrumentFamily": "guitar",
        "channelNumber": 3,
        "isPercussion": false
      }
    ]
  }