{
    "header": {
      "PPQ": 480,
      "timeSignature": [
        4,
        4
      ],
      "bpm": 125,
      "name": "20th Century Fox"
    },
    "startTime": 0,
    "duration": 17.39599999999992,
    "tracks": [
      {
        "startTime": 0,
        "duration": 0,
        "length": 0,
        "notes": [],
        "controlChanges": {},
        "id": 0,
        "name": "20th Century Fox"
      },
      {
        "startTime": 5.76,
        "duration": 17.27599999999999,
        "length": 109,
        "notes": [
          {
            "name": "D5",
            "midi": 74,
            "time": 5.76,
            "velocity": 0.952755905511811,
            "duration": 0.17600000000000016
          },
          {
            "name": "A#4",
            "midi": 70,
            "time": 5.76,
            "velocity": 0.952755905511811,
            "duration": 0.17600000000000016
          },
          {
            "name": "F5",
            "midi": 77,
            "time": 5.76,
            "velocity": 0.952755905511811,
            "duration": 0.17600000000000016
          },
          {
            "name": "A#4",
            "midi": 70,
            "time": 6.08,
            "velocity": 0.7086614173228346,
            "duration": 0.05600000000000005
          },
          {
            "name": "D5",
            "midi": 74,
            "time": 6.08,
            "velocity": 0.7086614173228346,
            "duration": 0.05600000000000005
          },
          {
            "name": "F5",
            "midi": 77,
            "time": 6.08,
            "velocity": 0.7086614173228346,
            "duration": 0.05600000000000005
          },
          {
            "name": "D5",
            "midi": 74,
            "time": 6.16,
            "velocity": 0.7165354330708661,
            "duration": 0.05600000000000005
          },
          {
            "name": "A#4",
            "midi": 70,
            "time": 6.16,
            "velocity": 0.7165354330708661,
            "duration": 0.05600000000000005
          },
          {
            "name": "F5",
            "midi": 77,
            "time": 6.16,
            "velocity": 0.7165354330708661,
            "duration": 0.05600000000000005
          },
          {
            "name": "D5",
            "midi": 74,
            "time": 6.24,
            "velocity": 0.8661417322834646,
            "duration": 0.5960000000000001
          },
          {
            "name": "A#4",
            "midi": 70,
            "time": 6.24,
            "velocity": 0.8661417322834646,
            "duration": 0.5960000000000001
          },
          {
            "name": "F5",
            "midi": 77,
            "time": 6.24,
            "velocity": 0.8661417322834646,
            "duration": 0.5960000000000001
          },
          {
            "name": "B4",
            "midi": 71,
            "time": 6.88,
            "velocity": 0.8661417322834646,
            "duration": 0.11599999999999966
          },
          {
            "name": "D#5",
            "midi": 75,
            "time": 6.88,
            "velocity": 0.8661417322834646,
            "duration": 0.11599999999999966
          },
          {
            "name": "F#5",
            "midi": 78,
            "time": 6.88,
            "velocity": 0.8661417322834646,
            "duration": 0.11599999999999966
          },
          {
            "name": "A#4",
            "midi": 70,
            "time": 7.039999999999999,
            "velocity": 0.8661417322834646,
            "duration": 0.11599999999999966
          },
          {
            "name": "D5",
            "midi": 74,
            "time": 7.039999999999999,
            "velocity": 0.8661417322834646,
            "duration": 0.11599999999999966
          },
          {
            "name": "F5",
            "midi": 77,
            "time": 7.039999999999999,
            "velocity": 0.8661417322834646,
            "duration": 0.11599999999999966
          },
          {
            "name": "B4",
            "midi": 71,
            "time": 7.199999999999998,
            "velocity": 0.8661417322834646,
            "duration": 0.11599999999999966
          },
          {
            "name": "D#5",
            "midi": 75,
            "time": 7.199999999999998,
            "velocity": 0.8661417322834646,
            "duration": 0.11599999999999966
          },
          {
            "name": "F#5",
            "midi": 78,
            "time": 7.199999999999998,
            "velocity": 0.8661417322834646,
            "duration": 0.11599999999999966
          },
          {
            "name": "A#4",
            "midi": 70,
            "time": 7.359999999999998,
            "velocity": 0.8661417322834646,
            "duration": 0.11599999999999966
          },
          {
            "name": "D5",
            "midi": 74,
            "time": 7.359999999999998,
            "velocity": 0.8661417322834646,
            "duration": 0.11599999999999966
          },
          {
            "name": "F5",
            "midi": 77,
            "time": 7.359999999999998,
            "velocity": 0.8661417322834646,
            "duration": 0.11599999999999966
          },
          {
            "name": "B4",
            "midi": 71,
            "time": 7.519999999999997,
            "velocity": 0.8661417322834646,
            "duration": 0.11599999999999966
          },
          {
            "name": "D#5",
            "midi": 75,
            "time": 7.519999999999997,
            "velocity": 0.8661417322834646,
            "duration": 0.11599999999999966
          },
          {
            "name": "F#5",
            "midi": 78,
            "time": 7.519999999999997,
            "velocity": 0.8661417322834646,
            "duration": 0.11599999999999966
          },
          {
            "name": "D5",
            "midi": 74,
            "time": 7.679999999999996,
            "velocity": 0.968503937007874,
            "duration": 0.1559999999999997
          },
          {
            "name": "A#4",
            "midi": 70,
            "time": 7.679999999999996,
            "velocity": 0.968503937007874,
            "duration": 0.1559999999999997
          },
          {
            "name": "F5",
            "midi": 77,
            "time": 7.679999999999996,
            "velocity": 0.968503937007874,
            "duration": 0.1559999999999997
          },
          {
            "name": "A#4",
            "midi": 70,
            "time": 7.999999999999996,
            "velocity": 0.7165354330708661,
            "duration": 0.05600000000000005
          },
          {
            "name": "D5",
            "midi": 74,
            "time": 7.999999999999996,
            "velocity": 0.7165354330708661,
            "duration": 0.05600000000000005
          },
          {
            "name": "F5",
            "midi": 77,
            "time": 7.999999999999996,
            "velocity": 0.7165354330708661,
            "duration": 0.05600000000000005
          },
          {
            "name": "A#4",
            "midi": 70,
            "time": 8.079999999999995,
            "velocity": 0.7165354330708661,
            "duration": 0.05599999999999916
          },
          {
            "name": "D5",
            "midi": 74,
            "time": 8.079999999999995,
            "velocity": 0.7165354330708661,
            "duration": 0.05599999999999916
          },
          {
            "name": "F5",
            "midi": 77,
            "time": 8.079999999999995,
            "velocity": 0.7165354330708661,
            "duration": 0.05599999999999916
          },
          {
            "name": "A#4",
            "midi": 70,
            "time": 8.159999999999993,
            "velocity": 0.8661417322834646,
            "duration": 0.11599999999999966
          },
          {
            "name": "D5",
            "midi": 74,
            "time": 8.159999999999993,
            "velocity": 0.8661417322834646,
            "duration": 0.11599999999999966
          },
          {
            "name": "F5",
            "midi": 77,
            "time": 8.159999999999993,
            "velocity": 0.8661417322834646,
            "duration": 0.11599999999999966
          },
          {
            "name": "A#4",
            "midi": 70,
            "time": 8.319999999999993,
            "velocity": 0.8661417322834646,
            "duration": 0.11599999999999966
          },
          {
            "name": "D5",
            "midi": 74,
            "time": 8.319999999999993,
            "velocity": 0.8661417322834646,
            "duration": 0.11599999999999966
          },
          {
            "name": "F5",
            "midi": 77,
            "time": 8.319999999999993,
            "velocity": 0.8661417322834646,
            "duration": 0.11599999999999966
          },
          {
            "name": "A#4",
            "midi": 70,
            "time": 8.479999999999993,
            "velocity": 0.8661417322834646,
            "duration": 0.11599999999999966
          },
          {
            "name": "D5",
            "midi": 74,
            "time": 8.479999999999993,
            "velocity": 0.8661417322834646,
            "duration": 0.11599999999999966
          },
          {
            "name": "F5",
            "midi": 77,
            "time": 8.479999999999993,
            "velocity": 0.8661417322834646,
            "duration": 0.11599999999999966
          },
          {
            "name": "A#4",
            "midi": 70,
            "time": 8.639999999999993,
            "velocity": 0.8661417322834646,
            "duration": 0.11599999999999966
          },
          {
            "name": "D5",
            "midi": 74,
            "time": 8.639999999999993,
            "velocity": 0.8661417322834646,
            "duration": 0.11599999999999966
          },
          {
            "name": "F5",
            "midi": 77,
            "time": 8.639999999999993,
            "velocity": 0.8661417322834646,
            "duration": 0.11599999999999966
          },
          {
            "name": "A#4",
            "midi": 70,
            "time": 8.799999999999994,
            "velocity": 0.8661417322834646,
            "duration": 0.11599999999999966
          },
          {
            "name": "D5",
            "midi": 74,
            "time": 8.799999999999994,
            "velocity": 0.8661417322834646,
            "duration": 0.11599999999999966
          },
          {
            "name": "F5",
            "midi": 77,
            "time": 8.799999999999994,
            "velocity": 0.8661417322834646,
            "duration": 0.11599999999999966
          },
          {
            "name": "A#4",
            "midi": 70,
            "time": 8.959999999999994,
            "velocity": 0.8661417322834646,
            "duration": 0.11599999999999966
          },
          {
            "name": "D5",
            "midi": 74,
            "time": 8.959999999999994,
            "velocity": 0.8661417322834646,
            "duration": 0.11599999999999966
          },
          {
            "name": "F5",
            "midi": 77,
            "time": 8.959999999999994,
            "velocity": 0.8661417322834646,
            "duration": 0.11599999999999966
          },
          {
            "name": "A#4",
            "midi": 70,
            "time": 9.119999999999994,
            "velocity": 0.8661417322834646,
            "duration": 0.11599999999999966
          },
          {
            "name": "D5",
            "midi": 74,
            "time": 9.119999999999994,
            "velocity": 0.8661417322834646,
            "duration": 0.11599999999999966
          },
          {
            "name": "F5",
            "midi": 77,
            "time": 9.119999999999994,
            "velocity": 0.8661417322834646,
            "duration": 0.11599999999999966
          },
          {
            "name": "A#4",
            "midi": 70,
            "time": 9.279999999999994,
            "velocity": 0.8661417322834646,
            "duration": 0.11599999999999966
          },
          {
            "name": "D5",
            "midi": 74,
            "time": 9.279999999999994,
            "velocity": 0.8661417322834646,
            "duration": 0.11599999999999966
          },
          {
            "name": "A#4",
            "midi": 70,
            "time": 9.439999999999994,
            "velocity": 0.8661417322834646,
            "duration": 0.11599999999999966
          },
          {
            "name": "D#5",
            "midi": 75,
            "time": 9.439999999999994,
            "velocity": 0.8661417322834646,
            "duration": 0.11599999999999966
          },
          {
            "name": "A#4",
            "midi": 70,
            "time": 9.599999999999994,
            "velocity": 0.9448818897637795,
            "duration": 0.15600000000000058
          },
          {
            "name": "D5",
            "midi": 74,
            "time": 9.599999999999994,
            "velocity": 0.9448818897637795,
            "duration": 0.15600000000000058
          },
          {
            "name": "F5",
            "midi": 77,
            "time": 9.599999999999994,
            "velocity": 0.9448818897637795,
            "duration": 0.15600000000000058
          },
          {
            "name": "A#4",
            "midi": 70,
            "time": 9.919999999999995,
            "velocity": 0.7165354330708661,
            "duration": 0.05599999999999916
          },
          {
            "name": "D5",
            "midi": 74,
            "time": 9.919999999999995,
            "velocity": 0.7165354330708661,
            "duration": 0.05599999999999916
          },
          {
            "name": "F5",
            "midi": 77,
            "time": 9.919999999999995,
            "velocity": 0.7165354330708661,
            "duration": 0.05599999999999916
          },
          {
            "name": "F5",
            "midi": 77,
            "time": 9.999999999999993,
            "velocity": 0.7165354330708661,
            "duration": 0.05599999999999916
          },
          {
            "name": "A#4",
            "midi": 70,
            "time": 9.999999999999993,
            "velocity": 0.7165354330708661,
            "duration": 0.05599999999999916
          },
          {
            "name": "D5",
            "midi": 74,
            "time": 9.999999999999993,
            "velocity": 0.7165354330708661,
            "duration": 0.05599999999999916
          },
          {
            "name": "A#4",
            "midi": 70,
            "time": 10.079999999999991,
            "velocity": 0.8661417322834646,
            "duration": 0.5960000000000001
          },
          {
            "name": "D5",
            "midi": 74,
            "time": 10.079999999999991,
            "velocity": 0.8661417322834646,
            "duration": 0.5960000000000001
          },
          {
            "name": "F5",
            "midi": 77,
            "time": 10.079999999999991,
            "velocity": 0.8661417322834646,
            "duration": 0.5960000000000001
          },
          {
            "name": "D#5",
            "midi": 75,
            "time": 11.999999999999991,
            "velocity": 0.9448818897637795,
            "duration": 0.15600000000000058
          },
          {
            "name": "G4",
            "midi": 67,
            "time": 11.999999999999991,
            "velocity": 0.9448818897637795,
            "duration": 0.15600000000000058
          },
          {
            "name": "C5",
            "midi": 72,
            "time": 11.999999999999991,
            "velocity": 0.9448818897637795,
            "duration": 0.15600000000000058
          },
          {
            "name": "D#5",
            "midi": 75,
            "time": 12.319999999999991,
            "velocity": 0.7165354330708661,
            "duration": 0.05599999999999916
          },
          {
            "name": "C5",
            "midi": 72,
            "time": 12.319999999999991,
            "velocity": 0.7165354330708661,
            "duration": 0.05599999999999916
          },
          {
            "name": "G4",
            "midi": 67,
            "time": 12.319999999999991,
            "velocity": 0.7165354330708661,
            "duration": 0.05599999999999916
          },
          {
            "name": "D#5",
            "midi": 75,
            "time": 12.39999999999999,
            "velocity": 0.7165354330708661,
            "duration": 0.05599999999999916
          },
          {
            "name": "G4",
            "midi": 67,
            "time": 12.39999999999999,
            "velocity": 0.7165354330708661,
            "duration": 0.05599999999999916
          },
          {
            "name": "C5",
            "midi": 72,
            "time": 12.39999999999999,
            "velocity": 0.7165354330708661,
            "duration": 0.05599999999999916
          },
          {
            "name": "D#5",
            "midi": 75,
            "time": 12.479999999999988,
            "velocity": 0.8661417322834646,
            "duration": 0.47600000000000087
          },
          {
            "name": "G4",
            "midi": 67,
            "time": 12.479999999999988,
            "velocity": 0.8661417322834646,
            "duration": 0.47600000000000087
          },
          {
            "name": "C5",
            "midi": 72,
            "time": 12.479999999999988,
            "velocity": 0.8661417322834646,
            "duration": 0.47600000000000087
          },
          {
            "name": "G4",
            "midi": 67,
            "time": 13.91999999999999,
            "velocity": 0.9606299212598425,
            "duration": 0.15600000000000058
          },
          {
            "name": "A#4",
            "midi": 70,
            "time": 13.91999999999999,
            "velocity": 0.9606299212598425,
            "duration": 0.15600000000000058
          },
          {
            "name": "D#5",
            "midi": 75,
            "time": 13.91999999999999,
            "velocity": 0.9606299212598425,
            "duration": 0.15600000000000058
          },
          {
            "name": "G4",
            "midi": 67,
            "time": 14.23999999999999,
            "velocity": 0.6929133858267716,
            "duration": 0.05599999999999916
          },
          {
            "name": "A#4",
            "midi": 70,
            "time": 14.23999999999999,
            "velocity": 0.6929133858267716,
            "duration": 0.05599999999999916
          },
          {
            "name": "D#5",
            "midi": 75,
            "time": 14.23999999999999,
            "velocity": 0.6929133858267716,
            "duration": 0.05599999999999916
          },
          {
            "name": "G4",
            "midi": 67,
            "time": 14.319999999999988,
            "velocity": 0.6929133858267716,
            "duration": 0.05599999999999916
          },
          {
            "name": "A#4",
            "midi": 70,
            "time": 14.319999999999988,
            "velocity": 0.6929133858267716,
            "duration": 0.05599999999999916
          },
          {
            "name": "D#5",
            "midi": 75,
            "time": 14.319999999999988,
            "velocity": 0.6929133858267716,
            "duration": 0.05599999999999916
          },
          {
            "name": "F4",
            "midi": 65,
            "time": 14.399999999999986,
            "velocity": 0.8661417322834646,
            "duration": 0.47600000000000087
          },
          {
            "name": "A4",
            "midi": 69,
            "time": 14.399999999999986,
            "velocity": 0.8661417322834646,
            "duration": 0.47600000000000087
          },
          {
            "name": "D#5",
            "midi": 75,
            "time": 14.399999999999986,
            "velocity": 0.8661417322834646,
            "duration": 0.47600000000000087
          },
          {
            "name": "A#4",
            "midi": 70,
            "time": 15.839999999999987,
            "velocity": 0.8661417322834646,
            "duration": 0.11599999999999966
          },
          {
            "name": "D5",
            "midi": 74,
            "time": 15.839999999999987,
            "velocity": 0.8661417322834646,
            "duration": 0.11599999999999966
          },
          {
            "name": "F5",
            "midi": 77,
            "time": 15.839999999999987,
            "velocity": 0.8661417322834646,
            "duration": 0.11599999999999966
          },
          {
            "name": "A#4",
            "midi": 70,
            "time": 15.999999999999988,
            "velocity": 0.8661417322834646,
            "duration": 0.11600000000000144
          },
          {
            "name": "F4",
            "midi": 65,
            "time": 15.999999999999988,
            "velocity": 0.8661417322834646,
            "duration": 0.11600000000000144
          },
          {
            "name": "D5",
            "midi": 74,
            "time": 15.999999999999988,
            "velocity": 0.8661417322834646,
            "duration": 0.11600000000000144
          },
          {
            "name": "C5",
            "midi": 72,
            "time": 16.15999999999999,
            "velocity": 0.8661417322834646,
            "duration": 0.11599999999999966
          },
          {
            "name": "A4",
            "midi": 69,
            "time": 16.15999999999999,
            "velocity": 0.8661417322834646,
            "duration": 0.11599999999999966
          },
          {
            "name": "D#5",
            "midi": 75,
            "time": 16.15999999999999,
            "velocity": 0.8661417322834646,
            "duration": 0.11599999999999966
          },
          {
            "name": "F5",
            "midi": 77,
            "time": 16.31999999999999,
            "velocity": 0.8661417322834646,
            "duration": 0.9559999999999995
          },
          {
            "name": "A#4",
            "midi": 70,
            "time": 16.31999999999999,
            "velocity": 0.8661417322834646,
            "duration": 0.9559999999999995
          },
          {
            "name": "D5",
            "midi": 74,
            "time": 16.31999999999999,
            "velocity": 0.8661417322834646,
            "duration": 0.9559999999999995
          }
        ],
        "controlChanges": {
          "7": [
            {
              "number": 7,
              "time": 0.014999999999999998,
              "value": 0.7874015748031497
            }
          ]
        },
        "id": 1,
        "name": "Trumpet",
        "instrumentNumber": 56,
        "instrument": "trumpet",
        "instrumentFamily": "brass",
        "channelNumber": 0,
        "isPercussion": false
      },
      {
        "startTime": 5.76,
        "duration": 17.27599999999999,
        "length": 146,
        "notes": [
          {
            "name": "D4",
            "midi": 62,
            "time": 5.76,
            "velocity": 0.9291338582677166,
            "duration": 0.17600000000000016
          },
          {
            "name": "F4",
            "midi": 65,
            "time": 5.76,
            "velocity": 0.9291338582677166,
            "duration": 0.17600000000000016
          },
          {
            "name": "F3",
            "midi": 53,
            "time": 5.76,
            "velocity": 0.9291338582677166,
            "duration": 0.17600000000000016
          },
          {
            "name": "A#3",
            "midi": 58,
            "time": 5.76,
            "velocity": 0.9291338582677166,
            "duration": 0.17600000000000016
          },
          {
            "name": "D4",
            "midi": 62,
            "time": 6.08,
            "velocity": 0.7165354330708661,
            "duration": 0.05600000000000005
          },
          {
            "name": "A#3",
            "midi": 58,
            "time": 6.08,
            "velocity": 0.7165354330708661,
            "duration": 0.05600000000000005
          },
          {
            "name": "F3",
            "midi": 53,
            "time": 6.08,
            "velocity": 0.7165354330708661,
            "duration": 0.05600000000000005
          },
          {
            "name": "F4",
            "midi": 65,
            "time": 6.08,
            "velocity": 0.7165354330708661,
            "duration": 0.05600000000000005
          },
          {
            "name": "A#3",
            "midi": 58,
            "time": 6.16,
            "velocity": 0.7165354330708661,
            "duration": 0.05600000000000005
          },
          {
            "name": "D4",
            "midi": 62,
            "time": 6.16,
            "velocity": 0.7165354330708661,
            "duration": 0.05600000000000005
          },
          {
            "name": "F3",
            "midi": 53,
            "time": 6.16,
            "velocity": 0.7165354330708661,
            "duration": 0.05600000000000005
          },
          {
            "name": "F4",
            "midi": 65,
            "time": 6.16,
            "velocity": 0.7165354330708661,
            "duration": 0.05600000000000005
          },
          {
            "name": "D4",
            "midi": 62,
            "time": 6.24,
            "velocity": 0.8661417322834646,
            "duration": 0.5960000000000001
          },
          {
            "name": "A#3",
            "midi": 58,
            "time": 6.24,
            "velocity": 0.8661417322834646,
            "duration": 0.5960000000000001
          },
          {
            "name": "F3",
            "midi": 53,
            "time": 6.24,
            "velocity": 0.8661417322834646,
            "duration": 0.5960000000000001
          },
          {
            "name": "F4",
            "midi": 65,
            "time": 6.24,
            "velocity": 0.8661417322834646,
            "duration": 0.5960000000000001
          },
          {
            "name": "B3",
            "midi": 59,
            "time": 6.88,
            "velocity": 0.8661417322834646,
            "duration": 0.11599999999999966
          },
          {
            "name": "F#3",
            "midi": 54,
            "time": 6.88,
            "velocity": 0.8661417322834646,
            "duration": 0.11599999999999966
          },
          {
            "name": "D#4",
            "midi": 63,
            "time": 6.88,
            "velocity": 0.8661417322834646,
            "duration": 0.11599999999999966
          },
          {
            "name": "F#4",
            "midi": 66,
            "time": 6.88,
            "velocity": 0.8661417322834646,
            "duration": 0.11599999999999966
          },
          {
            "name": "D4",
            "midi": 62,
            "time": 7.039999999999999,
            "velocity": 0.8661417322834646,
            "duration": 0.11599999999999966
          },
          {
            "name": "A#3",
            "midi": 58,
            "time": 7.039999999999999,
            "velocity": 0.8661417322834646,
            "duration": 0.11599999999999966
          },
          {
            "name": "F3",
            "midi": 53,
            "time": 7.039999999999999,
            "velocity": 0.8661417322834646,
            "duration": 0.11599999999999966
          },
          {
            "name": "F4",
            "midi": 65,
            "time": 7.039999999999999,
            "velocity": 0.8661417322834646,
            "duration": 0.11599999999999966
          },
          {
            "name": "D#4",
            "midi": 63,
            "time": 7.199999999999998,
            "velocity": 0.8661417322834646,
            "duration": 0.11599999999999966
          },
          {
            "name": "B3",
            "midi": 59,
            "time": 7.199999999999998,
            "velocity": 0.8661417322834646,
            "duration": 0.11599999999999966
          },
          {
            "name": "F#3",
            "midi": 54,
            "time": 7.199999999999998,
            "velocity": 0.8661417322834646,
            "duration": 0.11599999999999966
          },
          {
            "name": "F#4",
            "midi": 66,
            "time": 7.199999999999998,
            "velocity": 0.8661417322834646,
            "duration": 0.11599999999999966
          },
          {
            "name": "D4",
            "midi": 62,
            "time": 7.359999999999998,
            "velocity": 0.8661417322834646,
            "duration": 0.11599999999999966
          },
          {
            "name": "A#3",
            "midi": 58,
            "time": 7.359999999999998,
            "velocity": 0.8661417322834646,
            "duration": 0.11599999999999966
          },
          {
            "name": "F3",
            "midi": 53,
            "time": 7.359999999999998,
            "velocity": 0.8661417322834646,
            "duration": 0.11599999999999966
          },
          {
            "name": "F4",
            "midi": 65,
            "time": 7.359999999999998,
            "velocity": 0.8661417322834646,
            "duration": 0.11599999999999966
          },
          {
            "name": "D#4",
            "midi": 63,
            "time": 7.519999999999997,
            "velocity": 0.8661417322834646,
            "duration": 0.11599999999999966
          },
          {
            "name": "B3",
            "midi": 59,
            "time": 7.519999999999997,
            "velocity": 0.8661417322834646,
            "duration": 0.11599999999999966
          },
          {
            "name": "F#3",
            "midi": 54,
            "time": 7.519999999999997,
            "velocity": 0.8661417322834646,
            "duration": 0.11599999999999966
          },
          {
            "name": "F#4",
            "midi": 66,
            "time": 7.519999999999997,
            "velocity": 0.8661417322834646,
            "duration": 0.11599999999999966
          },
          {
            "name": "D4",
            "midi": 62,
            "time": 7.679999999999996,
            "velocity": 0.8661417322834646,
            "duration": 0.1559999999999997
          },
          {
            "name": "A#3",
            "midi": 58,
            "time": 7.679999999999996,
            "velocity": 0.8661417322834646,
            "duration": 0.1559999999999997
          },
          {
            "name": "F3",
            "midi": 53,
            "time": 7.679999999999996,
            "velocity": 0.8661417322834646,
            "duration": 0.1559999999999997
          },
          {
            "name": "F4",
            "midi": 65,
            "time": 7.679999999999996,
            "velocity": 0.8661417322834646,
            "duration": 0.1559999999999997
          },
          {
            "name": "D4",
            "midi": 62,
            "time": 7.999999999999996,
            "velocity": 0.7165354330708661,
            "duration": 0.05600000000000005
          },
          {
            "name": "A#3",
            "midi": 58,
            "time": 7.999999999999996,
            "velocity": 0.7165354330708661,
            "duration": 0.05600000000000005
          },
          {
            "name": "F3",
            "midi": 53,
            "time": 7.999999999999996,
            "velocity": 0.7165354330708661,
            "duration": 0.05600000000000005
          },
          {
            "name": "F4",
            "midi": 65,
            "time": 7.999999999999996,
            "velocity": 0.7165354330708661,
            "duration": 0.05600000000000005
          },
          {
            "name": "D4",
            "midi": 62,
            "time": 8.079999999999995,
            "velocity": 0.7165354330708661,
            "duration": 0.05599999999999916
          },
          {
            "name": "A#3",
            "midi": 58,
            "time": 8.079999999999995,
            "velocity": 0.7165354330708661,
            "duration": 0.05599999999999916
          },
          {
            "name": "F3",
            "midi": 53,
            "time": 8.079999999999995,
            "velocity": 0.7165354330708661,
            "duration": 0.05599999999999916
          },
          {
            "name": "F4",
            "midi": 65,
            "time": 8.079999999999995,
            "velocity": 0.7165354330708661,
            "duration": 0.05599999999999916
          },
          {
            "name": "F3",
            "midi": 53,
            "time": 8.159999999999993,
            "velocity": 0.8661417322834646,
            "duration": 0.11599999999999966
          },
          {
            "name": "A#3",
            "midi": 58,
            "time": 8.159999999999993,
            "velocity": 0.8661417322834646,
            "duration": 0.11599999999999966
          },
          {
            "name": "F4",
            "midi": 65,
            "time": 8.159999999999993,
            "velocity": 0.8661417322834646,
            "duration": 0.11599999999999966
          },
          {
            "name": "D4",
            "midi": 62,
            "time": 8.159999999999993,
            "velocity": 0.8661417322834646,
            "duration": 0.11599999999999966
          },
          {
            "name": "D4",
            "midi": 62,
            "time": 8.319999999999993,
            "velocity": 0.8661417322834646,
            "duration": 0.11599999999999966
          },
          {
            "name": "A#3",
            "midi": 58,
            "time": 8.319999999999993,
            "velocity": 0.8661417322834646,
            "duration": 0.11599999999999966
          },
          {
            "name": "F3",
            "midi": 53,
            "time": 8.319999999999993,
            "velocity": 0.8661417322834646,
            "duration": 0.11599999999999966
          },
          {
            "name": "F4",
            "midi": 65,
            "time": 8.319999999999993,
            "velocity": 0.8661417322834646,
            "duration": 0.11599999999999966
          },
          {
            "name": "D4",
            "midi": 62,
            "time": 8.479999999999993,
            "velocity": 0.8661417322834646,
            "duration": 0.11599999999999966
          },
          {
            "name": "A#3",
            "midi": 58,
            "time": 8.479999999999993,
            "velocity": 0.8661417322834646,
            "duration": 0.11599999999999966
          },
          {
            "name": "F3",
            "midi": 53,
            "time": 8.479999999999993,
            "velocity": 0.8661417322834646,
            "duration": 0.11599999999999966
          },
          {
            "name": "F4",
            "midi": 65,
            "time": 8.479999999999993,
            "velocity": 0.8661417322834646,
            "duration": 0.11599999999999966
          },
          {
            "name": "A#3",
            "midi": 58,
            "time": 8.639999999999993,
            "velocity": 0.8661417322834646,
            "duration": 0.11599999999999966
          },
          {
            "name": "F3",
            "midi": 53,
            "time": 8.639999999999993,
            "velocity": 0.8661417322834646,
            "duration": 0.11599999999999966
          },
          {
            "name": "F4",
            "midi": 65,
            "time": 8.639999999999993,
            "velocity": 0.8661417322834646,
            "duration": 0.11599999999999966
          },
          {
            "name": "D4",
            "midi": 62,
            "time": 8.639999999999993,
            "velocity": 0.8661417322834646,
            "duration": 0.11599999999999966
          },
          {
            "name": "D4",
            "midi": 62,
            "time": 8.799999999999994,
            "velocity": 0.8661417322834646,
            "duration": 0.11599999999999966
          },
          {
            "name": "A#3",
            "midi": 58,
            "time": 8.799999999999994,
            "velocity": 0.8661417322834646,
            "duration": 0.11599999999999966
          },
          {
            "name": "F3",
            "midi": 53,
            "time": 8.799999999999994,
            "velocity": 0.8661417322834646,
            "duration": 0.11599999999999966
          },
          {
            "name": "F4",
            "midi": 65,
            "time": 8.799999999999994,
            "velocity": 0.8661417322834646,
            "duration": 0.11599999999999966
          },
          {
            "name": "D4",
            "midi": 62,
            "time": 8.959999999999994,
            "velocity": 0.8661417322834646,
            "duration": 0.11599999999999966
          },
          {
            "name": "A#3",
            "midi": 58,
            "time": 8.959999999999994,
            "velocity": 0.8661417322834646,
            "duration": 0.11599999999999966
          },
          {
            "name": "F3",
            "midi": 53,
            "time": 8.959999999999994,
            "velocity": 0.8661417322834646,
            "duration": 0.11599999999999966
          },
          {
            "name": "F4",
            "midi": 65,
            "time": 8.959999999999994,
            "velocity": 0.8661417322834646,
            "duration": 0.11599999999999966
          },
          {
            "name": "A#3",
            "midi": 58,
            "time": 9.119999999999994,
            "velocity": 0.8661417322834646,
            "duration": 0.11599999999999966
          },
          {
            "name": "F3",
            "midi": 53,
            "time": 9.119999999999994,
            "velocity": 0.8661417322834646,
            "duration": 0.11599999999999966
          },
          {
            "name": "D4",
            "midi": 62,
            "time": 9.119999999999994,
            "velocity": 0.8661417322834646,
            "duration": 0.11599999999999966
          },
          {
            "name": "F4",
            "midi": 65,
            "time": 9.119999999999994,
            "velocity": 0.8661417322834646,
            "duration": 0.11599999999999966
          },
          {
            "name": "A#3",
            "midi": 58,
            "time": 9.279999999999994,
            "velocity": 0.8661417322834646,
            "duration": 0.11599999999999966
          },
          {
            "name": "F3",
            "midi": 53,
            "time": 9.279999999999994,
            "velocity": 0.8661417322834646,
            "duration": 0.11599999999999966
          },
          {
            "name": "D3",
            "midi": 50,
            "time": 9.279999999999994,
            "velocity": 0.8661417322834646,
            "duration": 0.11599999999999966
          },
          {
            "name": "D4",
            "midi": 62,
            "time": 9.279999999999994,
            "velocity": 0.8661417322834646,
            "duration": 0.11599999999999966
          },
          {
            "name": "C4",
            "midi": 60,
            "time": 9.439999999999994,
            "velocity": 0.8661417322834646,
            "duration": 0.11599999999999966
          },
          {
            "name": "D#4",
            "midi": 63,
            "time": 9.439999999999994,
            "velocity": 0.8661417322834646,
            "duration": 0.11599999999999966
          },
          {
            "name": "D4",
            "midi": 62,
            "time": 9.599999999999994,
            "velocity": 0.8661417322834646,
            "duration": 0.15600000000000058
          },
          {
            "name": "A#3",
            "midi": 58,
            "time": 9.599999999999994,
            "velocity": 0.8661417322834646,
            "duration": 0.15600000000000058
          },
          {
            "name": "F3",
            "midi": 53,
            "time": 9.599999999999994,
            "velocity": 0.8661417322834646,
            "duration": 0.15600000000000058
          },
          {
            "name": "F4",
            "midi": 65,
            "time": 9.599999999999994,
            "velocity": 0.8661417322834646,
            "duration": 0.15600000000000058
          },
          {
            "name": "D4",
            "midi": 62,
            "time": 9.919999999999995,
            "velocity": 0.7007874015748031,
            "duration": 0.05599999999999916
          },
          {
            "name": "A#3",
            "midi": 58,
            "time": 9.919999999999995,
            "velocity": 0.7007874015748031,
            "duration": 0.05599999999999916
          },
          {
            "name": "F3",
            "midi": 53,
            "time": 9.919999999999995,
            "velocity": 0.7007874015748031,
            "duration": 0.05599999999999916
          },
          {
            "name": "F4",
            "midi": 65,
            "time": 9.919999999999995,
            "velocity": 0.7007874015748031,
            "duration": 0.05599999999999916
          },
          {
            "name": "D4",
            "midi": 62,
            "time": 9.999999999999993,
            "velocity": 0.7007874015748031,
            "duration": 0.05599999999999916
          },
          {
            "name": "A#3",
            "midi": 58,
            "time": 9.999999999999993,
            "velocity": 0.7007874015748031,
            "duration": 0.05599999999999916
          },
          {
            "name": "F3",
            "midi": 53,
            "time": 9.999999999999993,
            "velocity": 0.7007874015748031,
            "duration": 0.05599999999999916
          },
          {
            "name": "F4",
            "midi": 65,
            "time": 9.999999999999993,
            "velocity": 0.7007874015748031,
            "duration": 0.05599999999999916
          },
          {
            "name": "A#3",
            "midi": 58,
            "time": 10.079999999999991,
            "velocity": 0.8661417322834646,
            "duration": 0.5960000000000001
          },
          {
            "name": "F3",
            "midi": 53,
            "time": 10.079999999999991,
            "velocity": 0.8661417322834646,
            "duration": 0.5960000000000001
          },
          {
            "name": "F4",
            "midi": 65,
            "time": 10.079999999999991,
            "velocity": 0.8661417322834646,
            "duration": 0.5960000000000001
          },
          {
            "name": "D4",
            "midi": 62,
            "time": 10.079999999999991,
            "velocity": 0.8661417322834646,
            "duration": 0.5960000000000001
          },
          {
            "name": "C3",
            "midi": 48,
            "time": 11.999999999999991,
            "velocity": 0.8661417322834646,
            "duration": 0.19599999999999973
          },
          {
            "name": "D#4",
            "midi": 63,
            "time": 11.999999999999991,
            "velocity": 0.8661417322834646,
            "duration": 0.19599999999999973
          },
          {
            "name": "C4",
            "midi": 60,
            "time": 11.999999999999991,
            "velocity": 0.8661417322834646,
            "duration": 0.19599999999999973
          },
          {
            "name": "G3",
            "midi": 55,
            "time": 11.999999999999991,
            "velocity": 0.8661417322834646,
            "duration": 0.19599999999999973
          },
          {
            "name": "C3",
            "midi": 48,
            "time": 12.319999999999991,
            "velocity": 0.7165354330708661,
            "duration": 0.05599999999999916
          },
          {
            "name": "G3",
            "midi": 55,
            "time": 12.319999999999991,
            "velocity": 0.7165354330708661,
            "duration": 0.05599999999999916
          },
          {
            "name": "C4",
            "midi": 60,
            "time": 12.319999999999991,
            "velocity": 0.7165354330708661,
            "duration": 0.05599999999999916
          },
          {
            "name": "D#4",
            "midi": 63,
            "time": 12.319999999999991,
            "velocity": 0.7165354330708661,
            "duration": 0.05599999999999916
          },
          {
            "name": "G3",
            "midi": 55,
            "time": 12.39999999999999,
            "velocity": 0.7322834645669292,
            "duration": 0.05599999999999916
          },
          {
            "name": "C3",
            "midi": 48,
            "time": 12.39999999999999,
            "velocity": 0.7322834645669292,
            "duration": 0.05599999999999916
          },
          {
            "name": "D#4",
            "midi": 63,
            "time": 12.39999999999999,
            "velocity": 0.7322834645669292,
            "duration": 0.05599999999999916
          },
          {
            "name": "C4",
            "midi": 60,
            "time": 12.39999999999999,
            "velocity": 0.7322834645669292,
            "duration": 0.05599999999999916
          },
          {
            "name": "G3",
            "midi": 55,
            "time": 12.479999999999988,
            "velocity": 0.8661417322834646,
            "duration": 0.47600000000000087
          },
          {
            "name": "C3",
            "midi": 48,
            "time": 12.479999999999988,
            "velocity": 0.8661417322834646,
            "duration": 0.47600000000000087
          },
          {
            "name": "D#4",
            "midi": 63,
            "time": 12.479999999999988,
            "velocity": 0.8661417322834646,
            "duration": 0.47600000000000087
          },
          {
            "name": "C4",
            "midi": 60,
            "time": 12.479999999999988,
            "velocity": 0.8661417322834646,
            "duration": 0.47600000000000087
          },
          {
            "name": "A#3",
            "midi": 58,
            "time": 13.91999999999999,
            "velocity": 0.8661417322834646,
            "duration": 0.19599999999999973
          },
          {
            "name": "G3",
            "midi": 55,
            "time": 13.91999999999999,
            "velocity": 0.8661417322834646,
            "duration": 0.19599999999999973
          },
          {
            "name": "D#3",
            "midi": 51,
            "time": 13.91999999999999,
            "velocity": 0.8661417322834646,
            "duration": 0.19599999999999973
          },
          {
            "name": "D#4",
            "midi": 63,
            "time": 13.91999999999999,
            "velocity": 0.8661417322834646,
            "duration": 0.19599999999999973
          },
          {
            "name": "D#3",
            "midi": 51,
            "time": 14.23999999999999,
            "velocity": 0.7086614173228346,
            "duration": 0.05599999999999916
          },
          {
            "name": "G3",
            "midi": 55,
            "time": 14.23999999999999,
            "velocity": 0.7086614173228346,
            "duration": 0.05599999999999916
          },
          {
            "name": "A#3",
            "midi": 58,
            "time": 14.23999999999999,
            "velocity": 0.7086614173228346,
            "duration": 0.05599999999999916
          },
          {
            "name": "D#4",
            "midi": 63,
            "time": 14.23999999999999,
            "velocity": 0.7086614173228346,
            "duration": 0.05599999999999916
          },
          {
            "name": "D#3",
            "midi": 51,
            "time": 14.319999999999988,
            "velocity": 0.7086614173228346,
            "duration": 0.05599999999999916
          },
          {
            "name": "G3",
            "midi": 55,
            "time": 14.319999999999988,
            "velocity": 0.7086614173228346,
            "duration": 0.05599999999999916
          },
          {
            "name": "A#3",
            "midi": 58,
            "time": 14.319999999999988,
            "velocity": 0.7086614173228346,
            "duration": 0.05599999999999916
          },
          {
            "name": "D#4",
            "midi": 63,
            "time": 14.319999999999988,
            "velocity": 0.7086614173228346,
            "duration": 0.05599999999999916
          },
          {
            "name": "F3",
            "midi": 53,
            "time": 14.399999999999986,
            "velocity": 0.8661417322834646,
            "duration": 0.47600000000000087
          },
          {
            "name": "A3",
            "midi": 57,
            "time": 14.399999999999986,
            "velocity": 0.8661417322834646,
            "duration": 0.47600000000000087
          },
          {
            "name": "D#4",
            "midi": 63,
            "time": 14.399999999999986,
            "velocity": 0.8661417322834646,
            "duration": 0.47600000000000087
          },
          {
            "name": "D4",
            "midi": 62,
            "time": 15.839999999999987,
            "velocity": 0.8661417322834646,
            "duration": 0.11599999999999966
          },
          {
            "name": "A#3",
            "midi": 58,
            "time": 15.839999999999987,
            "velocity": 0.8661417322834646,
            "duration": 0.11599999999999966
          },
          {
            "name": "F3",
            "midi": 53,
            "time": 15.839999999999987,
            "velocity": 0.8661417322834646,
            "duration": 0.11599999999999966
          },
          {
            "name": "F4",
            "midi": 65,
            "time": 15.839999999999987,
            "velocity": 0.8661417322834646,
            "duration": 0.11599999999999966
          },
          {
            "name": "A#3",
            "midi": 58,
            "time": 15.999999999999988,
            "velocity": 0.8661417322834646,
            "duration": 0.11600000000000144
          },
          {
            "name": "F3",
            "midi": 53,
            "time": 15.999999999999988,
            "velocity": 0.8661417322834646,
            "duration": 0.11600000000000144
          },
          {
            "name": "D3",
            "midi": 50,
            "time": 15.999999999999988,
            "velocity": 0.8661417322834646,
            "duration": 0.11600000000000144
          },
          {
            "name": "D4",
            "midi": 62,
            "time": 15.999999999999988,
            "velocity": 0.8661417322834646,
            "duration": 0.11600000000000144
          },
          {
            "name": "C4",
            "midi": 60,
            "time": 16.15999999999999,
            "velocity": 0.8661417322834646,
            "duration": 0.11599999999999966
          },
          {
            "name": "A3",
            "midi": 57,
            "time": 16.15999999999999,
            "velocity": 0.8661417322834646,
            "duration": 0.11599999999999966
          },
          {
            "name": "D#3",
            "midi": 51,
            "time": 16.15999999999999,
            "velocity": 0.8661417322834646,
            "duration": 0.11599999999999966
          },
          {
            "name": "D#4",
            "midi": 63,
            "time": 16.15999999999999,
            "velocity": 0.8661417322834646,
            "duration": 0.11599999999999966
          },
          {
            "name": "D4",
            "midi": 62,
            "time": 16.31999999999999,
            "velocity": 0.8661417322834646,
            "duration": 0.9559999999999995
          },
          {
            "name": "F3",
            "midi": 53,
            "time": 16.31999999999999,
            "velocity": 0.8661417322834646,
            "duration": 0.9559999999999995
          },
          {
            "name": "A#2",
            "midi": 46,
            "time": 16.31999999999999,
            "velocity": 0.8661417322834646,
            "duration": 0.9559999999999995
          },
          {
            "name": "A#3",
            "midi": 58,
            "time": 16.31999999999999,
            "velocity": 0.8661417322834646,
            "duration": 0.9559999999999995
          },
          {
            "name": "F4",
            "midi": 65,
            "time": 16.31999999999999,
            "velocity": 0.8661417322834646,
            "duration": 0.9559999999999995
          }
        ],
        "controlChanges": {
          "7": [
            {
              "number": 7,
              "time": 0.024999999999999994,
              "value": 0.7874015748031497
            }
          ]
        },
        "id": 2,
        "name": "Trombone",
        "instrumentNumber": 57,
        "instrument": "trombone",
        "instrumentFamily": "brass",
        "channelNumber": 1,
        "isPercussion": false
      },
      {
        "startTime": 5.76,
        "duration": 17.27599999999999,
        "length": 37,
        "notes": [
          {
            "name": "A#2",
            "midi": 46,
            "time": 5.76,
            "velocity": 0.8661417322834646,
            "duration": 0.17600000000000016
          },
          {
            "name": "A#2",
            "midi": 46,
            "time": 6.08,
            "velocity": 0.7244094488188977,
            "duration": 0.05600000000000005
          },
          {
            "name": "A#2",
            "midi": 46,
            "time": 6.16,
            "velocity": 0.7244094488188977,
            "duration": 0.05600000000000005
          },
          {
            "name": "A#2",
            "midi": 46,
            "time": 6.24,
            "velocity": 0.8661417322834646,
            "duration": 0.5960000000000001
          },
          {
            "name": "B2",
            "midi": 47,
            "time": 6.88,
            "velocity": 0.8661417322834646,
            "duration": 0.11599999999999966
          },
          {
            "name": "A#2",
            "midi": 46,
            "time": 7.039999999999999,
            "velocity": 0.8661417322834646,
            "duration": 0.11599999999999966
          },
          {
            "name": "B2",
            "midi": 47,
            "time": 7.199999999999998,
            "velocity": 0.8661417322834646,
            "duration": 0.11599999999999966
          },
          {
            "name": "A#2",
            "midi": 46,
            "time": 7.359999999999998,
            "velocity": 0.8661417322834646,
            "duration": 0.11599999999999966
          },
          {
            "name": "B2",
            "midi": 47,
            "time": 7.519999999999997,
            "velocity": 0.8661417322834646,
            "duration": 0.11599999999999966
          },
          {
            "name": "A#2",
            "midi": 46,
            "time": 7.679999999999996,
            "velocity": 0.8661417322834646,
            "duration": 0.1559999999999997
          },
          {
            "name": "A#2",
            "midi": 46,
            "time": 7.999999999999996,
            "velocity": 0.6929133858267716,
            "duration": 0.05600000000000005
          },
          {
            "name": "A#2",
            "midi": 46,
            "time": 8.079999999999995,
            "velocity": 0.6929133858267716,
            "duration": 0.05599999999999916
          },
          {
            "name": "A#2",
            "midi": 46,
            "time": 8.159999999999993,
            "velocity": 0.8661417322834646,
            "duration": 0.11599999999999966
          },
          {
            "name": "A#2",
            "midi": 46,
            "time": 8.319999999999993,
            "velocity": 0.8661417322834646,
            "duration": 0.11599999999999966
          },
          {
            "name": "A#2",
            "midi": 46,
            "time": 8.479999999999993,
            "velocity": 0.8661417322834646,
            "duration": 0.11599999999999966
          },
          {
            "name": "A#2",
            "midi": 46,
            "time": 8.639999999999993,
            "velocity": 0.8661417322834646,
            "duration": 0.11599999999999966
          },
          {
            "name": "A#2",
            "midi": 46,
            "time": 8.799999999999994,
            "velocity": 0.8661417322834646,
            "duration": 0.11599999999999966
          },
          {
            "name": "A#2",
            "midi": 46,
            "time": 8.959999999999994,
            "velocity": 0.8661417322834646,
            "duration": 0.11599999999999966
          },
          {
            "name": "A#2",
            "midi": 46,
            "time": 9.119999999999994,
            "velocity": 0.8661417322834646,
            "duration": 0.11599999999999966
          },
          {
            "name": "F2",
            "midi": 41,
            "time": 9.279999999999994,
            "velocity": 0.8661417322834646,
            "duration": 0.11599999999999966
          },
          {
            "name": "A2",
            "midi": 45,
            "time": 9.439999999999994,
            "velocity": 0.8661417322834646,
            "duration": 0.11599999999999966
          },
          {
            "name": "A#2",
            "midi": 46,
            "time": 9.599999999999994,
            "velocity": 0.8661417322834646,
            "duration": 0.15600000000000058
          },
          {
            "name": "A#2",
            "midi": 46,
            "time": 9.919999999999995,
            "velocity": 0.7244094488188977,
            "duration": 0.05599999999999916
          },
          {
            "name": "A#2",
            "midi": 46,
            "time": 9.999999999999993,
            "velocity": 0.7165354330708661,
            "duration": 0.05599999999999916
          },
          {
            "name": "A#2",
            "midi": 46,
            "time": 10.079999999999991,
            "velocity": 0.8661417322834646,
            "duration": 0.5960000000000001
          },
          {
            "name": "C3",
            "midi": 48,
            "time": 11.999999999999991,
            "velocity": 0.8661417322834646,
            "duration": 0.17600000000000016
          },
          {
            "name": "C3",
            "midi": 48,
            "time": 12.319999999999991,
            "velocity": 0.7165354330708661,
            "duration": 0.05599999999999916
          },
          {
            "name": "C3",
            "midi": 48,
            "time": 12.39999999999999,
            "velocity": 0.7165354330708661,
            "duration": 0.05599999999999916
          },
          {
            "name": "C3",
            "midi": 48,
            "time": 12.479999999999988,
            "velocity": 0.7165354330708661,
            "duration": 0.47600000000000087
          },
          {
            "name": "F2",
            "midi": 41,
            "time": 13.91999999999999,
            "velocity": 0.7165354330708661,
            "duration": 0.19599999999999973
          },
          {
            "name": "F2",
            "midi": 41,
            "time": 14.23999999999999,
            "velocity": 0.7165354330708661,
            "duration": 0.05599999999999916
          },
          {
            "name": "F2",
            "midi": 41,
            "time": 14.319999999999988,
            "velocity": 0.7165354330708661,
            "duration": 0.05599999999999916
          },
          {
            "name": "F2",
            "midi": 41,
            "time": 14.399999999999986,
            "velocity": 0.7165354330708661,
            "duration": 0.47600000000000087
          },
          {
            "name": "F2",
            "midi": 41,
            "time": 15.839999999999987,
            "velocity": 0.7165354330708661,
            "duration": 0.11599999999999966
          },
          {
            "name": "F2",
            "midi": 41,
            "time": 15.999999999999988,
            "velocity": 0.7165354330708661,
            "duration": 0.11600000000000144
          },
          {
            "name": "F2",
            "midi": 41,
            "time": 16.15999999999999,
            "velocity": 0.7165354330708661,
            "duration": 0.11599999999999966
          },
          {
            "name": "A#1",
            "midi": 34,
            "time": 16.31999999999999,
            "velocity": 0.7165354330708661,
            "duration": 0.9559999999999995
          }
        ],
        "controlChanges": {
          "7": [
            {
              "number": 7,
              "time": 0.034999999999999996,
              "value": 0.7874015748031497
            }
          ]
        },
        "id": 3,
        "name": "Tuba",
        "instrumentNumber": 58,
        "instrument": "tuba",
        "instrumentFamily": "brass",
        "channelNumber": 2,
        "isPercussion": false
      },
      {
        "startTime": 11.04,
        "duration": 17.276,
        "length": 36,
        "notes": [
          {
            "name": "A#4",
            "midi": 70,
            "time": 11.04,
            "velocity": 0.8661417322834646,
            "duration": 0.11599999999999966
          },
          {
            "name": "A#3",
            "midi": 58,
            "time": 11.04,
            "velocity": 0.8661417322834646,
            "duration": 0.11599999999999966
          },
          {
            "name": "A#2",
            "midi": 46,
            "time": 11.04,
            "velocity": 0.8661417322834646,
            "duration": 0.11599999999999966
          },
          {
            "name": "D5",
            "midi": 74,
            "time": 11.2,
            "velocity": 0.8661417322834646,
            "duration": 0.11599999999999966
          },
          {
            "name": "D3",
            "midi": 50,
            "time": 11.2,
            "velocity": 0.8661417322834646,
            "duration": 0.11599999999999966
          },
          {
            "name": "D4",
            "midi": 62,
            "time": 11.2,
            "velocity": 0.8661417322834646,
            "duration": 0.11599999999999966
          },
          {
            "name": "F5",
            "midi": 77,
            "time": 11.36,
            "velocity": 0.8661417322834646,
            "duration": 0.11599999999999966
          },
          {
            "name": "F3",
            "midi": 53,
            "time": 11.36,
            "velocity": 0.8661417322834646,
            "duration": 0.11599999999999966
          },
          {
            "name": "F4",
            "midi": 65,
            "time": 11.36,
            "velocity": 0.8661417322834646,
            "duration": 0.11599999999999966
          },
          {
            "name": "G5",
            "midi": 79,
            "time": 11.52,
            "velocity": 0.8661417322834646,
            "duration": 1.436
          },
          {
            "name": "G3",
            "midi": 55,
            "time": 11.52,
            "velocity": 0.8661417322834646,
            "duration": 1.436
          },
          {
            "name": "G4",
            "midi": 67,
            "time": 11.52,
            "velocity": 0.8661417322834646,
            "duration": 1.436
          },
          {
            "name": "C5",
            "midi": 72,
            "time": 12.959999999999999,
            "velocity": 0.8661417322834646,
            "duration": 0.11599999999999966
          },
          {
            "name": "C3",
            "midi": 48,
            "time": 12.959999999999999,
            "velocity": 0.8661417322834646,
            "duration": 0.11599999999999966
          },
          {
            "name": "C4",
            "midi": 60,
            "time": 12.959999999999999,
            "velocity": 0.8661417322834646,
            "duration": 0.11599999999999966
          },
          {
            "name": "D#5",
            "midi": 75,
            "time": 13.12,
            "velocity": 0.8661417322834646,
            "duration": 0.11599999999999966
          },
          {
            "name": "D#3",
            "midi": 51,
            "time": 13.12,
            "velocity": 0.8661417322834646,
            "duration": 0.11599999999999966
          },
          {
            "name": "D#4",
            "midi": 63,
            "time": 13.12,
            "velocity": 0.8661417322834646,
            "duration": 0.11599999999999966
          },
          {
            "name": "G5",
            "midi": 79,
            "time": 13.28,
            "velocity": 0.8661417322834646,
            "duration": 0.11599999999999966
          },
          {
            "name": "G3",
            "midi": 55,
            "time": 13.28,
            "velocity": 0.8661417322834646,
            "duration": 0.11599999999999966
          },
          {
            "name": "G4",
            "midi": 67,
            "time": 13.28,
            "velocity": 0.8661417322834646,
            "duration": 0.11599999999999966
          },
          {
            "name": "A#5",
            "midi": 82,
            "time": 13.44,
            "velocity": 0.8661417322834646,
            "duration": 1.436
          },
          {
            "name": "A#4",
            "midi": 70,
            "time": 13.44,
            "velocity": 0.8661417322834646,
            "duration": 1.436
          },
          {
            "name": "A#3",
            "midi": 58,
            "time": 13.44,
            "velocity": 0.8661417322834646,
            "duration": 1.436
          },
          {
            "name": "C3",
            "midi": 48,
            "time": 14.879999999999999,
            "velocity": 0.8661417322834646,
            "duration": 0.11599999999999966
          },
          {
            "name": "C4",
            "midi": 60,
            "time": 14.879999999999999,
            "velocity": 0.8661417322834646,
            "duration": 0.11599999999999966
          },
          {
            "name": "C5",
            "midi": 72,
            "time": 14.879999999999999,
            "velocity": 0.8661417322834646,
            "duration": 0.11599999999999966
          },
          {
            "name": "D#3",
            "midi": 51,
            "time": 15.04,
            "velocity": 0.8661417322834646,
            "duration": 0.11599999999999966
          },
          {
            "name": "D#4",
            "midi": 63,
            "time": 15.04,
            "velocity": 0.8661417322834646,
            "duration": 0.11599999999999966
          },
          {
            "name": "D#5",
            "midi": 75,
            "time": 15.04,
            "velocity": 0.8661417322834646,
            "duration": 0.11599999999999966
          },
          {
            "name": "F#3",
            "midi": 54,
            "time": 15.2,
            "velocity": 0.8661417322834646,
            "duration": 0.11599999999999966
          },
          {
            "name": "F#4",
            "midi": 66,
            "time": 15.2,
            "velocity": 0.8661417322834646,
            "duration": 0.11599999999999966
          },
          {
            "name": "F#5",
            "midi": 78,
            "time": 15.2,
            "velocity": 0.8661417322834646,
            "duration": 0.11599999999999966
          },
          {
            "name": "A#3",
            "midi": 58,
            "time": 15.36,
            "velocity": 0.8661417322834646,
            "duration": 1.9160000000000004
          },
          {
            "name": "A#4",
            "midi": 70,
            "time": 15.36,
            "velocity": 0.8661417322834646,
            "duration": 1.9160000000000004
          },
          {
            "name": "A#5",
            "midi": 82,
            "time": 15.36,
            "velocity": 0.8661417322834646,
            "duration": 1.9160000000000004
          }
        ],
        "controlChanges": {
          "7": [
            {
              "number": 7,
              "time": 0.04499999999999999,
              "value": 0.7874015748031497
            }
          ]
        },
        "id": 4,
        "name": "Strings",
        "instrumentNumber": 48,
        "instrument": "string ensemble 1",
        "instrumentFamily": "ensemble",
        "channelNumber": 3,
        "isPercussion": false
      },
      {
        "startTime": 5.759999999999999,
        "duration": 17.275999999999986,
        "length": 110,
        "notes": [
          {
            "name": "D4",
            "midi": 62,
            "time": 5.759999999999999,
            "velocity": 0.952755905511811,
            "duration": 0.17600000000000016
          },
          {
            "name": "A#3",
            "midi": 58,
            "time": 5.759999999999999,
            "velocity": 0.952755905511811,
            "duration": 0.17600000000000016
          },
          {
            "name": "F4",
            "midi": 65,
            "time": 5.759999999999999,
            "velocity": 0.952755905511811,
            "duration": 0.17600000000000016
          },
          {
            "name": "A#3",
            "midi": 58,
            "time": 6.079999999999999,
            "velocity": 0.7086614173228346,
            "duration": 0.05600000000000005
          },
          {
            "name": "D4",
            "midi": 62,
            "time": 6.079999999999999,
            "velocity": 0.7086614173228346,
            "duration": 0.05600000000000005
          },
          {
            "name": "F4",
            "midi": 65,
            "time": 6.079999999999999,
            "velocity": 0.7086614173228346,
            "duration": 0.05600000000000005
          },
          {
            "name": "D4",
            "midi": 62,
            "time": 6.159999999999999,
            "velocity": 0.7165354330708661,
            "duration": 0.05600000000000005
          },
          {
            "name": "A#3",
            "midi": 58,
            "time": 6.159999999999999,
            "velocity": 0.7165354330708661,
            "duration": 0.05600000000000005
          },
          {
            "name": "F4",
            "midi": 65,
            "time": 6.159999999999999,
            "velocity": 0.7165354330708661,
            "duration": 0.05600000000000005
          },
          {
            "name": "D4",
            "midi": 62,
            "time": 6.239999999999999,
            "velocity": 0.8661417322834646,
            "duration": 0.5960000000000001
          },
          {
            "name": "A#3",
            "midi": 58,
            "time": 6.239999999999999,
            "velocity": 0.8661417322834646,
            "duration": 0.5960000000000001
          },
          {
            "name": "F4",
            "midi": 65,
            "time": 6.239999999999999,
            "velocity": 0.8661417322834646,
            "duration": 0.5960000000000001
          },
          {
            "name": "B3",
            "midi": 59,
            "time": 6.879999999999999,
            "velocity": 0.8661417322834646,
            "duration": 0.11599999999999966
          },
          {
            "name": "D#4",
            "midi": 63,
            "time": 6.879999999999999,
            "velocity": 0.8661417322834646,
            "duration": 0.11599999999999966
          },
          {
            "name": "F#4",
            "midi": 66,
            "time": 6.879999999999999,
            "velocity": 0.8661417322834646,
            "duration": 0.11599999999999966
          },
          {
            "name": "A#3",
            "midi": 58,
            "time": 7.039999999999998,
            "velocity": 0.8661417322834646,
            "duration": 0.11599999999999966
          },
          {
            "name": "D4",
            "midi": 62,
            "time": 7.039999999999998,
            "velocity": 0.8661417322834646,
            "duration": 0.11599999999999966
          },
          {
            "name": "F4",
            "midi": 65,
            "time": 7.039999999999998,
            "velocity": 0.8661417322834646,
            "duration": 0.11599999999999966
          },
          {
            "name": "B3",
            "midi": 59,
            "time": 7.1999999999999975,
            "velocity": 0.8661417322834646,
            "duration": 0.11599999999999966
          },
          {
            "name": "D#4",
            "midi": 63,
            "time": 7.1999999999999975,
            "velocity": 0.8661417322834646,
            "duration": 0.11599999999999966
          },
          {
            "name": "F#4",
            "midi": 66,
            "time": 7.1999999999999975,
            "velocity": 0.8661417322834646,
            "duration": 0.11599999999999966
          },
          {
            "name": "A#3",
            "midi": 58,
            "time": 7.359999999999997,
            "velocity": 0.8661417322834646,
            "duration": 0.11599999999999966
          },
          {
            "name": "D4",
            "midi": 62,
            "time": 7.359999999999997,
            "velocity": 0.8661417322834646,
            "duration": 0.11599999999999966
          },
          {
            "name": "F4",
            "midi": 65,
            "time": 7.359999999999997,
            "velocity": 0.8661417322834646,
            "duration": 0.11599999999999966
          },
          {
            "name": "B3",
            "midi": 59,
            "time": 7.519999999999996,
            "velocity": 0.8661417322834646,
            "duration": 0.11599999999999966
          },
          {
            "name": "D#4",
            "midi": 63,
            "time": 7.519999999999996,
            "velocity": 0.8661417322834646,
            "duration": 0.11599999999999966
          },
          {
            "name": "F#4",
            "midi": 66,
            "time": 7.519999999999996,
            "velocity": 0.8661417322834646,
            "duration": 0.11599999999999966
          },
          {
            "name": "D4",
            "midi": 62,
            "time": 7.679999999999995,
            "velocity": 0.968503937007874,
            "duration": 0.1559999999999997
          },
          {
            "name": "A#3",
            "midi": 58,
            "time": 7.679999999999995,
            "velocity": 0.968503937007874,
            "duration": 0.1559999999999997
          },
          {
            "name": "F4",
            "midi": 65,
            "time": 7.679999999999995,
            "velocity": 0.968503937007874,
            "duration": 0.1559999999999997
          },
          {
            "name": "A#3",
            "midi": 58,
            "time": 7.999999999999995,
            "velocity": 0.7165354330708661,
            "duration": 0.05599999999999916
          },
          {
            "name": "D4",
            "midi": 62,
            "time": 7.999999999999995,
            "velocity": 0.7165354330708661,
            "duration": 0.05599999999999916
          },
          {
            "name": "F4",
            "midi": 65,
            "time": 7.999999999999995,
            "velocity": 0.7165354330708661,
            "duration": 0.05599999999999916
          },
          {
            "name": "A#3",
            "midi": 58,
            "time": 8.079999999999993,
            "velocity": 0.7165354330708661,
            "duration": 0.05599999999999916
          },
          {
            "name": "D4",
            "midi": 62,
            "time": 8.079999999999993,
            "velocity": 0.7165354330708661,
            "duration": 0.05599999999999916
          },
          {
            "name": "F4",
            "midi": 65,
            "time": 8.079999999999993,
            "velocity": 0.7165354330708661,
            "duration": 0.05599999999999916
          },
          {
            "name": "A#3",
            "midi": 58,
            "time": 8.159999999999991,
            "velocity": 0.8661417322834646,
            "duration": 0.11599999999999966
          },
          {
            "name": "D4",
            "midi": 62,
            "time": 8.159999999999991,
            "velocity": 0.8661417322834646,
            "duration": 0.11599999999999966
          },
          {
            "name": "F4",
            "midi": 65,
            "time": 8.159999999999991,
            "velocity": 0.8661417322834646,
            "duration": 0.11599999999999966
          },
          {
            "name": "A#3",
            "midi": 58,
            "time": 8.319999999999991,
            "velocity": 0.8661417322834646,
            "duration": 0.11599999999999966
          },
          {
            "name": "D4",
            "midi": 62,
            "time": 8.319999999999991,
            "velocity": 0.8661417322834646,
            "duration": 0.11599999999999966
          },
          {
            "name": "F4",
            "midi": 65,
            "time": 8.319999999999991,
            "velocity": 0.8661417322834646,
            "duration": 0.11599999999999966
          },
          {
            "name": "A#3",
            "midi": 58,
            "time": 8.479999999999992,
            "velocity": 0.8661417322834646,
            "duration": 0.11599999999999966
          },
          {
            "name": "D4",
            "midi": 62,
            "time": 8.479999999999992,
            "velocity": 0.8661417322834646,
            "duration": 0.11599999999999966
          },
          {
            "name": "F4",
            "midi": 65,
            "time": 8.479999999999992,
            "velocity": 0.8661417322834646,
            "duration": 0.11599999999999966
          },
          {
            "name": "A#3",
            "midi": 58,
            "time": 8.639999999999992,
            "velocity": 0.8661417322834646,
            "duration": 0.11599999999999966
          },
          {
            "name": "D4",
            "midi": 62,
            "time": 8.639999999999992,
            "velocity": 0.8661417322834646,
            "duration": 0.11599999999999966
          },
          {
            "name": "F4",
            "midi": 65,
            "time": 8.639999999999992,
            "velocity": 0.8661417322834646,
            "duration": 0.11599999999999966
          },
          {
            "name": "A#3",
            "midi": 58,
            "time": 8.799999999999992,
            "velocity": 0.8661417322834646,
            "duration": 0.11599999999999966
          },
          {
            "name": "D4",
            "midi": 62,
            "time": 8.799999999999992,
            "velocity": 0.8661417322834646,
            "duration": 0.11599999999999966
          },
          {
            "name": "F4",
            "midi": 65,
            "time": 8.799999999999992,
            "velocity": 0.8661417322834646,
            "duration": 0.11599999999999966
          },
          {
            "name": "A#3",
            "midi": 58,
            "time": 8.959999999999992,
            "velocity": 0.8661417322834646,
            "duration": 0.11599999999999966
          },
          {
            "name": "D4",
            "midi": 62,
            "time": 8.959999999999992,
            "velocity": 0.8661417322834646,
            "duration": 0.11599999999999966
          },
          {
            "name": "F4",
            "midi": 65,
            "time": 8.959999999999992,
            "velocity": 0.8661417322834646,
            "duration": 0.11599999999999966
          },
          {
            "name": "A#3",
            "midi": 58,
            "time": 9.119999999999992,
            "velocity": 0.8661417322834646,
            "duration": 0.11599999999999966
          },
          {
            "name": "D4",
            "midi": 62,
            "time": 9.119999999999992,
            "velocity": 0.8661417322834646,
            "duration": 0.11599999999999966
          },
          {
            "name": "F4",
            "midi": 65,
            "time": 9.119999999999992,
            "velocity": 0.8661417322834646,
            "duration": 0.11599999999999966
          },
          {
            "name": "A#3",
            "midi": 58,
            "time": 9.279999999999992,
            "velocity": 0.8661417322834646,
            "duration": 0.11599999999999966
          },
          {
            "name": "D4",
            "midi": 62,
            "time": 9.279999999999992,
            "velocity": 0.8661417322834646,
            "duration": 0.11599999999999966
          },
          {
            "name": "A#3",
            "midi": 58,
            "time": 9.439999999999992,
            "velocity": 0.8661417322834646,
            "duration": 0.11599999999999966
          },
          {
            "name": "D#4",
            "midi": 63,
            "time": 9.439999999999992,
            "velocity": 0.8661417322834646,
            "duration": 0.11599999999999966
          },
          {
            "name": "A#3",
            "midi": 58,
            "time": 9.599999999999993,
            "velocity": 0.9448818897637795,
            "duration": 0.15600000000000058
          },
          {
            "name": "D4",
            "midi": 62,
            "time": 9.599999999999993,
            "velocity": 0.9448818897637795,
            "duration": 0.15600000000000058
          },
          {
            "name": "F4",
            "midi": 65,
            "time": 9.599999999999993,
            "velocity": 0.9448818897637795,
            "duration": 0.15600000000000058
          },
          {
            "name": "A#3",
            "midi": 58,
            "time": 9.919999999999993,
            "velocity": 0.7165354330708661,
            "duration": 0.05599999999999916
          },
          {
            "name": "D4",
            "midi": 62,
            "time": 9.919999999999993,
            "velocity": 0.7165354330708661,
            "duration": 0.05599999999999916
          },
          {
            "name": "F4",
            "midi": 65,
            "time": 9.919999999999993,
            "velocity": 0.7165354330708661,
            "duration": 0.05599999999999916
          },
          {
            "name": "F4",
            "midi": 65,
            "time": 9.999999999999991,
            "velocity": 0.7165354330708661,
            "duration": 0.05599999999999916
          },
          {
            "name": "A#3",
            "midi": 58,
            "time": 9.999999999999991,
            "velocity": 0.7165354330708661,
            "duration": 0.05599999999999916
          },
          {
            "name": "D4",
            "midi": 62,
            "time": 9.999999999999991,
            "velocity": 0.7165354330708661,
            "duration": 0.05599999999999916
          },
          {
            "name": "A#3",
            "midi": 58,
            "time": 10.07999999999999,
            "velocity": 0.8661417322834646,
            "duration": 0.5960000000000001
          },
          {
            "name": "D4",
            "midi": 62,
            "time": 10.07999999999999,
            "velocity": 0.8661417322834646,
            "duration": 0.5960000000000001
          },
          {
            "name": "F4",
            "midi": 65,
            "time": 10.07999999999999,
            "velocity": 0.8661417322834646,
            "duration": 0.5960000000000001
          },
          {
            "name": "D#4",
            "midi": 63,
            "time": 11.99999999999999,
            "velocity": 0.9448818897637795,
            "duration": 0.15600000000000058
          },
          {
            "name": "G3",
            "midi": 55,
            "time": 11.99999999999999,
            "velocity": 0.9448818897637795,
            "duration": 0.15600000000000058
          },
          {
            "name": "C4",
            "midi": 60,
            "time": 11.99999999999999,
            "velocity": 0.9448818897637795,
            "duration": 0.15600000000000058
          },
          {
            "name": "D#4",
            "midi": 63,
            "time": 12.31999999999999,
            "velocity": 0.7165354330708661,
            "duration": 0.05599999999999916
          },
          {
            "name": "C4",
            "midi": 60,
            "time": 12.31999999999999,
            "velocity": 0.7165354330708661,
            "duration": 0.05599999999999916
          },
          {
            "name": "G3",
            "midi": 55,
            "time": 12.31999999999999,
            "velocity": 0.7165354330708661,
            "duration": 0.05599999999999916
          },
          {
            "name": "D#4",
            "midi": 63,
            "time": 12.399999999999988,
            "velocity": 0.7165354330708661,
            "duration": 0.05599999999999916
          },
          {
            "name": "G3",
            "midi": 55,
            "time": 12.399999999999988,
            "velocity": 0.7165354330708661,
            "duration": 0.05599999999999916
          },
          {
            "name": "C4",
            "midi": 60,
            "time": 12.399999999999988,
            "velocity": 0.7165354330708661,
            "duration": 0.05599999999999916
          },
          {
            "name": "D#4",
            "midi": 63,
            "time": 12.479999999999986,
            "velocity": 0.8661417322834646,
            "duration": 0.4759999999999991
          },
          {
            "name": "G3",
            "midi": 55,
            "time": 12.479999999999986,
            "velocity": 0.8661417322834646,
            "duration": 0.4759999999999991
          },
          {
            "name": "C4",
            "midi": 60,
            "time": 12.479999999999986,
            "velocity": 0.8661417322834646,
            "duration": 0.4759999999999991
          },
          {
            "name": "G3",
            "midi": 55,
            "time": 13.919999999999986,
            "velocity": 0.9606299212598425,
            "duration": 0.15600000000000058
          },
          {
            "name": "A#3",
            "midi": 58,
            "time": 13.919999999999986,
            "velocity": 0.9606299212598425,
            "duration": 0.15600000000000058
          },
          {
            "name": "D#4",
            "midi": 63,
            "time": 13.919999999999986,
            "velocity": 0.9606299212598425,
            "duration": 0.15600000000000058
          },
          {
            "name": "G3",
            "midi": 55,
            "time": 14.239999999999986,
            "velocity": 0.6929133858267716,
            "duration": 0.05599999999999916
          },
          {
            "name": "A#3",
            "midi": 58,
            "time": 14.239999999999986,
            "velocity": 0.6929133858267716,
            "duration": 0.05599999999999916
          },
          {
            "name": "D#4",
            "midi": 63,
            "time": 14.239999999999986,
            "velocity": 0.6929133858267716,
            "duration": 0.05599999999999916
          },
          {
            "name": "G3",
            "midi": 55,
            "time": 14.319999999999984,
            "velocity": 0.6929133858267716,
            "duration": 0.05599999999999916
          },
          {
            "name": "A#3",
            "midi": 58,
            "time": 14.319999999999984,
            "velocity": 0.6929133858267716,
            "duration": 0.05599999999999916
          },
          {
            "name": "D#4",
            "midi": 63,
            "time": 14.319999999999984,
            "velocity": 0.6929133858267716,
            "duration": 0.05599999999999916
          },
          {
            "name": "F3",
            "midi": 53,
            "time": 14.399999999999983,
            "velocity": 0.8661417322834646,
            "duration": 0.47600000000000087
          },
          {
            "name": "D#4",
            "midi": 63,
            "time": 14.399999999999983,
            "velocity": 0.8661417322834646,
            "duration": 0.47600000000000087
          },
          {
            "name": "C4",
            "midi": 60,
            "time": 14.399999999999983,
            "velocity": 0.8661417322834646,
            "duration": 0.47600000000000087
          },
          {
            "name": "A3",
            "midi": 57,
            "time": 14.399999999999983,
            "velocity": 0.8661417322834646,
            "duration": 0.47600000000000087
          },
          {
            "name": "A#3",
            "midi": 58,
            "time": 15.839999999999984,
            "velocity": 0.8661417322834646,
            "duration": 0.11599999999999966
          },
          {
            "name": "D4",
            "midi": 62,
            "time": 15.839999999999984,
            "velocity": 0.8661417322834646,
            "duration": 0.11599999999999966
          },
          {
            "name": "F4",
            "midi": 65,
            "time": 15.839999999999984,
            "velocity": 0.8661417322834646,
            "duration": 0.11599999999999966
          },
          {
            "name": "A#3",
            "midi": 58,
            "time": 15.999999999999984,
            "velocity": 0.8661417322834646,
            "duration": 0.11600000000000144
          },
          {
            "name": "F3",
            "midi": 53,
            "time": 15.999999999999984,
            "velocity": 0.8661417322834646,
            "duration": 0.11600000000000144
          },
          {
            "name": "D4",
            "midi": 62,
            "time": 15.999999999999984,
            "velocity": 0.8661417322834646,
            "duration": 0.11600000000000144
          },
          {
            "name": "C4",
            "midi": 60,
            "time": 16.159999999999986,
            "velocity": 0.8661417322834646,
            "duration": 0.11599999999999966
          },
          {
            "name": "A3",
            "midi": 57,
            "time": 16.159999999999986,
            "velocity": 0.8661417322834646,
            "duration": 0.11599999999999966
          },
          {
            "name": "D#4",
            "midi": 63,
            "time": 16.159999999999986,
            "velocity": 0.8661417322834646,
            "duration": 0.11599999999999966
          },
          {
            "name": "F4",
            "midi": 65,
            "time": 16.319999999999986,
            "velocity": 0.8661417322834646,
            "duration": 0.9559999999999995
          },
          {
            "name": "A#3",
            "midi": 58,
            "time": 16.319999999999986,
            "velocity": 0.8661417322834646,
            "duration": 0.9559999999999995
          },
          {
            "name": "D4",
            "midi": 62,
            "time": 16.319999999999986,
            "velocity": 0.8661417322834646,
            "duration": 0.9559999999999995
          }
        ],
        "controlChanges": {
          "7": [
            {
              "number": 7,
              "time": 0.055,
              "value": 0.7874015748031497
            }
          ]
        },
        "id": 5,
        "name": "French Horns",
        "instrumentNumber": 60,
        "instrument": "french horn",
        "instrumentFamily": "brass",
        "channelNumber": 4,
        "isPercussion": false
      },
      {
        "startTime": 0,
        "duration": 0,
        "length": 0,
        "notes": [],
        "controlChanges": {
          "7": [
            {
              "number": 7,
              "time": 0.065,
              "value": 0.7874015748031497
            }
          ]
        },
        "id": 6,
        "name": "Trombone",
        "instrumentNumber": 57,
        "instrument": "trombone",
        "instrumentFamily": "brass",
        "channelNumber": 5,
        "isPercussion": false
      },
      {
        "startTime": 0,
        "duration": 0,
        "length": 0,
        "notes": [],
        "controlChanges": {
          "7": [
            {
              "number": 7,
              "time": 0.07500000000000001,
              "value": 0.7874015748031497
            }
          ]
        },
        "id": 7,
        "name": "Timpani",
        "instrumentNumber": 47,
        "instrument": "timpani",
        "instrumentFamily": "strings",
        "channelNumber": 6,
        "isPercussion": false
      },
      {
        "startTime": 0,
        "duration": 0,
        "length": 0,
        "notes": [],
        "controlChanges": {
          "7": [
            {
              "number": 7,
              "time": 0.08499999999999999,
              "value": 0.7874015748031497
            }
          ]
        },
        "id": 8,
        "name": "Low Strings",
        "instrumentNumber": 48,
        "instrument": "string ensemble 1",
        "instrumentFamily": "ensemble",
        "channelNumber": 7,
        "isPercussion": false
      },
      {
        "startTime": 0,
        "duration": 0,
        "length": 0,
        "notes": [],
        "controlChanges": {
          "7": [
            {
              "number": 7,
              "time": 0.095,
              "value": 0.7874015748031497
            }
          ]
        },
        "id": 9,
        "name": "Piano",
        "instrumentNumber": 0,
        "instrument": "acoustic grand piano",
        "instrumentFamily": "piano",
        "channelNumber": 8,
        "isPercussion": false
      },
      {
        "startTime": 1.74,
        "duration": 17.39599999999992,
        "length": 235,
        "notes": [
          {
            "name": "D2",
            "midi": 38,
            "time": 1.74,
            "velocity": 0.8661417322834646,
            "duration": 0.05600000000000005
          },
          {
            "name": "E2",
            "midi": 40,
            "time": 1.74,
            "velocity": 0.8661417322834646,
            "duration": 0.05600000000000005
          },
          {
            "name": "D2",
            "midi": 38,
            "time": 1.8,
            "velocity": 0.8661417322834646,
            "duration": 0.05600000000000005
          },
          {
            "name": "E2",
            "midi": 40,
            "time": 1.8,
            "velocity": 0.8661417322834646,
            "duration": 0.05600000000000005
          },
          {
            "name": "E2",
            "midi": 40,
            "time": 1.86,
            "velocity": 0.8661417322834646,
            "duration": 0.06000000000000005
          },
          {
            "name": "D2",
            "midi": 38,
            "time": 1.86,
            "velocity": 0.8661417322834646,
            "duration": 0.06000000000000005
          },
          {
            "name": "D2",
            "midi": 38,
            "time": 1.9200000000000002,
            "velocity": 0.8661417322834646,
            "duration": 0.19599999999999995
          },
          {
            "name": "C2",
            "midi": 36,
            "time": 1.9200000000000002,
            "velocity": 0.8661417322834646,
            "duration": 0.19599999999999995
          },
          {
            "name": "B1",
            "midi": 35,
            "time": 1.9200000000000002,
            "velocity": 0.8661417322834646,
            "duration": 0.19599999999999995
          },
          {
            "name": "E2",
            "midi": 40,
            "time": 1.9200000000000002,
            "velocity": 0.8661417322834646,
            "duration": 0.19599999999999995
          },
          {
            "name": "F#2",
            "midi": 42,
            "time": 1.9200000000000002,
            "velocity": 0.8661417322834646,
            "duration": 0.19599999999999995
          },
          {
            "name": "C2",
            "midi": 36,
            "time": 2.16,
            "velocity": 0.8661417322834646,
            "duration": 0.19600000000000017
          },
          {
            "name": "E2",
            "midi": 40,
            "time": 2.16,
            "velocity": 0.8661417322834646,
            "duration": 0.19600000000000017
          },
          {
            "name": "B1",
            "midi": 35,
            "time": 2.16,
            "velocity": 0.8661417322834646,
            "duration": 0.19600000000000017
          },
          {
            "name": "F#2",
            "midi": 42,
            "time": 2.16,
            "velocity": 0.8661417322834646,
            "duration": 0.19600000000000017
          },
          {
            "name": "D2",
            "midi": 38,
            "time": 2.16,
            "velocity": 0.8661417322834646,
            "duration": 0.19600000000000017
          },
          {
            "name": "E2",
            "midi": 40,
            "time": 2.7,
            "velocity": 0.8661417322834646,
            "duration": 0.05600000000000005
          },
          {
            "name": "D2",
            "midi": 38,
            "time": 2.7,
            "velocity": 0.8661417322834646,
            "duration": 0.05600000000000005
          },
          {
            "name": "E2",
            "midi": 40,
            "time": 2.7600000000000002,
            "velocity": 0.8661417322834646,
            "duration": 0.05600000000000005
          },
          {
            "name": "D2",
            "midi": 38,
            "time": 2.7600000000000002,
            "velocity": 0.8661417322834646,
            "duration": 0.05600000000000005
          },
          {
            "name": "E2",
            "midi": 40,
            "time": 2.8200000000000003,
            "velocity": 0.8661417322834646,
            "duration": 0.05600000000000005
          },
          {
            "name": "D2",
            "midi": 38,
            "time": 2.8200000000000003,
            "velocity": 0.8661417322834646,
            "duration": 0.05600000000000005
          },
          {
            "name": "D2",
            "midi": 38,
            "time": 2.8800000000000003,
            "velocity": 0.8661417322834646,
            "duration": 0.19600000000000017
          },
          {
            "name": "E2",
            "midi": 40,
            "time": 2.8800000000000003,
            "velocity": 0.8661417322834646,
            "duration": 0.19600000000000017
          },
          {
            "name": "B1",
            "midi": 35,
            "time": 2.8800000000000003,
            "velocity": 0.8661417322834646,
            "duration": 0.19600000000000017
          },
          {
            "name": "F#2",
            "midi": 42,
            "time": 2.8800000000000003,
            "velocity": 0.8661417322834646,
            "duration": 0.19600000000000017
          },
          {
            "name": "C2",
            "midi": 36,
            "time": 2.8800000000000003,
            "velocity": 0.8661417322834646,
            "duration": 0.19600000000000017
          },
          {
            "name": "C2",
            "midi": 36,
            "time": 3.1200000000000006,
            "velocity": 0.8661417322834646,
            "duration": 0.19600000000000017
          },
          {
            "name": "E2",
            "midi": 40,
            "time": 3.1200000000000006,
            "velocity": 0.8661417322834646,
            "duration": 0.19600000000000017
          },
          {
            "name": "B1",
            "midi": 35,
            "time": 3.1200000000000006,
            "velocity": 0.8661417322834646,
            "duration": 0.19600000000000017
          },
          {
            "name": "F#2",
            "midi": 42,
            "time": 3.1200000000000006,
            "velocity": 0.8661417322834646,
            "duration": 0.19600000000000017
          },
          {
            "name": "D2",
            "midi": 38,
            "time": 3.1200000000000006,
            "velocity": 0.8661417322834646,
            "duration": 0.19600000000000017
          },
          {
            "name": "C2",
            "midi": 36,
            "time": 3.8400000000000007,
            "velocity": 0.8661417322834646,
            "duration": 0.19599999999999795
          },
          {
            "name": "F#2",
            "midi": 42,
            "time": 3.8400000000000007,
            "velocity": 0.8661417322834646,
            "duration": 0.19599999999999795
          },
          {
            "name": "B1",
            "midi": 35,
            "time": 3.8400000000000007,
            "velocity": 0.8661417322834646,
            "duration": 0.19599999999999795
          },
          {
            "name": "E2",
            "midi": 40,
            "time": 3.8400000000000007,
            "velocity": 0.8661417322834646,
            "duration": 0.05600000000000005
          },
          {
            "name": "D2",
            "midi": 38,
            "time": 3.8400000000000007,
            "velocity": 0.8661417322834646,
            "duration": 0.05600000000000005
          },
          {
            "name": "E2",
            "midi": 40,
            "time": 3.900000000000001,
            "velocity": 0.8661417322834646,
            "duration": 0.05600000000000005
          },
          {
            "name": "D2",
            "midi": 38,
            "time": 3.900000000000001,
            "velocity": 0.8661417322834646,
            "duration": 0.05600000000000005
          },
          {
            "name": "E2",
            "midi": 40,
            "time": 3.960000000000001,
            "velocity": 0.8661417322834646,
            "duration": 0.05599999999999916
          },
          {
            "name": "D2",
            "midi": 38,
            "time": 3.960000000000001,
            "velocity": 0.8661417322834646,
            "duration": 0.05599999999999916
          },
          {
            "name": "D2",
            "midi": 38,
            "time": 4.02,
            "velocity": 0.8661417322834646,
            "duration": 0.055999999999997385
          },
          {
            "name": "E2",
            "midi": 40,
            "time": 4.02,
            "velocity": 0.8661417322834646,
            "duration": 0.055999999999997385
          },
          {
            "name": "E2",
            "midi": 40,
            "time": 4.0799999999999965,
            "velocity": 0.8661417322834646,
            "duration": 0.05600000000000005
          },
          {
            "name": "D2",
            "midi": 38,
            "time": 4.0799999999999965,
            "velocity": 0.8661417322834646,
            "duration": 0.05600000000000005
          },
          {
            "name": "E2",
            "midi": 40,
            "time": 4.139999999999996,
            "velocity": 0.8661417322834646,
            "duration": 0.05600000000000005
          },
          {
            "name": "D2",
            "midi": 38,
            "time": 4.139999999999996,
            "velocity": 0.8661417322834646,
            "duration": 0.05600000000000005
          },
          {
            "name": "E2",
            "midi": 40,
            "time": 4.199999999999996,
            "velocity": 0.8661417322834646,
            "duration": 0.05600000000000005
          },
          {
            "name": "D2",
            "midi": 38,
            "time": 4.199999999999996,
            "velocity": 0.8661417322834646,
            "duration": 0.05600000000000005
          },
          {
            "name": "E2",
            "midi": 40,
            "time": 4.259999999999995,
            "velocity": 0.8661417322834646,
            "duration": 0.05600000000000005
          },
          {
            "name": "D2",
            "midi": 38,
            "time": 4.259999999999995,
            "velocity": 0.8661417322834646,
            "duration": 0.05600000000000005
          },
          {
            "name": "E2",
            "midi": 40,
            "time": 4.319999999999995,
            "velocity": 0.8661417322834646,
            "duration": 0.05600000000000005
          },
          {
            "name": "D2",
            "midi": 38,
            "time": 4.319999999999995,
            "velocity": 0.8661417322834646,
            "duration": 0.05600000000000005
          },
          {
            "name": "E2",
            "midi": 40,
            "time": 4.379999999999995,
            "velocity": 0.8661417322834646,
            "duration": 0.05600000000000005
          },
          {
            "name": "D2",
            "midi": 38,
            "time": 4.379999999999995,
            "velocity": 0.8661417322834646,
            "duration": 0.05600000000000005
          },
          {
            "name": "E2",
            "midi": 40,
            "time": 4.439999999999994,
            "velocity": 0.8661417322834646,
            "duration": 0.05600000000000005
          },
          {
            "name": "D2",
            "midi": 38,
            "time": 4.439999999999994,
            "velocity": 0.8661417322834646,
            "duration": 0.05600000000000005
          },
          {
            "name": "E2",
            "midi": 40,
            "time": 4.499999999999994,
            "velocity": 0.8661417322834646,
            "duration": 0.05600000000000005
          },
          {
            "name": "D2",
            "midi": 38,
            "time": 4.499999999999994,
            "velocity": 0.8661417322834646,
            "duration": 0.05600000000000005
          },
          {
            "name": "E2",
            "midi": 40,
            "time": 4.559999999999993,
            "velocity": 0.8661417322834646,
            "duration": 0.055999999999997385
          },
          {
            "name": "D2",
            "midi": 38,
            "time": 4.559999999999993,
            "velocity": 0.8661417322834646,
            "duration": 0.055999999999997385
          },
          {
            "name": "E2",
            "midi": 40,
            "time": 4.61999999999999,
            "velocity": 0.8661417322834646,
            "duration": 0.055999999999997385
          },
          {
            "name": "D2",
            "midi": 38,
            "time": 4.61999999999999,
            "velocity": 0.8661417322834646,
            "duration": 0.055999999999997385
          },
          {
            "name": "E2",
            "midi": 40,
            "time": 4.679999999999987,
            "velocity": 0.8661417322834646,
            "duration": 0.05599999999999827
          },
          {
            "name": "D2",
            "midi": 38,
            "time": 4.679999999999987,
            "velocity": 0.8661417322834646,
            "duration": 0.05599999999999827
          },
          {
            "name": "E2",
            "midi": 40,
            "time": 4.739999999999985,
            "velocity": 0.8661417322834646,
            "duration": 0.05599999999999827
          },
          {
            "name": "D2",
            "midi": 38,
            "time": 4.739999999999985,
            "velocity": 0.8661417322834646,
            "duration": 0.05599999999999827
          },
          {
            "name": "C2",
            "midi": 36,
            "time": 4.799999999999983,
            "velocity": 0.8661417322834646,
            "duration": 0.19599999999999973
          },
          {
            "name": "E2",
            "midi": 40,
            "time": 4.799999999999983,
            "velocity": 0.8661417322834646,
            "duration": 0.19599999999999973
          },
          {
            "name": "B1",
            "midi": 35,
            "time": 4.799999999999983,
            "velocity": 0.8661417322834646,
            "duration": 0.19599999999999973
          },
          {
            "name": "F#2",
            "midi": 42,
            "time": 4.799999999999983,
            "velocity": 0.8661417322834646,
            "duration": 0.19599999999999973
          },
          {
            "name": "D2",
            "midi": 38,
            "time": 4.799999999999983,
            "velocity": 0.8661417322834646,
            "duration": 0.19599999999999973
          },
          {
            "name": "D2",
            "midi": 38,
            "time": 5.039999999999982,
            "velocity": 0.8661417322834646,
            "duration": 0.19599999999999973
          },
          {
            "name": "E2",
            "midi": 40,
            "time": 5.039999999999982,
            "velocity": 0.8661417322834646,
            "duration": 0.19599999999999973
          },
          {
            "name": "B1",
            "midi": 35,
            "time": 5.039999999999982,
            "velocity": 0.8661417322834646,
            "duration": 0.19599999999999973
          },
          {
            "name": "F#2",
            "midi": 42,
            "time": 5.039999999999982,
            "velocity": 0.8661417322834646,
            "duration": 0.19599999999999973
          },
          {
            "name": "C2",
            "midi": 36,
            "time": 5.039999999999982,
            "velocity": 0.8661417322834646,
            "duration": 0.19599999999999973
          },
          {
            "name": "E2",
            "midi": 40,
            "time": 5.759999999999982,
            "velocity": 0.8661417322834646,
            "duration": 0.19599999999999973
          },
          {
            "name": "D2",
            "midi": 38,
            "time": 5.759999999999982,
            "velocity": 0.8661417322834646,
            "duration": 0.19599999999999973
          },
          {
            "name": "E2",
            "midi": 40,
            "time": 6.079999999999981,
            "velocity": 0.7322834645669292,
            "duration": 0.05600000000000005
          },
          {
            "name": "D2",
            "midi": 38,
            "time": 6.079999999999981,
            "velocity": 0.7322834645669292,
            "duration": 0.05600000000000005
          },
          {
            "name": "E2",
            "midi": 40,
            "time": 6.1599999999999815,
            "velocity": 0.7322834645669292,
            "duration": 0.05600000000000005
          },
          {
            "name": "D2",
            "midi": 38,
            "time": 6.1599999999999815,
            "velocity": 0.7322834645669292,
            "duration": 0.05600000000000005
          },
          {
            "name": "E2",
            "midi": 40,
            "time": 6.239999999999982,
            "velocity": 0.8661417322834646,
            "duration": 0.19599999999999973
          },
          {
            "name": "D2",
            "midi": 38,
            "time": 6.239999999999982,
            "velocity": 0.8661417322834646,
            "duration": 0.19599999999999973
          },
          {
            "name": "E2",
            "midi": 40,
            "time": 6.879999999999981,
            "velocity": 0.7244094488188977,
            "duration": 0.11599999999999966
          },
          {
            "name": "D2",
            "midi": 38,
            "time": 6.879999999999981,
            "velocity": 0.7244094488188977,
            "duration": 0.11599999999999966
          },
          {
            "name": "E2",
            "midi": 40,
            "time": 7.0399999999999805,
            "velocity": 0.7322834645669292,
            "duration": 0.11599999999999966
          },
          {
            "name": "D2",
            "midi": 38,
            "time": 7.0399999999999805,
            "velocity": 0.7322834645669292,
            "duration": 0.11599999999999966
          },
          {
            "name": "E2",
            "midi": 40,
            "time": 7.19999999999998,
            "velocity": 0.7322834645669292,
            "duration": 0.11599999999999966
          },
          {
            "name": "D2",
            "midi": 38,
            "time": 7.19999999999998,
            "velocity": 0.7322834645669292,
            "duration": 0.11599999999999966
          },
          {
            "name": "E2",
            "midi": 40,
            "time": 7.359999999999979,
            "velocity": 0.7322834645669292,
            "duration": 0.11599999999999966
          },
          {
            "name": "D2",
            "midi": 38,
            "time": 7.359999999999979,
            "velocity": 0.7322834645669292,
            "duration": 0.11599999999999966
          },
          {
            "name": "E2",
            "midi": 40,
            "time": 7.519999999999978,
            "velocity": 0.7007874015748031,
            "duration": 0.11599999999999966
          },
          {
            "name": "D2",
            "midi": 38,
            "time": 7.519999999999978,
            "velocity": 0.7007874015748031,
            "duration": 0.11599999999999966
          },
          {
            "name": "E2",
            "midi": 40,
            "time": 7.6799999999999775,
            "velocity": 0.8661417322834646,
            "duration": 0.19599999999999973
          },
          {
            "name": "D2",
            "midi": 38,
            "time": 7.6799999999999775,
            "velocity": 0.8661417322834646,
            "duration": 0.19599999999999973
          },
          {
            "name": "E2",
            "midi": 40,
            "time": 7.999999999999977,
            "velocity": 0.7322834645669292,
            "duration": 0.05599999999999916
          },
          {
            "name": "D2",
            "midi": 38,
            "time": 7.999999999999977,
            "velocity": 0.7322834645669292,
            "duration": 0.05599999999999916
          },
          {
            "name": "E2",
            "midi": 40,
            "time": 8.079999999999975,
            "velocity": 0.7322834645669292,
            "duration": 0.05599999999999916
          },
          {
            "name": "D2",
            "midi": 38,
            "time": 8.079999999999975,
            "velocity": 0.7322834645669292,
            "duration": 0.05599999999999916
          },
          {
            "name": "E2",
            "midi": 40,
            "time": 8.159999999999973,
            "velocity": 0.7165354330708661,
            "duration": 0.11599999999999966
          },
          {
            "name": "D2",
            "midi": 38,
            "time": 8.159999999999973,
            "velocity": 0.7165354330708661,
            "duration": 0.11599999999999966
          },
          {
            "name": "E2",
            "midi": 40,
            "time": 8.319999999999974,
            "velocity": 0.6929133858267716,
            "duration": 0.11599999999999966
          },
          {
            "name": "D2",
            "midi": 38,
            "time": 8.319999999999974,
            "velocity": 0.6929133858267716,
            "duration": 0.11599999999999966
          },
          {
            "name": "E2",
            "midi": 40,
            "time": 8.479999999999974,
            "velocity": 0.7086614173228346,
            "duration": 0.11599999999999966
          },
          {
            "name": "D2",
            "midi": 38,
            "time": 8.479999999999974,
            "velocity": 0.7086614173228346,
            "duration": 0.11599999999999966
          },
          {
            "name": "E2",
            "midi": 40,
            "time": 8.639999999999974,
            "velocity": 0.7086614173228346,
            "duration": 0.11599999999999966
          },
          {
            "name": "D2",
            "midi": 38,
            "time": 8.639999999999974,
            "velocity": 0.7086614173228346,
            "duration": 0.11599999999999966
          },
          {
            "name": "E2",
            "midi": 40,
            "time": 8.799999999999974,
            "velocity": 0.6929133858267716,
            "duration": 0.11599999999999966
          },
          {
            "name": "D2",
            "midi": 38,
            "time": 8.799999999999974,
            "velocity": 0.6929133858267716,
            "duration": 0.11599999999999966
          },
          {
            "name": "E2",
            "midi": 40,
            "time": 8.959999999999974,
            "velocity": 0.7007874015748031,
            "duration": 0.11599999999999966
          },
          {
            "name": "D2",
            "midi": 38,
            "time": 8.959999999999974,
            "velocity": 0.7007874015748031,
            "duration": 0.11599999999999966
          },
          {
            "name": "E2",
            "midi": 40,
            "time": 9.119999999999974,
            "velocity": 0.7165354330708661,
            "duration": 0.11599999999999966
          },
          {
            "name": "D2",
            "midi": 38,
            "time": 9.119999999999974,
            "velocity": 0.7165354330708661,
            "duration": 0.11599999999999966
          },
          {
            "name": "E2",
            "midi": 40,
            "time": 9.279999999999974,
            "velocity": 0.7007874015748031,
            "duration": 0.11599999999999966
          },
          {
            "name": "D2",
            "midi": 38,
            "time": 9.279999999999974,
            "velocity": 0.7007874015748031,
            "duration": 0.11599999999999966
          },
          {
            "name": "E2",
            "midi": 40,
            "time": 9.439999999999975,
            "velocity": 0.7007874015748031,
            "duration": 0.11599999999999966
          },
          {
            "name": "D2",
            "midi": 38,
            "time": 9.439999999999975,
            "velocity": 0.7007874015748031,
            "duration": 0.11599999999999966
          },
          {
            "name": "E2",
            "midi": 40,
            "time": 9.599999999999975,
            "velocity": 0.8503937007874016,
            "duration": 0.19599999999999973
          },
          {
            "name": "D2",
            "midi": 38,
            "time": 9.599999999999975,
            "velocity": 0.8503937007874016,
            "duration": 0.19599999999999973
          },
          {
            "name": "E2",
            "midi": 40,
            "time": 9.919999999999975,
            "velocity": 0.7165354330708661,
            "duration": 0.03599999999999959
          },
          {
            "name": "D2",
            "midi": 38,
            "time": 9.919999999999975,
            "velocity": 0.7165354330708661,
            "duration": 0.03599999999999959
          },
          {
            "name": "D2",
            "midi": 38,
            "time": 9.999999999999975,
            "velocity": 0.7165354330708661,
            "duration": 0.05599999999999916
          },
          {
            "name": "E2",
            "midi": 40,
            "time": 9.999999999999975,
            "velocity": 0.7165354330708661,
            "duration": 0.03599999999999959
          },
          {
            "name": "C2",
            "midi": 36,
            "time": 10.079999999999973,
            "velocity": 0.8661417322834646,
            "duration": 0.1959999999999944
          },
          {
            "name": "B1",
            "midi": 35,
            "time": 10.079999999999973,
            "velocity": 0.8661417322834646,
            "duration": 0.1959999999999944
          },
          {
            "name": "E2",
            "midi": 40,
            "time": 10.079999999999973,
            "velocity": 0.8661417322834646,
            "duration": 0.03599999999999959
          },
          {
            "name": "D2",
            "midi": 38,
            "time": 10.079999999999973,
            "velocity": 0.8661417322834646,
            "duration": 0.03599999999999959
          },
          {
            "name": "E2",
            "midi": 40,
            "time": 10.139999999999972,
            "velocity": 0.8661417322834646,
            "duration": 0.03599999999999959
          },
          {
            "name": "D2",
            "midi": 38,
            "time": 10.139999999999972,
            "velocity": 0.8661417322834646,
            "duration": 0.03599999999999959
          },
          {
            "name": "E2",
            "midi": 40,
            "time": 10.19999999999997,
            "velocity": 0.8661417322834646,
            "duration": 0.03599999999999959
          },
          {
            "name": "D2",
            "midi": 38,
            "time": 10.19999999999997,
            "velocity": 0.8661417322834646,
            "duration": 0.03599999999999959
          },
          {
            "name": "D2",
            "midi": 38,
            "time": 10.25999999999997,
            "velocity": 0.8661417322834646,
            "duration": 0.03599999999999781
          },
          {
            "name": "E2",
            "midi": 40,
            "time": 10.25999999999997,
            "velocity": 0.8661417322834646,
            "duration": 0.03599999999999781
          },
          {
            "name": "E2",
            "midi": 40,
            "time": 10.319999999999967,
            "velocity": 0.8661417322834646,
            "duration": 0.03599999999999959
          },
          {
            "name": "D2",
            "midi": 38,
            "time": 10.319999999999967,
            "velocity": 0.8661417322834646,
            "duration": 0.03599999999999959
          },
          {
            "name": "E2",
            "midi": 40,
            "time": 10.379999999999965,
            "velocity": 0.8661417322834646,
            "duration": 0.03599999999999959
          },
          {
            "name": "D2",
            "midi": 38,
            "time": 10.379999999999965,
            "velocity": 0.8661417322834646,
            "duration": 0.03599999999999959
          },
          {
            "name": "E2",
            "midi": 40,
            "time": 10.439999999999964,
            "velocity": 0.8661417322834646,
            "duration": 0.03599999999999959
          },
          {
            "name": "D2",
            "midi": 38,
            "time": 10.439999999999964,
            "velocity": 0.8661417322834646,
            "duration": 0.03599999999999959
          },
          {
            "name": "E2",
            "midi": 40,
            "time": 10.499999999999963,
            "velocity": 0.8661417322834646,
            "duration": 0.03599999999999959
          },
          {
            "name": "D2",
            "midi": 38,
            "time": 10.499999999999963,
            "velocity": 0.8661417322834646,
            "duration": 0.03599999999999959
          },
          {
            "name": "C2",
            "midi": 36,
            "time": 10.559999999999961,
            "velocity": 0.8661417322834646,
            "duration": 0.19599999999999973
          },
          {
            "name": "D2",
            "midi": 38,
            "time": 10.559999999999961,
            "velocity": 0.8661417322834646,
            "duration": 0.19599999999999973
          },
          {
            "name": "E2",
            "midi": 40,
            "time": 10.559999999999961,
            "velocity": 0.8661417322834646,
            "duration": 0.19599999999999973
          },
          {
            "name": "B1",
            "midi": 35,
            "time": 10.559999999999961,
            "velocity": 0.8661417322834646,
            "duration": 0.19599999999999973
          },
          {
            "name": "C#3",
            "midi": 49,
            "time": 10.559999999999961,
            "velocity": 0.8661417322834646,
            "duration": 0.19599999999999973
          },
          {
            "name": "D2",
            "midi": 38,
            "time": 11.999999999999961,
            "velocity": 0.8661417322834646,
            "duration": 0.19599999999999973
          },
          {
            "name": "E2",
            "midi": 40,
            "time": 11.999999999999961,
            "velocity": 0.8661417322834646,
            "duration": 0.19599999999999973
          },
          {
            "name": "D2",
            "midi": 38,
            "time": 12.319999999999961,
            "velocity": 0.7244094488188977,
            "duration": 0.03599999999999959
          },
          {
            "name": "E2",
            "midi": 40,
            "time": 12.319999999999961,
            "velocity": 0.7244094488188977,
            "duration": 0.03599999999999959
          },
          {
            "name": "D2",
            "midi": 38,
            "time": 12.399999999999961,
            "velocity": 0.7165354330708661,
            "duration": 0.03599999999999959
          },
          {
            "name": "E2",
            "midi": 40,
            "time": 12.399999999999961,
            "velocity": 0.7165354330708661,
            "duration": 0.03599999999999959
          },
          {
            "name": "D2",
            "midi": 38,
            "time": 12.479999999999961,
            "velocity": 0.8740157480314961,
            "duration": 0.035999999999996035
          },
          {
            "name": "E2",
            "midi": 40,
            "time": 12.479999999999961,
            "velocity": 0.8740157480314961,
            "duration": 0.035999999999996035
          },
          {
            "name": "D2",
            "midi": 38,
            "time": 12.539999999999955,
            "velocity": 0.8503937007874016,
            "duration": 0.03599999999999781
          },
          {
            "name": "E2",
            "midi": 40,
            "time": 12.539999999999955,
            "velocity": 0.8503937007874016,
            "duration": 0.03599999999999781
          },
          {
            "name": "D2",
            "midi": 38,
            "time": 12.599999999999952,
            "velocity": 0.8267716535433071,
            "duration": 0.03599999999999781
          },
          {
            "name": "E2",
            "midi": 40,
            "time": 12.599999999999952,
            "velocity": 0.8267716535433071,
            "duration": 0.03599999999999781
          },
          {
            "name": "D2",
            "midi": 38,
            "time": 12.659999999999947,
            "velocity": 0.8110236220472441,
            "duration": 0.03599999999999781
          },
          {
            "name": "E2",
            "midi": 40,
            "time": 12.659999999999947,
            "velocity": 0.8110236220472441,
            "duration": 0.03599999999999781
          },
          {
            "name": "D2",
            "midi": 38,
            "time": 12.719999999999944,
            "velocity": 0.7874015748031497,
            "duration": 0.03599999999999781
          },
          {
            "name": "E2",
            "midi": 40,
            "time": 12.719999999999944,
            "velocity": 0.7874015748031497,
            "duration": 0.03599999999999781
          },
          {
            "name": "D2",
            "midi": 38,
            "time": 12.779999999999939,
            "velocity": 0.7637795275590551,
            "duration": 0.035999999999996035
          },
          {
            "name": "E2",
            "midi": 40,
            "time": 12.779999999999939,
            "velocity": 0.7637795275590551,
            "duration": 0.035999999999996035
          },
          {
            "name": "D2",
            "midi": 38,
            "time": 12.839999999999932,
            "velocity": 0.7559055118110236,
            "duration": 0.03599999999999781
          },
          {
            "name": "E2",
            "midi": 40,
            "time": 12.839999999999932,
            "velocity": 0.7559055118110236,
            "duration": 0.03599999999999781
          },
          {
            "name": "E2",
            "midi": 40,
            "time": 12.89999999999993,
            "velocity": 0.7401574803149606,
            "duration": 0.05599999999999561
          },
          {
            "name": "D2",
            "midi": 38,
            "time": 12.89999999999993,
            "velocity": 0.7401574803149606,
            "duration": 0.03599999999999781
          },
          {
            "name": "D2",
            "midi": 38,
            "time": 12.959999999999924,
            "velocity": 0.7086614173228346,
            "duration": 0.11599999999999966
          },
          {
            "name": "E2",
            "midi": 40,
            "time": 12.959999999999924,
            "velocity": 0.7086614173228346,
            "duration": 0.11599999999999966
          },
          {
            "name": "D2",
            "midi": 38,
            "time": 13.919999999999924,
            "velocity": 0.8740157480314961,
            "duration": 0.19599999999999973
          },
          {
            "name": "E2",
            "midi": 40,
            "time": 13.919999999999924,
            "velocity": 0.8740157480314961,
            "duration": 0.19599999999999973
          },
          {
            "name": "D2",
            "midi": 38,
            "time": 14.239999999999924,
            "velocity": 0.7165354330708661,
            "duration": 0.03599999999999959
          },
          {
            "name": "E2",
            "midi": 40,
            "time": 14.239999999999924,
            "velocity": 0.7165354330708661,
            "duration": 0.03599999999999959
          },
          {
            "name": "D2",
            "midi": 38,
            "time": 14.319999999999924,
            "velocity": 0.7165354330708661,
            "duration": 0.03599999999999959
          },
          {
            "name": "E2",
            "midi": 40,
            "time": 14.319999999999924,
            "velocity": 0.7165354330708661,
            "duration": 0.03599999999999959
          },
          {
            "name": "D2",
            "midi": 38,
            "time": 14.399999999999924,
            "velocity": 0.8661417322834646,
            "duration": 0.035999999999996035
          },
          {
            "name": "E2",
            "midi": 40,
            "time": 14.399999999999924,
            "velocity": 0.8661417322834646,
            "duration": 0.035999999999996035
          },
          {
            "name": "D2",
            "midi": 38,
            "time": 14.459999999999917,
            "velocity": 0.8503937007874016,
            "duration": 0.03599999999999781
          },
          {
            "name": "E2",
            "midi": 40,
            "time": 14.459999999999917,
            "velocity": 0.8503937007874016,
            "duration": 0.03599999999999781
          },
          {
            "name": "D2",
            "midi": 38,
            "time": 14.519999999999914,
            "velocity": 0.8188976377952756,
            "duration": 0.03599999999999781
          },
          {
            "name": "E2",
            "midi": 40,
            "time": 14.519999999999914,
            "velocity": 0.8188976377952756,
            "duration": 0.03599999999999781
          },
          {
            "name": "D2",
            "midi": 38,
            "time": 14.57999999999991,
            "velocity": 0.7874015748031497,
            "duration": 0.03599999999999781
          },
          {
            "name": "E2",
            "midi": 40,
            "time": 14.57999999999991,
            "velocity": 0.7874015748031497,
            "duration": 0.03599999999999781
          },
          {
            "name": "E2",
            "midi": 40,
            "time": 14.639999999999906,
            "velocity": 0.7716535433070866,
            "duration": 0.03599999999999781
          },
          {
            "name": "D2",
            "midi": 38,
            "time": 14.639999999999906,
            "velocity": 0.7716535433070866,
            "duration": 0.03599999999999781
          },
          {
            "name": "D2",
            "midi": 38,
            "time": 14.699999999999902,
            "velocity": 0.7480314960629921,
            "duration": 0.035999999999996035
          },
          {
            "name": "E2",
            "midi": 40,
            "time": 14.699999999999902,
            "velocity": 0.7480314960629921,
            "duration": 0.035999999999996035
          },
          {
            "name": "D2",
            "midi": 38,
            "time": 14.759999999999895,
            "velocity": 0.7244094488188977,
            "duration": 0.03599999999999781
          },
          {
            "name": "E2",
            "midi": 40,
            "time": 14.759999999999895,
            "velocity": 0.7244094488188977,
            "duration": 0.03599999999999781
          },
          {
            "name": "E2",
            "midi": 40,
            "time": 14.819999999999892,
            "velocity": 0.7165354330708661,
            "duration": 0.05599999999999561
          },
          {
            "name": "D2",
            "midi": 38,
            "time": 14.819999999999892,
            "velocity": 0.7165354330708661,
            "duration": 0.03599999999999781
          },
          {
            "name": "D2",
            "midi": 38,
            "time": 14.879999999999887,
            "velocity": 0.7165354330708661,
            "duration": 0.11599999999999966
          },
          {
            "name": "E2",
            "midi": 40,
            "time": 14.879999999999887,
            "velocity": 0.7165354330708661,
            "duration": 0.11599999999999966
          },
          {
            "name": "C2",
            "midi": 36,
            "time": 16.319999999999887,
            "velocity": 0.8582677165354331,
            "duration": 0.17600000000000193
          },
          {
            "name": "B1",
            "midi": 35,
            "time": 16.319999999999887,
            "velocity": 0.8582677165354331,
            "duration": 0.17600000000000193
          },
          {
            "name": "D2",
            "midi": 38,
            "time": 16.319999999999887,
            "velocity": 0.8582677165354331,
            "duration": 0.055999999999997385
          },
          {
            "name": "E2",
            "midi": 40,
            "time": 16.319999999999887,
            "velocity": 0.8582677165354331,
            "duration": 0.03599999999999781
          },
          {
            "name": "D2",
            "midi": 38,
            "time": 16.379999999999885,
            "velocity": 0.8346456692913385,
            "duration": 0.05600000000000094
          },
          {
            "name": "E2",
            "midi": 40,
            "time": 16.379999999999885,
            "velocity": 0.8346456692913385,
            "duration": 0.05600000000000094
          },
          {
            "name": "D2",
            "midi": 38,
            "time": 16.439999999999888,
            "velocity": 0.8031496062992126,
            "duration": 0.05600000000000094
          },
          {
            "name": "E2",
            "midi": 40,
            "time": 16.439999999999888,
            "velocity": 0.8031496062992126,
            "duration": 0.05600000000000094
          },
          {
            "name": "D2",
            "midi": 38,
            "time": 16.49999999999989,
            "velocity": 0.7952755905511811,
            "duration": 0.05600000000000094
          },
          {
            "name": "E2",
            "midi": 40,
            "time": 16.49999999999989,
            "velocity": 0.7952755905511811,
            "duration": 0.05600000000000094
          },
          {
            "name": "D2",
            "midi": 38,
            "time": 16.559999999999892,
            "velocity": 0.7874015748031497,
            "duration": 0.05600000000000094
          },
          {
            "name": "E2",
            "midi": 40,
            "time": 16.559999999999892,
            "velocity": 0.7874015748031497,
            "duration": 0.05600000000000094
          },
          {
            "name": "D2",
            "midi": 38,
            "time": 16.619999999999894,
            "velocity": 0.7874015748031497,
            "duration": 0.05600000000000094
          },
          {
            "name": "E2",
            "midi": 40,
            "time": 16.619999999999894,
            "velocity": 0.7874015748031497,
            "duration": 0.05600000000000094
          },
          {
            "name": "D2",
            "midi": 38,
            "time": 16.679999999999897,
            "velocity": 0.7716535433070866,
            "duration": 0.05600000000000094
          },
          {
            "name": "E2",
            "midi": 40,
            "time": 16.679999999999897,
            "velocity": 0.7716535433070866,
            "duration": 0.05600000000000094
          },
          {
            "name": "D2",
            "midi": 38,
            "time": 16.7399999999999,
            "velocity": 0.7716535433070866,
            "duration": 0.05600000000000094
          },
          {
            "name": "E2",
            "midi": 40,
            "time": 16.7399999999999,
            "velocity": 0.7716535433070866,
            "duration": 0.05600000000000094
          },
          {
            "name": "D2",
            "midi": 38,
            "time": 16.7999999999999,
            "velocity": 0.7637795275590551,
            "duration": 0.05600000000000094
          },
          {
            "name": "E2",
            "midi": 40,
            "time": 16.7999999999999,
            "velocity": 0.7637795275590551,
            "duration": 0.05600000000000094
          },
          {
            "name": "D2",
            "midi": 38,
            "time": 16.859999999999904,
            "velocity": 0.7637795275590551,
            "duration": 0.05600000000000094
          },
          {
            "name": "E2",
            "midi": 40,
            "time": 16.859999999999904,
            "velocity": 0.7637795275590551,
            "duration": 0.05600000000000094
          },
          {
            "name": "D2",
            "midi": 38,
            "time": 16.919999999999906,
            "velocity": 0.7637795275590551,
            "duration": 0.05600000000000094
          },
          {
            "name": "E2",
            "midi": 40,
            "time": 16.919999999999906,
            "velocity": 0.7637795275590551,
            "duration": 0.05600000000000094
          },
          {
            "name": "D2",
            "midi": 38,
            "time": 16.979999999999908,
            "velocity": 0.7559055118110236,
            "duration": 0.05600000000000094
          },
          {
            "name": "E2",
            "midi": 40,
            "time": 16.979999999999908,
            "velocity": 0.7559055118110236,
            "duration": 0.05600000000000094
          },
          {
            "name": "D2",
            "midi": 38,
            "time": 17.03999999999991,
            "velocity": 0.7401574803149606,
            "duration": 0.05600000000000094
          },
          {
            "name": "E2",
            "midi": 40,
            "time": 17.03999999999991,
            "velocity": 0.7401574803149606,
            "duration": 0.05600000000000094
          },
          {
            "name": "D2",
            "midi": 38,
            "time": 17.099999999999913,
            "velocity": 0.7244094488188977,
            "duration": 0.05600000000000094
          },
          {
            "name": "E2",
            "midi": 40,
            "time": 17.099999999999913,
            "velocity": 0.7244094488188977,
            "duration": 0.05600000000000094
          },
          {
            "name": "D2",
            "midi": 38,
            "time": 17.159999999999915,
            "velocity": 0.7086614173228346,
            "duration": 0.05600000000000094
          },
          {
            "name": "E2",
            "midi": 40,
            "time": 17.159999999999915,
            "velocity": 0.7086614173228346,
            "duration": 0.05600000000000094
          },
          {
            "name": "D2",
            "midi": 38,
            "time": 17.219999999999917,
            "velocity": 0.7086614173228346,
            "duration": 0.060000000000002274
          },
          {
            "name": "E2",
            "midi": 40,
            "time": 17.219999999999917,
            "velocity": 0.7086614173228346,
            "duration": 0.060000000000002274
          },
          {
            "name": "D2",
            "midi": 38,
            "time": 17.27999999999992,
            "velocity": 0.7165354330708661,
            "duration": 0.11599999999999966
          },
          {
            "name": "B1",
            "midi": 35,
            "time": 17.27999999999992,
            "velocity": 0.7165354330708661,
            "duration": 0.11599999999999966
          },
          {
            "name": "A#2",
            "midi": 46,
            "time": 17.27999999999992,
            "velocity": 0.7165354330708661,
            "duration": 0.11599999999999966
          },
          {
            "name": "C2",
            "midi": 36,
            "time": 17.27999999999992,
            "velocity": 0.7165354330708661,
            "duration": 0.11599999999999966
          },
          {
            "name": "E2",
            "midi": 40,
            "time": 17.27999999999992,
            "velocity": 0.7165354330708661,
            "duration": 0.11599999999999966
          }
        ],
        "controlChanges": {
          "7": [
            {
              "number": 7,
              "time": 0.10500000000000001,
              "value": 0.7874015748031497
            },
            {
              "number": 7,
              "time": 2.7,
              "value": 0.47244094488188976
            },
            {
              "number": 7,
              "time": 2.704,
              "value": 0.48031496062992124
            },
            {
              "number": 7,
              "time": 2.708,
              "value": 0.4881889763779528
            },
            {
              "number": 7,
              "time": 2.712,
              "value": 0.49606299212598426
            },
            {
              "number": 7,
              "time": 2.716,
              "value": 0.5039370078740157
            },
            {
              "number": 7,
              "time": 2.72,
              "value": 0.5118110236220472
            },
            {
              "number": 7,
              "time": 2.724,
              "value": 0.5196850393700787
            },
            {
              "number": 7,
              "time": 2.728,
              "value": 0.5275590551181102
            },
            {
              "number": 7,
              "time": 2.732,
              "value": 0.5354330708661418
            },
            {
              "number": 7,
              "time": 2.736,
              "value": 0.5433070866141733
            },
            {
              "number": 7,
              "time": 2.744,
              "value": 0.5511811023622047
            },
            {
              "number": 7,
              "time": 2.748,
              "value": 0.5590551181102362
            },
            {
              "number": 7,
              "time": 2.7520000000000002,
              "value": 0.5669291338582677
            },
            {
              "number": 7,
              "time": 2.7560000000000002,
              "value": 0.5748031496062992
            },
            {
              "number": 7,
              "time": 2.7600000000000002,
              "value": 0.5826771653543307
            },
            {
              "number": 7,
              "time": 2.7640000000000002,
              "value": 0.5905511811023622
            },
            {
              "number": 7,
              "time": 2.7680000000000002,
              "value": 0.5984251968503937
            },
            {
              "number": 7,
              "time": 2.7720000000000002,
              "value": 0.6062992125984252
            },
            {
              "number": 7,
              "time": 2.7760000000000002,
              "value": 0.6141732283464567
            },
            {
              "number": 7,
              "time": 2.7800000000000002,
              "value": 0.6220472440944882
            },
            {
              "number": 7,
              "time": 2.7880000000000003,
              "value": 0.6299212598425197
            },
            {
              "number": 7,
              "time": 2.7920000000000003,
              "value": 0.6377952755905512
            },
            {
              "number": 7,
              "time": 2.7960000000000003,
              "value": 0.6456692913385826
            },
            {
              "number": 7,
              "time": 2.8000000000000003,
              "value": 0.6535433070866141
            },
            {
              "number": 7,
              "time": 2.8040000000000003,
              "value": 0.6614173228346457
            },
            {
              "number": 7,
              "time": 2.8080000000000003,
              "value": 0.6692913385826772
            },
            {
              "number": 7,
              "time": 2.8120000000000003,
              "value": 0.6771653543307087
            },
            {
              "number": 7,
              "time": 2.8160000000000003,
              "value": 0.6850393700787402
            },
            {
              "number": 7,
              "time": 2.8200000000000003,
              "value": 0.6929133858267716
            },
            {
              "number": 7,
              "time": 2.8240000000000003,
              "value": 0.7007874015748031
            },
            {
              "number": 7,
              "time": 2.8320000000000003,
              "value": 0.7086614173228346
            },
            {
              "number": 7,
              "time": 2.8360000000000003,
              "value": 0.7165354330708661
            },
            {
              "number": 7,
              "time": 2.8400000000000003,
              "value": 0.7244094488188977
            },
            {
              "number": 7,
              "time": 2.8440000000000003,
              "value": 0.7322834645669292
            },
            {
              "number": 7,
              "time": 2.8480000000000003,
              "value": 0.7401574803149606
            },
            {
              "number": 7,
              "time": 2.8520000000000003,
              "value": 0.7480314960629921
            },
            {
              "number": 7,
              "time": 2.8560000000000003,
              "value": 0.7559055118110236
            },
            {
              "number": 7,
              "time": 2.8600000000000003,
              "value": 0.7637795275590551
            },
            {
              "number": 7,
              "time": 2.8640000000000003,
              "value": 0.7716535433070866
            },
            {
              "number": 7,
              "time": 2.8680000000000003,
              "value": 0.7795275590551181
            },
            {
              "number": 7,
              "time": 2.8760000000000003,
              "value": 0.7874015748031497
            },
            {
              "number": 7,
              "time": 3.8400000000000007,
              "value": 0.7874015748031497
            },
            {
              "number": 7,
              "time": 3.8440000000000007,
              "value": 0.7795275590551181
            },
            {
              "number": 7,
              "time": 3.8480000000000008,
              "value": 0.7716535433070866
            },
            {
              "number": 7,
              "time": 3.8560000000000008,
              "value": 0.7637795275590551
            },
            {
              "number": 7,
              "time": 3.8600000000000008,
              "value": 0.7559055118110236
            },
            {
              "number": 7,
              "time": 3.8680000000000008,
              "value": 0.7480314960629921
            },
            {
              "number": 7,
              "time": 3.8720000000000008,
              "value": 0.7401574803149606
            },
            {
              "number": 7,
              "time": 3.880000000000001,
              "value": 0.7322834645669292
            },
            {
              "number": 7,
              "time": 3.884000000000001,
              "value": 0.7244094488188977
            },
            {
              "number": 7,
              "time": 3.892000000000001,
              "value": 0.7165354330708661
            },
            {
              "number": 7,
              "time": 3.896000000000001,
              "value": 0.7086614173228346
            },
            {
              "number": 7,
              "time": 3.904000000000001,
              "value": 0.7007874015748031
            },
            {
              "number": 7,
              "time": 3.908000000000001,
              "value": 0.6929133858267716
            },
            {
              "number": 7,
              "time": 3.916000000000001,
              "value": 0.6850393700787402
            },
            {
              "number": 7,
              "time": 3.920000000000001,
              "value": 0.6771653543307087
            },
            {
              "number": 7,
              "time": 3.928000000000001,
              "value": 0.6692913385826772
            },
            {
              "number": 7,
              "time": 3.932000000000001,
              "value": 0.6614173228346457
            },
            {
              "number": 7,
              "time": 3.940000000000001,
              "value": 0.6535433070866141
            },
            {
              "number": 7,
              "time": 3.944000000000001,
              "value": 0.6456692913385826
            },
            {
              "number": 7,
              "time": 3.952000000000001,
              "value": 0.6377952755905512
            },
            {
              "number": 7,
              "time": 3.956000000000001,
              "value": 0.6299212598425197
            },
            {
              "number": 7,
              "time": 3.960000000000001,
              "value": 0.6220472440944882
            },
            {
              "number": 7,
              "time": 3.968000000000001,
              "value": 0.6141732283464567
            },
            {
              "number": 7,
              "time": 3.972000000000001,
              "value": 0.6062992125984252
            },
            {
              "number": 7,
              "time": 3.980000000000001,
              "value": 0.5984251968503937
            },
            {
              "number": 7,
              "time": 3.984000000000001,
              "value": 0.5905511811023622
            },
            {
              "number": 7,
              "time": 3.992000000000001,
              "value": 0.5826771653543307
            },
            {
              "number": 7,
              "time": 3.996000000000001,
              "value": 0.5748031496062992
            },
            {
              "number": 7,
              "time": 4.0040000000000004,
              "value": 0.5669291338582677
            },
            {
              "number": 7,
              "time": 4.008,
              "value": 0.5590551181102362
            },
            {
              "number": 7,
              "time": 4.016,
              "value": 0.5511811023622047
            },
            {
              "number": 7,
              "time": 4.02,
              "value": 0.5433070866141733
            },
            {
              "number": 7,
              "time": 4.028,
              "value": 0.5354330708661418
            },
            {
              "number": 7,
              "time": 4.031999999999999,
              "value": 0.5275590551181102
            },
            {
              "number": 7,
              "time": 4.039999999999998,
              "value": 0.5196850393700787
            },
            {
              "number": 7,
              "time": 4.043999999999998,
              "value": 0.5118110236220472
            },
            {
              "number": 7,
              "time": 4.051999999999998,
              "value": 0.5039370078740157
            },
            {
              "number": 7,
              "time": 4.055999999999997,
              "value": 0.49606299212598426
            },
            {
              "number": 7,
              "time": 4.063999999999997,
              "value": 0.4881889763779528
            },
            {
              "number": 7,
              "time": 4.067999999999997,
              "value": 0.48031496062992124
            },
            {
              "number": 7,
              "time": 4.075999999999997,
              "value": 0.47244094488188976
            },
            {
              "number": 7,
              "time": 4.559999999999993,
              "value": 0.47244094488188976
            },
            {
              "number": 7,
              "time": 4.563999999999993,
              "value": 0.48031496062992124
            },
            {
              "number": 7,
              "time": 4.5679999999999925,
              "value": 0.4881889763779528
            },
            {
              "number": 7,
              "time": 4.5759999999999925,
              "value": 0.49606299212598426
            },
            {
              "number": 7,
              "time": 4.579999999999992,
              "value": 0.5039370078740157
            },
            {
              "number": 7,
              "time": 4.587999999999992,
              "value": 0.5118110236220472
            },
            {
              "number": 7,
              "time": 4.591999999999992,
              "value": 0.5196850393700787
            },
            {
              "number": 7,
              "time": 4.599999999999992,
              "value": 0.5275590551181102
            },
            {
              "number": 7,
              "time": 4.603999999999991,
              "value": 0.5354330708661418
            },
            {
              "number": 7,
              "time": 4.611999999999991,
              "value": 0.5433070866141733
            },
            {
              "number": 7,
              "time": 4.615999999999991,
              "value": 0.5511811023622047
            },
            {
              "number": 7,
              "time": 4.62399999999999,
              "value": 0.5590551181102362
            },
            {
              "number": 7,
              "time": 4.6279999999999895,
              "value": 0.5669291338582677
            },
            {
              "number": 7,
              "time": 4.6359999999999895,
              "value": 0.5748031496062992
            },
            {
              "number": 7,
              "time": 4.639999999999989,
              "value": 0.5826771653543307
            },
            {
              "number": 7,
              "time": 4.647999999999989,
              "value": 0.5905511811023622
            },
            {
              "number": 7,
              "time": 4.651999999999989,
              "value": 0.5984251968503937
            },
            {
              "number": 7,
              "time": 4.659999999999989,
              "value": 0.6062992125984252
            },
            {
              "number": 7,
              "time": 4.663999999999988,
              "value": 0.6141732283464567
            },
            {
              "number": 7,
              "time": 4.671999999999988,
              "value": 0.6220472440944882
            },
            {
              "number": 7,
              "time": 4.675999999999988,
              "value": 0.6299212598425197
            },
            {
              "number": 7,
              "time": 4.679999999999987,
              "value": 0.6377952755905512
            },
            {
              "number": 7,
              "time": 4.687999999999987,
              "value": 0.6456692913385826
            },
            {
              "number": 7,
              "time": 4.691999999999987,
              "value": 0.6535433070866141
            },
            {
              "number": 7,
              "time": 4.699999999999987,
              "value": 0.6614173228346457
            },
            {
              "number": 7,
              "time": 4.703999999999986,
              "value": 0.6692913385826772
            },
            {
              "number": 7,
              "time": 4.711999999999986,
              "value": 0.6771653543307087
            },
            {
              "number": 7,
              "time": 4.715999999999986,
              "value": 0.6850393700787402
            },
            {
              "number": 7,
              "time": 4.723999999999986,
              "value": 0.6929133858267716
            },
            {
              "number": 7,
              "time": 4.7279999999999855,
              "value": 0.7007874015748031
            },
            {
              "number": 7,
              "time": 4.7359999999999856,
              "value": 0.7086614173228346
            },
            {
              "number": 7,
              "time": 4.739999999999985,
              "value": 0.7165354330708661
            },
            {
              "number": 7,
              "time": 4.747999999999985,
              "value": 0.7244094488188977
            },
            {
              "number": 7,
              "time": 4.751999999999985,
              "value": 0.7322834645669292
            },
            {
              "number": 7,
              "time": 4.759999999999985,
              "value": 0.7401574803149606
            },
            {
              "number": 7,
              "time": 4.763999999999984,
              "value": 0.7480314960629921
            },
            {
              "number": 7,
              "time": 4.771999999999984,
              "value": 0.7559055118110236
            },
            {
              "number": 7,
              "time": 4.775999999999984,
              "value": 0.7637795275590551
            },
            {
              "number": 7,
              "time": 4.783999999999984,
              "value": 0.7716535433070866
            },
            {
              "number": 7,
              "time": 4.787999999999983,
              "value": 0.7795275590551181
            },
            {
              "number": 7,
              "time": 4.795999999999983,
              "value": 0.7874015748031497
            },
            {
              "number": 7,
              "time": 5.487999999999982,
              "value": 0.6299212598425197
            },
            {
              "number": 7,
              "time": 10.079999999999973,
              "value": 0.47244094488188976
            },
            {
              "number": 7,
              "time": 10.087999999999973,
              "value": 0.48031496062992124
            },
            {
              "number": 7,
              "time": 10.099999999999973,
              "value": 0.4881889763779528
            },
            {
              "number": 7,
              "time": 10.111999999999973,
              "value": 0.49606299212598426
            },
            {
              "number": 7,
              "time": 10.123999999999972,
              "value": 0.5039370078740157
            },
            {
              "number": 7,
              "time": 10.135999999999973,
              "value": 0.5118110236220472
            },
            {
              "number": 7,
              "time": 10.147999999999971,
              "value": 0.5196850393700787
            },
            {
              "number": 7,
              "time": 10.159999999999972,
              "value": 0.5275590551181102
            },
            {
              "number": 7,
              "time": 10.171999999999972,
              "value": 0.5354330708661418
            },
            {
              "number": 7,
              "time": 10.18399999999997,
              "value": 0.5433070866141733
            },
            {
              "number": 7,
              "time": 10.195999999999971,
              "value": 0.5511811023622047
            },
            {
              "number": 7,
              "time": 10.20799999999997,
              "value": 0.5590551181102362
            },
            {
              "number": 7,
              "time": 10.21999999999997,
              "value": 0.5669291338582677
            },
            {
              "number": 7,
              "time": 10.231999999999971,
              "value": 0.5748031496062992
            },
            {
              "number": 7,
              "time": 10.24399999999997,
              "value": 0.5826771653543307
            },
            {
              "number": 7,
              "time": 10.25599999999997,
              "value": 0.5905511811023622
            },
            {
              "number": 7,
              "time": 10.267999999999969,
              "value": 0.5984251968503937
            },
            {
              "number": 7,
              "time": 10.279999999999967,
              "value": 0.6062992125984252
            },
            {
              "number": 7,
              "time": 10.291999999999968,
              "value": 0.6141732283464567
            },
            {
              "number": 7,
              "time": 10.303999999999967,
              "value": 0.6220472440944882
            },
            {
              "number": 7,
              "time": 10.315999999999967,
              "value": 0.6299212598425197
            },
            {
              "number": 7,
              "time": 10.327999999999966,
              "value": 0.6377952755905512
            },
            {
              "number": 7,
              "time": 10.339999999999966,
              "value": 0.6456692913385826
            },
            {
              "number": 7,
              "time": 10.351999999999967,
              "value": 0.6535433070866141
            },
            {
              "number": 7,
              "time": 10.363999999999965,
              "value": 0.6614173228346457
            },
            {
              "number": 7,
              "time": 10.375999999999966,
              "value": 0.6692913385826772
            },
            {
              "number": 7,
              "time": 10.387999999999964,
              "value": 0.6771653543307087
            },
            {
              "number": 7,
              "time": 10.399999999999965,
              "value": 0.6850393700787402
            },
            {
              "number": 7,
              "time": 10.411999999999965,
              "value": 0.6929133858267716
            },
            {
              "number": 7,
              "time": 10.423999999999964,
              "value": 0.7007874015748031
            },
            {
              "number": 7,
              "time": 10.435999999999964,
              "value": 0.7086614173228346
            },
            {
              "number": 7,
              "time": 10.447999999999963,
              "value": 0.7165354330708661
            },
            {
              "number": 7,
              "time": 10.459999999999964,
              "value": 0.7244094488188977
            },
            {
              "number": 7,
              "time": 10.471999999999964,
              "value": 0.7322834645669292
            },
            {
              "number": 7,
              "time": 10.483999999999963,
              "value": 0.7401574803149606
            },
            {
              "number": 7,
              "time": 10.495999999999963,
              "value": 0.7480314960629921
            },
            {
              "number": 7,
              "time": 10.507999999999962,
              "value": 0.7559055118110236
            },
            {
              "number": 7,
              "time": 10.519999999999962,
              "value": 0.7637795275590551
            },
            {
              "number": 7,
              "time": 10.531999999999963,
              "value": 0.7716535433070866
            },
            {
              "number": 7,
              "time": 10.543999999999961,
              "value": 0.7795275590551181
            },
            {
              "number": 7,
              "time": 10.555999999999962,
              "value": 0.7874015748031497
            },
            {
              "number": 7,
              "time": 11.999999999999961,
              "value": 0.6299212598425197
            },
            {
              "number": 7,
              "time": 12.479999999999961,
              "value": 0.6299212598425197
            },
            {
              "number": 7,
              "time": 12.48799999999996,
              "value": 0.6220472440944882
            },
            {
              "number": 7,
              "time": 12.49599999999996,
              "value": 0.6141732283464567
            },
            {
              "number": 7,
              "time": 12.503999999999959,
              "value": 0.6062992125984252
            },
            {
              "number": 7,
              "time": 12.511999999999958,
              "value": 0.5984251968503937
            },
            {
              "number": 7,
              "time": 12.523999999999957,
              "value": 0.5905511811023622
            },
            {
              "number": 7,
              "time": 12.531999999999956,
              "value": 0.5826771653543307
            },
            {
              "number": 7,
              "time": 12.539999999999955,
              "value": 0.5748031496062992
            },
            {
              "number": 7,
              "time": 12.547999999999954,
              "value": 0.5669291338582677
            },
            {
              "number": 7,
              "time": 12.559999999999954,
              "value": 0.5590551181102362
            },
            {
              "number": 7,
              "time": 12.567999999999953,
              "value": 0.5511811023622047
            },
            {
              "number": 7,
              "time": 12.575999999999953,
              "value": 0.5433070866141733
            },
            {
              "number": 7,
              "time": 12.583999999999952,
              "value": 0.5354330708661418
            },
            {
              "number": 7,
              "time": 12.595999999999952,
              "value": 0.5275590551181102
            },
            {
              "number": 7,
              "time": 12.603999999999951,
              "value": 0.5196850393700787
            },
            {
              "number": 7,
              "time": 12.61199999999995,
              "value": 0.5118110236220472
            },
            {
              "number": 7,
              "time": 12.61999999999995,
              "value": 0.5039370078740157
            },
            {
              "number": 7,
              "time": 12.63199999999995,
              "value": 0.49606299212598426
            },
            {
              "number": 7,
              "time": 12.639999999999949,
              "value": 0.4881889763779528
            },
            {
              "number": 7,
              "time": 12.647999999999948,
              "value": 0.48031496062992124
            },
            {
              "number": 7,
              "time": 12.655999999999947,
              "value": 0.47244094488188976
            },
            {
              "number": 7,
              "time": 12.663999999999946,
              "value": 0.4645669291338583
            },
            {
              "number": 7,
              "time": 12.675999999999947,
              "value": 0.4566929133858268
            },
            {
              "number": 7,
              "time": 12.683999999999946,
              "value": 0.44881889763779526
            },
            {
              "number": 7,
              "time": 12.691999999999945,
              "value": 0.4409448818897638
            },
            {
              "number": 7,
              "time": 12.699999999999944,
              "value": 0.4330708661417323
            },
            {
              "number": 7,
              "time": 12.711999999999945,
              "value": 0.4251968503937008
            },
            {
              "number": 7,
              "time": 12.719999999999944,
              "value": 0.41732283464566927
            },
            {
              "number": 7,
              "time": 12.727999999999943,
              "value": 0.4094488188976378
            },
            {
              "number": 7,
              "time": 12.735999999999942,
              "value": 0.4015748031496063
            },
            {
              "number": 7,
              "time": 12.747999999999942,
              "value": 0.3937007874015748
            },
            {
              "number": 7,
              "time": 12.755999999999942,
              "value": 0.3858267716535433
            },
            {
              "number": 7,
              "time": 12.76399999999994,
              "value": 0.3779527559055118
            },
            {
              "number": 7,
              "time": 12.77199999999994,
              "value": 0.3700787401574803
            },
            {
              "number": 7,
              "time": 12.783999999999939,
              "value": 0.36220472440944884
            },
            {
              "number": 7,
              "time": 12.791999999999938,
              "value": 0.3543307086614173
            },
            {
              "number": 7,
              "time": 12.799999999999937,
              "value": 0.3464566929133858
            },
            {
              "number": 7,
              "time": 12.807999999999936,
              "value": 0.33858267716535434
            },
            {
              "number": 7,
              "time": 12.819999999999935,
              "value": 0.33070866141732286
            },
            {
              "number": 7,
              "time": 12.827999999999934,
              "value": 0.3228346456692913
            },
            {
              "number": 7,
              "time": 12.835999999999933,
              "value": 0.31496062992125984
            },
            {
              "number": 7,
              "time": 12.843999999999932,
              "value": 0.30708661417322836
            },
            {
              "number": 7,
              "time": 12.851999999999931,
              "value": 0.2992125984251969
            },
            {
              "number": 7,
              "time": 12.863999999999931,
              "value": 0.29133858267716534
            },
            {
              "number": 7,
              "time": 12.87199999999993,
              "value": 0.28346456692913385
            },
            {
              "number": 7,
              "time": 12.87999999999993,
              "value": 0.2755905511811024
            },
            {
              "number": 7,
              "time": 12.887999999999929,
              "value": 0.2677165354330709
            },
            {
              "number": 7,
              "time": 12.89999999999993,
              "value": 0.25984251968503935
            },
            {
              "number": 7,
              "time": 12.907999999999928,
              "value": 0.25196850393700787
            },
            {
              "number": 7,
              "time": 12.915999999999928,
              "value": 0.2440944881889764
            },
            {
              "number": 7,
              "time": 12.923999999999927,
              "value": 0.23622047244094488
            },
            {
              "number": 7,
              "time": 12.935999999999927,
              "value": 0.2283464566929134
            },
            {
              "number": 7,
              "time": 12.943999999999926,
              "value": 0.2204724409448819
            },
            {
              "number": 7,
              "time": 12.951999999999925,
              "value": 0.2125984251968504
            },
            {
              "number": 7,
              "time": 12.959999999999924,
              "value": 0.47244094488188976
            },
            {
              "number": 7,
              "time": 13.919999999999924,
              "value": 0.6299212598425197
            },
            {
              "number": 7,
              "time": 14.399999999999924,
              "value": 0.6299212598425197
            },
            {
              "number": 7,
              "time": 14.407999999999923,
              "value": 0.6220472440944882
            },
            {
              "number": 7,
              "time": 14.415999999999922,
              "value": 0.6141732283464567
            },
            {
              "number": 7,
              "time": 14.423999999999921,
              "value": 0.6062992125984252
            },
            {
              "number": 7,
              "time": 14.43199999999992,
              "value": 0.5984251968503937
            },
            {
              "number": 7,
              "time": 14.44399999999992,
              "value": 0.5905511811023622
            },
            {
              "number": 7,
              "time": 14.451999999999918,
              "value": 0.5826771653543307
            },
            {
              "number": 7,
              "time": 14.459999999999917,
              "value": 0.5748031496062992
            },
            {
              "number": 7,
              "time": 14.467999999999916,
              "value": 0.5669291338582677
            },
            {
              "number": 7,
              "time": 14.479999999999917,
              "value": 0.5590551181102362
            },
            {
              "number": 7,
              "time": 14.487999999999916,
              "value": 0.5511811023622047
            },
            {
              "number": 7,
              "time": 14.495999999999915,
              "value": 0.5433070866141733
            },
            {
              "number": 7,
              "time": 14.503999999999914,
              "value": 0.5354330708661418
            },
            {
              "number": 7,
              "time": 14.515999999999915,
              "value": 0.5275590551181102
            },
            {
              "number": 7,
              "time": 14.523999999999914,
              "value": 0.5196850393700787
            },
            {
              "number": 7,
              "time": 14.531999999999913,
              "value": 0.5118110236220472
            },
            {
              "number": 7,
              "time": 14.539999999999912,
              "value": 0.5039370078740157
            },
            {
              "number": 7,
              "time": 14.551999999999913,
              "value": 0.49606299212598426
            },
            {
              "number": 7,
              "time": 14.559999999999912,
              "value": 0.4881889763779528
            },
            {
              "number": 7,
              "time": 14.56799999999991,
              "value": 0.48031496062992124
            },
            {
              "number": 7,
              "time": 14.57599999999991,
              "value": 0.47244094488188976
            },
            {
              "number": 7,
              "time": 14.583999999999909,
              "value": 0.4645669291338583
            },
            {
              "number": 7,
              "time": 14.59599999999991,
              "value": 0.4566929133858268
            },
            {
              "number": 7,
              "time": 14.603999999999909,
              "value": 0.44881889763779526
            },
            {
              "number": 7,
              "time": 14.611999999999908,
              "value": 0.4409448818897638
            },
            {
              "number": 7,
              "time": 14.619999999999907,
              "value": 0.4330708661417323
            },
            {
              "number": 7,
              "time": 14.631999999999907,
              "value": 0.4251968503937008
            },
            {
              "number": 7,
              "time": 14.639999999999906,
              "value": 0.41732283464566927
            },
            {
              "number": 7,
              "time": 14.647999999999906,
              "value": 0.4094488188976378
            },
            {
              "number": 7,
              "time": 14.655999999999905,
              "value": 0.4015748031496063
            },
            {
              "number": 7,
              "time": 14.667999999999905,
              "value": 0.3937007874015748
            },
            {
              "number": 7,
              "time": 14.675999999999904,
              "value": 0.3858267716535433
            },
            {
              "number": 7,
              "time": 14.683999999999903,
              "value": 0.3779527559055118
            },
            {
              "number": 7,
              "time": 14.691999999999902,
              "value": 0.3700787401574803
            },
            {
              "number": 7,
              "time": 14.703999999999901,
              "value": 0.36220472440944884
            },
            {
              "number": 7,
              "time": 14.7119999999999,
              "value": 0.3543307086614173
            },
            {
              "number": 7,
              "time": 14.7199999999999,
              "value": 0.3464566929133858
            },
            {
              "number": 7,
              "time": 14.727999999999899,
              "value": 0.33858267716535434
            },
            {
              "number": 7,
              "time": 14.739999999999897,
              "value": 0.33070866141732286
            },
            {
              "number": 7,
              "time": 14.747999999999896,
              "value": 0.3228346456692913
            },
            {
              "number": 7,
              "time": 14.755999999999895,
              "value": 0.31496062992125984
            },
            {
              "number": 7,
              "time": 14.763999999999895,
              "value": 0.30708661417322836
            },
            {
              "number": 7,
              "time": 14.771999999999894,
              "value": 0.2992125984251969
            },
            {
              "number": 7,
              "time": 14.783999999999894,
              "value": 0.29133858267716534
            },
            {
              "number": 7,
              "time": 14.791999999999893,
              "value": 0.28346456692913385
            },
            {
              "number": 7,
              "time": 14.799999999999892,
              "value": 0.2755905511811024
            },
            {
              "number": 7,
              "time": 14.807999999999891,
              "value": 0.2677165354330709
            },
            {
              "number": 7,
              "time": 14.819999999999892,
              "value": 0.25984251968503935
            },
            {
              "number": 7,
              "time": 14.827999999999891,
              "value": 0.25196850393700787
            },
            {
              "number": 7,
              "time": 14.83599999999989,
              "value": 0.2440944881889764
            },
            {
              "number": 7,
              "time": 14.84399999999989,
              "value": 0.23622047244094488
            },
            {
              "number": 7,
              "time": 14.85599999999989,
              "value": 0.2283464566929134
            },
            {
              "number": 7,
              "time": 14.863999999999889,
              "value": 0.2204724409448819
            },
            {
              "number": 7,
              "time": 14.871999999999888,
              "value": 0.2125984251968504
            },
            {
              "number": 7,
              "time": 14.879999999999887,
              "value": 0.47244094488188976
            },
            {
              "number": 7,
              "time": 16.319999999999887,
              "value": 0.6299212598425197
            },
            {
              "number": 7,
              "time": 16.339999999999886,
              "value": 0.6220472440944882
            },
            {
              "number": 7,
              "time": 16.363999999999884,
              "value": 0.6141732283464567
            },
            {
              "number": 7,
              "time": 16.387999999999884,
              "value": 0.6062992125984252
            },
            {
              "number": 7,
              "time": 16.411999999999885,
              "value": 0.5984251968503937
            },
            {
              "number": 7,
              "time": 16.435999999999886,
              "value": 0.5905511811023622
            },
            {
              "number": 7,
              "time": 16.459999999999887,
              "value": 0.5826771653543307
            },
            {
              "number": 7,
              "time": 16.483999999999888,
              "value": 0.5748031496062992
            },
            {
              "number": 7,
              "time": 16.50799999999989,
              "value": 0.5669291338582677
            },
            {
              "number": 7,
              "time": 16.53199999999989,
              "value": 0.5590551181102362
            },
            {
              "number": 7,
              "time": 16.55599999999989,
              "value": 0.5511811023622047
            },
            {
              "number": 7,
              "time": 16.57999999999989,
              "value": 0.5433070866141733
            },
            {
              "number": 7,
              "time": 16.603999999999893,
              "value": 0.5354330708661418
            },
            {
              "number": 7,
              "time": 16.627999999999894,
              "value": 0.5275590551181102
            },
            {
              "number": 7,
              "time": 16.651999999999894,
              "value": 0.5196850393700787
            },
            {
              "number": 7,
              "time": 16.675999999999895,
              "value": 0.5118110236220472
            },
            {
              "number": 7,
              "time": 16.699999999999896,
              "value": 0.5039370078740157
            },
            {
              "number": 7,
              "time": 16.723999999999897,
              "value": 0.49606299212598426
            },
            {
              "number": 7,
              "time": 16.747999999999898,
              "value": 0.4881889763779528
            },
            {
              "number": 7,
              "time": 16.7719999999999,
              "value": 0.48031496062992124
            },
            {
              "number": 7,
              "time": 16.7959999999999,
              "value": 0.47244094488188976
            },
            {
              "number": 7,
              "time": 16.7999999999999,
              "value": 0.47244094488188976
            },
            {
              "number": 7,
              "time": 16.8199999999999,
              "value": 0.4645669291338583
            },
            {
              "number": 7,
              "time": 16.8439999999999,
              "value": 0.4566929133858268
            },
            {
              "number": 7,
              "time": 16.867999999999903,
              "value": 0.44881889763779526
            },
            {
              "number": 7,
              "time": 16.891999999999904,
              "value": 0.4409448818897638
            },
            {
              "number": 7,
              "time": 16.915999999999904,
              "value": 0.4330708661417323
            },
            {
              "number": 7,
              "time": 16.939999999999905,
              "value": 0.4251968503937008
            },
            {
              "number": 7,
              "time": 16.963999999999906,
              "value": 0.41732283464566927
            },
            {
              "number": 7,
              "time": 16.987999999999907,
              "value": 0.4094488188976378
            },
            {
              "number": 7,
              "time": 17.011999999999908,
              "value": 0.4015748031496063
            },
            {
              "number": 7,
              "time": 17.03599999999991,
              "value": 0.3937007874015748
            },
            {
              "number": 7,
              "time": 17.05999999999991,
              "value": 0.3858267716535433
            },
            {
              "number": 7,
              "time": 17.08399999999991,
              "value": 0.3779527559055118
            },
            {
              "number": 7,
              "time": 17.10799999999991,
              "value": 0.3700787401574803
            },
            {
              "number": 7,
              "time": 17.131999999999913,
              "value": 0.36220472440944884
            },
            {
              "number": 7,
              "time": 17.155999999999914,
              "value": 0.3543307086614173
            },
            {
              "number": 7,
              "time": 17.179999999999914,
              "value": 0.3464566929133858
            },
            {
              "number": 7,
              "time": 17.203999999999915,
              "value": 0.33858267716535434
            },
            {
              "number": 7,
              "time": 17.227999999999916,
              "value": 0.33070866141732286
            },
            {
              "number": 7,
              "time": 17.251999999999917,
              "value": 0.3228346456692913
            },
            {
              "number": 7,
              "time": 17.275999999999918,
              "value": 0.31496062992125984
            }
          ]
        },
        "id": 10,
        "name": "Percussion",
        "instrumentNumber": 0,
        "instrument": "standard kit",
        "instrumentFamily": "drums",
        "channelNumber": 9,
        "isPercussion": true
      },
      {
        "startTime": 0,
        "duration": 0,
        "length": 0,
        "notes": [],
        "controlChanges": {
          "7": [
            {
              "number": 7,
              "time": 0.11499999999999999,
              "value": 0.7874015748031497
            }
          ]
        },
        "id": 11,
        "name": "Harp",
        "instrumentNumber": 46,
        "instrumentFamily": "drums",
        "channelNumber": 10,
        "isPercussion": true
      },
      {
        "startTime": 0,
        "duration": 0,
        "length": 0,
        "notes": [],
        "controlChanges": {
          "7": [
            {
              "number": 7,
              "time": 0.125,
              "value": 0.7874015748031497
            }
          ]
        },
        "id": 12,
        "name": "Flute",
        "instrumentNumber": 73,
        "instrument": "flute",
        "instrumentFamily": "pipe",
        "channelNumber": 11,
        "isPercussion": false
      }
    ]
  }